<svg width="128" height="121" viewBox="0 0 128 121" fill="none" xmlns="http://www.w3.org/2000/svg">
<path fill-rule="evenodd" clip-rule="evenodd" d="M69.6927 5L82.6569 34.9998H45.3431L58.3073 5L69.6927 5ZM74.0502 5L87.0144 34.9998H123.167L102.239 5.56934L102.238 5.56846L102.238 5.56811C102.074 5.33841 101.896 5.19389 101.742 5.11058C101.591 5.02875 101.453 4.99997 101.334 5L101.333 5H74.0502ZM123.143 38.9998H87.4503L67.4006 113.113L123.143 38.9998ZM60.5994 113.113L40.5497 38.9998H4.85713L60.5994 113.113ZM4.83294 34.9998H40.9856L53.9498 5H26.6666H26.6655C26.5468 4.99997 26.4093 5.02875 26.2578 5.11058C26.1034 5.19404 25.9249 5.33893 25.7609 5.56934L4.83294 34.9998ZM55.6784 1H26.6666C25.8669 0.999775 25.0774 1.20188 24.3565 1.59136C23.6356 1.98084 23.0018 2.54771 22.502 3.25004L1.16863 33.2505C0.396391 34.3366 -0.0165183 35.6907 0.000506151 37.0813C0.0175306 38.4719 0.463431 39.8127 1.26196 40.8744L59.9287 118.876C60.4293 119.541 61.0529 120.076 61.7561 120.443C62.4592 120.81 63.2249 121 64 121C64.7751 121 65.5408 120.81 66.2439 120.443C66.9471 120.076 67.5707 119.541 68.0713 118.876L126.738 40.8744C127.537 39.8127 127.982 38.4719 127.999 37.0813C128.017 35.6907 127.604 34.3366 126.831 33.2505L105.498 3.25004C104.998 2.54771 104.364 1.98084 103.643 1.59136C102.923 1.20188 102.133 0.999775 101.333 1H71.2576C71.1729 0.989027 71.0869 0.983401 71 0.983401L57 0.983398H55.6855L55.6784 1ZM44.6935 38.9998L64 110.366L83.3065 38.9998H44.6935Z" fill="url(#paint0_linear)"/>
<defs>
<linearGradient id="paint0_linear" x1="63.9999" y1="0.983398" x2="63.9999" y2="120.024" gradientUnits="userSpaceOnUse">
<stop stop-color="#9DA3B4"/>
<stop offset="1" stop-color="#383770"/>
</linearGradient>
</defs>
</svg>
