<svg width="234" height="199" viewBox="0 0 234 199" fill="none" xmlns="http://www.w3.org/2000/svg">
<path d="M151.228 98.5692L143.423 77.3195C143.087 76.5055 142.393 75.8747 141.571 75.6361C140.786 75.4075 139.976 75.5012 139.322 75.897L101.902 107.397L80.0451 113.74C75.9562 115.022 73.0979 118.551 72.5734 122.963L70.8696 124.372C66.4726 127.711 64.9321 133.773 67.0344 139.463C69.0865 145.146 74.3627 149.205 80.106 149.518L81.6609 149.719C83.7284 152.244 86.567 153.982 89.6215 154.594L103.858 175.545C107.708 181.25 115.05 183.144 120.257 179.776C122.357 178.417 123.879 176.329 124.581 173.842C125.515 170.29 124.785 166.328 122.592 163.054L112.854 148.636L116.645 147.536L167.898 153.694L168.765 153.704C169.236 153.576 169.652 153.32 169.973 152.961C170.497 152.393 170.657 151.552 170.394 150.749L162.155 128.319C169.915 126.067 173.76 117.581 170.742 109.366C167.724 101.151 158.988 96.3174 151.228 98.5692ZM79.2637 144.536C75.8199 144.139 72.7824 141.549 71.7181 138.104C70.2901 134.764 71.0233 131.081 73.5397 128.953L79.2637 144.536ZM119.928 171.927C119.343 174.034 117.761 175.613 115.684 176.163C112.717 176.919 109.412 175.548 107.532 172.781L94.7886 153.878L108.282 149.963L118.677 165.496C120.027 167.429 120.489 169.802 119.928 171.927ZM113.35 143.266L93.054 149.156C89.7439 150.334 85.8439 148.43 84.3432 144.903C84.2758 144.745 84.2139 144.584 84.1579 144.422L78.0003 127.659C76.4391 123.785 78.1279 119.669 81.7722 118.465C81.7748 118.464 81.777 118.463 81.7796 118.462L102.075 112.572L113.35 143.266ZM164.633 148.502L118.244 143.152L106.362 110.806L140.263 82.1555L164.633 148.502ZM160.421 123.596L152.963 103.291C158.26 101.754 164.223 105.054 166.282 110.661C168.341 116.268 165.717 122.059 160.421 123.596Z" fill="#8C75FA"/>
<path d="M35.0822 121.024C35.1065 119.119 36.6462 117.564 38.5213 117.55L38.6221 117.549C40.4972 117.535 41.9976 119.067 41.9733 120.972C41.949 122.876 40.4093 124.431 38.5342 124.445L38.4333 124.446C36.5583 124.46 35.0579 122.928 35.0822 121.024Z" stroke="#8C75FA" stroke-width="3"/>
<path d="M177.082 42.0236C177.106 40.1193 178.646 38.564 180.521 38.5498L180.622 38.549C182.497 38.5348 183.998 40.0671 183.973 41.9715C183.949 43.8759 182.409 45.4312 180.534 45.4454L180.433 45.4461C178.558 45.4603 177.058 43.928 177.082 42.0236Z" stroke="#8C75FA" stroke-width="3"/>
<path d="M64.8716 44.5227L57.1925 43.9248L54.2222 37.4246C54.0143 36.9694 53.3103 36.9747 53.0907 37.4331L49.9536 43.9794L42.2578 44.6933C41.7189 44.7433 41.4935 45.3608 41.8954 45.686L47.6357 50.3298L45.8497 57.2712C45.7246 57.7573 46.2893 58.1336 46.7573 57.8762L53.4421 54.1999L60.0341 57.776C60.4956 58.0264 61.07 57.6415 60.9574 57.1573L59.3485 50.2414L65.2086 45.5101C65.619 45.1788 65.4093 44.5646 64.8716 44.5227Z" stroke="#8C75FA" stroke-width="3"/>
<path d="M175.091 70.0132L169.972 69.6146L167.992 65.2811C167.853 64.9777 167.384 64.9812 167.237 65.2868L165.146 69.651L160.015 70.1269C159.656 70.1602 159.506 70.5719 159.774 70.7887L163.601 73.8846L162.41 78.5122C162.327 78.8362 162.703 79.0871 163.015 78.9155L167.471 76.4646L171.866 78.8487C172.174 79.0157 172.557 78.759 172.482 78.4362L171.409 73.8256L175.316 70.6714C175.589 70.4506 175.45 70.0411 175.091 70.0132Z" stroke="#8C75FA" stroke-width="2.5"/>
<path d="M81.0912 91.0132L75.9718 90.6146L73.9916 86.2811C73.8529 85.9777 73.3836 85.9812 73.2372 86.2868L71.1458 90.651L66.0153 91.1269C65.656 91.1602 65.5057 91.5719 65.7737 91.7887L69.6006 94.8846L68.4099 99.5122C68.3265 99.8362 68.7029 100.087 69.015 99.9155L73.4715 97.4646L77.8661 99.8487C78.1738 100.016 78.5568 99.759 78.4817 99.4362L77.4091 94.8256L81.3159 91.6714C81.5894 91.4506 81.4496 91.0411 81.0912 91.0132Z" stroke="#8C75FA" stroke-width="2.5"/>
<path d="M127.091 49.0132L121.972 48.6146L119.992 44.2811C119.853 43.9777 119.384 43.9812 119.237 44.2868L117.146 48.651L112.015 49.1269C111.656 49.1602 111.506 49.5719 111.774 49.7887L115.601 52.8846L114.41 57.5122C114.327 57.8362 114.703 58.0871 115.015 57.9155L119.471 55.4646L123.866 57.8487C124.174 58.0157 124.557 57.759 124.482 57.4362L123.409 52.8256L127.316 49.6714C127.589 49.4506 127.45 49.0411 127.091 49.0132Z" stroke="#8C75FA" stroke-width="2.5"/>
</svg>
