<svg  xmlns="http://www.w3.org/2000/svg">
  <symbol fill="none" id="top" viewBox="0 0 22 22">
    <path d="M9.99803 2.3973C10.5148 1.74327 11.5049 1.73768 12.029 2.38585L18.5081 10.3987C18.9003 10.8838 18.8927 11.579 18.49 12.0554L12.0106 19.7203C11.4874 20.3392 10.5316 20.3337 10.0155 19.7089L3.68456 12.0444C3.29437 11.572 3.28698 10.8913 3.66681 10.4106L9.99803 2.3973Z" stroke-width="1.4"/>
    <path d="M3.15326 11.3474H19.2282" stroke-width="1.4"/>
    <path fill="inherit" d="M11 20.1111L10.3324 20.3218C10.4244 20.6131 10.6946 20.8111 11 20.8111C11.3053 20.8111 11.5755 20.6131 11.6675 20.3218L11 20.1111ZM11.6675 19.9003L8.86746 11.0336L7.53244 11.4552L10.3324 20.3218L11.6675 19.9003ZM13.1324 11.0336L10.3324 19.9003L11.6675 20.3218L14.4675 11.4552L13.1324 11.0336Z"/>
    <path fill="inherit" d="M11 2.37772L11.6676 2.16693C11.5756 1.87571 11.3054 1.67772 11 1.67772C10.6947 1.67772 10.4245 1.87571 10.3325 2.16693L11 2.37772ZM10.3325 2.58851L13.1325 11.4552L14.4676 11.0336L11.6676 2.16693L10.3325 2.58851ZM8.86756 11.4552L11.6676 2.58851L10.3325 2.16693L7.53254 11.0336L8.86756 11.4552Z"/>
  </symbol>

  <symbol id="star" viewBox="0 0 612 612">
    <path d="M612,234.167L400.898,201.96L306,0l-94.898,201.96L0,234.167l152.713,156.366L116.567,612L306,507.387L495.434,612
    l-36.166-221.468L612,234.167z M306,463.017l-142.08,79.655l27.119-160.727L68.716,257.078l165.45-21.516L306,82.467
    l71.184,153.096l164.896,23.39L420.96,382.538l25.322,160.727L306,463.017z"/>
  </symbol>

  <symbol fill="none" id="roulette" viewBox="0 0 20 20">
    <circle cx="10" cy="10" r="9.3" stroke-width="1.4"/>
    <circle cx="10" cy="10" r="6.3" stroke-width="1.4"/>
    <circle cx="10" cy="10" r="0.8" stroke-width="1.4"/>
    <path d="M3.25 10L0.5 10" stroke-width="1.4"/>
    <path d="M19.5 10L16.75 10" stroke-width="1.4"/>
    <path d="M10 3.5L10 0.5" stroke-width="1.4"/>
    <path d="M11.5 10L12.5 10" stroke-width="1.4" stroke-linecap="round" stroke-linejoin="round"/>
    <path d="M7.5 10L8.5 10" stroke-width="1.4" stroke-linecap="round" stroke-linejoin="round"/>
    <path d="M10 11.5L10 12.5" stroke-width="1.4" stroke-linecap="round" stroke-linejoin="round"/>
    <path d="M10 7.5L10 8.5" stroke-width="1.4" stroke-linecap="round" stroke-linejoin="round"/>
    <path d="M10 19.75L10 16.75" stroke-width="1.4"/>
    <path d="M15 5.25L17.1447 3.10528" stroke-width="1.4"/>
    <path d="M3.35547 16.8945L5.25 15" stroke-width="1.4"/>
    <path d="M14.75 14.75L17.1447 16.8947" stroke-width="1.4"/>
    <path d="M3.35547 3.10547L5.25 5" stroke-width="1.4"/>
  </symbol>

  <symbol fill="none" id="cards" viewBox="0 0 20 22">
    <path d="M0.7 7.31836C0.7 6.0481 1.72974 5.01836 3 5.01836H10.3407C11.611 5.01836 12.6407 6.04811 12.6407 7.31836V18.003C12.6407 19.2732 11.611 20.303 10.3407 20.303H3C1.72975 20.303 0.7 19.2732 0.7 18.003V7.31836Z" stroke-width="1.4"/>
    <path d="M12.5002 19.5V19.5C13.6218 19.9596 14.8996 19.3285 15.218 18.1577L18.2128 7.14624C18.6476 5.54746 17.7014 3.90856 16.0994 3.48565L9.60833 1.77206C8.0343 1.35653 6.40678 2.26969 5.94076 3.82983L5.64335 4.82549" stroke-width="1.4"/>
    <path d="M8.9502 12.4041L8.95176 12.4057C9.42014 12.8647 9.41167 13.5393 8.95622 13.9747C8.7491 14.1709 8.43739 14.3 8.05365 14.3C7.68945 14.3 7.38965 14.1838 7.19028 14.0119L6.95898 13.8122L6.5106 13.4251L6.05465 13.8033L5.82192 13.9963C5.82166 13.9965 5.82139 13.9968 5.82113 13.997C5.31923 14.4096 4.49456 14.3797 4.04627 13.9785C3.58664 13.5346 3.58244 12.8594 4.0499 12.4013L4.0499 12.4013L4.05206 12.3992L6.49603 9.98369L8.9502 12.4041Z" stroke-width="1.4"/>
    <path d="M6.49814 14.795L6.78892 15.2992L6.20896 15.2994L6.49814 14.795Z" stroke-width="1.4"/>
  </symbol>

  <symbol fill="none" id="video" viewBox="0 0 26 20">
    <path d="M22 0.8C23.7673 0.8 25.2 2.23269 25.2 4L25.2 16C25.2 17.7673 23.7673 19.2 22 19.2L4 19.2C2.23269 19.2 0.799998 17.7673 0.799999 16L0.799999 4C0.799999 2.23269 2.23269 0.799999 4 0.799999L22 0.8Z" stroke-width="1.6"/>
    <path d="M15.9877 9.73437C16.2018 9.84674 16.2018 10.1533 15.9877 10.2656L10.8894 12.9415C10.6897 13.0464 10.45 12.9015 10.45 12.6759L10.45 7.32411C10.45 7.09851 10.6897 6.95363 10.8894 7.05847L15.9877 9.73437Z" stroke-width="1.4"/>
  </symbol>

  <symbol fill="none" id="slots" viewBox="0 0 31 20">
    <path d="M0.7 6C0.7 4.72975 1.72975 3.7 3 3.7H22C23.2703 3.7 24.3 4.72975 24.3 6V14C24.3 15.2703 23.2703 16.3 22 16.3H3C1.72975 16.3 0.7 15.2703 0.7 14V6Z" stroke-width="1.4"/>
    <path d="M3.7 3C3.7 1.72974 4.72974 0.7 6 0.7H19C20.2703 0.7 21.3 1.72974 21.3 3V3.68572H3.7V3Z" stroke-width="1.4"/>
    <path d="M21.2822 16.9999C21.2822 18.2702 20.2524 19.3 18.9822 19.3L6.00002 19.3C4.72976 19.3 3.70001 18.2703 3.70001 17L3.70001 16.3375L21.2821 16.3375L21.2822 16.9999Z" stroke-width="1.4"/>
    <path d="M27.9239 4.65405L27.9239 8.51446L27.9239 10.4107C27.9239 11.5153 27.0284 12.4107 25.9239 12.4107L24.8212 12.4107" stroke-width="1.4" stroke-linecap="round" stroke-linejoin="round"/>
    <circle cx="27.9245" cy="2.48214" r="1.78214" stroke-width="1.4"/>
    <path d="M8.68714 8.80244L6.84752 12.4108H5.64364L7.56105 8.79094L4.96393 8.80244V8.06702H8.68714V8.80244Z" />
    <path d="M14.2721 8.80244L12.4324 12.4108H11.2286L13.146 8.79094L10.5489 8.80244V8.06702H14.2721V8.80244Z" />
    <path d="M19.857 8.80244L18.0174 12.4108H16.8135L18.7309 8.79094L16.1338 8.80244V8.06702H19.857V8.80244Z" />
  </symbol>

  <symbol id="ssl" viewBox="0 0 47 21">
    <g opacity="0.5">
      <path fill-rule="evenodd" clip-rule="evenodd" d="M5.04078 9.8747C5.04078 8.95805 5.77911 8.21497 6.6899 8.21497H6.81668C6.81669 7.37412 6.91775 6.28609 7.44208 5.38097C8.0192 4.38471 9.03279 3.74023 10.5151 3.74023C11.9918 3.74023 13.022 4.378 13.6287 5.35458C14.1892 6.25669 14.3264 7.34568 14.3264 8.21497H14.4531C15.3639 8.21497 16.1023 8.95806 16.1023 9.8747V14.9047C16.1023 15.8214 15.3639 16.5644 14.4531 16.5644H6.6899C5.77911 16.5644 5.04078 15.8214 5.04078 14.9047V9.8747ZM12.3474 8.21497H8.79563C8.79563 7.4745 8.89739 6.82309 9.15169 6.3841C9.35322 6.03621 9.69409 5.7319 10.5151 5.7319C11.3417 5.7319 11.7224 6.04293 11.9508 6.41049C12.2254 6.85249 12.3474 7.50294 12.3474 8.21497ZM13.237 10.8786L12.7516 10.4007C12.6851 10.3352 12.6043 10.3024 12.5091 10.3024C12.4139 10.3024 12.3329 10.3352 12.2664 10.4007L9.92562 12.7097L8.8767 11.6729C8.80997 11.6073 8.72911 11.5745 8.63396 11.5745C8.53881 11.5745 8.45795 11.6073 8.39127 11.6729L7.90601 12.1507C7.8395 12.2164 7.80616 12.296 7.80616 12.3898C7.80616 12.4835 7.8395 12.5633 7.90601 12.6288L9.6831 14.3788C9.74961 14.4445 9.83047 14.4771 9.92562 14.4771C10.0208 14.4771 10.1016 14.4445 10.1683 14.3788L13.237 11.3567C13.3036 11.291 13.3369 11.2114 13.3369 11.1177C13.3369 11.024 13.3036 10.9443 13.237 10.8786Z" fill="white"/>
      <path fill-rule="evenodd" clip-rule="evenodd" d="M0 3.31946C0 1.48617 1.47668 0 3.29825 0H18.1404C19.9619 0 21.4386 1.48617 21.4386 3.31946V17.4272C21.4386 19.2604 19.9619 20.7466 18.1404 20.7466H3.29825C1.47667 20.7466 0 19.2604 0 17.4272V3.31946ZM3.29825 2.15765H18.1404C18.7779 2.15765 19.2947 2.67781 19.2947 3.31946V17.4272C19.2947 18.0688 18.7779 18.589 18.1404 18.589H3.29825C2.6607 18.589 2.14386 18.0688 2.14386 17.4272V3.31946C2.14386 2.67781 2.6607 2.15765 3.29825 2.15765Z" fill="white"/>
      <path d="M27.2337 11.411C27.7493 11.6292 28.3671 11.7384 29.0874 11.7384C29.7545 11.7384 30.3458 11.637 30.8614 11.4343C31.3845 11.2239 31.7901 10.9276 32.0782 10.5457C32.3738 10.1559 32.5217 9.69989 32.5217 9.17761C32.5217 8.7021 32.4231 8.30843 32.226 7.99662C32.0289 7.67702 31.7181 7.41977 31.2935 7.22489C30.8765 7.02221 30.3155 6.85461 29.6105 6.72209C29.1783 6.62855 28.8448 6.53891 28.6097 6.45316C28.3823 6.35961 28.2155 6.25828 28.1094 6.14914C28.0108 6.04001 27.9615 5.90359 27.9615 5.73989C27.9615 5.49824 28.0525 5.31505 28.2345 5.19032C28.4164 5.0656 28.678 5.00324 29.0191 5.00324C29.3148 5.00324 29.5612 5.0656 29.7583 5.19032C29.963 5.31505 30.0881 5.46706 30.1336 5.64635C30.1791 5.7165 30.2283 5.76717 30.2814 5.79835C30.3421 5.82954 30.4179 5.84513 30.5088 5.84513H32.0099C32.0782 5.84513 32.135 5.82174 32.1805 5.77497C32.226 5.7282 32.2487 5.66973 32.2487 5.59958C32.2336 5.25658 32.0971 4.90969 31.8393 4.55891C31.5892 4.20032 31.2215 3.9041 30.7363 3.67025C30.2511 3.43639 29.6787 3.31946 29.0191 3.31946C28.3823 3.31946 27.8251 3.42469 27.3475 3.63517C26.8698 3.84564 26.5022 4.13796 26.2444 4.51213C25.9866 4.88631 25.8577 5.31115 25.8577 5.78666C25.8577 6.48824 26.0814 7.03001 26.5287 7.41198C26.9836 7.78615 27.6659 8.07068 28.5756 8.26556C29.0684 8.37469 29.4399 8.47213 29.6901 8.55788C29.9402 8.64363 30.1222 8.74107 30.2359 8.8502C30.3572 8.95934 30.4179 9.09965 30.4179 9.27115C30.4179 9.5128 30.3041 9.70379 30.0767 9.8441C29.8493 9.98442 29.5195 10.0546 29.0874 10.0546C28.7235 10.0546 28.4316 9.98831 28.2117 9.85579C27.9919 9.72328 27.8327 9.55568 27.7341 9.353C27.6735 9.28284 27.6128 9.23217 27.5522 9.20099C27.4991 9.16201 27.4271 9.14253 27.3361 9.14253H25.9032C25.835 9.14253 25.7744 9.16981 25.7213 9.22438C25.6758 9.27115 25.6531 9.32572 25.6531 9.38808C25.6682 9.80902 25.8047 10.1988 26.0624 10.5574C26.3278 10.9082 26.7182 11.1927 27.2337 11.411Z" fill="white"/>
      <path d="M34.7743 11.411C35.2898 11.6292 35.9077 11.7384 36.6279 11.7384C37.295 11.7384 37.8864 11.637 38.4019 11.4343C38.925 11.2239 39.3306 10.9276 39.6187 10.5457C39.9144 10.1559 40.0622 9.69989 40.0622 9.17761C40.0622 8.7021 39.9636 8.30843 39.7665 7.99662C39.5694 7.67702 39.2586 7.41977 38.834 7.22489C38.4171 7.02221 37.856 6.85461 37.151 6.72209C36.7189 6.62855 36.3853 6.53891 36.1503 6.45316C35.9228 6.35961 35.756 6.25828 35.6499 6.14914C35.5513 6.04001 35.5021 5.90359 35.5021 5.73989C35.5021 5.49824 35.593 5.31505 35.775 5.19032C35.9569 5.0656 36.2185 5.00324 36.5597 5.00324C36.8553 5.00324 37.1017 5.0656 37.2988 5.19032C37.5035 5.31505 37.6286 5.46706 37.6741 5.64635C37.7196 5.7165 37.7689 5.76717 37.8219 5.79835C37.8826 5.82954 37.9584 5.84513 38.0494 5.84513H39.5504C39.6187 5.84513 39.6755 5.82174 39.721 5.77497C39.7665 5.7282 39.7893 5.66973 39.7893 5.59958C39.7741 5.25658 39.6376 4.90969 39.3799 4.55891C39.1297 4.20032 38.762 3.9041 38.2768 3.67025C37.7916 3.43639 37.2192 3.31946 36.5597 3.31946C35.9228 3.31946 35.3656 3.42469 34.888 3.63517C34.4104 3.84564 34.0427 4.13796 33.7849 4.51213C33.5272 4.88631 33.3983 5.31115 33.3983 5.78666C33.3983 6.48824 33.6219 7.03001 34.0692 7.41198C34.5241 7.78615 35.2064 8.07068 36.1161 8.26556C36.6089 8.37469 36.9804 8.47213 37.2306 8.55788C37.4808 8.64363 37.6627 8.74107 37.7764 8.8502C37.8977 8.95934 37.9584 9.09965 37.9584 9.27115C37.9584 9.5128 37.8447 9.70379 37.6172 9.8441C37.3898 9.98442 37.06 10.0546 36.6279 10.0546C36.264 10.0546 35.9721 9.98831 35.7522 9.85579C35.5324 9.72328 35.3732 9.55568 35.2746 9.353C35.214 9.28284 35.1533 9.23217 35.0927 9.20099C35.0396 9.16201 34.9676 9.14253 34.8766 9.14253H33.4438C33.3755 9.14253 33.3149 9.16981 33.2618 9.22438C33.2163 9.27115 33.1936 9.32572 33.1936 9.38808C33.2087 9.80902 33.3452 10.1988 33.603 10.5574C33.8683 10.9082 34.2587 11.1927 34.7743 11.411Z" fill="white"/>
      <path d="M41.4846 11.6214C41.4088 11.6214 41.3406 11.5941 41.28 11.5396C41.2269 11.4772 41.2004 11.4071 41.2004 11.3291V3.72871C41.2004 3.64296 41.2269 3.5728 41.28 3.51824C41.3406 3.46367 41.4088 3.43639 41.4846 3.43639H42.9857C43.0691 3.43639 43.1374 3.46367 43.1904 3.51824C43.2435 3.5728 43.27 3.64296 43.27 3.72871V9.85579H46.7157C46.7991 9.85579 46.8673 9.88698 46.9204 9.94934C46.9735 10.0039 47 10.0741 47 10.1598V11.3291C47 11.4071 46.9735 11.4772 46.9204 11.5396C46.8673 11.5941 46.7991 11.6214 46.7157 11.6214H41.4846Z" fill="white"/>
      <path d="M27.0966 18.257C26.782 18.257 26.5091 18.2063 26.2778 18.105C26.0504 18.0037 25.876 17.8711 25.7547 17.7074C25.6334 17.5398 25.569 17.3606 25.5614 17.1696C25.5614 17.1384 25.5728 17.1111 25.5955 17.0877C25.6221 17.0604 25.6524 17.0468 25.6865 17.0468H25.9765C26.0485 17.0468 26.0978 17.0858 26.1243 17.1637C26.1584 17.3274 26.2551 17.4677 26.4143 17.5847C26.5773 17.7016 26.8047 17.7601 27.0966 17.7601C27.4112 17.7601 27.6481 17.7035 27.8073 17.5905C27.9666 17.4736 28.0462 17.3118 28.0462 17.1053C28.0462 16.9727 28.0064 16.8656 27.9268 16.7837C27.8509 16.7019 27.7372 16.6297 27.5856 16.5674C27.434 16.505 27.2065 16.4271 26.9033 16.3335C26.6076 16.2478 26.3726 16.1562 26.1982 16.0587C26.0239 15.9613 25.8931 15.8405 25.8059 15.6963C25.7187 15.5521 25.6751 15.3708 25.6751 15.1525C25.6751 14.9421 25.7301 14.753 25.84 14.5854C25.9537 14.4178 26.1148 14.2873 26.3233 14.1937C26.5318 14.0963 26.7801 14.0476 27.0682 14.0476C27.3638 14.0476 27.6178 14.1021 27.8301 14.2113C28.0424 14.3165 28.2035 14.451 28.3134 14.6147C28.4233 14.7784 28.4821 14.9421 28.4897 15.1058C28.4897 15.137 28.4783 15.1642 28.4555 15.1876C28.4366 15.211 28.4082 15.2227 28.3703 15.2227H28.0689C27.9893 15.2227 27.94 15.1857 27.9211 15.1116C27.8983 14.9479 27.8092 14.8135 27.6538 14.7082C27.4984 14.5991 27.3032 14.5445 27.0682 14.5445C26.8104 14.5445 26.6076 14.5952 26.4598 14.6965C26.3119 14.7979 26.238 14.9479 26.238 15.1467C26.238 15.2792 26.2721 15.3884 26.3404 15.4741C26.4124 15.5598 26.5204 15.6359 26.6645 15.7021C26.8085 15.7645 27.0189 15.8366 27.2956 15.9184C27.6178 16.0081 27.8718 16.1016 28.0575 16.1991C28.2433 16.2926 28.3816 16.4115 28.4726 16.5557C28.5636 16.696 28.6091 16.8753 28.6091 17.0936C28.6091 17.456 28.4726 17.7406 28.1997 17.9472C27.9268 18.1537 27.5591 18.257 27.0966 18.257Z" fill="white"/>
      <path d="M29.4851 18.1985C29.4472 18.1985 29.415 18.1869 29.3884 18.1635C29.3657 18.1362 29.3543 18.1031 29.3543 18.0641V14.2463C29.3543 14.2035 29.3657 14.1703 29.3884 14.147C29.415 14.1197 29.4472 14.106 29.4851 14.106H31.8334C31.8713 14.106 31.9016 14.1197 31.9244 14.147C31.9509 14.1703 31.9642 14.2035 31.9642 14.2463V14.4685C31.9642 14.5075 31.9528 14.5406 31.93 14.5679C31.9073 14.5913 31.8751 14.603 31.8334 14.603H29.9002V15.8834H31.7083C31.7462 15.8834 31.7765 15.897 31.7993 15.9243C31.8258 15.9477 31.8391 15.9808 31.8391 16.0237V16.24C31.8391 16.279 31.8258 16.3121 31.7993 16.3394C31.7765 16.3628 31.7462 16.3745 31.7083 16.3745H29.9002V17.7016H31.8789C31.9206 17.7016 31.9528 17.7133 31.9755 17.7367C31.9983 17.7601 32.0097 17.7932 32.0097 17.8361V18.0641C32.0097 18.1031 31.9964 18.1362 31.9699 18.1635C31.9471 18.1869 31.9168 18.1985 31.8789 18.1985H29.4851Z" fill="white"/>
      <path d="M33.0366 17.8361C33.3019 18.1167 33.6886 18.257 34.1965 18.257C34.5339 18.257 34.8201 18.1966 35.0551 18.0758C35.2901 17.951 35.4683 17.7893 35.5896 17.5905C35.7109 17.3917 35.7772 17.1774 35.7886 16.9474C35.7924 16.9123 35.781 16.885 35.7545 16.8656C35.7317 16.8422 35.7033 16.8305 35.6692 16.8305H35.3564C35.3185 16.8305 35.2882 16.8402 35.2655 16.8597C35.2427 16.8792 35.2257 16.9143 35.2143 16.9649C35.1536 17.2573 35.038 17.4638 34.8675 17.5847C34.7007 17.7016 34.477 17.7601 34.1965 17.7601C33.5445 17.7601 33.2072 17.3878 33.1844 16.6434C33.1806 16.5304 33.1787 16.3647 33.1787 16.1464C33.1787 15.9282 33.1806 15.7664 33.1844 15.6612C33.2072 14.9167 33.5445 14.5445 34.1965 14.5445C34.477 14.5445 34.7007 14.6049 34.8675 14.7258C35.0342 14.8427 35.1499 15.0473 35.2143 15.3396C35.2332 15.4293 35.2806 15.4741 35.3564 15.4741H35.6692C35.6995 15.4741 35.726 15.4644 35.7488 15.4449C35.7753 15.4215 35.7886 15.3942 35.7886 15.363V15.3513C35.7772 15.1253 35.7109 14.9128 35.5896 14.7141C35.4683 14.5153 35.2901 14.3555 35.0551 14.2347C34.8201 14.1099 34.5339 14.0476 34.1965 14.0476C33.6924 14.0476 33.3076 14.1898 33.0423 14.4744C32.7769 14.755 32.6348 15.1409 32.6158 15.632C32.612 15.7411 32.6101 15.9165 32.6101 16.1581C32.6101 16.3959 32.612 16.5674 32.6158 16.6726C32.6348 17.1676 32.775 17.5554 33.0366 17.8361Z" fill="white"/>
      <path d="M38.0517 18.257C37.5627 18.257 37.1836 18.1225 36.9145 17.8536C36.6491 17.5808 36.5165 17.1696 36.5165 16.62V14.2463C36.5165 14.2035 36.5278 14.1703 36.5506 14.147C36.5771 14.1197 36.6093 14.106 36.6472 14.106H36.9372C36.9789 14.106 37.0111 14.1197 37.0339 14.147C37.0604 14.1703 37.0737 14.2035 37.0737 14.2463V16.6317C37.0737 17.0059 37.159 17.2865 37.3296 17.4736C37.5001 17.6607 37.7408 17.7542 38.0517 17.7542C38.3625 17.7542 38.6032 17.6607 38.7738 17.4736C38.9444 17.2865 39.0296 17.0059 39.0296 16.6317V14.2463C39.0296 14.2035 39.041 14.1703 39.0638 14.147C39.0903 14.1197 39.1225 14.106 39.1604 14.106H39.4561C39.494 14.106 39.5243 14.1197 39.5471 14.147C39.5736 14.1742 39.5869 14.2074 39.5869 14.2463V16.62C39.5869 17.1696 39.4523 17.5808 39.1832 17.8536C38.9178 18.1225 38.5407 18.257 38.0517 18.257Z" fill="white"/>
      <path fill-rule="evenodd" clip-rule="evenodd" d="M40.5715 18.1635C40.598 18.1869 40.6303 18.1985 40.6682 18.1985H40.9582C40.9961 18.1985 41.0283 18.1869 41.0548 18.1635C41.0813 18.1362 41.0946 18.1031 41.0946 18.0641V16.5557H42.0897L42.9141 18.0407C42.9407 18.0914 42.9691 18.1303 42.9994 18.1576C43.0335 18.1849 43.079 18.1985 43.1359 18.1985H43.4088C43.4391 18.1985 43.4656 18.1869 43.4884 18.1635C43.5149 18.1401 43.5282 18.1128 43.5282 18.0816C43.5282 18.0621 43.5225 18.0407 43.5111 18.0173L42.6355 16.4622C42.8933 16.3881 43.0923 16.2556 43.2325 16.0646C43.3766 15.8736 43.4486 15.63 43.4486 15.3338C43.4486 14.9362 43.3254 14.6322 43.079 14.4217C42.8326 14.2113 42.4915 14.106 42.0555 14.106H40.6682C40.6303 14.106 40.598 14.1197 40.5715 14.147C40.5488 14.1703 40.5374 14.2035 40.5374 14.2463V18.0641C40.5374 18.1031 40.5488 18.1362 40.5715 18.1635ZM42.88 15.3279C42.88 15.8151 42.5976 16.0587 42.0328 16.0587H41.0946V14.5971H42.0328C42.5976 14.5971 42.88 14.8407 42.88 15.3279Z" fill="white"/>
      <path d="M44.394 18.1985C44.3561 18.1985 44.3239 18.1869 44.2973 18.1635C44.2746 18.1362 44.2632 18.1031 44.2632 18.0641V14.2463C44.2632 14.2035 44.2746 14.1703 44.2973 14.147C44.3239 14.1197 44.3561 14.106 44.394 14.106H46.7423C46.7802 14.106 46.8105 14.1197 46.8333 14.147C46.8598 14.1703 46.8731 14.2035 46.8731 14.2463V14.4685C46.8731 14.5075 46.8617 14.5406 46.839 14.5679C46.8162 14.5913 46.784 14.603 46.7423 14.603H44.8091V15.8834H46.6172C46.6551 15.8834 46.6854 15.897 46.7082 15.9243C46.7347 15.9477 46.748 15.9808 46.748 16.0237V16.24C46.748 16.279 46.7347 16.3121 46.7082 16.3394C46.6854 16.3628 46.6551 16.3745 46.6172 16.3745H44.8091V17.7016H46.7878C46.8295 17.7016 46.8617 17.7133 46.8844 17.7367C46.9072 17.7601 46.9186 17.7932 46.9186 17.8361V18.0641C46.9186 18.1031 46.9053 18.1362 46.8788 18.1635C46.856 18.1869 46.8257 18.1985 46.7878 18.1985H44.394Z" fill="white"/>
    </g>
  </symbol>

  <symbol id="18" viewBox="0 0 24 24">
    <g opacity="0.5">
      <path d="M21.3729 8.82544C21.7185 9.84531 21.8937 10.912 21.8937 12C21.8937 17.4553 17.4554 21.8935 12 21.8935C6.54463 21.8935 2.10625 17.4553 2.10625 12C2.10625 6.54457 6.54455 2.10645 12 2.10645C13.0881 2.10645 14.1548 2.2816 15.1746 2.6273V0.425611C14.1445 0.143257 13.0807 0 12 0C5.38323 0 0 5.38319 0 12C0 18.6168 5.38323 24 12 24C18.6168 24 24 18.6168 24 12C24 10.9194 23.8568 9.85553 23.5745 8.82544H21.3729Z" fill="white"/>
      <path fill-rule="evenodd" clip-rule="evenodd" d="M16.3503 11.6356C16.9884 11.2875 17.3713 10.6609 17.3713 9.95309C17.3713 8.61873 16.2458 7.7717 14.4589 7.7717C12.6952 7.7717 11.558 8.59545 11.558 9.89515C11.558 10.6029 11.9989 11.2526 12.6835 11.6356C11.7437 12.0068 11.1403 12.7959 11.1403 13.7243C11.1403 15.163 12.4399 16.0797 14.4705 16.0797C16.501 16.0797 17.8006 15.1514 17.8006 13.6894C17.8006 12.7843 17.2436 12.0068 16.3503 11.6356ZM14.4705 14.583C13.577 14.583 13.0896 14.2001 13.0896 13.5154C13.0896 12.8424 13.577 12.4594 14.4705 12.4594C15.3639 12.4594 15.8629 12.8425 15.8629 13.5154C15.8629 14.2117 15.3639 14.583 14.4705 14.583ZM14.4705 10.9742C13.7163 10.9742 13.2986 10.6494 13.2986 10.0691C13.2986 9.4659 13.7162 9.12934 14.4705 9.12934C15.2247 9.12934 15.6424 9.4659 15.6424 10.0691C15.6424 10.6494 15.2247 10.9742 14.4705 10.9742Z" fill="white"/>
      <path d="M7.54498 9.51168V15.9865H9.61042V7.85243H6.04818V9.51168H7.54498Z" fill="white"/>
      <path d="M20.642 0.911458V3.19793H22.9283V4.84195H20.642V7.12835H18.9978V4.84195H16.725V3.19793H18.9978V0.911458H20.642Z" fill="white"/>
    </g>
  </symbol>

  <symbol id="search" viewBox="0 0 18 17" fill="none">
    <path fill-rule="evenodd" clip-rule="evenodd" d="M13.6684 7.55393C13.6684 10.5532 11.1257 13.1079 7.83422 13.1079C4.54276 13.1079 2 10.5532 2 7.55393C2 4.55463 4.54276 2 7.83422 2C11.1257 2 13.6684 4.55463 13.6684 7.55393ZM14.1559 12.0165C15.1069 10.7661 15.6684 9.22326 15.6684 7.55393C15.6684 3.38201 12.1609 0 7.83422 0C3.5075 0 0 3.38201 0 7.55393C0 11.7258 3.5075 15.1079 7.83422 15.1079C9.63378 15.1079 11.2916 14.5228 12.6143 13.5392L16.0908 16.7201C16.4983 17.0929 17.1589 17.0929 17.5664 16.7201L17.6938 16.6035C18.1012 16.2307 18.1012 15.6263 17.6938 15.2535L14.1559 12.0165Z" fill="#272B5F"/>
  </symbol>

  <symbol id="prev" viewBox="0 0 9 19" fill="none">
    <path d="M8 1.00195L1 9.00195L8 17.002" stroke="white" stroke-opacity="0.3" stroke-width="2" stroke-linecap="round" stroke-linejoin="round"/>
  </symbol>

  <symbol id="next" viewBox="0 0 9 18" fill="none">
      <path d="M1 1.00195L8 8.50195L1 16.002" stroke="white" stroke-opacity="0.3" stroke-width="2" stroke-linecap="round" stroke-linejoin="round"/>
  </symbol>
</svg>
