<svg  xmlns="http://www.w3.org/2000/svg">
  <symbol stroke="none" id="top" viewBox="0 0 18 20">
    <path fill-rule="evenodd" clip-rule="evenodd" d="M15.5318 11.0486H12.2442L10.2837 17.2729L15.5318 11.0486ZM8.97042 16.7822L7.16445 11.0486H10.7764L8.97042 16.7822ZM2.58617 11.0486H5.69665L7.62183 17.1607L2.58617 11.0486ZM10.1004 2.62935L15.7615 9.64858H12.3113L10.1004 2.62935ZM10.8435 9.64858H7.10265L8.97309 3.71023L10.8435 9.64858ZM5.63484 9.64858H2.36217L7.81378 2.73079L5.63484 9.64858ZM7.42247 0.966171C8.21644 -0.0413335 9.73767 -0.0499363 10.5429 0.948521L17.002 8.95726C17.6046 9.70443 17.593 10.7754 16.9742 11.5092L10.5148 19.1701C9.71096 20.1235 8.24242 20.1151 7.44942 19.1526L1.13809 11.4921C0.538575 10.7644 0.527211 9.71586 1.11081 8.9753L7.42247 0.966171Z"/>
 </symbol>

  <symbol id="star" viewBox="0 0 612 612">
    <path d="M612,234.167L400.898,201.96L306,0l-94.898,201.96L0,234.167l152.713,156.366L116.567,612L306,507.387L495.434,612
    l-36.166-221.468L612,234.167z M306,463.017l-142.08,79.655l27.119-160.727L68.716,257.078l165.45-21.516L306,82.467
    l71.184,153.096l164.896,23.39L420.96,382.538l25.322,160.727L306,463.017z"/>
  </symbol>

  <symbol fill="none" id="roulette" viewBox="0 0 20 20">
    <circle cx="10" cy="10" r="9.3" stroke-width="1.4"/>
    <circle cx="10" cy="10" r="6.3" stroke-width="1.4"/>
    <circle cx="10" cy="10" r="0.8" stroke-width="1.4"/>
    <path d="M3.25 10L0.5 10" stroke-width="1.4"/>
    <path d="M19.5 10L16.75 10" stroke-width="1.4"/>
    <path d="M10 3.5L10 0.5" stroke-width="1.4"/>
    <path d="M11.5 10L12.5 10" stroke-width="1.4" stroke-linecap="round" stroke-linejoin="round"/>
    <path d="M7.5 10L8.5 10" stroke-width="1.4" stroke-linecap="round" stroke-linejoin="round"/>
    <path d="M10 11.5L10 12.5" stroke-width="1.4" stroke-linecap="round" stroke-linejoin="round"/>
    <path d="M10 7.5L10 8.5" stroke-width="1.4" stroke-linecap="round" stroke-linejoin="round"/>
    <path d="M10 19.75L10 16.75" stroke-width="1.4"/>
    <path d="M15 5.25L17.1447 3.10528" stroke-width="1.4"/>
    <path d="M3.35547 16.8945L5.25 15" stroke-width="1.4"/>
    <path d="M14.75 14.75L17.1447 16.8947" stroke-width="1.4"/>
    <path d="M3.35547 3.10547L5.25 5" stroke-width="1.4"/>
  </symbol>

  <symbol fill="none" id="cards" viewBox="0 0 20 22">
    <path d="M0.7 7.31836C0.7 6.0481 1.72974 5.01836 3 5.01836H10.3407C11.611 5.01836 12.6407 6.04811 12.6407 7.31836V18.003C12.6407 19.2732 11.611 20.303 10.3407 20.303H3C1.72975 20.303 0.7 19.2732 0.7 18.003V7.31836Z" stroke-width="1.4"/>
    <path d="M12.5002 19.5V19.5C13.6218 19.9596 14.8996 19.3285 15.218 18.1577L18.2128 7.14624C18.6476 5.54746 17.7014 3.90856 16.0994 3.48565L9.60833 1.77206C8.0343 1.35653 6.40678 2.26969 5.94076 3.82983L5.64335 4.82549" stroke-width="1.4"/>
    <path d="M8.9502 12.4041L8.95176 12.4057C9.42014 12.8647 9.41167 13.5393 8.95622 13.9747C8.7491 14.1709 8.43739 14.3 8.05365 14.3C7.68945 14.3 7.38965 14.1838 7.19028 14.0119L6.95898 13.8122L6.5106 13.4251L6.05465 13.8033L5.82192 13.9963C5.82166 13.9965 5.82139 13.9968 5.82113 13.997C5.31923 14.4096 4.49456 14.3797 4.04627 13.9785C3.58664 13.5346 3.58244 12.8594 4.0499 12.4013L4.0499 12.4013L4.05206 12.3992L6.49603 9.98369L8.9502 12.4041Z" stroke-width="1.4"/>
    <path d="M6.49814 14.795L6.78892 15.2992L6.20896 15.2994L6.49814 14.795Z" stroke-width="1.4"/>
  </symbol>

  <symbol fill="none" id="video" viewBox="0 0 26 20">
    <path d="M22 0.8C23.7673 0.8 25.2 2.23269 25.2 4L25.2 16C25.2 17.7673 23.7673 19.2 22 19.2L4 19.2C2.23269 19.2 0.799998 17.7673 0.799999 16L0.799999 4C0.799999 2.23269 2.23269 0.799999 4 0.799999L22 0.8Z" stroke-width="1.6"/>
    <path d="M15.9877 9.73437C16.2018 9.84674 16.2018 10.1533 15.9877 10.2656L10.8894 12.9415C10.6897 13.0464 10.45 12.9015 10.45 12.6759L10.45 7.32411C10.45 7.09851 10.6897 6.95363 10.8894 7.05847L15.9877 9.73437Z" stroke-width="1.4"/>
  </symbol>

  <symbol fill="none" id="slots" viewBox="0 0 31 20">
    <path d="M0.7 6C0.7 4.72975 1.72975 3.7 3 3.7H22C23.2703 3.7 24.3 4.72975 24.3 6V14C24.3 15.2703 23.2703 16.3 22 16.3H3C1.72975 16.3 0.7 15.2703 0.7 14V6Z" stroke-width="1.4"/>
    <path d="M3.7 3C3.7 1.72974 4.72974 0.7 6 0.7H19C20.2703 0.7 21.3 1.72974 21.3 3V3.68572H3.7V3Z" stroke-width="1.4"/>
    <path d="M21.2822 16.9999C21.2822 18.2702 20.2524 19.3 18.9822 19.3L6.00002 19.3C4.72976 19.3 3.70001 18.2703 3.70001 17L3.70001 16.3375L21.2821 16.3375L21.2822 16.9999Z" stroke-width="1.4"/>
    <path d="M27.9239 4.65405L27.9239 8.51446L27.9239 10.4107C27.9239 11.5153 27.0284 12.4107 25.9239 12.4107L24.8212 12.4107" stroke-width="1.4" stroke-linecap="round" stroke-linejoin="round"/>
    <circle cx="27.9245" cy="2.48214" r="1.78214" stroke-width="1.4"/>
    <path d="M8.68714 8.80244L6.84752 12.4108H5.64364L7.56105 8.79094L4.96393 8.80244V8.06702H8.68714V8.80244Z" />
    <path d="M14.2721 8.80244L12.4324 12.4108H11.2286L13.146 8.79094L10.5489 8.80244V8.06702H14.2721V8.80244Z" />
    <path d="M19.857 8.80244L18.0174 12.4108H16.8135L18.7309 8.79094L16.1338 8.80244V8.06702H19.857V8.80244Z" />
  </symbol>

  <symbol id="ssl" viewBox="0 0 47 21">
    <g opacity="0.5">
      <path fill-rule="evenodd" clip-rule="evenodd" d="M5.04078 9.8747C5.04078 8.95805 5.77911 8.21497 6.6899 8.21497H6.81668C6.81669 7.37412 6.91775 6.28609 7.44208 5.38097C8.0192 4.38471 9.03279 3.74023 10.5151 3.74023C11.9918 3.74023 13.022 4.378 13.6287 5.35458C14.1892 6.25669 14.3264 7.34568 14.3264 8.21497H14.4531C15.3639 8.21497 16.1023 8.95806 16.1023 9.8747V14.9047C16.1023 15.8214 15.3639 16.5644 14.4531 16.5644H6.6899C5.77911 16.5644 5.04078 15.8214 5.04078 14.9047V9.8747ZM12.3474 8.21497H8.79563C8.79563 7.4745 8.89739 6.82309 9.15169 6.3841C9.35322 6.03621 9.69409 5.7319 10.5151 5.7319C11.3417 5.7319 11.7224 6.04293 11.9508 6.41049C12.2254 6.85249 12.3474 7.50294 12.3474 8.21497ZM13.237 10.8786L12.7516 10.4007C12.6851 10.3352 12.6043 10.3024 12.5091 10.3024C12.4139 10.3024 12.3329 10.3352 12.2664 10.4007L9.92562 12.7097L8.8767 11.6729C8.80997 11.6073 8.72911 11.5745 8.63396 11.5745C8.53881 11.5745 8.45795 11.6073 8.39127 11.6729L7.90601 12.1507C7.8395 12.2164 7.80616 12.296 7.80616 12.3898C7.80616 12.4835 7.8395 12.5633 7.90601 12.6288L9.6831 14.3788C9.74961 14.4445 9.83047 14.4771 9.92562 14.4771C10.0208 14.4771 10.1016 14.4445 10.1683 14.3788L13.237 11.3567C13.3036 11.291 13.3369 11.2114 13.3369 11.1177C13.3369 11.024 13.3036 10.9443 13.237 10.8786Z" fill="white"/>
      <path fill-rule="evenodd" clip-rule="evenodd" d="M0 3.31946C0 1.48617 1.47668 0 3.29825 0H18.1404C19.9619 0 21.4386 1.48617 21.4386 3.31946V17.4272C21.4386 19.2604 19.9619 20.7466 18.1404 20.7466H3.29825C1.47667 20.7466 0 19.2604 0 17.4272V3.31946ZM3.29825 2.15765H18.1404C18.7779 2.15765 19.2947 2.67781 19.2947 3.31946V17.4272C19.2947 18.0688 18.7779 18.589 18.1404 18.589H3.29825C2.6607 18.589 2.14386 18.0688 2.14386 17.4272V3.31946C2.14386 2.67781 2.6607 2.15765 3.29825 2.15765Z" fill="white"/>
      <path d="M27.2337 11.411C27.7493 11.6292 28.3671 11.7384 29.0874 11.7384C29.7545 11.7384 30.3458 11.637 30.8614 11.4343C31.3845 11.2239 31.7901 10.9276 32.0782 10.5457C32.3738 10.1559 32.5217 9.69989 32.5217 9.17761C32.5217 8.7021 32.4231 8.30843 32.226 7.99662C32.0289 7.67702 31.7181 7.41977 31.2935 7.22489C30.8765 7.02221 30.3155 6.85461 29.6105 6.72209C29.1783 6.62855 28.8448 6.53891 28.6097 6.45316C28.3823 6.35961 28.2155 6.25828 28.1094 6.14914C28.0108 6.04001 27.9615 5.90359 27.9615 5.73989C27.9615 5.49824 28.0525 5.31505 28.2345 5.19032C28.4164 5.0656 28.678 5.00324 29.0191 5.00324C29.3148 5.00324 29.5612 5.0656 29.7583 5.19032C29.963 5.31505 30.0881 5.46706 30.1336 5.64635C30.1791 5.7165 30.2283 5.76717 30.2814 5.79835C30.3421 5.82954 30.4179 5.84513 30.5088 5.84513H32.0099C32.0782 5.84513 32.135 5.82174 32.1805 5.77497C32.226 5.7282 32.2487 5.66973 32.2487 5.59958C32.2336 5.25658 32.0971 4.90969 31.8393 4.55891C31.5892 4.20032 31.2215 3.9041 30.7363 3.67025C30.2511 3.43639 29.6787 3.31946 29.0191 3.31946C28.3823 3.31946 27.8251 3.42469 27.3475 3.63517C26.8698 3.84564 26.5022 4.13796 26.2444 4.51213C25.9866 4.88631 25.8577 5.31115 25.8577 5.78666C25.8577 6.48824 26.0814 7.03001 26.5287 7.41198C26.9836 7.78615 27.6659 8.07068 28.5756 8.26556C29.0684 8.37469 29.4399 8.47213 29.6901 8.55788C29.9402 8.64363 30.1222 8.74107 30.2359 8.8502C30.3572 8.95934 30.4179 9.09965 30.4179 9.27115C30.4179 9.5128 30.3041 9.70379 30.0767 9.8441C29.8493 9.98442 29.5195 10.0546 29.0874 10.0546C28.7235 10.0546 28.4316 9.98831 28.2117 9.85579C27.9919 9.72328 27.8327 9.55568 27.7341 9.353C27.6735 9.28284 27.6128 9.23217 27.5522 9.20099C27.4991 9.16201 27.4271 9.14253 27.3361 9.14253H25.9032C25.835 9.14253 25.7744 9.16981 25.7213 9.22438C25.6758 9.27115 25.6531 9.32572 25.6531 9.38808C25.6682 9.80902 25.8047 10.1988 26.0624 10.5574C26.3278 10.9082 26.7182 11.1927 27.2337 11.411Z" fill="white"/>
      <path d="M34.7743 11.411C35.2898 11.6292 35.9077 11.7384 36.6279 11.7384C37.295 11.7384 37.8864 11.637 38.4019 11.4343C38.925 11.2239 39.3306 10.9276 39.6187 10.5457C39.9144 10.1559 40.0622 9.69989 40.0622 9.17761C40.0622 8.7021 39.9636 8.30843 39.7665 7.99662C39.5694 7.67702 39.2586 7.41977 38.834 7.22489C38.4171 7.02221 37.856 6.85461 37.151 6.72209C36.7189 6.62855 36.3853 6.53891 36.1503 6.45316C35.9228 6.35961 35.756 6.25828 35.6499 6.14914C35.5513 6.04001 35.5021 5.90359 35.5021 5.73989C35.5021 5.49824 35.593 5.31505 35.775 5.19032C35.9569 5.0656 36.2185 5.00324 36.5597 5.00324C36.8553 5.00324 37.1017 5.0656 37.2988 5.19032C37.5035 5.31505 37.6286 5.46706 37.6741 5.64635C37.7196 5.7165 37.7689 5.76717 37.8219 5.79835C37.8826 5.82954 37.9584 5.84513 38.0494 5.84513H39.5504C39.6187 5.84513 39.6755 5.82174 39.721 5.77497C39.7665 5.7282 39.7893 5.66973 39.7893 5.59958C39.7741 5.25658 39.6376 4.90969 39.3799 4.55891C39.1297 4.20032 38.762 3.9041 38.2768 3.67025C37.7916 3.43639 37.2192 3.31946 36.5597 3.31946C35.9228 3.31946 35.3656 3.42469 34.888 3.63517C34.4104 3.84564 34.0427 4.13796 33.7849 4.51213C33.5272 4.88631 33.3983 5.31115 33.3983 5.78666C33.3983 6.48824 33.6219 7.03001 34.0692 7.41198C34.5241 7.78615 35.2064 8.07068 36.1161 8.26556C36.6089 8.37469 36.9804 8.47213 37.2306 8.55788C37.4808 8.64363 37.6627 8.74107 37.7764 8.8502C37.8977 8.95934 37.9584 9.09965 37.9584 9.27115C37.9584 9.5128 37.8447 9.70379 37.6172 9.8441C37.3898 9.98442 37.06 10.0546 36.6279 10.0546C36.264 10.0546 35.9721 9.98831 35.7522 9.85579C35.5324 9.72328 35.3732 9.55568 35.2746 9.353C35.214 9.28284 35.1533 9.23217 35.0927 9.20099C35.0396 9.16201 34.9676 9.14253 34.8766 9.14253H33.4438C33.3755 9.14253 33.3149 9.16981 33.2618 9.22438C33.2163 9.27115 33.1936 9.32572 33.1936 9.38808C33.2087 9.80902 33.3452 10.1988 33.603 10.5574C33.8683 10.9082 34.2587 11.1927 34.7743 11.411Z" fill="white"/>
      <path d="M41.4846 11.6214C41.4088 11.6214 41.3406 11.5941 41.28 11.5396C41.2269 11.4772 41.2004 11.4071 41.2004 11.3291V3.72871C41.2004 3.64296 41.2269 3.5728 41.28 3.51824C41.3406 3.46367 41.4088 3.43639 41.4846 3.43639H42.9857C43.0691 3.43639 43.1374 3.46367 43.1904 3.51824C43.2435 3.5728 43.27 3.64296 43.27 3.72871V9.85579H46.7157C46.7991 9.85579 46.8673 9.88698 46.9204 9.94934C46.9735 10.0039 47 10.0741 47 10.1598V11.3291C47 11.4071 46.9735 11.4772 46.9204 11.5396C46.8673 11.5941 46.7991 11.6214 46.7157 11.6214H41.4846Z" fill="white"/>
      <path d="M27.0966 18.257C26.782 18.257 26.5091 18.2063 26.2778 18.105C26.0504 18.0037 25.876 17.8711 25.7547 17.7074C25.6334 17.5398 25.569 17.3606 25.5614 17.1696C25.5614 17.1384 25.5728 17.1111 25.5955 17.0877C25.6221 17.0604 25.6524 17.0468 25.6865 17.0468H25.9765C26.0485 17.0468 26.0978 17.0858 26.1243 17.1637C26.1584 17.3274 26.2551 17.4677 26.4143 17.5847C26.5773 17.7016 26.8047 17.7601 27.0966 17.7601C27.4112 17.7601 27.6481 17.7035 27.8073 17.5905C27.9666 17.4736 28.0462 17.3118 28.0462 17.1053C28.0462 16.9727 28.0064 16.8656 27.9268 16.7837C27.8509 16.7019 27.7372 16.6297 27.5856 16.5674C27.434 16.505 27.2065 16.4271 26.9033 16.3335C26.6076 16.2478 26.3726 16.1562 26.1982 16.0587C26.0239 15.9613 25.8931 15.8405 25.8059 15.6963C25.7187 15.5521 25.6751 15.3708 25.6751 15.1525C25.6751 14.9421 25.7301 14.753 25.84 14.5854C25.9537 14.4178 26.1148 14.2873 26.3233 14.1937C26.5318 14.0963 26.7801 14.0476 27.0682 14.0476C27.3638 14.0476 27.6178 14.1021 27.8301 14.2113C28.0424 14.3165 28.2035 14.451 28.3134 14.6147C28.4233 14.7784 28.4821 14.9421 28.4897 15.1058C28.4897 15.137 28.4783 15.1642 28.4555 15.1876C28.4366 15.211 28.4082 15.2227 28.3703 15.2227H28.0689C27.9893 15.2227 27.94 15.1857 27.9211 15.1116C27.8983 14.9479 27.8092 14.8135 27.6538 14.7082C27.4984 14.5991 27.3032 14.5445 27.0682 14.5445C26.8104 14.5445 26.6076 14.5952 26.4598 14.6965C26.3119 14.7979 26.238 14.9479 26.238 15.1467C26.238 15.2792 26.2721 15.3884 26.3404 15.4741C26.4124 15.5598 26.5204 15.6359 26.6645 15.7021C26.8085 15.7645 27.0189 15.8366 27.2956 15.9184C27.6178 16.0081 27.8718 16.1016 28.0575 16.1991C28.2433 16.2926 28.3816 16.4115 28.4726 16.5557C28.5636 16.696 28.6091 16.8753 28.6091 17.0936C28.6091 17.456 28.4726 17.7406 28.1997 17.9472C27.9268 18.1537 27.5591 18.257 27.0966 18.257Z" fill="white"/>
      <path d="M29.4851 18.1985C29.4472 18.1985 29.415 18.1869 29.3884 18.1635C29.3657 18.1362 29.3543 18.1031 29.3543 18.0641V14.2463C29.3543 14.2035 29.3657 14.1703 29.3884 14.147C29.415 14.1197 29.4472 14.106 29.4851 14.106H31.8334C31.8713 14.106 31.9016 14.1197 31.9244 14.147C31.9509 14.1703 31.9642 14.2035 31.9642 14.2463V14.4685C31.9642 14.5075 31.9528 14.5406 31.93 14.5679C31.9073 14.5913 31.8751 14.603 31.8334 14.603H29.9002V15.8834H31.7083C31.7462 15.8834 31.7765 15.897 31.7993 15.9243C31.8258 15.9477 31.8391 15.9808 31.8391 16.0237V16.24C31.8391 16.279 31.8258 16.3121 31.7993 16.3394C31.7765 16.3628 31.7462 16.3745 31.7083 16.3745H29.9002V17.7016H31.8789C31.9206 17.7016 31.9528 17.7133 31.9755 17.7367C31.9983 17.7601 32.0097 17.7932 32.0097 17.8361V18.0641C32.0097 18.1031 31.9964 18.1362 31.9699 18.1635C31.9471 18.1869 31.9168 18.1985 31.8789 18.1985H29.4851Z" fill="white"/>
      <path d="M33.0366 17.8361C33.3019 18.1167 33.6886 18.257 34.1965 18.257C34.5339 18.257 34.8201 18.1966 35.0551 18.0758C35.2901 17.951 35.4683 17.7893 35.5896 17.5905C35.7109 17.3917 35.7772 17.1774 35.7886 16.9474C35.7924 16.9123 35.781 16.885 35.7545 16.8656C35.7317 16.8422 35.7033 16.8305 35.6692 16.8305H35.3564C35.3185 16.8305 35.2882 16.8402 35.2655 16.8597C35.2427 16.8792 35.2257 16.9143 35.2143 16.9649C35.1536 17.2573 35.038 17.4638 34.8675 17.5847C34.7007 17.7016 34.477 17.7601 34.1965 17.7601C33.5445 17.7601 33.2072 17.3878 33.1844 16.6434C33.1806 16.5304 33.1787 16.3647 33.1787 16.1464C33.1787 15.9282 33.1806 15.7664 33.1844 15.6612C33.2072 14.9167 33.5445 14.5445 34.1965 14.5445C34.477 14.5445 34.7007 14.6049 34.8675 14.7258C35.0342 14.8427 35.1499 15.0473 35.2143 15.3396C35.2332 15.4293 35.2806 15.4741 35.3564 15.4741H35.6692C35.6995 15.4741 35.726 15.4644 35.7488 15.4449C35.7753 15.4215 35.7886 15.3942 35.7886 15.363V15.3513C35.7772 15.1253 35.7109 14.9128 35.5896 14.7141C35.4683 14.5153 35.2901 14.3555 35.0551 14.2347C34.8201 14.1099 34.5339 14.0476 34.1965 14.0476C33.6924 14.0476 33.3076 14.1898 33.0423 14.4744C32.7769 14.755 32.6348 15.1409 32.6158 15.632C32.612 15.7411 32.6101 15.9165 32.6101 16.1581C32.6101 16.3959 32.612 16.5674 32.6158 16.6726C32.6348 17.1676 32.775 17.5554 33.0366 17.8361Z" fill="white"/>
      <path d="M38.0517 18.257C37.5627 18.257 37.1836 18.1225 36.9145 17.8536C36.6491 17.5808 36.5165 17.1696 36.5165 16.62V14.2463C36.5165 14.2035 36.5278 14.1703 36.5506 14.147C36.5771 14.1197 36.6093 14.106 36.6472 14.106H36.9372C36.9789 14.106 37.0111 14.1197 37.0339 14.147C37.0604 14.1703 37.0737 14.2035 37.0737 14.2463V16.6317C37.0737 17.0059 37.159 17.2865 37.3296 17.4736C37.5001 17.6607 37.7408 17.7542 38.0517 17.7542C38.3625 17.7542 38.6032 17.6607 38.7738 17.4736C38.9444 17.2865 39.0296 17.0059 39.0296 16.6317V14.2463C39.0296 14.2035 39.041 14.1703 39.0638 14.147C39.0903 14.1197 39.1225 14.106 39.1604 14.106H39.4561C39.494 14.106 39.5243 14.1197 39.5471 14.147C39.5736 14.1742 39.5869 14.2074 39.5869 14.2463V16.62C39.5869 17.1696 39.4523 17.5808 39.1832 17.8536C38.9178 18.1225 38.5407 18.257 38.0517 18.257Z" fill="white"/>
      <path fill-rule="evenodd" clip-rule="evenodd" d="M40.5715 18.1635C40.598 18.1869 40.6303 18.1985 40.6682 18.1985H40.9582C40.9961 18.1985 41.0283 18.1869 41.0548 18.1635C41.0813 18.1362 41.0946 18.1031 41.0946 18.0641V16.5557H42.0897L42.9141 18.0407C42.9407 18.0914 42.9691 18.1303 42.9994 18.1576C43.0335 18.1849 43.079 18.1985 43.1359 18.1985H43.4088C43.4391 18.1985 43.4656 18.1869 43.4884 18.1635C43.5149 18.1401 43.5282 18.1128 43.5282 18.0816C43.5282 18.0621 43.5225 18.0407 43.5111 18.0173L42.6355 16.4622C42.8933 16.3881 43.0923 16.2556 43.2325 16.0646C43.3766 15.8736 43.4486 15.63 43.4486 15.3338C43.4486 14.9362 43.3254 14.6322 43.079 14.4217C42.8326 14.2113 42.4915 14.106 42.0555 14.106H40.6682C40.6303 14.106 40.598 14.1197 40.5715 14.147C40.5488 14.1703 40.5374 14.2035 40.5374 14.2463V18.0641C40.5374 18.1031 40.5488 18.1362 40.5715 18.1635ZM42.88 15.3279C42.88 15.8151 42.5976 16.0587 42.0328 16.0587H41.0946V14.5971H42.0328C42.5976 14.5971 42.88 14.8407 42.88 15.3279Z" fill="white"/>
      <path d="M44.394 18.1985C44.3561 18.1985 44.3239 18.1869 44.2973 18.1635C44.2746 18.1362 44.2632 18.1031 44.2632 18.0641V14.2463C44.2632 14.2035 44.2746 14.1703 44.2973 14.147C44.3239 14.1197 44.3561 14.106 44.394 14.106H46.7423C46.7802 14.106 46.8105 14.1197 46.8333 14.147C46.8598 14.1703 46.8731 14.2035 46.8731 14.2463V14.4685C46.8731 14.5075 46.8617 14.5406 46.839 14.5679C46.8162 14.5913 46.784 14.603 46.7423 14.603H44.8091V15.8834H46.6172C46.6551 15.8834 46.6854 15.897 46.7082 15.9243C46.7347 15.9477 46.748 15.9808 46.748 16.0237V16.24C46.748 16.279 46.7347 16.3121 46.7082 16.3394C46.6854 16.3628 46.6551 16.3745 46.6172 16.3745H44.8091V17.7016H46.7878C46.8295 17.7016 46.8617 17.7133 46.8844 17.7367C46.9072 17.7601 46.9186 17.7932 46.9186 17.8361V18.0641C46.9186 18.1031 46.9053 18.1362 46.8788 18.1635C46.856 18.1869 46.8257 18.1985 46.7878 18.1985H44.394Z" fill="white"/>
    </g>
  </symbol>

  <symbol id="18" viewBox="0 0 24 24">
    <g opacity="0.5">
      <path d="M21.3729 8.82544C21.7185 9.84531 21.8937 10.912 21.8937 12C21.8937 17.4553 17.4554 21.8935 12 21.8935C6.54463 21.8935 2.10625 17.4553 2.10625 12C2.10625 6.54457 6.54455 2.10645 12 2.10645C13.0881 2.10645 14.1548 2.2816 15.1746 2.6273V0.425611C14.1445 0.143257 13.0807 0 12 0C5.38323 0 0 5.38319 0 12C0 18.6168 5.38323 24 12 24C18.6168 24 24 18.6168 24 12C24 10.9194 23.8568 9.85553 23.5745 8.82544H21.3729Z" fill="white"/>
      <path fill-rule="evenodd" clip-rule="evenodd" d="M16.3503 11.6356C16.9884 11.2875 17.3713 10.6609 17.3713 9.95309C17.3713 8.61873 16.2458 7.7717 14.4589 7.7717C12.6952 7.7717 11.558 8.59545 11.558 9.89515C11.558 10.6029 11.9989 11.2526 12.6835 11.6356C11.7437 12.0068 11.1403 12.7959 11.1403 13.7243C11.1403 15.163 12.4399 16.0797 14.4705 16.0797C16.501 16.0797 17.8006 15.1514 17.8006 13.6894C17.8006 12.7843 17.2436 12.0068 16.3503 11.6356ZM14.4705 14.583C13.577 14.583 13.0896 14.2001 13.0896 13.5154C13.0896 12.8424 13.577 12.4594 14.4705 12.4594C15.3639 12.4594 15.8629 12.8425 15.8629 13.5154C15.8629 14.2117 15.3639 14.583 14.4705 14.583ZM14.4705 10.9742C13.7163 10.9742 13.2986 10.6494 13.2986 10.0691C13.2986 9.4659 13.7162 9.12934 14.4705 9.12934C15.2247 9.12934 15.6424 9.4659 15.6424 10.0691C15.6424 10.6494 15.2247 10.9742 14.4705 10.9742Z" fill="white"/>
      <path d="M7.54498 9.51168V15.9865H9.61042V7.85243H6.04818V9.51168H7.54498Z" fill="white"/>
      <path d="M20.642 0.911458V3.19793H22.9283V4.84195H20.642V7.12835H18.9978V4.84195H16.725V3.19793H18.9978V0.911458H20.642Z" fill="white"/>
    </g>
  </symbol>

  <symbol id="search" viewBox="0 0 18 17">
    <path fill-rule="evenodd" clip-rule="evenodd" d="M13.6684 7.55393C13.6684 10.5532 11.1257 13.1079 7.83422 13.1079C4.54276 13.1079 2 10.5532 2 7.55393C2 4.55463 4.54276 2 7.83422 2C11.1257 2 13.6684 4.55463 13.6684 7.55393ZM14.1559 12.0165C15.1069 10.7661 15.6684 9.22326 15.6684 7.55393C15.6684 3.38201 12.1609 0 7.83422 0C3.5075 0 0 3.38201 0 7.55393C0 11.7258 3.5075 15.1079 7.83422 15.1079C9.63378 15.1079 11.2916 14.5228 12.6143 13.5392L16.0908 16.7201C16.4983 17.0929 17.1589 17.0929 17.5664 16.7201L17.6938 16.6035C18.1012 16.2307 18.1012 15.6263 17.6938 15.2535L14.1559 12.0165Z" />
  </symbol>

  <symbol id="prev" viewBox="0 0 9 19" fill="none">
    <path d="M8 1.00195L1 9.00195L8 17.002" stroke="white" stroke-opacity="0.3" stroke-width="2" stroke-linecap="round" stroke-linejoin="round"/>
  </symbol>

  <symbol id="next" viewBox="0 0 9 18" fill="none">
      <path d="M1 1.00195L8 8.50195L1 16.002" stroke="white" stroke-opacity="0.3" stroke-width="2" stroke-linecap="round" stroke-linejoin="round"/>
  </symbol>

  <symbol id="home" viewBox="0 0 24 22" fill="none">
      <path d="M11.3448 1.56816L2.02429 9.65102C1.32505 10.2574 1.75391 11.4065 2.67946 11.4065H3.80952V20C3.80952 20.5523 4.25724 21 4.80953 21H9.71429V15.1707C9.71429 14.6184 10.162 14.1707 10.7143 14.1707H13.4762C14.0285 14.1707 14.4762 14.6184 14.4762 15.1707V21H19.1905C19.7428 21 20.1905 20.5523 20.1905 20V11.4065H21.3205C22.2461 11.4065 22.6749 10.2574 21.9757 9.65102L12.6552 1.56816C12.2792 1.24215 11.7208 1.24215 11.3448 1.56816Z" stroke="#9DA3B4" stroke-width="1.4"/>
  </symbol>

  <symbol id="menu-games" viewBox="0 0 24 24" fill="none">
    <path fill-rule="evenodd" clip-rule="evenodd" d="M9.43945 1.4H14.5614C15.4451 1.4 16.1614 2.11635 16.1614 3V8.12195C16.1614 9.00561 15.4451 9.72195 14.5614 9.72195H9.43946C8.5558 9.72195 7.83945 9.00561 7.83945 8.12195V3C7.83945 2.11634 8.5558 1.4 9.43945 1.4ZM6.43945 3C6.43945 1.34315 7.7826 0 9.43945 0H14.5614C16.2183 0 17.5614 1.34315 17.5614 3V8.12195C17.5614 9.77881 16.2183 11.122 14.5614 11.122H9.43946C7.7826 11.122 6.43945 9.77881 6.43945 8.12195V3ZM15.8789 14.2785H21.0009C21.8845 14.2785 22.6009 14.9948 22.6009 15.8785V21.0004C22.6009 21.8841 21.8845 22.6004 21.0009 22.6004H15.8789C14.9953 22.6004 14.2789 21.8841 14.2789 21.0004V15.8785C14.2789 14.9948 14.9953 14.2785 15.8789 14.2785ZM12.8789 15.8785C12.8789 14.2216 14.2221 12.8785 15.8789 12.8785H21.0009C22.6577 12.8785 24.0009 14.2216 24.0009 15.8785V21.0004C24.0009 22.6573 22.6577 24.0004 21.0009 24.0004H15.8789C14.2221 24.0004 12.8789 22.6573 12.8789 21.0004V15.8785ZM19.3166 18.3607C19.3166 18.8456 18.9235 19.2388 18.4386 19.2388C17.9537 19.2388 17.5605 18.8456 17.5605 18.3607C17.5605 17.8758 17.9537 17.4827 18.4386 17.4827C18.9235 17.4827 19.3166 17.8758 19.3166 18.3607ZM10.2433 8.19531C10.7282 8.19531 11.1213 7.80219 11.1213 7.31726C11.1213 6.83232 10.7282 6.43921 10.2433 6.43921C9.75835 6.43921 9.36523 6.83232 9.36523 7.31726C9.36523 7.80219 9.75835 8.19531 10.2433 8.19531ZM14.635 3.80511C14.635 4.29004 14.2419 4.68316 13.757 4.68316C13.272 4.68316 12.8789 4.29004 12.8789 3.80511C12.8789 3.32018 13.272 2.92706 13.757 2.92706C14.2419 2.92706 14.635 3.32018 14.635 3.80511ZM3 14.2004H8.12195C9.00561 14.2004 9.72196 14.9167 9.72196 15.8004V20.9223C9.72196 21.806 9.00561 22.5223 8.12196 22.5223H3C2.11635 22.5223 1.4 21.806 1.4 20.9223V15.8004C1.4 14.9167 2.11634 14.2004 3 14.2004ZM0 15.8004C0 14.1435 1.34315 12.8004 3 12.8004H8.12195C9.77881 12.8004 11.122 14.1435 11.122 15.8004V20.9223C11.122 22.5792 9.77881 23.9223 8.12196 23.9223H3C1.34315 23.9223 0 22.5792 0 20.9223V15.8004ZM8.19533 16.6042C8.19533 17.0891 7.80222 17.4822 7.31729 17.4822C6.83235 17.4822 6.43924 17.0891 6.43924 16.6042C6.43924 16.1193 6.83235 15.7261 7.31729 15.7261C7.80222 15.7261 8.19533 16.1193 8.19533 16.6042ZM3.80513 20.9944C4.29007 20.9944 4.68318 20.6013 4.68318 20.1163C4.68318 19.6314 4.29007 19.2383 3.80513 19.2383C3.3202 19.2383 2.92708 19.6314 2.92708 20.1163C2.92708 20.6013 3.3202 20.9944 3.80513 20.9944ZM8.19533 20.1163C8.19533 20.6013 7.80222 20.9944 7.31729 20.9944C6.83235 20.9944 6.43924 20.6013 6.43924 20.1163C6.43924 19.6314 6.83235 19.2383 7.31729 19.2383C7.80222 19.2383 8.19533 19.6314 8.19533 20.1163ZM3.80513 17.4822C4.29007 17.4822 4.68318 17.0891 4.68318 16.6042C4.68318 16.1193 4.29007 15.7261 3.80513 15.7261C3.3202 15.7261 2.92708 16.1193 2.92708 16.6042C2.92708 17.0891 3.3202 17.4822 3.80513 17.4822Z" fill="#9DA3B4"/>
  </symbol>

  <symbol id="cashier" viewBox="0 0 24 18" fill="none">
    <path fill-rule="evenodd" clip-rule="evenodd" d="M21 1.4H3C2.11634 1.4 1.4 2.11634 1.4 3V4H22.6V3C22.6 2.11634 21.8837 1.4 21 1.4ZM24 4V3C24 1.34315 22.6569 0 21 0H3C1.34315 0 0 1.34315 0 3V4V5.4V7.6V9V15C0 16.6569 1.34315 18 3 18H21C22.6569 18 24 16.6569 24 15V9V7.6V5.4V4ZM22.6 7.6V5.4H1.4V7.6H22.6ZM1.4 9V15C1.4 15.8837 2.11634 16.6 3 16.6H21C21.8837 16.6 22.6 15.8837 22.6 15V9H1.4ZM15.7 12C15.3134 12 15 12.3134 15 12.7C15 13.0866 15.3134 13.4 15.7 13.4H19.9C20.2866 13.4 20.6 13.0866 20.6 12.7C20.6 12.3134 20.2866 12 19.9 12H15.7Z" fill="#9DA3B4"/>
  </symbol>

  <symbol id="daily" viewBox="0 0 25 24" fill="none">
    <path d="M22.5 6.89998H17.8C18.1 6.69999 18.4 6.39999 18.6 6.19999C19.8 4.99999 19.8 2.89999 18.6 1.69999C17.4 0.499988 15.4 0.499988 14.2 1.69999C13.6 2.39999 11.8 5.09999 12.1 6.89998H12C12.2 5.09999 10.5 2.39999 9.9 1.69999C8.7 0.499988 6.7 0.499988 5.5 1.69999C4.3 2.89999 4.3 4.99999 5.5 6.19999C5.7 6.39999 6 6.59998 6.3 6.89998H1.5C0.7 6.89998 0 7.59998 0 8.39998V12.2C0 12.6 0.299999 13 0.799999 13H1.5V22.2C1.5 23 2.2 23.7 3 23.7H21C21.8 23.7 22.5 23 22.5 22.2V13H23.3C23.7 13 24.1 12.7 24.1 12.2V8.39998C24 7.59998 23.3 6.89998 22.5 6.89998ZM6.5 2.79999C6.8 2.49999 7.2 2.29999 7.6 2.29999C8 2.29999 8.4 2.49999 8.7 2.79999C9.7 3.79999 10.7 6.49998 10.4 6.89998C10.4 6.89998 10.3 6.99999 10.1 6.99999C9.1 6.99999 7.1 5.89999 6.4 5.19999C5.9 4.49999 5.9 3.39999 6.5 2.79999ZM11.3 22.2H3.1V13H11.3V22.2ZM11.3 11.5H1.5V8.39998H11.2V11.5H11.3ZM15.3 2.79999C15.9 2.19999 17 2.19999 17.6 2.79999C18.2 3.39999 18.2 4.49999 17.6 5.19999C17 5.89999 15 6.99999 13.9 6.99999C13.7 6.99999 13.6 6.99998 13.6 6.89998C13.2 6.49998 14.3 3.79999 15.3 2.79999ZM21 22.2H12.8V13H21V22.2ZM22.5 11.5H12.7V8.39998H22.5V11.5Z" fill="#484D6C"/>
  </symbol>

  <symbol id="tournaments" viewBox="0 0 20 27" fill="none">
    <path fill-rule="evenodd" clip-rule="evenodd" d="M7.5593 6.94638L9.43676 2.66031L9.61789 2.24681C9.76202 1.91774 10.2366 1.91774 10.3807 2.24681L10.5618 2.66024L12.4394 6.94635L17.2091 7.38125L17.6218 7.41888C17.9847 7.45197 18.1313 7.89569 17.8576 8.13213L13.9474 11.5092L14.9903 16.0582L15.0917 16.5008C15.1719 16.8503 14.7879 17.1245 14.4745 16.9416L14.1064 16.7267L9.99933 14.3292L5.89228 16.7267L5.52411 16.9416C5.21077 17.1245 4.82683 16.8503 4.90696 16.5008L5.00842 16.0582L6.05127 11.5092L2.46758 8.41411L2.14109 8.13213C1.8673 7.89569 2.01396 7.45197 2.37683 7.41888L7.5593 6.94638ZM1.22601 9.19167C-0.0133274 8.12134 0.697282 6.16622 2.24971 6.02467L6.60871 5.62724L8.3355 1.68514C8.96921 0.238379 11.0294 0.238316 11.6631 1.68507L13.3899 5.62721L17.7489 6.02467C19.3014 6.16622 20.012 8.12135 18.7726 9.19167L15.5003 12.0178L16.4563 16.1879C16.8247 17.795 15.0852 18.9191 13.7687 18.1507L12.5359 17.431C12.6595 18.1541 12.8767 18.8601 13.1835 19.531L14.2943 21.9601C16.3678 22.1221 18 23.856 18 25.9712C18 26.5396 17.5392 27.0004 16.9707 27.0004H3.02926C2.46082 27.0004 2 26.5396 2 25.9712C2 23.8559 3.63229 22.1219 5.70598 21.96L6.81679 19.531C7.12371 18.8598 7.34095 18.1534 7.46456 17.4299L6.22992 18.1507C4.91336 18.9192 3.17398 17.7948 3.54236 16.188L4.49834 12.0178L1.22601 9.19167ZM8.97049 16.5508C8.90186 17.7812 8.6038 18.9896 8.08998 20.1132L7.25106 21.9477H12.7492L11.9103 20.1132C11.3966 18.9899 11.0985 17.7818 11.0298 16.5518L9.99933 15.9502L8.97049 16.5508ZM13.9765 23.3477H6.02347C4.70042 23.3477 3.60611 24.3271 3.42599 25.6004H16.574C16.3939 24.3271 15.2996 23.3477 13.9765 23.3477Z" fill="#565B77"/>
  </symbol>

  <symbol id="rewards" viewBox="0 0 22 28" fill="none">
    <path fill-rule="evenodd" clip-rule="evenodd" d="M16 19.2996C16.3866 19.2996 16.7 19.613 16.7 19.9996V26.9996C16.7 27.2381 16.5786 27.4602 16.3778 27.5889C16.177 27.7176 15.9245 27.7353 15.7078 27.6357L11.2247 25.5763L6.26975 27.6456C6.05369 27.7358 5.80682 27.712 5.61195 27.5822C5.41707 27.4524 5.3 27.2338 5.3 26.9996V20.4371C5.3 20.0505 5.6134 19.7371 6 19.7371C6.3866 19.7371 6.7 20.0505 6.7 20.4371V25.9487L10.9683 24.1662C11.1488 24.0908 11.3526 24.0944 11.5303 24.176L15.3 25.9077V19.9996C15.3 19.613 15.6134 19.2996 16 19.2996Z" fill="#9DA3B4"/>
    <path fill-rule="evenodd" clip-rule="evenodd" d="M11 20.5996C16.3019 20.5996 20.6 16.3016 20.6 10.9996C20.6 5.6977 16.3019 1.39963 11 1.39963C5.69807 1.39963 1.4 5.6977 1.4 10.9996C1.4 16.3016 5.69807 20.5996 11 20.5996ZM11 21.9996C17.0751 21.9996 22 17.0748 22 10.9996C22 4.9245 17.0751 -0.000366211 11 -0.000366211C4.92487 -0.000366211 0 4.9245 0 10.9996C0 17.0748 4.92487 21.9996 11 21.9996Z" fill="#9DA3B4"/>
    <path d="M15.7641 9.25096L12.525 8.96744L11.2384 6.14771C11.1483 5.95027 10.8517 5.95027 10.7616 6.14771L9.47498 8.96746L6.23594 9.25096C6.00915 9.27081 5.91749 9.53704 6.0886 9.67891L8.53246 11.7051L7.81727 14.7001C7.76719 14.9098 8.00715 15.0743 8.20299 14.9646L11 13.3971L13.797 14.9646C13.9928 15.0743 14.2328 14.9098 14.1827 14.7001L13.4675 11.7051L15.9114 9.67891C16.0825 9.53704 15.9909 9.27081 15.7641 9.25096Z" stroke="#9DA2B5" stroke-width="1.4"/>
  </symbol>

  <symbol id="personal" viewBox="0 0 20 21" fill="none">
    <path fill-rule="evenodd" clip-rule="evenodd" d="M14.4 6C14.4 8.43005 12.4301 10.4 10 10.4C7.56995 10.4 5.6 8.43005 5.6 6C5.6 3.56995 7.56995 1.6 10 1.6C12.4301 1.6 14.4 3.56995 14.4 6ZM16 6C16 9.31371 13.3137 12 10 12C6.68629 12 4 9.31371 4 6C4 2.68629 6.68629 0 10 0C13.3137 0 16 2.68629 16 6ZM1.87846 19.3994C2.78666 16.8037 5.8452 14.6 10 14.6C14.1548 14.6 17.2133 16.8037 18.1215 19.3994H1.87846ZM10 13C14.8379 13 18.8733 15.7481 19.7999 19.3994C19.9311 19.9164 20 20.4514 20 20.9994H18.4H1.6H0C0 20.4514 0.0688714 19.9164 0.200067 19.3994C1.12667 15.7481 5.16214 13 10 13Z" fill="#9DA3B4"/>
  </symbol>

  <symbol id="sound" viewBox="0 0 24 23" fill="none">
    <path d="M14.7126 0.219733C14.3448 0.0360216 13.8851 -0.0558174 13.5172 0.0360385C13.1494 0.127894 12.6897 0.21975 12.4138 0.495318L6.34483 5.63922H2.2069C1.65517 5.63922 1.10345 5.9148 0.643679 6.28222C0.275863 6.64965 0 7.29265 0 7.84379V15.1004C0 15.6515 0.275863 16.2026 0.643679 16.6619C1.01149 17.0293 1.56322 17.3049 2.2069 17.3049H6.25287L12.3218 22.4489C12.6897 22.8163 13.2414 23 13.7011 23C13.977 23 14.3448 22.9081 14.6207 22.8163C14.9885 22.6326 15.3563 22.357 15.5402 21.9896C15.7241 21.6222 15.908 21.2547 15.908 20.7954V2.14871C15.908 1.68943 15.8161 1.32202 15.5402 0.954597C15.4483 0.679029 15.0805 0.403445 14.7126 0.219733ZM4.41379 15.8352H2.2069C2.02299 15.8352 1.83908 15.7434 1.65517 15.6515C1.56322 15.5597 1.47126 15.2841 1.47126 15.1004V7.84379C1.47126 7.66007 1.56322 7.47636 1.65517 7.29264C1.74713 7.20079 1.93103 7.10892 2.2069 7.10892H4.41379V15.8352ZM14.5287 20.7954C14.5287 20.9791 14.5287 21.071 14.4368 21.1629C14.3448 21.2547 14.2529 21.3466 14.1609 21.4384C14.069 21.5303 13.8851 21.5303 13.7931 21.5303C13.7012 21.5303 13.5172 21.4384 13.4253 21.3466L7.08046 16.0189C6.98851 15.9271 6.8046 15.8352 6.62069 15.8352H5.88506V7.10892H6.52874C6.62069 7.10892 6.71264 7.10892 6.8046 7.10892C6.89655 7.10892 6.98851 7.01706 7.08046 7.01706L13.4253 1.68943C13.5172 1.59758 13.7012 1.50571 13.7931 1.50571C13.8851 1.50571 14.069 1.50572 14.1609 1.59757C14.2529 1.68943 14.3448 1.7813 14.4368 1.87316C14.5287 1.96501 14.5287 2.14872 14.5287 2.24057V20.7954Z" fill="#9DA3B4"/>
    <path d="M19.954 4.2614C19.8621 4.35325 19.7701 4.62882 19.7701 4.81254C19.7701 4.99625 19.8621 5.17997 19.954 5.36368C20.7816 6.19038 21.4253 7.10894 21.8851 8.21121C22.3448 9.31348 22.5287 10.4158 22.5287 11.518C22.5287 12.7122 22.3448 13.8144 21.8851 14.8248C21.4253 15.9271 20.7816 16.8457 19.954 17.6724C19.8621 17.7642 19.8621 17.8561 19.7701 17.9479C19.7701 18.0398 19.6782 18.1316 19.6782 18.2235C19.6782 18.3154 19.6782 18.4072 19.7701 18.4991C19.7701 18.5909 19.8621 18.6828 19.954 18.7746C20.046 18.8665 20.1379 18.8665 20.2299 18.9583C20.3218 18.9583 20.4138 19.0502 20.5057 19.0502C20.5977 19.0502 20.6897 19.0502 20.7816 18.9583C20.8736 18.9583 20.9655 18.8665 21.0575 18.7746C21.977 17.8561 22.7126 16.6619 23.2644 15.4678C23.8161 14.2737 24 12.8959 24 11.518C24 10.1402 23.7241 8.85419 23.2644 7.56821C22.7126 6.37409 21.977 5.17995 21.0575 4.2614C20.9655 4.16954 20.8736 4.16956 20.7816 4.0777C20.6897 4.0777 20.5977 3.98584 20.5057 3.98584C20.4138 3.98584 20.3218 3.98585 20.2299 4.0777C20.1379 4.16956 20.046 4.16954 19.954 4.2614Z" fill="#9DA3B4"/>
    <path d="M18.9425 6.28224C18.8506 6.19038 18.6667 6.09851 18.3908 6.09851C18.2069 6.09851 18.023 6.19038 17.8391 6.28224C17.7471 6.37409 17.6552 6.64966 17.6552 6.83338C17.6552 7.01709 17.7471 7.20081 17.8391 7.38452C18.3908 7.93565 18.8506 8.57862 19.1264 9.31347C19.4023 10.0483 19.5862 10.7832 19.5862 11.518C19.5862 12.2529 19.4023 13.0796 19.1264 13.7226C18.8506 14.4574 18.3908 15.1004 17.8391 15.6515C17.7471 15.7434 17.6552 16.0189 17.6552 16.2027C17.6552 16.3864 17.7471 16.5701 17.8391 16.7538C17.931 16.8457 18.1149 16.9375 18.3908 16.9375C18.5747 16.9375 18.7586 16.8457 18.9425 16.7538C19.5862 16.1108 20.1379 15.2841 20.5057 14.3655C20.8736 13.447 21.0575 12.5284 21.0575 11.6099C21.0575 10.6913 20.8736 9.68089 20.5057 8.85419C20.1379 7.84377 19.5862 7.01708 18.9425 6.28224Z" fill="#9DA3B4"/>
  </symbol>

  <symbol id="support" viewBox="0 0 24 25" fill="none">
    <path fill-rule="evenodd" clip-rule="evenodd" d="M11.9998 1.69999C7.89879 1.69999 4.53984 5.12813 4.53984 9.39999V9.63998H5.72C6.27228 9.63998 6.72 10.0877 6.72 10.64L6.72 18.24C6.72 18.7923 6.27228 19.24 5.72 19.24H3C1.34315 19.24 0 17.8968 0 16.24V12.64C0 10.9831 1.34315 9.63998 3 9.63998H3.13984V9.39999C3.13984 4.39346 7.08761 0.299988 11.9998 0.299988C16.9121 0.299988 20.8598 4.39346 20.8598 9.39999V9.64H21C22.6569 9.64 24 10.9831 24 12.64V16.24C24 17.8969 22.6569 19.24 21 19.24H20.7779C20.2645 20.0967 19.3638 20.7509 18.4634 21.2011C17.7759 21.5449 17.022 21.8035 16.3052 21.9531C16.1473 23.662 14.7097 25 12.9596 25C11.1039 25 9.59961 23.4957 9.59961 21.64C9.59961 19.7843 11.1039 18.28 12.9596 18.28C14.436 18.28 15.69 19.2322 16.1409 20.556C16.6913 20.4307 17.284 20.2256 17.8373 19.9489C18.2843 19.7255 18.6704 19.4733 18.9794 19.2057C18.5535 19.091 18.24 18.7021 18.24 18.24V10.64C18.24 10.0877 18.6877 9.64 19.24 9.64H19.4598V9.39999C19.4598 5.12813 16.1009 1.69999 11.9998 1.69999ZM1.4 12.64L1.4 16.24C1.4 17.1236 2.11634 17.84 3 17.84H5.32V11.04H3C2.11634 11.04 1.4 11.7563 1.4 12.64ZM12.9596 23.6C14.0421 23.6 14.9196 22.7225 14.9196 21.64C14.9196 20.5575 14.0421 19.68 12.9596 19.68C11.8771 19.68 10.9996 20.5575 10.9996 21.64C10.9996 22.7225 11.8771 23.6 12.9596 23.6ZM22.6 12.64V16.24C22.6 17.1237 21.8837 17.84 21 17.84H19.64V11.04H21C21.8837 11.04 22.6 11.7563 22.6 12.64Z" fill="#9DA3B4"/>
  </symbol>

  <symbol id="logout" viewBox="0 0 23 26" fill="none">
    <path fill-rule="evenodd" clip-rule="evenodd" d="M16.4977 1.82668L1.99766 3.47003V22.7291L16.4977 24.3724V1.82668ZM16.6977 0.399536C17.2792 0.399536 17.8977 0.815664 17.8977 1.49956V24.6996C17.8977 25.3836 17.279 25.7995 16.6977 25.7995H16.6581L1.64713 24.0983C1.3423 24.0833 1.0919 23.9338 0.927663 23.7695C0.754433 23.5963 0.597656 23.3272 0.597656 22.9996V3.29955C0.597656 2.73208 0.993911 2.12933 1.6487 2.10062L16.6581 0.399536H16.6977Z" fill="#9DA3B4"/>
    <path d="M13.7977 13.6996C13.7977 14.4996 13.1977 15.0995 12.5977 15.0995C11.8977 15.0995 11.3977 14.4996 11.3977 13.6996V12.2995C11.3977 11.4995 11.9977 10.8996 12.5977 10.8996C13.2977 10.8996 13.7977 11.4995 13.7977 12.2995V13.6996Z" fill="#9DA3B4"/>
    <path d="M22.9977 21.9996C22.9977 22.7996 22.5977 23.3996 21.9977 23.3996H21.5977V2.59954H21.9977C22.5977 2.59954 22.9977 3.19956 22.9977 3.99956V21.9996Z" fill="#9DA3B4"/>
  </symbol>

  <svg width="70" height="70" viewBox="0 0 70 70" fill="none" xmlns="http://www.w3.org/2000/svg">
    <path fill-rule="evenodd" clip-rule="evenodd" d="M66.9619 14.6495H30.5045V67.0348H66.9619V14.6495ZM30.5045 11.6843C28.8266 11.6843 27.4664 13.0119 27.4664 14.6495V67.0348C27.4664 68.6724 28.8266 70 30.5045 70H66.9619C68.6398 70 70 68.6724 70 67.0348V14.6495C70 13.0119 68.6398 11.6843 66.9619 11.6843H30.5045Z" fill="#FFA41D"/>
    <path d="M56.5073 34.7347C54.6954 32.966 51.6958 32.9978 49.8428 34.8061C49.5093 35.1308 48.9695 35.1308 48.636 34.8061C46.7833 32.9978 43.7837 32.966 41.9705 34.7347C40.1573 36.5035 40.1896 39.4286 42.0437 41.2355L42.646 41.824L48.5236 47.5566C48.919 47.9423 49.5598 47.9423 49.9553 47.5566L56.4365 41.2355C58.2896 39.4286 58.3219 36.5031 56.5073 34.7347Z" fill="#FFA41D"/>
    <path fill-rule="evenodd" clip-rule="evenodd" d="M49.4848 34.4566C51.5281 32.4627 54.8484 32.4163 56.8654 34.3853C58.885 36.3538 58.838 39.5924 56.7944 41.5851C56.7944 41.5851 56.7944 41.5851 56.7944 41.5851L50.3132 47.9062C49.72 48.4847 48.7588 48.4847 48.1657 47.9062L41.6859 41.5852C41.6858 41.5852 41.686 41.5853 41.6859 41.5852C39.6413 39.5924 39.5943 36.3539 41.6125 34.3852C43.6308 32.4164 46.951 32.4626 48.9941 34.4566C49.1299 34.5889 49.3489 34.5889 49.4848 34.4566ZM43.0042 41.4747L42.4019 40.8862C40.7386 39.2652 40.7203 36.6529 42.3284 35.0843C43.9367 33.5155 46.6156 33.5331 48.278 35.1555C48.8091 35.6727 49.6693 35.6731 50.2004 35.156C51.8632 33.5334 54.5425 33.5156 56.1492 35.0841C57.7585 36.6524 57.741 39.2649 56.0786 40.8859L49.5973 47.207C49.3996 47.3999 49.0792 47.3999 48.8815 47.207L43.0042 41.4747Z" fill="#FFA41D"/>
    <path fill-rule="evenodd" clip-rule="evenodd" d="M0.157506 14.844C-0.496149 12.4719 0.944269 10.0317 3.37476 9.3937L38.5767 0.153726C41.0072 -0.484241 43.5074 0.921606 44.1611 3.29377L46.6128 12.1911L43.6789 12.9612L41.2272 4.06387C41.0093 3.27314 40.1759 2.80453 39.3658 3.01718L4.16379 12.2572C3.35363 12.4698 2.87349 13.2832 3.09137 14.0739L16.9766 64.4647C17.1945 65.2554 18.0279 65.7241 18.8381 65.5114L28.0848 63.0843L28.8738 65.9478L19.6271 68.3749C17.1966 69.0128 14.6964 67.607 14.0428 65.2348L0.157506 14.844Z" fill="#FFA41D"/>
    <path d="M25.7049 25.1785L22.8145 35.3917C22.716 35.7399 22.8199 36.1129 23.0856 36.3644L27.1265 40.1892C27.2754 40.3301 27.4746 40.4089 27.6819 40.4089C28.1225 40.4089 28.4797 40.0603 28.4797 39.6303V26.1836C28.4797 25.9157 28.3683 25.6593 28.171 25.4731L27.3851 24.7312C26.8326 24.2096 25.9095 24.4553 25.7049 25.1785Z" fill="#FFA41D"/>
    <path fill-rule="evenodd" clip-rule="evenodd" d="M27.033 25.0864C26.7568 24.8256 26.2953 24.9485 26.1929 25.3101L23.3026 35.5233C23.2533 35.6974 23.3053 35.8839 23.4382 36.0096L27.4791 39.8344C27.5334 39.8859 27.6062 39.9147 27.6819 39.9147C27.8429 39.9147 27.9733 39.7874 27.9733 39.6303V26.1836C27.9733 26.0496 27.9176 25.9215 27.819 25.8283L27.033 25.0864ZM25.2168 25.0469C25.5238 23.9622 26.9083 23.5936 27.7371 24.3759L28.5231 25.1179C28.819 25.3972 28.986 25.7818 28.986 26.1836V39.6303C28.986 40.3332 28.4022 40.9031 27.6819 40.9031C27.343 40.9031 27.0174 40.7743 26.774 40.544L22.7331 36.7192C22.3346 36.3419 22.1786 35.7825 22.3264 35.2601L25.2168 25.0469Z" fill="#FFA41D"/>
  </svg>

  <symbol id="jackpot-cards" viewBox="0 0 70 70" fill="none">
    <path fill-rule="evenodd" clip-rule="evenodd" d="M66.9619 14.6495H30.5045V67.0348H66.9619V14.6495ZM30.5045 11.6843C28.8266 11.6843 27.4664 13.0119 27.4664 14.6495V67.0348C27.4664 68.6724 28.8266 70 30.5045 70H66.9619C68.6398 70 70 68.6724 70 67.0348V14.6495C70 13.0119 68.6398 11.6843 66.9619 11.6843H30.5045Z" fill="#FFA41D"/>
    <path d="M56.5073 34.7347C54.6954 32.966 51.6958 32.9978 49.8428 34.8061C49.5093 35.1308 48.9695 35.1308 48.636 34.8061C46.7833 32.9978 43.7837 32.966 41.9705 34.7347C40.1573 36.5035 40.1896 39.4286 42.0437 41.2355L42.646 41.824L48.5236 47.5566C48.919 47.9423 49.5598 47.9423 49.9553 47.5566L56.4365 41.2355C58.2896 39.4286 58.3219 36.5031 56.5073 34.7347Z" fill="#FFA41D"/>
    <path fill-rule="evenodd" clip-rule="evenodd" d="M49.4848 34.4566C51.5281 32.4627 54.8484 32.4163 56.8654 34.3853C58.885 36.3538 58.838 39.5924 56.7944 41.5851C56.7944 41.5851 56.7944 41.5851 56.7944 41.5851L50.3132 47.9062C49.72 48.4847 48.7588 48.4847 48.1657 47.9062L41.6859 41.5852C41.6858 41.5852 41.686 41.5853 41.6859 41.5852C39.6413 39.5924 39.5943 36.3539 41.6125 34.3852C43.6308 32.4164 46.951 32.4626 48.9941 34.4566C49.1299 34.5889 49.3489 34.5889 49.4848 34.4566ZM43.0042 41.4747L42.4019 40.8862C40.7386 39.2652 40.7203 36.6529 42.3284 35.0843C43.9367 33.5155 46.6156 33.5331 48.278 35.1555C48.8091 35.6727 49.6693 35.6731 50.2004 35.156C51.8632 33.5334 54.5425 33.5156 56.1492 35.0841C57.7585 36.6524 57.741 39.2649 56.0786 40.8859L49.5973 47.207C49.3996 47.3999 49.0792 47.3999 48.8815 47.207L43.0042 41.4747Z" fill="#FFA41D"/>
    <path fill-rule="evenodd" clip-rule="evenodd" d="M0.157506 14.844C-0.496149 12.4719 0.944269 10.0317 3.37476 9.3937L38.5767 0.153726C41.0072 -0.484241 43.5074 0.921606 44.1611 3.29377L46.6128 12.1911L43.6789 12.9612L41.2272 4.06387C41.0093 3.27314 40.1759 2.80453 39.3658 3.01718L4.16379 12.2572C3.35363 12.4698 2.87349 13.2832 3.09137 14.0739L16.9766 64.4647C17.1945 65.2554 18.0279 65.7241 18.8381 65.5114L28.0848 63.0843L28.8738 65.9478L19.6271 68.3749C17.1966 69.0128 14.6964 67.607 14.0428 65.2348L0.157506 14.844Z" fill="#FFA41D"/>
    <path d="M25.7049 25.1785L22.8145 35.3917C22.716 35.7399 22.8199 36.1129 23.0856 36.3644L27.1265 40.1892C27.2754 40.3301 27.4746 40.4089 27.6819 40.4089C28.1225 40.4089 28.4797 40.0603 28.4797 39.6303V26.1836C28.4797 25.9157 28.3683 25.6593 28.171 25.4731L27.3851 24.7312C26.8326 24.2096 25.9095 24.4553 25.7049 25.1785Z" fill="#FFA41D"/>
    <path fill-rule="evenodd" clip-rule="evenodd" d="M27.033 25.0864C26.7568 24.8256 26.2953 24.9485 26.1929 25.3101L23.3026 35.5233C23.2533 35.6974 23.3053 35.8839 23.4382 36.0096L27.4791 39.8344C27.5334 39.8859 27.6062 39.9147 27.6819 39.9147C27.8429 39.9147 27.9733 39.7874 27.9733 39.6303V26.1836C27.9733 26.0496 27.9176 25.9215 27.819 25.8283L27.033 25.0864ZM25.2168 25.0469C25.5238 23.9622 26.9083 23.5936 27.7371 24.3759L28.5231 25.1179C28.819 25.3972 28.986 25.7818 28.986 26.1836V39.6303C28.986 40.3332 28.4022 40.9031 27.6819 40.9031C27.343 40.9031 27.0174 40.7743 26.774 40.544L22.7331 36.7192C22.3346 36.3419 22.1786 35.7825 22.3264 35.2601L25.2168 25.0469Z" fill="#FFA41D"/>
  </symbol>
</svg>
