<svg width="71" height="72" viewBox="0 0 71 72" fill="none" xmlns="http://www.w3.org/2000/svg">
<rect x="29.7969" y="14.4966" width="39" height="56" rx="1.5" stroke="#FFA41D" stroke-width="3"/>
<path d="M56.9734 36.3174C55.1843 34.5279 52.2224 34.5601 50.3926 36.3896C50.0633 36.7181 49.5302 36.7181 49.2009 36.3896C47.3715 34.5601 44.4095 34.5279 42.619 36.3174C40.8285 38.1069 40.8605 41.0664 42.6913 42.8945L43.2861 43.4899L49.0899 49.2897C49.4803 49.6799 50.1131 49.6799 50.5036 49.2897L56.3077 43.4899L56.9035 42.8945C58.7333 41.0664 58.7653 38.1066 56.9734 36.3174Z" fill="#FFA41D" stroke="#FFA41D" stroke-miterlimit="10"/>
<path d="M45.7545 13.8989L43.3336 4.89713C42.9033 3.29713 41.2574 2.3489 39.6574 2.7792L4.89706 12.1276C3.29706 12.5579 2.34883 14.2038 2.77913 15.8038L16.4902 66.7859C16.9205 68.3859 18.5664 69.3341 20.1664 68.9038L29.2971 66.4483" stroke="#FFA41D" stroke-width="3"/>
<path d="M26.5575 26.6491L23.7034 36.9822C23.6061 37.3345 23.7087 37.7118 23.9711 37.9663L27.9613 41.836C28.1083 41.9785 28.305 42.0582 28.5097 42.0582C28.9448 42.0582 29.2975 41.7055 29.2975 41.2705L29.2975 27.666C29.2975 27.395 29.1875 27.1356 28.9927 26.9472L28.2166 26.1965C27.671 25.6688 26.7595 25.9175 26.5575 26.6491Z" fill="#FFA41D" stroke="#FFA41D"/>
</svg>
