<svg width="62" height="25" viewBox="0 0 62 25" fill="none" xmlns="http://www.w3.org/2000/svg">
<path d="M5.14746 1.19678C5.14746 1.05518 5.23047 0.984375 5.39648 0.984375C5.87012 0.984375 6.56104 0.979492 7.46924 0.969727C8.38232 0.959961 9.06348 0.955078 9.5127 0.955078C9.64941 0.955078 9.7666 1.02344 9.86426 1.16016L11.124 8.45508C11.2021 7.98633 11.3413 7.32715 11.5415 6.47754C11.7417 5.62305 11.8711 5.05664 11.9297 4.77832L12.6621 1.11621C12.7012 0.999023 13.7021 0.94043 15.665 0.94043H16.8369C16.9297 0.974609 16.9883 1.05762 17.0127 1.18945L15.3721 7.12207C15.3379 7.25391 15.272 7.54688 15.1743 8.00098C15.0815 8.4502 14.9863 8.88232 14.8887 9.29736C14.7959 9.70752 14.6885 10.1372 14.5664 10.5864C14.4443 11.0356 14.3125 11.4067 14.1709 11.6997C14.0342 11.9927 13.9023 12.1611 13.7754 12.2051C13.5996 12.2051 13.3384 12.1978 12.9917 12.1831C12.645 12.1685 12.3838 12.1611 12.208 12.1611H11.6807C11.3486 12.1904 10.9849 12.21 10.5894 12.2197C10.1987 12.2295 9.78125 12.2368 9.33691 12.2417C8.89258 12.2466 8.53613 12.2539 8.26758 12.2637L5.14746 1.19678ZM16.9468 2.53711C16.9468 2.24414 16.959 2.07324 16.9834 2.02441C17.0273 1.95605 17.0981 1.92188 17.1958 1.92188H17.3716C17.4497 1.92188 17.5034 1.92676 17.5327 1.93652H17.9136C18.4067 1.93652 19.1514 1.92432 20.1475 1.8999C21.1484 1.87549 21.8979 1.86328 22.396 1.86328H24.3442C24.4712 1.87793 24.5347 1.94141 24.5347 2.05371V4.5C24.5298 4.5293 24.52 4.55615 24.5054 4.58057C24.4956 4.6001 24.4858 4.61475 24.4761 4.62451C24.4712 4.62939 24.4492 4.64648 24.4102 4.67578C24.3711 4.7002 24.3442 4.71973 24.3296 4.73438H20.9312V5.64258H21.2534C21.5366 5.64258 21.9688 5.63281 22.5498 5.61328C23.1309 5.59375 23.5776 5.58398 23.8901 5.58398C24.0269 5.58398 24.1196 5.61084 24.1685 5.66455C24.2173 5.71826 24.2417 5.79395 24.2417 5.8916C24.2417 5.91602 24.2368 5.95752 24.2271 6.01611C24.2173 6.07471 24.2124 6.11621 24.2124 6.14062V6.41895C24.2124 6.43848 24.2148 6.47998 24.2197 6.54346C24.2246 6.60205 24.2271 6.65332 24.2271 6.69727V6.90234C24.2271 7.00977 24.2319 7.11719 24.2417 7.22461C24.2515 7.33203 24.2563 7.4248 24.2563 7.50293V7.69336C24.2319 7.75195 24.2124 7.79102 24.1978 7.81055C24.1831 7.83008 24.1587 7.83984 24.1245 7.83984V7.8252C23.9438 7.8252 23.6313 7.8374 23.187 7.86182C22.7476 7.88623 22.396 7.89844 22.1323 7.89844H20.9604V8.83594C20.9995 8.83594 21.0581 8.83838 21.1362 8.84326C21.2144 8.84814 21.2729 8.85059 21.312 8.85059C21.5317 8.85059 21.8564 8.84326 22.2861 8.82861C22.7158 8.81396 23.0259 8.80664 23.2163 8.80664H24.1538C24.4077 8.80664 24.5688 8.83594 24.6372 8.89453C24.6616 8.92383 24.6812 8.95312 24.6958 8.98242V11.3262C24.6958 11.4287 24.6763 11.5068 24.6372 11.5605C24.5981 11.6143 24.5249 11.6436 24.4175 11.6484H17.1665L16.9468 11.458V2.53711ZM35.272 11.0332C35.2329 11.2139 34.9009 11.3774 34.2759 11.5239C33.6558 11.6655 33.0356 11.7656 32.4155 11.8242C31.8003 11.8828 31.312 11.9121 30.9507 11.9121C30.5698 11.9121 30.2378 11.9023 29.9546 11.8828C29.6763 11.8633 29.3418 11.8218 28.9512 11.7583C28.5654 11.6899 28.1943 11.5776 27.8379 11.4214C27.4814 11.2603 27.147 11.0576 26.8345 10.8135L26.5269 10.5498C26.4438 10.4912 26.3608 10.4033 26.2778 10.2861L26.0435 9.97852C25.4575 9.05566 25.1646 7.98145 25.1646 6.75586C25.1646 5.54004 25.4722 4.50488 26.0874 3.65039L26.2925 3.40137V3.29883V3.31348C27.1714 2.19043 28.6216 1.62891 30.6431 1.62891C30.936 1.62891 31.2534 1.65576 31.5952 1.70947C31.9419 1.7583 32.3081 1.83887 32.6938 1.95117C33.0845 2.05859 33.4531 2.21973 33.7998 2.43457C34.1465 2.64941 34.4224 2.89844 34.6274 3.18164C34.73 3.31836 34.8081 3.47217 34.8618 3.64307C34.9155 3.80908 34.9644 4.02637 35.0083 4.29492C35.0571 4.55859 35.0962 4.75391 35.1255 4.88086C35.1255 5.04688 34.9692 5.12988 34.6567 5.12988H34.0562C33.9194 5.12988 33.6387 5.12256 33.2139 5.10791C32.7939 5.09326 32.4595 5.08594 32.2104 5.08594H31.4048C31.3364 5.06152 31.2729 4.98584 31.2144 4.85889C31.1606 4.72705 31.1265 4.65137 31.1118 4.63184V4.64648C31.0239 4.45117 30.8286 4.35352 30.5259 4.35352C30.3257 4.35352 30.1499 4.39746 29.9985 4.48535C29.8521 4.56836 29.7397 4.67334 29.6616 4.80029C29.5835 4.92236 29.52 5.07861 29.4712 5.26904C29.4272 5.45459 29.3979 5.62549 29.3833 5.78174C29.3735 5.93799 29.3687 6.11621 29.3687 6.31641C29.3687 6.38477 29.3711 6.47998 29.376 6.60205C29.3809 6.72412 29.3833 6.80469 29.3833 6.84375V7.40039C29.3833 7.57617 29.3882 7.72998 29.3979 7.86182C29.4126 7.99365 29.4443 8.14258 29.4932 8.30859C29.542 8.47461 29.6104 8.61133 29.6982 8.71875C29.7861 8.82617 29.9131 8.9165 30.0791 8.98975C30.2451 9.06299 30.4429 9.09961 30.6724 9.09961C31.1509 9.09961 31.5269 9.05566 31.8003 8.96777V8.64551C31.8003 8.60645 31.7979 8.55518 31.793 8.4917C31.7881 8.42822 31.7856 8.37695 31.7856 8.33789C31.7856 8.32812 31.7881 8.30371 31.793 8.26465C31.7979 8.22559 31.8003 8.19141 31.8003 8.16211H31.522C31.4829 8.16211 31.4341 8.16455 31.3755 8.16943C31.3169 8.17432 31.2778 8.17676 31.2583 8.17676H30.6431L30.394 7.89844C30.3843 7.84961 30.3794 7.77637 30.3794 7.67871V7.22461C30.3794 7.16602 30.3818 7.07568 30.3867 6.95361C30.3916 6.83154 30.394 6.73145 30.394 6.65332V6.44824C30.394 6.43848 30.3965 6.4165 30.4014 6.38232C30.4062 6.34814 30.4087 6.31641 30.4087 6.28711V6.22852C30.4087 6.14062 30.4258 6.06982 30.46 6.01611C30.4941 5.9624 30.5601 5.90625 30.6577 5.84766H31.3462C31.395 5.84766 31.4683 5.85742 31.5659 5.87695H32.2251C32.7134 5.89648 33.0747 5.90625 33.3091 5.90625H34.0122C34.7544 5.90625 35.1938 5.97461 35.3306 6.11133C35.3306 6.58008 35.3208 7.29297 35.3013 8.25C35.2817 9.20703 35.272 9.91992 35.272 10.3887V11.0332ZM39.9155 10.1836C39.8813 10.2959 39.8472 10.4448 39.813 10.6304C39.7837 10.811 39.7544 10.9551 39.7251 11.0625C39.7007 11.165 39.6567 11.2749 39.5933 11.3921C39.5298 11.5044 39.4321 11.5874 39.3003 11.6411C39.1733 11.6948 39.0073 11.7217 38.8022 11.7217H35.6382V11.4727C35.897 10.6963 36.2729 9.50488 36.7661 7.89844C37.2642 6.29199 37.6499 5.07617 37.9233 4.25098V4.26562C38.0894 3.79199 38.3335 3.0498 38.6558 2.03906C38.6606 2.0293 38.668 2.01709 38.6777 2.00244C38.7217 1.9292 38.7632 1.87305 38.8022 1.83398L42.7573 1.86328C43.4312 1.86328 43.8022 1.92188 43.8706 2.03906V2.22949C43.8804 2.27344 43.9341 2.38574 44.0317 2.56641C44.5054 4.0166 44.8521 5.07129 45.0718 5.73047V5.81836C45.0913 5.95996 45.1353 6.12109 45.2036 6.30176C45.272 6.48242 45.3525 6.67773 45.4453 6.8877C45.543 7.09277 45.6113 7.25391 45.6504 7.37109L45.9434 8.42578C46.1143 8.99219 46.3657 9.74902 46.6978 10.6963V10.6816V10.8281C46.7124 10.8965 46.749 10.9893 46.8076 11.1064C46.8662 11.2236 46.9028 11.3066 46.9175 11.3555C46.9175 11.4922 46.8882 11.5801 46.8296 11.6191C46.7759 11.6582 46.6685 11.6777 46.5073 11.6777H43.1089C43.0259 11.668 42.9722 11.6606 42.9478 11.6558C42.9233 11.6509 42.8843 11.6411 42.8306 11.6265C42.7817 11.6118 42.7451 11.5923 42.7207 11.5679C42.7012 11.5435 42.689 11.5117 42.6841 11.4727L42.4058 10.3594C42.3862 10.2666 42.3667 10.2153 42.3472 10.2056C42.3276 10.1909 42.269 10.1836 42.1714 10.1836H39.9155ZM40.2671 7.57617V7.60547V7.57617ZM41.8784 6.69727C41.8491 6.56055 41.8052 6.34082 41.7466 6.03809C41.6929 5.73047 41.6392 5.46436 41.5854 5.23975C41.5317 5.01025 41.4731 4.79785 41.4097 4.60254V4.25098C41.3706 4.14844 41.3022 4.0752 41.2046 4.03125V4.0459C41.0874 4.07031 40.9702 4.39746 40.853 5.02734V5.37891C40.8433 5.41309 40.8213 5.44482 40.7871 5.47412C40.7529 5.50342 40.7358 5.52051 40.7358 5.52539C40.5747 6.23828 40.4429 6.81445 40.3403 7.25391C40.3403 7.30273 40.3281 7.38818 40.3037 7.51025C40.2793 7.63232 40.2671 7.70312 40.2671 7.72266H42.0835C42.0835 7.5957 42.0396 7.36621 41.9517 7.03418V6.87305C41.9468 6.8584 41.9321 6.83154 41.9077 6.79248C41.8882 6.74854 41.8784 6.7168 41.8784 6.69727ZM52.0591 12.4395C51.4829 12.415 50.9653 12.3638 50.5063 12.2856C50.0474 12.2124 49.603 12.0928 49.1733 11.9268C48.7485 11.7559 48.3896 11.5435 48.0967 11.2896C47.8086 11.0308 47.5669 10.7012 47.3716 10.3008C47.1812 9.90039 47.064 9.43652 47.02 8.90918C47.02 8.81641 47.0688 8.7627 47.1665 8.74805C47.1958 8.75781 47.2446 8.7627 47.313 8.7627C47.7183 8.7627 48.3335 8.75293 49.1587 8.7334C49.9839 8.71387 50.5991 8.7041 51.0044 8.7041C51.1069 8.7041 51.1875 8.73828 51.2461 8.80664C51.3047 8.87012 51.3511 8.95068 51.3853 9.04834C51.4243 9.14111 51.4683 9.23633 51.5171 9.33398C51.5708 9.42676 51.6587 9.50732 51.7808 9.57568C51.9077 9.63916 52.0688 9.6709 52.2642 9.6709C52.5034 9.6709 52.7134 9.60498 52.894 9.47314C53.0796 9.33643 53.1724 9.15332 53.1724 8.92383C53.1724 8.77246 53.0942 8.6333 52.938 8.50635C52.7817 8.37939 52.5742 8.27686 52.3154 8.19873C52.0615 8.11572 51.8174 8.04736 51.583 7.99365C51.3535 7.93506 51.1167 7.88623 50.8726 7.84717C50.6284 7.80322 50.4868 7.77637 50.4478 7.7666C49.2612 7.44434 48.4067 7.04395 47.8843 6.56543C47.3667 6.08691 47.1079 5.43262 47.1079 4.60254C47.1079 4.0166 47.2153 3.4917 47.4302 3.02783C47.645 2.55908 47.9258 2.17822 48.2725 1.88525C48.6191 1.5874 49.0293 1.34082 49.5029 1.14551C49.9766 0.945313 50.4551 0.806152 50.9385 0.728027C51.4219 0.64502 51.9224 0.603516 52.4399 0.603516C53.812 0.603516 54.9058 0.857422 55.7212 1.36523C56.019 1.66309 56.2363 1.89014 56.373 2.04639C56.5146 2.19775 56.6489 2.37598 56.7759 2.58105C56.9077 2.78613 56.998 2.98877 57.0469 3.18896C57.1006 3.38428 57.1372 3.62598 57.1567 3.91406L56.8931 4.17773C55.8921 4.2168 54.769 4.23633 53.5239 4.23633C53.3677 4.23633 53.2407 4.21924 53.1431 4.18506C53.0503 4.15088 52.9868 4.10693 52.9526 4.05322C52.9233 3.99951 52.8916 3.94336 52.8574 3.88477C52.8281 3.82617 52.7988 3.77002 52.7695 3.71631C52.7451 3.6626 52.689 3.61865 52.6011 3.58447C52.5181 3.55029 52.4058 3.5332 52.2642 3.5332C52.2251 3.5332 52.1616 3.54053 52.0737 3.55518C51.9907 3.56982 51.8906 3.59424 51.7734 3.62842C51.6611 3.65771 51.5635 3.70654 51.4805 3.7749C51.3975 3.83838 51.356 3.91406 51.356 4.00195C51.356 4.10938 51.4097 4.20703 51.5171 4.29492C51.6294 4.38281 51.7466 4.44629 51.8687 4.48535C51.9907 4.52441 52.1421 4.56836 52.3228 4.61719C52.5034 4.66113 52.6157 4.69043 52.6597 4.70508C53.7241 4.97363 54.3589 5.13965 54.564 5.20312C55.6333 5.54004 56.3901 5.98193 56.8345 6.52881C57.2446 7.03662 57.4497 7.67383 57.4497 8.44043C57.4497 8.9043 57.3887 9.32666 57.2666 9.70752C57.1494 10.0884 56.9932 10.4106 56.7979 10.6743C56.6025 10.938 56.3584 11.1724 56.0654 11.3774C55.7725 11.5825 55.4746 11.7461 55.1719 11.8682C54.874 11.9902 54.5347 12.0928 54.1538 12.1758C53.7729 12.2588 53.4214 12.3174 53.0991 12.3516C52.7817 12.3906 52.4351 12.4199 52.0591 12.4395Z" fill="white"/>
<path d="M5.15479 19.8364C5.24268 19.48 5.32324 19.0771 5.39648 18.6279C5.47461 18.1787 5.53809 17.7783 5.58691 17.4268C5.63574 17.0752 5.69189 16.6455 5.75537 16.1377C5.82373 15.625 5.87988 15.2197 5.92383 14.9219H10.1426C10.1572 15.0391 10.1719 15.166 10.1865 15.3027C10.2061 15.4346 10.2231 15.5615 10.2378 15.6836C10.2524 15.8057 10.2671 15.9351 10.2817 16.0718C10.3013 16.2085 10.3184 16.3403 10.333 16.4673C10.3477 16.5894 10.3623 16.7188 10.377 16.8555C10.3916 16.9922 10.4062 17.1216 10.4209 17.2437C10.4404 17.3657 10.4575 17.4927 10.4722 17.6245C10.4917 17.7563 10.5088 17.8809 10.5234 17.998L10.8384 20.0708L11.4316 15.0317C11.4414 15.0024 11.4585 14.978 11.4829 14.9585C11.5122 14.939 11.5513 14.9243 11.6001 14.9146C11.6489 14.8999 11.6953 14.8901 11.7393 14.8853C11.7832 14.8755 11.8418 14.8706 11.915 14.8706C11.9932 14.8657 12.0542 14.8633 12.0981 14.8633C12.1421 14.8633 12.2056 14.8633 12.2886 14.8633C12.3716 14.8633 12.4277 14.8633 12.457 14.8633C12.6133 14.8633 12.8379 14.8682 13.1309 14.8779C13.4238 14.8877 13.6484 14.8926 13.8047 14.8926C13.8242 14.8926 13.8755 14.8901 13.9585 14.8853C14.0415 14.8804 14.1074 14.8779 14.1562 14.8779C14.3418 14.8779 14.4492 14.8926 14.4785 14.9219C14.5029 14.9219 14.5444 14.9194 14.603 14.9146C14.6665 14.9097 14.7129 14.9072 14.7422 14.9072C14.7861 14.9072 14.8228 14.9097 14.8521 14.9146C14.8862 14.9194 14.9204 14.9316 14.9546 14.9512C14.9888 14.9658 15.0181 14.9854 15.0425 15.0098C15.0718 15.0342 15.0962 15.0684 15.1157 15.1123C15.1401 15.1562 15.1572 15.21 15.167 15.2734L13.0356 24.6191H8.75098L7.93799 19.917L7.43262 23.7988C7.42773 23.8281 7.41309 23.9087 7.38867 24.0405C7.36914 24.1724 7.35205 24.2627 7.3374 24.3115C7.32764 24.3604 7.30811 24.4263 7.27881 24.5093C7.24951 24.5923 7.21289 24.6509 7.16895 24.6851C7.125 24.7192 7.07129 24.7363 7.00781 24.7363C6.82715 24.7363 6.55859 24.729 6.20215 24.7144C5.8457 24.6997 5.57715 24.6924 5.39648 24.6924C5.08398 24.6924 4.67383 24.6997 4.16602 24.7144C3.6582 24.729 3.28711 24.7363 3.05273 24.7363H2.81836L0.870117 15.6323L0.914062 15.1123C0.914062 15.1025 0.914062 15.083 0.914062 15.0537C0.914062 15.0244 0.914062 15.0073 0.914062 15.0024C0.914062 14.9927 0.916504 14.978 0.921387 14.9585C0.92627 14.9341 0.933594 14.917 0.943359 14.9072C0.953125 14.8975 0.967773 14.8853 0.987305 14.8706C1.00684 14.856 1.03125 14.8438 1.06055 14.834C1.19727 14.8535 1.2998 14.8633 1.36816 14.8633H1.85156C1.94922 14.8633 1.99805 14.8535 1.99805 14.834H2.24707C2.2666 14.834 2.30078 14.8315 2.34961 14.8267C2.40332 14.8218 2.45215 14.8193 2.49609 14.8193H2.70117C2.75488 14.8193 2.83301 14.8169 2.93555 14.812C3.03809 14.8071 3.11621 14.8047 3.16992 14.8047H3.65332V14.834H4.13672C4.29297 14.834 4.41016 14.8584 4.48828 14.9072C4.57129 14.9512 4.61523 15.0439 4.62012 15.1855L5.15479 19.8364ZM15.5405 24.7217V15.0977C15.5454 15.0586 15.5845 15.0244 15.6577 14.9951C15.731 14.9609 15.7749 14.9365 15.7896 14.9219H19.73V24.458C19.7056 24.5605 19.6812 24.6313 19.6567 24.6704C19.6372 24.7046 19.603 24.7217 19.5542 24.7217H15.5405ZM30.8335 14.9219C30.8921 14.9414 30.936 15.0269 30.9653 15.1782C30.9995 15.3247 31.019 15.5103 31.0239 15.7349C31.0288 15.9595 31.0288 16.1743 31.0239 16.3794C31.019 16.5845 31.0117 16.7944 31.002 17.0093C30.9971 17.2241 30.9946 17.3584 30.9946 17.4121C30.9849 17.6074 30.98 17.8809 30.98 18.2324V19.0088C30.98 19.3506 30.9849 19.8193 30.9946 20.415C31.0044 21.0107 31.0093 21.4502 31.0093 21.7334V24.3994C30.9897 24.5654 30.853 24.6484 30.5991 24.6484H26.4976C26.4097 24.6289 26.2974 24.4238 26.1606 24.0332C26.0679 23.7744 25.9116 23.3496 25.6919 22.7588C25.4771 22.168 25.2915 21.6504 25.1353 21.2061C24.979 20.7568 24.8374 20.3223 24.7104 19.9023V19.8584V19.9023C24.6958 20.2246 24.6812 20.7056 24.6665 21.3452C24.6519 21.98 24.6372 22.4561 24.6226 22.7734V24.2676C24.6226 24.4141 24.6055 24.5166 24.5713 24.5752C24.5371 24.6289 24.4468 24.6729 24.3003 24.707H21.2827L20.9604 24.3848C20.9849 23.5742 21.0044 22.3047 21.019 20.5762C21.0337 18.8477 21.0532 17.5684 21.0776 16.7383V15.1562C21.1265 14.9805 21.1851 14.8926 21.2534 14.8926V14.9219C21.5854 14.9219 22.1055 14.9121 22.8135 14.8926C23.5264 14.873 24.061 14.8633 24.4175 14.8633H25.6479C25.6528 14.8633 25.6602 14.8657 25.6699 14.8706C25.7578 14.9048 25.8066 14.9438 25.8164 14.9878L25.8237 15.0391C25.9995 15.5127 26.1777 16.0034 26.3584 16.5112C26.5391 17.019 26.7539 17.6343 27.0029 18.3569C27.252 19.0747 27.4253 19.5703 27.5229 19.8438V18.7598C27.6206 17.041 27.6694 15.8203 27.6694 15.0977C27.6694 15.0195 27.7231 14.9707 27.8306 14.9512C27.938 14.9316 28.104 14.9219 28.3286 14.9219H30.8335ZM42.1714 14.9219C42.23 14.9414 42.2739 15.0269 42.3032 15.1782C42.3374 15.3247 42.3569 15.5103 42.3618 15.7349C42.3667 15.9595 42.3667 16.1743 42.3618 16.3794C42.3569 16.5845 42.3496 16.7944 42.3398 17.0093C42.335 17.2241 42.3325 17.3584 42.3325 17.4121C42.3228 17.6074 42.3179 17.8809 42.3179 18.2324V19.0088C42.3179 19.3506 42.3228 19.8193 42.3325 20.415C42.3423 21.0107 42.3472 21.4502 42.3472 21.7334V24.3994C42.3276 24.5654 42.1909 24.6484 41.937 24.6484H37.8354C37.7476 24.6289 37.6353 24.4238 37.4985 24.0332C37.4058 23.7744 37.2495 23.3496 37.0298 22.7588C36.8149 22.168 36.6294 21.6504 36.4731 21.2061C36.3169 20.7568 36.1753 20.3223 36.0483 19.9023V19.8584V19.9023C36.0337 20.2246 36.019 20.7056 36.0044 21.3452C35.9897 21.98 35.9751 22.4561 35.9604 22.7734V24.2676C35.9604 24.4141 35.9434 24.5166 35.9092 24.5752C35.875 24.6289 35.7847 24.6729 35.6382 24.707H32.6206L32.2983 24.3848C32.3228 23.5742 32.3423 22.3047 32.3569 20.5762C32.3716 18.8477 32.3911 17.5684 32.4155 16.7383V15.1562C32.4644 14.9805 32.5229 14.8926 32.5913 14.8926V14.9219C32.9233 14.9219 33.4434 14.9121 34.1514 14.8926C34.8643 14.873 35.3989 14.8633 35.7554 14.8633H36.9858C36.9907 14.8633 36.998 14.8657 37.0078 14.8706C37.0957 14.9048 37.1445 14.9438 37.1543 14.9878L37.1616 15.0391C37.3374 15.5127 37.5156 16.0034 37.6963 16.5112C37.877 17.019 38.0918 17.6343 38.3408 18.3569C38.5898 19.0747 38.7632 19.5703 38.8608 19.8438V18.7598C38.9585 17.041 39.0073 15.8203 39.0073 15.0977C39.0073 15.0195 39.061 14.9707 39.1685 14.9512C39.2759 14.9316 39.4419 14.9219 39.6665 14.9219H42.1714ZM43.7534 15.5371C43.7534 15.2441 43.7656 15.0732 43.79 15.0244C43.834 14.9561 43.9048 14.9219 44.0024 14.9219H44.1782C44.2563 14.9219 44.3101 14.9268 44.3394 14.9365H44.7202C45.2134 14.9365 45.958 14.9243 46.9541 14.8999C47.9551 14.8755 48.7046 14.8633 49.2026 14.8633H51.1509C51.2778 14.8779 51.3413 14.9414 51.3413 15.0537V17.5C51.3364 17.5293 51.3267 17.5562 51.312 17.5806C51.3022 17.6001 51.2925 17.6147 51.2827 17.6245C51.2778 17.6294 51.2559 17.6465 51.2168 17.6758C51.1777 17.7002 51.1509 17.7197 51.1362 17.7344H47.7378V18.6426H48.0601C48.3433 18.6426 48.7754 18.6328 49.3564 18.6133C49.9375 18.5938 50.3843 18.584 50.6968 18.584C50.8335 18.584 50.9263 18.6108 50.9751 18.6646C51.0239 18.7183 51.0483 18.7939 51.0483 18.8916C51.0483 18.916 51.0435 18.9575 51.0337 19.0161C51.0239 19.0747 51.019 19.1162 51.019 19.1406V19.4189C51.019 19.4385 51.0215 19.48 51.0264 19.5435C51.0312 19.6021 51.0337 19.6533 51.0337 19.6973V19.9023C51.0337 20.0098 51.0386 20.1172 51.0483 20.2246C51.0581 20.332 51.063 20.4248 51.063 20.5029V20.6934C51.0386 20.752 51.019 20.791 51.0044 20.8105C50.9897 20.8301 50.9653 20.8398 50.9312 20.8398V20.8252C50.7505 20.8252 50.438 20.8374 49.9937 20.8618C49.5542 20.8862 49.2026 20.8984 48.939 20.8984H47.7671V21.8359C47.8062 21.8359 47.8647 21.8384 47.9429 21.8433C48.021 21.8481 48.0796 21.8506 48.1187 21.8506C48.3384 21.8506 48.6631 21.8433 49.0928 21.8286C49.5225 21.814 49.8325 21.8066 50.0229 21.8066H50.9604C51.2144 21.8066 51.3755 21.8359 51.4438 21.8945C51.4683 21.9238 51.4878 21.9531 51.5024 21.9824V24.3262C51.5024 24.4287 51.4829 24.5068 51.4438 24.5605C51.4048 24.6143 51.3315 24.6436 51.2241 24.6484H43.9731L43.7534 24.458V15.5371ZM52.3521 14.9219H53.7144C54.1343 14.9219 54.8057 14.9121 55.7285 14.8926C56.6514 14.873 57.3423 14.8633 57.8013 14.8633C58.1968 14.8633 58.5654 14.8853 58.9072 14.9292C59.2539 14.9731 59.5933 15.0537 59.9253 15.1709C60.2622 15.2881 60.5479 15.437 60.7822 15.6177C61.0215 15.7983 61.2144 16.0376 61.3608 16.3354C61.5073 16.6284 61.5806 16.9678 61.5806 17.3535C61.5806 17.8857 61.4561 18.3398 61.207 18.7158C60.958 19.0918 60.5747 19.4092 60.0571 19.668C60.2622 19.7559 60.4404 19.8706 60.5918 20.0122C60.7432 20.1538 60.8579 20.2759 60.936 20.3784C61.019 20.481 61.0972 20.6543 61.1704 20.8984C61.2485 21.1377 61.2949 21.2964 61.3096 21.3745C61.3242 21.4478 61.356 21.6333 61.4048 21.9312C61.4194 21.9995 61.4292 22.0508 61.4341 22.085C61.4536 22.2803 61.5366 22.6392 61.6831 23.1616C61.8296 23.6792 61.9028 24.0771 61.9028 24.3555C61.9028 24.5312 61.8491 24.6191 61.7417 24.6191C61.4487 24.6191 61.0044 24.6216 60.4087 24.6265C59.8179 24.6313 59.3784 24.6338 59.0903 24.6338C58.9731 24.624 58.7974 24.6191 58.563 24.6191H58.0649C57.9673 24.5898 57.8721 24.4385 57.7793 24.165C57.6865 23.8916 57.6206 23.584 57.5815 23.2422L57.4204 21.9385C57.3911 21.8311 57.3667 21.7554 57.3472 21.7114C57.3325 21.6626 57.3032 21.6064 57.2593 21.543C57.2153 21.4746 57.1543 21.4282 57.0762 21.4038C57.0029 21.3794 56.9077 21.3672 56.7905 21.3672H56.4536V24.2969C56.4536 24.3115 56.4536 24.3359 56.4536 24.3701C56.4536 24.3994 56.4536 24.4214 56.4536 24.436C56.4536 24.4458 56.4536 24.4629 56.4536 24.4873C56.4536 24.5117 56.4512 24.5312 56.4463 24.5459C56.4414 24.5557 56.4365 24.5703 56.4316 24.5898C56.4268 24.6094 56.4194 24.624 56.4097 24.6338C56.4048 24.6387 56.395 24.6484 56.3804 24.6631C56.3706 24.6729 56.356 24.6802 56.3364 24.6851C56.3218 24.6899 56.3022 24.6948 56.2778 24.6997C56.2583 24.7046 56.2339 24.707 56.2046 24.707H52.3521V14.9219ZM56.4976 18.7891C56.5073 18.7988 56.522 18.8208 56.5415 18.855C56.561 18.8843 56.5806 18.9087 56.6001 18.9282C56.6196 18.9478 56.6392 18.96 56.6587 18.9648C56.8052 18.9648 56.9517 18.9502 57.0981 18.9209C57.2446 18.8867 57.3936 18.833 57.5449 18.7598C57.7012 18.6865 57.8257 18.5742 57.9185 18.4229C58.0161 18.2715 58.0649 18.0908 58.0649 17.8809C58.0649 17.373 57.5767 17.1191 56.6001 17.1191C56.5024 17.1436 56.4536 17.1826 56.4536 17.2363V17.5146C56.4536 17.6562 56.4609 17.8687 56.4756 18.1519C56.4902 18.4351 56.4976 18.6475 56.4976 18.7891Z" fill="#FE863A"/>
</svg>
