<svg width="14" height="15" viewBox="0 0 14 15" fill="none" xmlns="http://www.w3.org/2000/svg">
<path opacity="0.8" fill-rule="evenodd" clip-rule="evenodd" d="M0 7.17526C0 6.1031 0.934479 5.23394 2.08722 5.23394H2.24768C2.24769 4.25043 2.3756 2.97781 3.03922 1.91911C3.76965 0.753834 5.05251 0 6.92858 0C8.79757 0 10.1014 0.745981 10.8693 1.88825C11.5787 2.94342 11.7523 4.21717 11.7523 5.23394H11.9128C13.0655 5.23394 14 6.1031 14 7.17526V13.0587C14 14.1308 13.0655 15 11.9128 15H2.08722C0.934481 15 0 14.1308 0 13.0587V7.17526ZM9.24768 5.23394H4.75234C4.75235 4.36785 4.88114 3.60591 5.20299 3.09244C5.45806 2.68553 5.88948 2.32959 6.92858 2.32959C7.97478 2.32959 8.45663 2.69338 8.74565 3.12331C9.0932 3.6403 9.24768 4.40111 9.24768 5.23394ZM10.3736 8.34949L9.75925 7.79055C9.67506 7.71393 9.57279 7.67552 9.4523 7.67552C9.33188 7.67552 9.22933 7.71393 9.14515 7.79055L6.18251 10.4912L4.85495 9.2785C4.77048 9.20188 4.66815 9.16347 4.54772 9.16347C4.4273 9.16347 4.32496 9.20188 4.24057 9.2785L3.62639 9.83744C3.54221 9.91432 3.50001 10.0074 3.50001 10.1171C3.50001 10.2267 3.54221 10.32 3.62639 10.3966L5.87557 12.4435C5.95975 12.5204 6.06209 12.5586 6.18251 12.5586C6.30294 12.5586 6.40527 12.5204 6.48967 12.4435L10.3736 8.90869C10.4578 8.83188 10.5 8.73873 10.5 8.62912C10.5 8.51952 10.4578 8.42637 10.3736 8.34949Z" fill="#9DA3B4" fill-opacity="0.5"/>
</svg>
