<svg width="191" height="154" viewBox="0 0 191 154" fill="none" xmlns="http://www.w3.org/2000/svg">
<path d="M16.7773 84C16.7773 81.9289 18.4563 80.25 20.5273 80.25C22.5984 80.25 24.2773 81.9289 24.2773 84C24.2773 86.0711 22.5984 87.75 20.5273 87.75C18.4563 87.75 16.7773 86.0711 16.7773 84Z" stroke="#8C75FA" stroke-width="2.5"/>
<path d="M107.777 5C107.777 2.92893 109.456 1.25 111.527 1.25C113.598 1.25 115.277 2.92893 115.277 5C115.277 7.07107 113.598 8.75 111.527 8.75C109.456 8.75 107.777 7.07107 107.777 5Z" stroke="#8C75FA" stroke-width="2.5"/>
<path d="M181.777 55C181.777 52.9289 183.456 51.25 185.527 51.25C187.598 51.25 189.277 52.9289 189.277 55C189.277 57.0711 187.598 58.75 185.527 58.75C183.456 58.75 181.777 57.0711 181.777 55Z" stroke="#8C75FA" stroke-width="2.5"/>
<path d="M24.9611 25.5864L17.1874 24.9249L14.0995 18.3455C13.8833 17.8848 13.1714 17.8848 12.9552 18.3455L9.8673 24.9249L2.09361 25.5864C1.54929 25.6328 1.32931 26.254 1.73998 26.585L7.60526 31.3128L5.88879 38.3011C5.7686 38.7904 6.34451 39.1743 6.81452 38.9182L13.5273 35.2608L20.2402 38.9182C20.7102 39.1743 21.2861 38.7904 21.1659 38.3011L19.4494 31.3128L25.3147 26.585C25.7254 26.254 25.5054 25.6328 24.9611 25.5864Z" stroke="#8C75FA" stroke-width="3"/>
<path d="M158.15 61.0576L152.967 60.6166L150.909 56.2303C150.765 55.9232 150.29 55.9232 150.146 56.2303L148.087 60.6166L142.905 61.0576C142.542 61.0885 142.395 61.5026 142.669 61.7233L146.579 64.8752L145.435 69.5341C145.355 69.8603 145.739 70.1162 146.052 69.9455L150.527 67.5072L155.003 69.9455C155.316 70.1162 155.7 69.8603 155.62 69.5341L154.475 64.8752L158.386 61.7233C158.659 61.5026 158.513 61.0885 158.15 61.0576Z" stroke="#8C75FA" stroke-width="2.5"/>
<path d="M174.15 26.0576L168.967 25.6166L166.909 21.2303C166.765 20.9232 166.29 20.9232 166.146 21.2303L164.087 25.6166L158.905 26.0576C158.542 26.0885 158.395 26.5026 158.669 26.7233L162.579 29.8752L161.435 34.5341C161.355 34.8603 161.739 35.1162 162.052 34.9455L166.527 32.5072L171.003 34.9455C171.316 35.1162 171.7 34.8603 171.62 34.5341L170.475 29.8752L174.386 26.7233C174.659 26.5026 174.513 26.0885 174.15 26.0576Z" stroke="#8C75FA" stroke-width="2.5"/>
<path d="M80.1628 131.464C69.1361 142.358 51.2584 142.358 40.2317 131.464C29.2051 120.57 29.2051 102.907 40.2317 92.0131C51.2584 81.1191 69.1361 81.1191 80.1628 92.0131C91.1895 102.907 91.1895 120.57 80.1628 131.464Z" stroke="#8C75FA" stroke-width="4"/>
<path d="M72.3853 123.345C65.654 129.996 54.7405 129.996 48.0093 123.345C41.278 116.695 41.278 105.913 48.0093 99.2627C54.7405 92.6125 65.654 92.6125 72.3852 99.2627C79.1165 105.913 79.1165 116.695 72.3853 123.345Z" stroke="#8C75FA" stroke-width="4"/>
<path d="M72.043 123L80.2216 131.204" stroke="#8C75FA" stroke-width="4"/>
<path d="M40.0129 91.4873L47.6288 98.8846" stroke="#8C75FA" stroke-width="4"/>
<path d="M43.3701 111.367L31.7149 111.279" stroke="#8C75FA" stroke-width="4"/>
<path d="M88.5801 111.277L77.9004 111.367" stroke="#8C75FA" stroke-width="4"/>
<path d="M60.1006 94.752L60.189 83.237" stroke="#8C75FA" stroke-width="4"/>
<path d="M60.191 139.4L60.1006 128.849" stroke="#8C75FA" stroke-width="4"/>
<path d="M48.3154 123.062L40.0111 131.143" stroke="#8C75FA" stroke-width="4"/>
<path d="M80.218 91.4229L72.7306 98.9471" stroke="#8C75FA" stroke-width="4"/>
<path d="M148.61 131.464C137.583 142.358 119.706 142.358 108.679 131.464C97.6523 120.57 97.6523 102.907 108.679 92.0131C119.706 81.1191 137.583 81.1191 148.61 92.0131C159.637 102.907 159.637 120.57 148.61 131.464Z" stroke="#8C75FA" stroke-width="4"/>
<path d="M140.833 123.345C134.101 129.996 123.188 129.996 116.457 123.345C109.725 116.695 109.725 105.913 116.457 99.2627C123.188 92.6125 134.101 92.6125 140.833 99.2627C147.564 105.913 147.564 116.695 140.833 123.345Z" stroke="#8C75FA" stroke-width="4"/>
<path d="M140.49 123L148.669 131.204" stroke="#8C75FA" stroke-width="4"/>
<path d="M108.46 91.4873L116.076 98.8846" stroke="#8C75FA" stroke-width="4"/>
<path d="M111.817 111.367L100.162 111.279" stroke="#8C75FA" stroke-width="4"/>
<path d="M157.027 111.277L146.348 111.367" stroke="#8C75FA" stroke-width="4"/>
<path d="M128.548 94.752L128.636 83.237" stroke="#8C75FA" stroke-width="4"/>
<path d="M128.638 139.4L128.548 128.849" stroke="#8C75FA" stroke-width="4"/>
<path d="M116.763 123.062L108.458 131.143" stroke="#8C75FA" stroke-width="4"/>
<path d="M148.665 91.4229L141.178 98.9471" stroke="#8C75FA" stroke-width="4"/>
<path d="M113.378 73.9872C102.351 84.8812 84.4732 84.8812 73.4466 73.9872C62.4199 63.0932 62.4199 45.4306 73.4466 34.5366C84.4732 23.6426 102.351 23.6426 113.378 34.5366C124.404 45.4306 124.404 63.0932 113.378 73.9872Z" stroke="#8C75FA" stroke-width="4"/>
<path d="M105.6 65.8688C98.8689 72.5191 87.9554 72.5191 81.2241 65.8688C74.4929 59.2186 74.4929 48.4364 81.2241 41.7862C87.9554 35.1359 98.8689 35.1359 105.6 41.7862C112.331 48.4364 112.331 59.2186 105.6 65.8688Z" stroke="#8C75FA" stroke-width="4"/>
<path d="M105.258 65.5234L113.436 73.7278" stroke="#8C75FA" stroke-width="4"/>
<path d="M73.2268 34.0107L80.8427 41.408" stroke="#8C75FA" stroke-width="4"/>
<path d="M76.585 53.8906L64.9298 53.8022" stroke="#8C75FA" stroke-width="4"/>
<path d="M121.795 53.8002L111.115 53.8906" stroke="#8C75FA" stroke-width="4"/>
<path d="M93.3145 37.2754L93.4029 25.7605" stroke="#8C75FA" stroke-width="4"/>
<path d="M93.4048 81.9238L93.3145 71.3727" stroke="#8C75FA" stroke-width="4"/>
<path d="M81.5283 65.5859L73.224 73.6661" stroke="#8C75FA" stroke-width="4"/>
<path d="M113.433 33.9463L105.945 41.4705" stroke="#8C75FA" stroke-width="4"/>
</svg>
