<svg width="154" height="149" viewBox="0 0 154 149" fill="none" xmlns="http://www.w3.org/2000/svg">
<path d="M49.0273 34C49.0273 32.067 50.5943 30.5 52.5273 30.5C54.4603 30.5 56.0273 32.067 56.0273 34C56.0273 35.933 54.4603 37.5 52.5273 37.5C50.5943 37.5 49.0273 35.933 49.0273 34Z" stroke="#8C75FA" stroke-width="3"/>
<path d="M25.0273 77C25.0273 75.067 26.5943 73.5 28.5273 73.5C30.4603 73.5 32.0273 75.067 32.0273 77C32.0273 78.933 30.4603 80.5 28.5273 80.5C26.5943 80.5 25.0273 78.933 25.0273 77Z" stroke="#8C75FA" stroke-width="3"/>
<path d="M145.027 11C145.027 9.067 146.594 7.5 148.527 7.5C150.46 7.5 152.027 9.067 152.027 11C152.027 12.933 150.46 14.5 148.527 14.5C146.594 14.5 145.027 12.933 145.027 11Z" stroke="#8C75FA" stroke-width="3"/>
<path d="M18.1262 44.4189L12.6199 43.9463L10.4326 39.2468C10.2795 38.9177 9.7752 38.9177 9.62207 39.2468L7.43481 43.9464L1.92845 44.4189C1.54289 44.452 1.38707 44.8957 1.67796 45.1321L5.83253 48.5092L4.6167 53.5008C4.53157 53.8503 4.9395 54.1245 5.27243 53.9416L10.0273 51.3292L14.7823 53.9416C15.1152 54.1245 15.5232 53.8503 15.438 53.5008L14.2222 48.5092L18.3767 45.1321C18.6676 44.8957 18.5118 44.452 18.1262 44.4189Z" stroke="#8C75FA" stroke-width="3"/>
<path d="M148.15 68.0576L142.967 67.6166L140.909 63.2303C140.765 62.9232 140.29 62.9232 140.146 63.2303L138.087 67.6166L132.905 68.0576C132.542 68.0885 132.395 68.5026 132.669 68.7233L136.579 71.8752L135.435 76.5341C135.355 76.8603 135.739 77.1162 136.052 76.9455L140.527 74.5072L145.003 76.9455C145.316 77.1162 145.7 76.8603 145.62 76.5341L144.475 71.8752L148.386 68.7233C148.659 68.5026 148.513 68.0885 148.15 68.0576Z" stroke="#8C75FA" stroke-width="2.5"/>
<path d="M131.15 29.0576L125.967 28.6166L123.909 24.2303C123.765 23.9232 123.29 23.9232 123.146 24.2303L121.087 28.6166L115.905 29.0576C115.542 29.0885 115.395 29.5026 115.669 29.7233L119.579 32.8752L118.435 37.5341C118.355 37.8603 118.739 38.1162 119.052 37.9455L123.527 35.5072L128.003 37.9455C128.316 38.1162 128.7 37.8603 128.62 37.5341L127.475 32.8752L131.386 29.7233C131.659 29.5026 131.513 29.0885 131.15 29.0576Z" stroke="#8C75FA" stroke-width="2.5"/>
<path d="M47.1498 7.05762L41.9674 6.61658L39.9087 2.23035C39.7646 1.92322 39.29 1.92322 39.1459 2.23035L37.0873 6.61661L31.9049 7.05762C31.542 7.0885 31.3953 7.50264 31.6691 7.72332L35.5793 10.8752L34.435 15.5341C34.3548 15.8603 34.7388 16.1162 35.0521 15.9455L39.5273 13.5072L44.0026 15.9455C44.3159 16.1162 44.6999 15.8603 44.6197 15.5341L43.4754 10.8752L47.3856 7.72332C47.6594 7.50264 47.5127 7.0885 47.1498 7.05762Z" stroke="#8C75FA" stroke-width="2.5"/>
<rect x="26.5273" y="111" width="16" height="36" rx="3" stroke="#8C75FA" stroke-width="4"/>
<rect x="96.5273" y="111" width="16" height="36" rx="3" stroke="#8C75FA" stroke-width="4"/>
<rect x="56.5273" y="111" width="16" height="36" rx="3" stroke="#8C75FA" stroke-width="4"/>
<rect x="126.527" y="111" width="16" height="36" rx="3" stroke="#8C75FA" stroke-width="4"/>
<path d="M101.678 39.9215L90.0174 38.8819L85.3855 28.543C85.0612 27.819 83.9934 27.819 83.6691 28.543L79.0373 38.882L67.3767 39.9215C66.5603 39.9943 66.2303 40.9705 66.8463 41.4907L75.6442 48.9202L73.0695 59.9017C72.8892 60.6706 73.7531 61.2739 74.4581 60.8715L84.5273 55.1241L94.5966 60.8715C95.3016 61.2739 96.1655 60.6706 95.9852 59.9017L93.4105 48.9202L102.208 41.4907C102.824 40.9705 102.494 39.9943 101.678 39.9215Z" stroke="#8C75FA" stroke-width="3"/>
<path d="M64.5273 111L64.5273 98C64.5273 96.8954 63.6319 96 62.5273 96L36.5273 96C35.4228 96 34.5273 96.8954 34.5273 98L34.5273 111" stroke="#8C75FA" stroke-width="4"/>
<path d="M119.527 95L119.527 82C119.527 80.8954 118.632 80 117.527 80L51.5273 80C50.4228 80 49.5273 80.8954 49.5273 82L49.5273 95" stroke="#8C75FA" stroke-width="4"/>
<path d="M134.527 111L134.527 98C134.527 96.8954 133.632 96 132.527 96L106.527 96C105.423 96 104.527 96.8954 104.527 98L104.527 111" stroke="#8C75FA" stroke-width="4"/>
<line x1="84.5273" y1="80" x2="84.5273" y2="68" stroke="#8C75FA" stroke-width="4" stroke-linecap="round" stroke-linejoin="round"/>
</svg>
