<svg width="167" height="145" viewBox="0 0 167 145" fill="none" xmlns="http://www.w3.org/2000/svg">
<path d="M45.5273 102H118.527V139C118.527 141.209 116.736 143 114.527 143H49.5273C47.3182 143 45.5273 141.209 45.5273 139V102Z" stroke="#8C75FA" stroke-width="4"/>
<path d="M38.5273 87.5977C38.5273 85.3885 40.3182 83.5977 42.5273 83.5977H121.326C123.535 83.5977 125.326 85.3885 125.326 87.5977V98.0953C125.326 100.304 123.535 102.095 121.326 102.095H42.5273C40.3182 102.095 38.5273 100.304 38.5273 98.0953V87.5977Z" stroke="#8C75FA" stroke-width="4"/>
<path d="M71.2987 63.9321C73.3161 65.2563 76.3977 68.582 78.6441 72.2856C79.755 74.117 80.5843 75.9168 80.9897 77.4836C81.4005 79.0715 81.3117 80.148 80.964 80.8328C80.6162 81.5177 79.8406 82.1434 78.4257 82.5328C77.0295 82.917 75.2439 83.0004 73.2935 82.8223C69.3492 82.4622 65.2752 81.0908 63.2579 79.7665C59.5682 77.3446 58.1424 71.8279 60.4182 67.3462C62.694 62.8646 67.6091 61.5101 71.2987 63.9321Z" stroke="#8C75FA" stroke-width="4"/>
<path d="M91.932 63.505C89.8638 64.8627 86.7112 68.2662 84.4137 72.0539C83.2774 73.9273 82.4276 75.7706 82.0118 77.3777C81.5905 79.0059 81.679 80.1194 82.0414 80.8332C82.4039 81.5469 83.2078 82.1908 84.6586 82.59C86.0907 82.9841 87.9197 83.0691 89.9148 82.887C93.9486 82.5187 98.1175 81.1163 100.186 79.7586C103.977 77.2699 105.438 71.6052 103.103 67.0078C100.769 62.4104 95.7235 61.0162 91.932 63.505Z" stroke="#8C75FA" stroke-width="4"/>
<path d="M81.9258 85L81.9258 144.735" stroke="#8C75FA" stroke-width="4"/>
<path d="M105.527 119H148.527V139C148.527 141.209 146.736 143 144.527 143H109.527C107.318 143 105.527 141.209 105.527 139V119Z" fill="#151841" stroke="#8C75FA" stroke-width="4"/>
<path d="M101.527 110C101.527 109.448 101.975 109 102.527 109H151.527C152.08 109 152.527 109.448 152.527 110V118C152.527 118.552 152.08 119 151.527 119H102.527C101.975 119 101.527 118.552 101.527 118V110Z" fill="#151841" stroke="#8C75FA" stroke-width="4"/>
<path d="M120.494 98.2529C121.59 98.9663 123.386 100.865 124.709 103.029C125.358 104.09 125.816 105.092 126.033 105.922C126.255 106.772 126.158 107.17 126.08 107.322C126.002 107.474 125.745 107.768 124.981 107.976C124.235 108.18 123.236 108.233 122.096 108.13C119.773 107.92 117.417 107.117 116.321 106.403C114.471 105.199 113.686 102.391 114.89 100.039C116.095 97.6861 118.645 97.0489 120.494 98.2529Z" fill="#151841" stroke="#8C75FA" stroke-width="4"/>
<path d="M133.776 97.9987C132.649 98.7323 130.81 100.678 129.456 102.892C128.791 103.979 128.32 105.008 128.098 105.861C127.869 106.736 127.966 107.156 128.053 107.326C128.14 107.495 128.414 107.8 129.2 108.015C129.967 108.224 130.993 108.278 132.16 108.173C134.538 107.958 136.952 107.136 138.079 106.402C139.99 105.158 140.797 102.26 139.557 99.8378C138.316 97.4156 135.687 96.7544 133.776 97.9987Z" stroke="#8C75FA" stroke-width="4"/>
<path d="M127.325 110.195L127.325 144.5" stroke="#8C75FA" stroke-width="4"/>
<path d="M19.0273 95C19.0273 93.067 20.5943 91.5 22.5273 91.5C24.4603 91.5 26.0273 93.067 26.0273 95C26.0273 96.933 24.4603 98.5 22.5273 98.5C20.5943 98.5 19.0273 96.933 19.0273 95Z" stroke="#8C75FA" stroke-width="3"/>
<path d="M62.0273 34C62.0273 32.067 63.5943 30.5 65.5273 30.5C67.4603 30.5 69.0273 32.067 69.0273 34C69.0273 35.933 67.4603 37.5 65.5273 37.5C63.5943 37.5 62.0273 35.933 62.0273 34Z" stroke="#8C75FA" stroke-width="3"/>
<path d="M158.027 7C158.027 5.067 159.594 3.5 161.527 3.5C163.46 3.5 165.027 5.067 165.027 7C165.027 8.933 163.46 10.5 161.527 10.5C159.594 10.5 158.027 8.933 158.027 7Z" stroke="#8C75FA" stroke-width="3"/>
<path d="M42.9611 9.58643L35.1874 8.92488L32.0995 2.34552C31.8833 1.88483 31.1714 1.88483 30.9552 2.34552L27.8673 8.92492L20.0936 9.58643C19.5493 9.63275 19.3293 10.254 19.74 10.585L25.6053 15.3128L23.8888 22.3011C23.7686 22.7904 24.3445 23.1743 24.8145 22.9182L31.5273 19.2608L38.2402 22.9182C38.7102 23.1743 39.2861 22.7904 39.1659 22.3011L37.4494 15.3128L43.3147 10.585C43.7254 10.254 43.5054 9.63275 42.9611 9.58643Z" stroke="#8C75FA" stroke-width="3"/>
<path d="M156.15 74.0576L150.967 73.6166L148.909 69.2303C148.765 68.9232 148.29 68.9232 148.146 69.2303L146.087 73.6166L140.905 74.0576C140.542 74.0885 140.395 74.5026 140.669 74.7233L144.579 77.8752L143.435 82.5341C143.355 82.8603 143.739 83.1162 144.052 82.9455L148.527 80.5072L153.003 82.9455C153.316 83.1162 153.7 82.8603 153.62 82.5341L152.475 77.8752L156.386 74.7233C156.659 74.5026 156.513 74.0885 156.15 74.0576Z" stroke="#8C75FA" stroke-width="2.5"/>
<path d="M132.15 36.0576L126.967 35.6166L124.909 31.2303C124.765 30.9232 124.29 30.9232 124.146 31.2303L122.087 35.6166L116.905 36.0576C116.542 36.0885 116.395 36.5026 116.669 36.7233L120.579 39.8752L119.435 44.5341C119.355 44.8603 119.739 45.1162 120.052 44.9455L124.527 42.5072L129.003 44.9455C129.316 45.1162 129.7 44.8603 129.62 44.5341L128.475 39.8752L132.386 36.7233C132.659 36.5026 132.513 36.0885 132.15 36.0576Z" stroke="#8C75FA" stroke-width="2.5"/>
<path d="M17.1498 58.0576L11.9674 57.6166L9.90875 53.2303C9.76462 52.9232 9.29003 52.9232 9.14591 53.2303L7.08732 57.6166L1.90485 58.0576C1.54198 58.0885 1.39532 58.5026 1.6691 58.7233L5.57929 61.8752L4.43497 66.5341C4.35485 66.8603 4.73879 67.1162 5.05213 66.9455L9.52734 64.5072L14.0026 66.9455C14.3159 67.1162 14.6999 66.8603 14.6197 66.5341L13.4754 61.8752L17.3856 58.7233C17.6594 58.5026 17.5127 58.0885 17.1498 58.0576Z" stroke="#8C75FA" stroke-width="2.5"/>
</svg>
