<svg width="26" height="26" viewBox="0 0 26 26" fill="none" xmlns="http://www.w3.org/2000/svg">
<g opacity="0.8">
<path d="M23.154 9.56089C23.5283 10.6658 23.7182 11.8214 23.7182 13C23.7182 18.9099 18.9101 23.718 13 23.718C7.09001 23.718 2.28177 18.9099 2.28177 13C2.28177 7.08995 7.08993 2.28199 13 2.28199C14.1788 2.28199 15.3344 2.47173 16.4391 2.84624V0.461078C15.3232 0.155195 14.1708 0 13 0C5.83184 0 0 5.83179 0 13C0 20.1682 5.83184 26 13 26C20.1682 26 26 20.1682 26 13C26 11.8294 25.8449 10.6768 25.539 9.56089H23.154Z" fill="#9DA3B4" fill-opacity="0.5"/>
<path fill-rule="evenodd" clip-rule="evenodd" d="M17.7128 12.6053C18.4041 12.2281 18.8189 11.5493 18.8189 10.7825C18.8189 9.33696 17.5996 8.41934 15.6638 8.41934C13.7531 8.41934 12.5212 9.31174 12.5212 10.7197C12.5212 11.4865 12.9988 12.1904 13.7405 12.6053C12.7223 13.0074 12.0687 13.8623 12.0687 14.8679C12.0687 16.4266 13.4765 17.4197 15.6763 17.4197C17.8761 17.4197 19.284 16.414 19.284 14.8302C19.284 13.8497 18.6806 13.0074 17.7128 12.6053ZM15.6763 15.7982C14.7085 15.7982 14.1804 15.3834 14.1804 14.6417C14.1804 13.9126 14.7084 13.4977 15.6763 13.4977C16.6442 13.4977 17.1848 13.9127 17.1848 14.6417C17.1848 15.396 16.6442 15.7982 15.6763 15.7982ZM15.6763 11.8887C14.8593 11.8887 14.4068 11.5369 14.4068 10.9082C14.4068 10.2547 14.8592 9.89012 15.6763 9.89012C16.4934 9.89012 16.9459 10.2547 16.9459 10.9082C16.9459 11.5368 16.4934 11.8887 15.6763 11.8887Z" fill="#9DA3B4" fill-opacity="0.5"/>
<path d="M8.17373 10.3043V17.3187H10.4113V8.5068H6.55219V10.3043H8.17373Z" fill="#9DA3B4" fill-opacity="0.5"/>
<path d="M22.3621 0.987413V3.46442H24.839V5.24545H22.3621V7.72238H20.581V5.24545H18.1188V3.46442H20.581V0.987413H22.3621Z" fill="#9DA3B4" fill-opacity="0.5"/>
</g>
</svg>
