<svg width="73" height="28" viewBox="0 0 73 28" fill="none" xmlns="http://www.w3.org/2000/svg">
<path fill-rule="evenodd" clip-rule="evenodd" d="M8.55277 0H72.8774L65.7703 27.3234H1.44575L5.05949 13.299L2.77078 15.1125L0.602539 16.8051L1.20483 14.508L2.89124 8.2212L3.49353 5.8032L4.69811 7.4958L6.14361 9.4302L8.55277 0ZM3.85491 8.2212L6.14361 11.3646L2.16849 14.508L3.85491 8.2212ZM31.1989 1.209H71.4319L66.1317 21.5202H26.0192L28.4284 11.8482H32.4035L32.6444 10.881H28.7897L31.1989 1.209ZM34.8126 11.8482H38.7877L36.6195 20.1903H65.0476L69.7455 2.418H41.1969L39.0287 10.881H35.174L34.8126 11.8482ZM20.3577 1.209H30.7171L28.1874 10.881H25.2964L25.0555 11.8482H27.9465L25.4169 21.5202H15.0575L17.5871 11.8482H20.1167L20.3577 10.881H17.828L20.3577 1.209ZM9.39598 1.209H19.7554L17.3462 10.881H14.3348C14.5757 11.1228 14.6961 11.4855 14.6961 11.8482H16.9848L14.5757 21.5202H4.09582L6.62544 11.8482H8.91415L9.15506 10.881H6.86636L9.39598 1.209ZM42.7629 8.2212L38.9082 11.3646L41.1969 14.508L42.7629 8.2212ZM62.3975 5.8032H64.2044L60.7111 18.9813H62.3975L65.8908 5.8032H67.6977L68.1795 3.627H62.9998L62.3975 5.8032ZM59.2656 5.8032H62.0361L62.6384 3.627H58.061L54.0859 18.9813H55.7723L57.4587 12.6945H59.627L60.2293 10.5183H58.061L59.2656 5.8032ZM48.7858 15.3543C48.1835 17.7723 48.6653 19.2231 50.3517 19.2231C52.0381 19.2231 53.3632 17.7723 53.9655 15.3543L56.0132 7.3749C56.736 4.9569 56.1337 3.5061 54.4473 3.5061C52.7609 3.5061 51.5563 4.9569 50.8335 7.3749L48.7858 15.3543ZM52.6404 7.254C52.8813 6.045 53.3632 5.6823 53.9655 5.6823C54.4473 5.6823 54.6882 6.045 54.4473 7.254L52.279 15.4752C51.9177 16.5633 51.5563 17.0469 50.954 17.0469C50.4722 17.0469 50.2313 16.5633 50.4722 15.4752L52.6404 7.254ZM45.0516 7.3749C43.847 11.7273 47.0993 12.3318 46.2561 15.4752C46.0152 16.5633 45.5334 16.926 44.9311 16.926C44.4493 16.926 44.2084 16.5633 44.4493 15.4752L44.8106 14.2662H43.2447L42.8833 15.3543C42.281 17.7723 42.7629 19.2231 44.4493 19.2231C46.1357 19.2231 47.3403 17.7723 47.9426 15.3543C49.1471 11.0019 46.0152 10.3974 46.738 7.254C47.0993 6.045 47.4607 5.6823 48.063 5.6823C48.5448 5.6823 48.7858 6.045 48.4244 7.254L48.3039 7.9794H49.8699L49.9903 7.3749C50.7131 4.9569 50.2313 3.5061 48.5448 3.5061C46.8584 3.5061 45.6539 4.9569 45.0516 7.3749ZM35.4149 24.9054L35.5354 24.5427H36.6195L36.3786 25.2681C36.1377 25.5099 35.8968 25.6308 35.6558 25.7517C35.4149 25.8726 35.174 25.8726 34.8126 25.8726C34.3308 25.8726 33.9694 25.7517 33.7285 25.5099C33.608 25.2681 33.4876 25.0263 33.608 24.5427C33.7285 24.18 33.9694 23.8173 34.3308 23.5755C34.6922 23.3337 35.0535 23.2128 35.5354 23.2128C35.7763 23.2128 36.0172 23.3337 36.2581 23.3337C36.499 23.4546 36.6195 23.6964 36.74 23.8173L36.3786 24.0591C36.2581 23.9382 36.1377 23.8173 36.0172 23.6964C35.8968 23.6964 35.6558 23.5755 35.4149 23.5755C35.0535 23.5755 34.8126 23.6964 34.5717 23.9382C34.2103 24.0591 34.0899 24.3009 33.9694 24.5427C33.9694 24.9054 33.9694 25.0263 34.0899 25.2681C34.3308 25.5099 34.5717 25.5099 34.9331 25.5099C35.174 25.5099 35.2945 25.5099 35.5354 25.389C35.7763 25.389 35.8968 25.2681 36.0172 25.1472L36.1377 24.9054H35.4149ZM40.4742 24.9054H41.4378L41.1969 23.9382L40.4742 24.9054ZM39.2696 25.8726L41.1969 23.3337H41.4378L42.1606 25.8726H41.6787L41.5583 25.1472H40.2332L39.7514 25.8726H39.2696ZM45.2925 25.8726L46.0152 23.3337H46.2561L46.9789 24.7845L48.3039 23.3337H48.6653L48.063 25.8726H47.5812L48.063 24.0591L46.738 25.389L46.1357 24.0591L45.6539 25.8726H45.2925ZM51.6768 25.8726L52.3995 23.3337H52.7609L52.1586 25.8726H51.6768ZM55.7723 25.8726L56.4951 23.3337H56.736L57.8201 25.0263L58.3019 23.3337H58.6633L58.061 25.8726H57.8201L56.6155 24.0591L56.2542 25.8726H55.7723ZM63.6021 24.9054L63.7226 24.5427H64.8067L64.5658 25.2681C64.4453 25.5099 64.2044 25.6308 63.843 25.7517C63.6021 25.8726 63.3612 25.8726 62.9998 25.8726C62.518 25.8726 62.2771 25.7517 62.0361 25.5099C61.7952 25.2681 61.6748 25.0263 61.7952 24.5427C61.9157 24.18 62.1566 23.8173 62.518 23.5755C62.8794 23.3337 63.2407 23.2128 63.7226 23.2128C64.0839 23.2128 64.3249 23.3337 64.4453 23.3337C64.6862 23.4546 64.8067 23.6964 64.9271 23.8173L64.5658 24.0591C64.4453 23.9382 64.3249 23.8173 64.2044 23.6964C64.0839 23.6964 63.843 23.5755 63.6021 23.5755C63.2407 23.5755 62.9998 23.6964 62.7589 23.9382C62.3975 24.0591 62.2771 24.3009 62.1566 24.5427C62.1566 24.9054 62.1566 25.0263 62.3975 25.2681C62.518 25.5099 62.7589 25.5099 63.1203 25.5099C63.3612 25.5099 63.6021 25.5099 63.7226 25.389C63.9635 25.389 64.0839 25.2681 64.2044 25.1472L64.3249 24.9054H63.6021ZM14.0938 22.8501C14.5757 22.8501 14.937 23.3337 14.8166 23.8173C14.8166 23.9382 14.8166 23.9382 14.8166 23.9382C15.2984 24.0591 15.5393 24.4218 15.4189 24.9054C15.2984 25.5099 14.6961 25.8726 14.2143 25.8726C13.8529 25.8726 13.4916 25.6308 13.4916 25.2681C13.2506 25.6308 12.7688 25.8726 12.4074 25.8726C11.9256 25.8726 11.5642 25.5099 11.6847 24.9054C11.8051 24.4218 12.287 24.0591 12.8893 23.9382C12.8893 23.9382 12.8893 23.9382 12.8893 23.8173C13.0097 23.3337 13.612 22.8501 14.0938 22.8501ZM13.612 26.4771L13.3711 25.5099L12.7688 26.4771H13.612ZM29.5125 22.8501C29.7534 22.8501 30.958 24.0591 30.7171 24.9054C30.5966 25.5099 30.1148 25.8726 29.5125 25.8726C29.1511 25.8726 28.9102 25.6308 28.7897 25.2681C28.5488 25.6308 28.1874 25.8726 27.8261 25.8726C27.2238 25.8726 26.8624 25.5099 27.1033 24.9054C27.3442 23.9382 29.1511 22.8501 29.5125 22.8501ZM28.9102 26.4771L28.7897 25.5099L28.067 26.4771H28.9102ZM20.96 26.2353C20.4781 26.2353 19.2735 25.0263 19.5145 23.9382C19.6349 23.4546 20.2372 22.971 20.8395 22.971C21.3213 22.971 21.5622 23.2128 21.5622 23.5755C21.9236 23.2128 22.285 22.971 22.7668 22.971C23.2487 22.971 23.61 23.4546 23.4896 23.9382C23.2487 25.1472 21.3213 26.2353 20.96 26.2353ZM6.7459 22.8501C7.10727 23.5755 7.46865 24.0591 8.07094 24.6636C7.22773 25.1472 6.62544 25.6308 5.90269 26.3562C5.54132 25.6308 5.17995 25.1472 4.57766 24.6636C5.42086 24.0591 6.02315 23.5755 6.7459 22.8501ZM32.5239 5.5614H34.4513L30.8375 19.344H32.6444L36.1377 5.5614H38.065L38.6673 3.2643H33.1262L32.5239 5.5614ZM23.8509 5.5614H26.9829L27.5851 3.2643H22.6464L18.5508 19.344H23.3691L23.9714 17.0469H20.8395L22.1645 12.3318H24.5737L25.176 10.0347H22.7668L23.8509 5.5614ZM13.612 5.5614C14.2143 5.5614 14.3348 6.045 14.0938 7.1331L13.8529 8.1003C13.4916 9.3093 13.0097 9.7929 12.287 9.7929H11.5642L12.6483 5.5614H13.612ZM11.8051 12.09C12.6483 12.09 12.7688 12.5736 12.4074 14.0244L12.0461 15.4752C11.8051 16.6842 11.3233 17.0469 10.721 17.0469H9.75735L10.9619 12.09H11.8051ZM14.2143 3.2643H11.5642L7.34819 19.344H10.1187C11.9256 19.344 13.1302 18.0141 13.8529 15.4752L14.2143 14.1453C14.5757 12.4527 14.5757 11.2437 13.7325 10.7601C14.6961 10.1556 15.2984 9.1884 15.7803 7.4958L15.9007 6.8913C16.503 4.4733 16.0212 3.2643 14.2143 3.2643Z" fill="white"/>
</svg>
