<svg width="82" height="25" viewBox="0 0 82 25" fill="none" xmlns="http://www.w3.org/2000/svg">
<path d="M16.8184 10.5762C15.7372 15.051 11.1422 17.8986 6.54716 16.6782C2.08728 15.5934 -0.615685 10.983 0.465499 6.37262C1.54668 1.89782 6.14172 -0.814184 10.7368 0.270617C15.1966 1.35542 18.0347 5.96582 16.8184 10.5762ZM12.3585 7.32182C12.4937 6.10142 11.6828 5.55902 10.4665 5.15222L10.8719 3.66062L9.92586 3.38942L9.65557 4.88102C9.38527 4.74542 9.11498 4.74542 8.84468 4.74542L9.25012 3.25382L8.30409 2.98262L7.89864 4.47422C7.76349 4.47422 7.4932 4.33862 7.35805 4.33862L6.00657 4.06742L5.87142 5.01662L6.54716 5.15222C6.81746 5.28782 6.95261 5.55902 6.95261 5.69462L6.54716 7.45742L5.87142 9.89822C5.87142 10.0338 5.73627 10.1694 5.46598 10.1694L4.79024 10.0338L4.24965 10.983L5.46598 11.3898C5.73627 11.3898 6.00657 11.5254 6.14172 11.5254L5.73627 13.017L6.68231 13.2882L7.08775 11.7966C7.35805 11.7966 7.62835 11.9322 7.89864 11.9322L7.4932 13.4238L8.43923 13.695L8.84468 12.2034C10.3313 12.4746 11.5476 12.339 12.0882 10.8474C12.4937 9.76262 12.0882 9.08462 11.1422 8.67782C11.8179 8.54222 12.2234 8.13542 12.3585 7.32182ZM10.3313 10.305C9.92586 11.3898 8.03379 10.8474 7.35805 10.7118L7.89864 8.54222C8.57438 8.81342 10.6016 9.08462 10.3313 10.305ZM10.6016 7.32182C10.3313 8.27102 8.70953 7.72862 8.16894 7.59302L8.57438 5.83022C9.11498 5.96582 10.8719 6.23702 10.6016 7.32182Z" fill="white"/>
<path d="M25.0619 5.1528C25.7377 5.1528 26.2783 5.2884 26.8189 5.5596C27.2243 5.6952 27.6298 6.102 28.0352 6.5088C28.3055 6.9156 28.5758 7.458 28.7109 8.0004C28.8461 8.5428 28.9812 9.0852 28.9812 9.7632C28.9812 10.7124 28.8461 11.6616 28.4406 12.6108C28.0352 13.4244 27.6298 14.238 26.954 14.916C26.2783 15.4584 25.6025 16.0008 24.7916 16.4076C23.8456 16.8144 22.8996 16.95 21.9535 16.95C21.8184 16.95 21.5481 16.95 21.2778 16.95C21.0075 16.95 20.6021 16.95 20.1966 16.8144C19.7912 16.8144 19.2506 16.6788 18.8451 16.6788C18.4397 16.5432 17.8991 16.4076 17.4937 16.1364L21.2778 0.5424L24.5214 0L23.1699 5.5596C23.5753 5.424 23.8456 5.2884 24.1159 5.2884C24.3862 5.1528 24.6565 5.1528 25.0619 5.1528ZM22.2238 14.3736C22.7644 14.3736 23.1699 14.238 23.5753 13.9668C24.1159 13.6956 24.5214 13.4244 24.7916 13.0176C25.0619 12.6108 25.3322 12.0684 25.6025 11.6616C25.7377 11.1192 25.8728 10.5768 25.8728 10.0344C25.8728 9.3564 25.7377 8.814 25.4674 8.4072C25.1971 8.0004 24.7916 7.8648 24.2511 7.8648C23.9808 7.8648 23.7105 7.8648 23.4402 7.8648C23.1699 8.0004 22.7644 8.136 22.4941 8.4072L21.1426 14.238C21.2778 14.238 21.2778 14.238 21.4129 14.238C21.4129 14.3736 21.5481 14.3736 21.5481 14.3736C21.6832 14.3736 21.6832 14.3736 21.8184 14.3736C21.9535 14.3736 22.0887 14.3736 22.2238 14.3736Z" fill="white"/>
<path d="M32.4958 16.6787H29.2523L31.9552 5.42392H35.1988L32.4958 16.6787ZM33.9824 4.06792C33.577 4.06792 33.1715 3.93232 32.7661 3.66112C32.3607 3.38992 32.2255 2.98312 32.2255 2.44072C32.2255 2.03392 32.3607 1.76272 32.3607 1.49152C32.4958 1.22032 32.7661 1.08472 32.9013 0.813518C33.1715 0.677918 33.3067 0.542318 33.577 0.406718C33.8473 0.271118 34.1176 0.271118 34.3879 0.271118C34.9285 0.271118 35.3339 0.406718 35.6042 0.677918C36.0097 0.949118 36.1448 1.22032 36.1448 1.89832C36.1448 2.16952 36.1448 2.44072 36.0097 2.71192C35.8745 2.98312 35.7394 3.11872 35.4691 3.38992C35.3339 3.52552 35.0636 3.66112 34.7933 3.79672C34.523 3.93232 34.2527 4.06792 33.9824 4.06792Z" fill="white"/>
<path d="M37.9012 2.57658L41.2799 2.03418L40.469 5.42418H43.9829L43.3071 8.00058H39.7933L38.8472 11.933C38.7121 12.3398 38.7121 12.611 38.7121 12.8822C38.7121 13.1534 38.7121 13.4246 38.8472 13.5602C38.8472 13.8314 38.9824 13.967 39.2527 14.1026C39.523 14.2382 39.7933 14.2382 40.1987 14.2382C40.6042 14.2382 40.8745 14.2382 41.2799 14.2382C41.5502 14.1026 41.8205 13.967 42.2259 13.967L42.4962 16.4078C41.9556 16.5434 41.5502 16.679 41.0096 16.8146C40.6042 16.9502 39.9284 16.9502 39.2527 16.9502C38.3066 16.9502 37.4958 16.8146 36.9552 16.5434C36.4146 16.2722 36.0091 15.8654 35.874 15.323C35.6037 14.7806 35.4685 14.2382 35.4685 13.5602C35.6037 12.8822 35.6037 12.2042 35.874 11.5262L37.9012 2.57658Z" fill="white"/>
<path d="M43.8479 12.204C43.8479 11.2548 43.983 10.3056 44.2533 9.35641C44.6588 8.54281 45.0642 7.86481 45.6048 7.18681C46.2805 6.50881 46.9563 5.96641 47.7672 5.69521C48.578 5.28841 49.5241 5.01721 50.6053 5.01721C51.281 5.01721 51.8216 5.15281 52.3622 5.28841C52.7676 5.42401 53.3082 5.55961 53.7137 5.69521L52.6325 8.27161C52.3622 8.13601 51.9567 8.00041 51.6865 7.86481C51.4162 7.86481 51.0107 7.72921 50.6053 7.72921C49.5241 7.72921 48.7132 8.13601 48.0375 8.94961C47.4969 9.62761 47.0914 10.5768 47.0914 11.7972C47.0914 12.6108 47.2266 13.1532 47.632 13.56C47.9023 14.1024 48.4429 14.238 49.3889 14.238C49.7944 14.238 50.1998 14.238 50.6053 14.1024C50.8756 14.1024 51.281 13.9668 51.5513 13.8312L51.8216 16.4076C51.4162 16.5432 51.0107 16.6788 50.4701 16.8144C49.9295 16.95 49.3889 16.95 48.7132 16.95C47.9023 16.95 47.0914 16.8144 46.5508 16.5432C45.8751 16.4076 45.3345 16.0008 44.9291 15.594C44.5236 15.1872 44.2533 14.6448 44.1182 13.9668C43.983 13.4244 43.8479 12.882 43.8479 12.204Z" fill="white"/>
<path d="M57.9033 16.95C57.2276 16.95 56.5518 16.8144 56.0112 16.6788C55.3355 16.4076 54.9301 16.1364 54.5246 15.7296C54.2543 15.3228 53.984 14.7804 53.7137 14.238C53.5786 13.6956 53.4434 13.0176 53.4434 12.3396C53.4434 11.526 53.5786 10.5768 53.8489 9.76321C54.1192 8.94961 54.5246 8.13601 55.0652 7.45801C55.6058 6.78001 56.2815 6.23761 57.0924 5.69521C57.9033 5.28841 58.8494 5.01721 59.7954 5.01721C60.6063 5.01721 61.1469 5.15281 61.8226 5.42401C62.3632 5.69521 62.7687 5.96641 63.1741 6.37321C63.5795 6.78001 63.8498 7.32241 63.985 7.86481C64.1201 8.40721 64.2553 9.08521 64.2553 9.76321C64.2553 10.5768 64.1201 11.526 63.8498 12.3396C63.5795 13.1532 63.1741 13.9668 62.6335 14.6448C62.0929 15.3228 61.4172 15.8652 60.7414 16.272C59.9305 16.8144 58.9845 16.95 57.9033 16.95ZM59.5251 7.72921C58.9845 7.72921 58.5791 7.86481 58.3088 8.13601C57.9033 8.40721 57.633 8.81401 57.3627 9.22081C57.0924 9.62761 56.9573 10.0344 56.8221 10.5768C56.687 11.1192 56.687 11.526 56.687 11.9328C56.687 12.7464 56.687 13.2888 56.9573 13.6956C57.2276 14.1024 57.633 14.238 58.1736 14.238C58.7142 14.238 59.1196 14.1024 59.5251 13.8312C59.7954 13.56 60.0657 13.2888 60.336 12.882C60.6063 12.4752 60.7414 11.9328 60.8766 11.526C61.0117 10.9836 61.1469 10.4412 61.1469 10.0344C61.1469 9.35641 61.0117 8.81401 60.7414 8.40721C60.4711 8.00041 60.0657 7.72921 59.5251 7.72921Z" fill="white"/>
<path d="M67.7682 16.6787H64.5246L67.2276 5.42392H70.4711L67.7682 16.6787ZM69.2548 4.06792C68.8494 4.06792 68.4439 3.93232 68.0385 3.66112C67.7682 3.38992 67.4979 2.98312 67.4979 2.44072C67.4979 2.03392 67.633 1.76272 67.7682 1.49152C67.7682 1.22032 68.0385 1.08472 68.1736 0.813518C68.4439 0.677918 68.5791 0.542318 68.8494 0.406718C69.1197 0.271118 69.39 0.271118 69.7954 0.271118C70.2009 0.271118 70.6063 0.406718 70.8766 0.677918C71.282 0.949118 71.4172 1.22032 71.4172 1.89832C71.4172 2.16952 71.4172 2.44072 71.282 2.71192C71.1469 2.98312 71.0117 3.11872 70.7414 3.38992C70.6063 3.52552 70.336 3.66112 70.0657 3.79672C69.7954 3.93232 69.5251 4.06792 69.2548 4.06792Z" fill="white"/>
<path d="M72.7691 5.83108C72.9042 5.83108 73.1745 5.69548 73.4448 5.69548C73.8502 5.55988 74.1205 5.42428 74.526 5.42428C74.7963 5.28868 75.2017 5.28868 75.7423 5.15308C76.1478 5.15308 76.6884 5.15308 77.2289 5.15308C78.8507 5.15308 80.067 5.55988 80.7428 6.64468C81.2834 7.59388 81.4185 8.94988 81.0131 10.5771L79.5265 16.6791H76.4181L77.7695 10.7127C77.9047 10.3059 77.9047 10.0347 78.0398 9.62788C78.0398 9.22108 78.0398 8.94988 78.0398 8.67868C77.9047 8.40748 77.7695 8.27188 77.6344 8.00068C77.3641 7.86508 77.0938 7.86508 76.6884 7.86508C76.2829 7.86508 75.8775 7.86508 75.3369 8.00068L73.3097 16.6791H70.0661L72.7691 5.83108Z" fill="white"/>
<path d="M34.2516 23.4587L33.5758 24.5436H32.9001C33.4407 23.7299 33.8461 22.9163 34.3867 22.2383C34.7922 21.4247 35.1976 20.7467 35.7382 20.2043H36.2788C36.4139 20.4755 36.4139 20.7467 36.4139 21.1535C36.5491 21.4247 36.5491 21.8315 36.5491 22.1027C36.6842 22.5095 36.6842 22.9163 36.8194 23.3231C36.8194 23.7299 36.8194 24.1367 36.9545 24.5436H36.2788C36.2788 24.408 36.2788 24.1367 36.2788 24.0011C36.1436 23.7299 36.1436 23.5943 36.1436 23.4587H34.2516ZM36.1436 22.9163C36.1436 22.6451 36.0085 22.2383 36.0085 21.9671C36.0085 21.5603 35.8733 21.1535 35.8733 20.8823C35.7382 21.0179 35.4679 21.2891 35.3328 21.6959C35.0625 21.9671 34.7922 22.5095 34.5219 22.9163H36.1436Z" fill="white"/>
<path d="M39.1174 24.6793C38.8471 24.6793 38.7119 24.6793 38.4416 24.5437C38.1713 24.4081 38.0362 24.2724 37.901 24.1368C37.7659 24.0012 37.6308 23.8656 37.6308 23.5944C37.4956 23.4588 37.4956 23.1876 37.4956 22.9164C37.4956 22.5096 37.4956 22.2384 37.6308 21.8316C37.7659 21.5604 38.0362 21.1536 38.1713 20.8824C38.4416 20.6112 38.7119 20.4756 38.9822 20.34C39.2525 20.0688 39.658 20.0688 40.0634 20.0688C40.3337 20.0688 40.604 20.0688 40.8743 20.2044C41.0095 20.2044 41.1446 20.34 41.2797 20.34L41.0095 20.8824C40.8743 20.7468 40.7392 20.7468 40.604 20.6112C40.4689 20.6112 40.1986 20.6112 40.0634 20.6112C39.658 20.6112 39.5228 20.6112 39.2525 20.7468C38.9822 20.8824 38.8471 21.1536 38.5768 21.2892C38.4416 21.5604 38.3065 21.8316 38.3065 22.1028C38.1713 22.374 38.1713 22.6452 38.1713 22.9164C38.1713 23.73 38.4416 24.1368 39.2525 24.1368C39.3877 24.1368 39.5228 24.1368 39.658 24.1368C39.7931 24.0012 39.7931 24.0012 39.9283 24.0012C40.0634 24.0012 40.0634 24.0012 40.1986 23.8656H40.3337L40.4689 24.4081C40.4689 24.4081 40.3337 24.4081 40.1986 24.4081C40.1986 24.5437 40.0634 24.5437 39.9283 24.5437C39.7931 24.5437 39.7931 24.5437 39.658 24.6793C39.5228 24.6793 39.3877 24.6793 39.1174 24.6793Z" fill="white"/>
<path d="M42.7661 24.6793C42.4958 24.6793 42.2255 24.6793 41.9552 24.5437C41.82 24.4081 41.6849 24.2724 41.5497 24.1368C41.4146 24.0012 41.2794 23.8656 41.1443 23.5944C41.1443 23.4588 41.1443 23.1876 41.1443 22.9164C41.1443 22.5096 41.1443 22.2384 41.2794 21.8316C41.4146 21.5604 41.5497 21.1536 41.82 20.8824C41.9552 20.6112 42.2255 20.4756 42.6309 20.34C42.9012 20.0688 43.3067 20.0688 43.577 20.0688C43.9824 20.0688 44.2527 20.0688 44.3878 20.2044C44.6581 20.2044 44.7933 20.34 44.7933 20.34L44.523 20.8824C44.523 20.7468 44.3878 20.7468 44.2527 20.6112C43.9824 20.6112 43.8473 20.6112 43.577 20.6112C43.3067 20.6112 43.0364 20.6112 42.7661 20.7468C42.6309 20.8824 42.3606 21.1536 42.2255 21.2892C42.0903 21.5604 41.9552 21.8316 41.82 22.1028C41.82 22.374 41.6849 22.6452 41.6849 22.9164C41.6849 23.73 42.0903 24.1368 42.7661 24.1368C42.9012 24.1368 43.0364 24.1368 43.1715 24.1368C43.3067 24.0012 43.4418 24.0012 43.577 24.0012C43.577 24.0012 43.7121 24.0012 43.7121 23.8656C43.8473 23.8656 43.8473 23.8656 43.9824 23.8656V24.4081C43.9824 24.4081 43.9824 24.4081 43.8473 24.4081C43.7121 24.5437 43.7121 24.5437 43.577 24.5437C43.4418 24.5437 43.3067 24.5437 43.1715 24.6793C43.0364 24.6793 42.9012 24.6793 42.7661 24.6793Z" fill="white"/>
<path d="M44.5236 24.5436L45.4696 20.2043H48.1726L48.0374 20.6111H46.0102L45.7399 21.9671H47.4968L47.3617 22.5095H45.6047L45.1993 24.0011H47.3617L47.2265 24.5436H44.5236Z" fill="white"/>
<path d="M49.9292 20.0688C50.4698 20.0688 50.8752 20.2044 51.1455 20.34C51.4158 20.6112 51.551 20.8824 51.551 21.2892C51.551 21.5604 51.4158 21.8316 51.4158 21.9672C51.2807 22.2384 51.1455 22.374 50.8752 22.5096C50.7401 22.6452 50.4698 22.7808 50.1995 22.7808C49.9292 22.9164 49.5238 22.9164 49.2535 22.9164H48.848L48.4426 24.5436H47.7668L48.848 20.2044C48.9832 20.2044 49.2535 20.0688 49.3886 20.0688C49.6589 20.0688 49.7941 20.0688 49.9292 20.0688ZM49.9292 20.6112C49.6589 20.6112 49.3886 20.6112 49.3886 20.6112L48.9832 22.374H49.3886C49.5238 22.374 49.6589 22.374 49.9292 22.374C50.0644 22.374 50.1995 22.2384 50.3347 22.2384C50.4698 22.1028 50.605 21.9672 50.7401 21.8316C50.8752 21.696 50.8752 21.5604 50.8752 21.2892C50.8752 21.018 50.7401 20.8824 50.605 20.7468C50.4698 20.6112 50.1995 20.6112 49.9292 20.6112Z" fill="white"/>
<path d="M55.3348 20.2043L55.1996 20.6111H53.8481L52.9021 24.5436H52.2264L53.1724 20.6111H51.9561V20.2043H55.3348Z" fill="white"/>
<path d="M54.7948 24.5436L55.7408 20.2043H58.4438L58.3087 20.6111H56.2814L56.0111 21.9671H57.7681L57.6329 22.5095H55.876L55.4705 24.0011H57.6329L57.4978 24.5436H54.7948Z" fill="white"/>
<path d="M60.2005 20.0688C60.8762 20.0688 61.4168 20.2044 61.6871 20.6112C61.9574 20.8824 62.2277 21.2892 62.2277 21.8316C62.2277 22.2384 62.0925 22.5096 61.9574 22.9164C61.8222 23.1876 61.6871 23.4588 61.4168 23.73C61.2817 24.0012 60.8762 24.2724 60.6059 24.408C60.2005 24.5436 59.6599 24.5436 59.2544 24.5436C58.9841 24.5436 58.849 24.5436 58.5787 24.5436C58.4435 24.5436 58.1732 24.5436 58.0381 24.5436L59.1193 20.2044C59.2544 20.2044 59.5247 20.0688 59.6599 20.0688C59.795 20.0688 60.0653 20.0688 60.2005 20.0688ZM60.2005 20.6112C59.795 20.6112 59.6599 20.6112 59.6599 20.6112L58.849 24.0012C58.849 24.0012 58.849 24.0012 58.9841 24.1368C58.9841 24.1368 59.1193 24.1368 59.3896 24.1368C59.6599 24.1368 59.9302 24.0012 60.2005 23.8656C60.4708 23.8656 60.7411 23.5944 60.8762 23.4588C61.1465 23.1876 61.2817 23.052 61.4168 22.7808C61.4168 22.5096 61.5519 22.1028 61.5519 21.8316C61.5519 21.4248 61.4168 21.1536 61.1465 20.8824C61.0114 20.7468 60.6059 20.6112 60.2005 20.6112Z" fill="white"/>
<path d="M66.9582 24.5436H66.2825L66.8231 22.5095H64.7959L64.2553 24.5436H63.5795L64.6607 20.2043H65.3365L64.931 21.9671H66.9582L67.3637 20.2043H67.9043L66.9582 24.5436Z" fill="white"/>
<path d="M67.9039 24.5436L68.9851 20.2043H71.5529L71.4178 20.6111H69.3905L69.1202 21.9671H70.8772L70.742 22.5095H68.9851L68.5796 24.0011H70.742L70.6069 24.5436H67.9039Z" fill="white"/>
<path d="M73.4447 20.0688C73.8501 20.0688 74.2556 20.2044 74.5259 20.34C74.7962 20.6112 74.9313 20.8824 74.9313 21.2892C74.9313 21.5604 74.7962 21.9672 74.661 22.1028C74.3907 22.374 74.1204 22.6452 73.715 22.6452C73.715 22.7808 73.8501 22.9164 73.8501 23.052C73.9853 23.1876 73.9853 23.3232 74.1204 23.4588C74.1204 23.73 74.2556 23.8656 74.2556 24.0012C74.3907 24.2724 74.3907 24.408 74.3907 24.5436H73.8501C73.715 24.408 73.715 24.2724 73.5798 24.0012C73.5798 23.8656 73.5798 23.73 73.4447 23.5944C73.4447 23.4588 73.3095 23.3232 73.3095 23.1876C73.1744 23.052 73.1744 22.9164 73.0392 22.7808H72.9041H72.7689H72.2284L71.8229 24.5436H71.2823L72.2284 20.2044C72.4987 20.2044 72.6338 20.0688 72.7689 20.0688C73.0392 20.0688 73.1744 20.0688 73.4447 20.0688ZM73.3095 20.6112C73.0392 20.6112 72.9041 20.6112 72.7689 20.6112L72.3635 22.374H72.7689C72.9041 22.374 73.0392 22.2384 73.3095 22.2384C73.4447 22.2384 73.5798 22.2384 73.715 22.1028C73.9853 22.1028 74.1204 21.9672 74.1204 21.8316C74.2556 21.696 74.2556 21.5604 74.2556 21.2892C74.2556 21.018 74.2556 20.8824 73.9853 20.7468C73.8501 20.6112 73.5798 20.6112 73.3095 20.6112Z" fill="white"/>
<path d="M74.9319 24.5436L76.013 20.2043H78.5809V20.6111H76.5536L76.1482 21.9671H78.0403L77.9051 22.5095H76.1482L75.7427 24.0011H77.9051L77.77 24.5436H74.9319Z" fill="white"/>
</svg>
