<svg width="109" height="28" viewBox="0 0 109 28" fill="none" xmlns="http://www.w3.org/2000/svg">
<path d="M75.6533 7.46932C76.4873 7.81934 77.1989 8.40556 77.699 9.15469C78.1704 9.92428 78.4198 10.8076 78.4198 11.7083C78.4198 12.6089 78.1704 13.4923 77.699 14.2619C77.1985 15.0137 76.4874 15.604 75.6533 15.96C74.6596 16.3709 73.5904 16.5709 72.5141 16.5473H69.3878V20.5182H66.8147V6.882H72.5141C73.5904 6.85841 74.6596 7.05846 75.6533 7.46932ZM74.9457 13.8533C75.2336 13.6028 75.4615 13.2917 75.6129 12.9427C75.7642 12.5937 75.8352 12.2156 75.8206 11.836C75.8371 11.4542 75.7671 11.0736 75.6157 10.7222C75.4643 10.3709 75.2353 10.0577 74.9457 9.80586C74.1994 9.2756 73.2872 9.02663 72.3726 9.10362H69.3878V14.5683H72.3983C73.3129 14.6105 74.2137 14.3351 74.9457 13.7895V13.8533Z" fill="white"/>
<path d="M88.3647 11.1337C88.8065 11.5684 89.1498 12.0916 89.3717 12.6685C89.5936 13.2454 89.6889 13.8625 89.6513 14.4789V20.633H87.1682V19.3562C86.8465 19.8178 86.4007 20.1805 85.8816 20.4032C85.2353 20.6584 84.5444 20.7843 83.8489 20.7735C83.1415 20.8076 82.435 20.69 81.7775 20.4287C81.2194 20.1994 80.7409 19.8134 80.4009 19.3179C80.0761 18.8391 79.9056 18.2736 79.912 17.6964C79.8718 17.2456 79.9462 16.7921 80.1282 16.3772C80.3103 15.9624 80.5942 15.5994 80.9541 15.3215C81.9365 14.6624 83.1181 14.3603 84.2992 14.4661H87.0781V14.3129C87.0965 13.9998 87.0475 13.6865 86.9344 13.3937C86.8212 13.1009 86.6466 12.8354 86.422 12.6147C85.8668 12.216 85.1889 12.0219 84.505 12.0657C83.91 12.0612 83.3185 12.1562 82.7553 12.3466C82.2231 12.5009 81.7284 12.7616 81.3015 13.1127L80.3366 11.3252C80.9316 10.8765 81.6089 10.5469 82.3307 10.3548C83.1356 10.1356 83.9663 10.0239 84.8009 10.0228C86.0871 9.93709 87.3589 10.3335 88.3647 11.1337ZM86.1132 18.5646C86.5794 18.2847 86.9373 17.8576 87.1296 17.3517V16.0749H84.505C83.0769 16.0749 82.3565 16.5345 82.3565 17.4666C82.3533 17.6734 82.4008 17.878 82.4949 18.0626C82.589 18.2472 82.727 18.4063 82.8968 18.5263C83.336 18.8089 83.8536 18.9474 84.3764 18.9221C84.9604 18.9567 85.543 18.8331 86.0618 18.5646H86.1132Z" fill="white"/>
<path d="M92.4559 7.9926C92.3098 7.8575 92.1941 7.69322 92.1165 7.51057C92.0389 7.32792 92.0011 7.13103 92.0056 6.93286C92.0004 6.73648 92.038 6.54129 92.1157 6.36061C92.1934 6.17993 92.3094 6.01801 92.4559 5.88589C92.6072 5.74486 92.7852 5.635 92.9795 5.56268C93.1738 5.49036 93.3807 5.457 93.5881 5.46455C94.0018 5.45291 94.4052 5.59393 94.7203 5.86035C94.8683 5.98573 94.9857 6.14279 95.0637 6.31972C95.1417 6.49664 95.1782 6.68882 95.1706 6.88179C95.175 7.2867 95.0177 7.67688 94.7331 7.96706C94.5816 8.11307 94.4023 8.22775 94.2058 8.30446C94.0092 8.38117 93.7993 8.41839 93.5881 8.41394C93.3807 8.42149 93.1738 8.38813 92.9795 8.31581C92.7852 8.24348 92.6072 8.13363 92.4559 7.9926ZM92.3401 10.1376H94.7975V20.6329H92.3401V10.1376Z" fill="white"/>
<path d="M108.41 6.05212V20.6331H106.029V19.2797C105.631 19.7922 105.109 20.1964 104.511 20.4544C103.882 20.7062 103.209 20.8321 102.53 20.8246C101.575 20.8353 100.632 20.6069 99.7896 20.1607C98.986 19.7142 98.3225 19.0558 97.8726 18.2583C97.384 17.3574 97.1443 16.3442 97.1779 15.3217C97.1666 14.3421 97.4056 13.3757 97.8726 12.5127C98.3195 11.7162 98.984 11.0612 99.7896 10.6231C100.631 10.1878 101.569 9.96832 102.517 9.98465C103.174 9.97447 103.826 10.0961 104.434 10.3422C105.01 10.5646 105.519 10.9293 105.914 11.4019V6.05212H108.41ZM104.434 18.2711C104.908 17.9991 105.296 17.6011 105.553 17.1219C105.863 16.5733 106.01 15.9494 105.978 15.3217C105.993 14.7198 105.847 14.1248 105.553 13.598C105.299 13.1163 104.911 12.7174 104.434 12.4489C103.942 12.1783 103.389 12.0364 102.826 12.0364C102.263 12.0364 101.71 12.1783 101.218 12.4489C100.74 12.7205 100.348 13.1183 100.086 13.598C99.8145 14.1327 99.6734 14.7231 99.6738 15.3217C99.6738 15.9243 99.8147 16.5187 100.086 17.0581C100.352 17.535 100.743 17.932 101.218 18.2072C101.714 18.4656 102.266 18.6006 102.826 18.6006C103.386 18.6006 103.938 18.4656 104.434 18.2072V18.2711Z" fill="white"/>
<path d="M34.689 8.23525C34.4863 8.05877 34.3249 7.84052 34.216 7.59574C34.1071 7.35095 34.0534 7.08553 34.0586 6.81801C34.0534 6.55048 34.1071 6.28506 34.216 6.04028C34.3249 5.79549 34.4863 5.57724 34.689 5.40077C35.1526 5.01517 35.7443 4.81487 36.3487 4.83898C36.949 4.81252 37.5387 5.00305 38.0083 5.37523C38.2139 5.54165 38.3786 5.75227 38.49 5.99116C38.6015 6.23005 38.6567 6.49096 38.6516 6.75417C38.6592 7.03072 38.6056 7.30556 38.4944 7.55928C38.3833 7.81299 38.2173 8.03939 38.0083 8.22248C37.5368 8.59539 36.9516 8.79846 36.3487 8.79846C35.7457 8.79846 35.1606 8.59539 34.689 8.22248V8.23525ZM34.4703 9.98446H38.1884V20.6329H34.4703V9.98446Z" fill="white"/>
<path d="M50.8741 10.9805C51.3199 11.4572 51.6638 12.0186 51.8849 12.6309C52.106 13.2431 52.1998 13.8935 52.1606 14.5427V20.633H48.301V15.1556C48.301 13.7001 47.722 12.9723 46.5384 12.9723C46.2488 12.9588 45.9596 13.0077 45.6909 13.1157C45.4221 13.2237 45.1802 13.3882 44.9816 13.5979C44.558 14.1341 44.3515 14.8081 44.4027 15.4876V20.5947H40.7617V9.98458H44.3383V11.1465C44.7531 10.7397 45.248 10.4224 45.7922 10.2144C46.3985 9.97856 47.0451 9.8615 47.6963 9.86967C48.8611 9.81383 50.0017 10.2125 50.8741 10.9805Z" fill="white"/>
<path d="M55.6986 20.4289C54.9754 20.297 54.2768 20.0559 53.6272 19.7139L54.7465 17.1603C55.2917 17.4818 55.8811 17.7226 56.4963 17.8753C57.1455 18.0545 57.8165 18.1448 58.4904 18.1434C58.9281 18.1694 59.3663 18.1042 59.777 17.9519C59.8861 17.9083 59.9804 17.8346 60.0488 17.7396C60.1172 17.6446 60.1568 17.5322 60.163 17.4156C60.163 17.1731 60.0086 17.0071 59.6998 16.9049C59.2101 16.7686 58.7114 16.6662 58.2074 16.5985C57.4695 16.5141 56.7386 16.3776 56.0202 16.1899C55.4353 16.0368 54.8994 15.738 54.4635 15.3217C54.0062 14.7856 53.7757 14.0947 53.8202 13.3937C53.7919 12.709 54.0058 12.036 54.4249 11.4913C54.8858 10.9104 55.5006 10.4684 56.2004 10.2145C57.1012 9.88367 58.0577 9.72763 59.0179 9.75487C59.7964 9.75272 60.5729 9.83406 61.3337 9.99746C62.0041 10.1167 62.6512 10.3408 63.2507 10.6614L62.1314 13.215C61.1836 12.6924 60.115 12.424 59.0308 12.4361C58.5919 12.4081 58.1523 12.4779 57.7442 12.6404C57.6294 12.6786 57.5287 12.7501 57.4553 12.8458C57.3819 12.9414 57.3391 13.0567 57.3325 13.1767C57.3325 13.432 57.474 13.598 57.7828 13.7002C58.2757 13.8414 58.779 13.9439 59.2881 14.0066C60.0309 14.1051 60.766 14.2544 61.4881 14.4535C62.065 14.6328 62.587 14.9534 63.0063 15.3855C63.4572 15.9151 63.6873 16.5956 63.6495 17.288C63.671 17.96 63.4573 18.6187 63.0449 19.1521C62.5657 19.7305 61.9394 20.1714 61.2308 20.4289C60.3036 20.7427 59.3284 20.8939 58.3489 20.8758C57.451 20.8294 56.5616 20.6795 55.6986 20.4289Z" fill="white"/>
<path d="M21.8892 20.7096L21.7862 20.8245C20.3627 22.2363 18.5494 23.1976 16.5755 23.5867C14.6016 23.9759 12.5557 23.7755 10.6966 23.0109C8.83739 22.2463 7.24839 20.9519 6.13044 19.2911C5.0125 17.6304 4.41581 15.6781 4.41581 13.6809C4.41581 11.6837 5.0125 9.73129 6.13044 8.07058C7.24839 6.40988 8.83739 5.1154 10.6966 4.35081C12.5557 3.58622 14.6016 3.38584 16.5755 3.775C18.5494 4.16417 20.3627 5.12541 21.7862 6.5372L24.3594 3.98361C22.4321 2.07803 19.9791 0.781887 17.3101 0.258834C14.6411 -0.264219 11.8758 0.00927131 9.36332 1.04477C6.85084 2.08028 4.70385 3.83136 3.19345 6.07692C1.68305 8.32248 0.876953 10.9618 0.876953 13.6617C0.876953 16.3616 1.68305 19.0009 3.19345 21.2465C4.70385 23.4921 6.85084 25.2432 9.36332 26.2787C11.8758 27.3142 14.6411 27.5876 17.3101 27.0646C19.9791 26.5415 22.4321 25.2454 24.3594 23.3398L24.5781 23.0972L21.8892 20.7096Z" fill="white"/>
<path d="M14.5937 17.1602C13.6656 17.2381 12.7444 16.9469 12.0326 16.3507C11.3208 15.7545 10.8769 14.9021 10.7984 13.981C10.7199 13.06 11.0133 12.1457 11.6141 11.4393C12.2149 10.7329 13.0738 10.2924 14.0019 10.2145H14.5937C15.0535 10.2113 15.5092 10.3001 15.9336 10.4756C16.358 10.6511 16.7425 10.9097 17.0639 11.2359L19.7143 8.55464C18.6977 7.55186 17.4047 6.8703 15.9984 6.59593C14.592 6.32156 13.1352 6.46668 11.8119 7.01298C10.4885 7.55928 9.35779 8.48229 8.56239 9.66557C7.76699 10.8489 7.34251 12.2394 7.34251 13.6618C7.34251 15.0842 7.76699 16.4748 8.56239 17.6581C9.35779 18.8414 10.4885 19.7644 11.8119 20.3107C13.1352 20.857 14.592 21.0021 15.9984 20.7277C17.4047 20.4533 18.6977 19.7718 19.7143 18.769L17.0511 16.126C16.401 16.7782 15.5181 17.1498 14.5937 17.1602Z" fill="white"/>
<path d="M23.5602 20.1096C22.6733 19.6621 21.9284 18.9797 21.4082 18.138C20.888 17.2963 20.6126 16.3282 20.6126 15.3407C20.6126 14.3533 20.888 13.3852 21.4082 12.5435C21.9284 11.7018 22.6733 11.0194 23.5602 10.5719C24.5043 10.0962 25.5507 9.85519 26.6094 9.86968C27.698 9.84472 28.776 10.0859 29.7486 10.5719C30.6534 10.9974 31.4168 11.6707 31.9486 12.5126C32.4647 13.3686 32.7319 14.3497 32.7205 15.3471C32.7429 16.3432 32.4804 17.3252 31.9636 18.1794C31.4467 19.0336 30.6965 19.7249 29.8 20.1734C28.8252 20.6532 27.7487 20.894 26.6608 20.8757C25.58 20.8736 24.5159 20.6107 23.5602 20.1096ZM28.2948 17.1602C28.729 16.647 28.9539 15.9911 28.9252 15.3216C28.9672 14.6503 28.7407 13.9896 28.2948 13.483C27.8679 13.0604 27.2895 12.8231 26.6865 12.8231C26.0836 12.8231 25.5052 13.0604 25.0783 13.483C24.8506 13.7309 24.6743 14.0208 24.5595 14.3363C24.4448 14.6517 24.3937 14.9865 24.4093 15.3216C24.3681 16.0044 24.5939 16.6768 25.0398 17.1985C25.2478 17.4066 25.4954 17.5717 25.7681 17.6844C26.0408 17.7971 26.3333 17.8551 26.6287 17.8551C26.9241 17.8551 27.2165 17.7971 27.4892 17.6844C27.7619 17.5717 28.0095 17.4066 28.2176 17.1985H28.2948V17.1602Z" fill="white"/>
</svg>
