<svg width="98" height="33" viewBox="0 0 98 33" fill="none" xmlns="http://www.w3.org/2000/svg">
<path d="M24.7291 1.07959H35.3198L35.5811 4.6701H34.9546C34.7075 3.1944 34.6753 2.87484 34.1382 2.30395C33.6012 1.73306 32.5343 1.76897 31.6714 1.76897H28.9647C28.8744 1.76263 28.7838 1.77533 28.6987 1.80625C28.6136 1.83717 28.5359 1.88563 28.4706 1.94849C28.3472 2.10086 28.2869 2.29498 28.3023 2.49066V7.06497H29.4874C29.7792 7.07475 30.0694 7.0185 30.3366 6.9004C30.6037 6.7823 30.8409 6.60538 31.0305 6.38277C31.4244 5.92797 31.6368 5.22782 31.6678 4.28232H32.3123V10.6986H31.6678C31.6368 9.63577 31.4208 8.87578 31.0198 8.41859C30.8156 8.18858 30.5627 8.00729 30.2796 7.888C29.9964 7.76872 29.6903 7.71446 29.3836 7.72921H28.3095V12.878C28.3041 12.9651 28.3195 13.0522 28.3543 13.1321C28.3892 13.212 28.4426 13.2824 28.51 13.3376C28.7088 13.4616 28.9427 13.5171 29.1759 13.4956H31.3241C33.6442 13.4956 34.9832 12.7344 35.3377 9.76144H36.0108L35.7566 14.1957H24.7291V13.4776H25.3127C25.5846 13.5038 25.8572 13.4367 26.0861 13.2873C26.1623 13.2171 26.2218 13.1307 26.2602 13.0344C26.2986 12.938 26.315 12.8343 26.3081 12.7308V2.49066C26.3179 2.39246 26.3067 2.29329 26.2752 2.19979C26.2437 2.10629 26.1926 2.02061 26.1255 1.94849C25.9493 1.81443 25.73 1.75048 25.5096 1.76897H24.7291V1.07959Z" fill="white"/>
<path d="M35.0963 5.41895H39.8761V6.05806C39.5043 6.03669 39.132 6.08916 38.7805 6.21245C38.7078 6.24739 38.6465 6.30247 38.604 6.37118C38.5615 6.43989 38.5395 6.51937 38.5406 6.60022C38.5415 6.74299 38.5733 6.88386 38.6337 7.01313L40.9537 12.2122L43.0661 7.18548C43.0964 7.1014 43.1121 7.01276 43.1127 6.92337C43.1127 6.46857 42.6651 6.18492 41.7701 6.07242V5.41895H45.3934V6.05806C45.0795 6.0761 44.7764 6.17909 44.5162 6.35607C44.2973 6.52744 44.128 6.75426 44.0257 7.01313L40.8034 14.4634H40.3021L36.865 6.80847C36.7734 6.57611 36.6152 6.3762 36.4103 6.23399C35.9855 6.11228 35.5452 6.0542 35.1035 6.06165L35.0963 5.41895Z" fill="white"/>
<path d="M48.781 5.15405C49.3374 5.14326 49.8896 5.25171 50.4009 5.47214C50.9121 5.69257 51.3705 6.01991 51.7455 6.43227C52.5709 7.35336 53.0017 8.56313 52.9449 9.80017C52.9698 10.6518 52.7854 11.4964 52.4079 12.2597C52.0578 12.9286 51.5267 13.4849 50.8755 13.8646C50.227 14.2556 49.4839 14.4606 48.7273 14.4571C48.1852 14.4612 47.6486 14.3479 47.1542 14.1248C46.6599 13.9017 46.2194 13.5741 45.863 13.1645C45.053 12.2411 44.6297 11.0397 44.6815 9.81094C44.6306 8.58511 45.0524 7.3867 45.8594 6.46459C46.2228 6.04707 46.6722 5.71365 47.1766 5.48738C47.681 5.26111 48.2284 5.14738 48.781 5.15405ZM48.781 5.8183C48.4377 5.81822 48.1 5.90547 47.7994 6.07187C47.4988 6.23827 47.2453 6.47839 47.0624 6.76978C46.6137 7.4041 46.3893 8.40466 46.3893 9.77144C46.3893 11.1382 46.6125 12.1567 47.0588 12.827C47.2395 13.1222 47.4928 13.3661 47.7943 13.5352C48.0958 13.7043 48.4355 13.793 48.781 13.7928C49.1334 13.7958 49.4807 13.7087 49.7901 13.5398C50.0996 13.3708 50.361 13.1254 50.5497 12.827C51.0008 12.1831 51.2264 11.1311 51.2264 9.67091C51.2264 8.31609 51.0032 7.33588 50.5568 6.73029C50.3587 6.44352 50.0928 6.21045 49.7829 6.05193C49.473 5.89341 49.1288 5.81437 48.781 5.82189V5.8183Z" fill="white"/>
<path d="M55.8466 0.907715V12.9036C55.8416 12.9781 55.8532 13.0528 55.8804 13.1224C55.9077 13.1919 55.9499 13.2545 56.0041 13.3057C56.1663 13.4328 56.3677 13.4988 56.5734 13.4924H57.1355V14.2105H52.9107V13.4924H53.4299C53.6572 13.5081 53.8818 13.4347 54.0564 13.2878C54.1296 13.2106 54.1861 13.1191 54.2224 13.019C54.2587 12.9189 54.2741 12.8124 54.2676 12.7061V2.75324C54.2787 2.62802 54.262 2.5019 54.2186 2.38395C54.1753 2.26599 54.1065 2.15913 54.017 2.07104C53.7814 1.86827 53.4789 1.76075 53.1685 1.76944H52.3844V1.08006L55.8466 0.907715Z" fill="white"/>
<path d="M60.2898 5.25781V11.078C60.2515 11.6761 60.4438 12.2661 60.8268 12.7261C61.002 12.9179 61.2166 13.0693 61.4559 13.1697C61.6951 13.2701 61.9532 13.3172 62.2124 13.3077C62.5553 13.3115 62.8946 13.2372 63.2046 13.0904C63.5147 12.9436 63.7876 12.7282 64.0026 12.4604C64.4944 11.866 64.7495 11.1101 64.7187 10.3384V7.04948C64.7252 6.91537 64.6993 6.78167 64.6432 6.65976C64.5871 6.53785 64.5024 6.43135 64.3964 6.34933C64.0177 6.14205 63.5883 6.04621 63.1576 6.07286V5.41579L66.2296 5.25781V12.464C66.2208 12.6042 66.2415 12.7447 66.2902 12.8764C66.3389 13.0081 66.4146 13.1282 66.5124 13.2287C66.7289 13.4171 67.0105 13.5125 67.2965 13.4944H67.8479V14.1228L64.9048 14.1874L64.7187 12.464C64.2733 13.0141 63.7397 13.4862 63.1397 13.8607C62.6572 14.1593 62.1027 14.3206 61.5357 14.3274C61.1679 14.3366 60.8021 14.2706 60.4605 14.1336C60.1189 13.9966 59.8087 13.7913 59.5487 13.5303C59.0068 13.0061 58.7359 12.1157 58.7359 10.859V7.04948C58.7449 6.89806 58.7139 6.74694 58.646 6.61139C58.5781 6.47585 58.4757 6.36068 58.3492 6.27752C57.9885 6.11643 57.594 6.04617 57.2 6.07286V5.41579L60.2898 5.25781Z" fill="white"/>
<path d="M69.6187 1.83887H70.2453V5.42938H75.5728V6.2911H70.2453V11.9102C70.2211 12.3154 70.3488 12.7149 70.6033 13.0305C70.712 13.156 70.847 13.2558 70.9986 13.3228C71.1503 13.3899 71.3148 13.4225 71.4805 13.4183C71.6935 13.4137 71.9023 13.3578 72.0892 13.2553C72.2761 13.1528 72.4358 13.0068 72.5546 12.8294C72.8529 12.4369 73.0272 11.787 73.0773 10.8798H73.7039C73.6657 12.0479 73.4007 12.9144 72.909 13.4793C72.6732 13.7551 72.3787 13.9744 72.0472 14.1211C71.7157 14.2677 71.3557 14.338 70.9936 14.3267C70.6854 14.3448 70.3768 14.3014 70.0855 14.1991C69.7942 14.0968 69.526 13.9376 69.2965 13.7306C69.0921 13.5278 68.9321 13.2845 68.8266 13.0162C68.7212 12.7479 68.6727 12.4605 68.6842 12.1723V6.27674H67.1626V5.62326C67.7765 5.54174 68.3369 5.22998 68.7308 4.75077C69.2798 4.0566 69.5757 3.08597 69.6187 1.83887Z" fill="white"/>
<path d="M73.6977 5.41576L77.1814 5.31164V12.8517C77.1733 12.9318 77.1826 13.0128 77.2085 13.089C77.2345 13.1652 77.2765 13.2349 77.3318 13.2933C77.4826 13.4207 77.6753 13.4872 77.8724 13.48H78.5025V14.1981H74.2455V13.48H74.8219C74.9306 13.4895 75.04 13.4765 75.1434 13.442C75.2469 13.4074 75.3422 13.3519 75.4234 13.279C75.5615 13.1166 75.6308 12.9066 75.6168 12.6937V7.34746C75.6275 7.20204 75.6065 7.05601 75.5552 6.91957C75.5039 6.78314 75.4235 6.65959 75.3196 6.55755C75.0662 6.36259 74.7501 6.268 74.4317 6.29185H73.7156L73.6977 5.41576ZM76.1252 1.26514C76.2633 1.26516 76.4 1.29352 76.5269 1.34847C76.6537 1.40342 76.768 1.48381 76.8627 1.58469C76.9641 1.68131 77.0447 1.79775 77.0995 1.92681C77.1543 2.05588 77.1822 2.19483 77.1814 2.33511C77.1807 2.46939 77.1531 2.60216 77.1002 2.72552C77.0473 2.84888 76.9702 2.96032 76.8735 3.05321C76.7781 3.15248 76.6634 3.23109 76.5366 3.2842C76.4097 3.33731 76.2734 3.36378 76.1359 3.36199C75.9971 3.36367 75.8594 3.33682 75.7313 3.28309C75.6032 3.22937 75.4875 3.14991 75.3912 3.04962C75.294 2.95691 75.2164 2.84558 75.1629 2.72223C75.1094 2.59889 75.0811 2.46602 75.0797 2.33152C75.0799 2.19299 75.1083 2.05596 75.1631 1.92879C75.2179 1.80163 75.2979 1.68699 75.3984 1.59187C75.4911 1.49115 75.6035 1.41053 75.7285 1.35496C75.8535 1.29939 75.9885 1.27004 76.1252 1.26873V1.26514Z" fill="white"/>
<path d="M82.899 5.15405C83.4553 5.14326 84.0076 5.25171 84.5188 5.47214C85.0301 5.69257 85.4885 6.01991 85.8635 6.43227C86.6901 7.3528 87.1223 8.56264 87.0665 9.80017C87.0914 10.6518 86.9069 11.4964 86.5294 12.2597C86.1792 12.9285 85.6481 13.4847 84.997 13.8646C84.3485 14.2555 83.6055 14.4604 82.8488 14.4571C82.3067 14.4615 81.77 14.3482 81.2756 14.1251C80.7812 13.902 80.3408 13.5743 79.9846 13.1645C79.1742 12.2413 78.7509 11.0398 78.803 9.81094C78.7501 8.58608 79.1694 7.38779 79.9738 6.46459C80.3376 6.0466 80.7875 5.71291 81.2926 5.48662C81.7977 5.26033 82.3458 5.14686 82.899 5.15405ZM82.899 5.8183C82.5556 5.81822 82.2179 5.90547 81.9174 6.07187C81.6168 6.23827 81.3632 6.47839 81.1804 6.76978C80.7317 7.40411 80.5073 8.40466 80.5073 9.77145C80.5073 11.1382 80.7305 12.1567 81.1768 12.827C81.3575 13.1222 81.6107 13.3661 81.9122 13.5352C82.2138 13.7043 82.5535 13.793 82.899 13.7928C83.2519 13.7965 83.6 13.7097 83.9101 13.5406C84.2203 13.3716 84.4822 13.126 84.6712 12.827C85.1223 12.1831 85.3479 11.1311 85.3479 9.67091C85.3479 8.31609 85.1247 7.33589 84.6784 6.73029C84.4799 6.443 84.2135 6.20962 83.9029 6.05107C83.5923 5.89252 83.2474 5.81377 82.899 5.82189V5.8183Z" fill="white"/>
<path d="M86.8797 5.41878L89.7869 5.23926C89.9173 5.87531 90.0047 6.51948 90.0483 7.16736C90.3883 6.58271 90.8651 6.08981 91.4375 5.73116C91.9798 5.4117 92.5987 5.2466 93.2276 5.25362C93.7366 5.24132 94.2395 5.36525 94.6848 5.61267C95.1017 5.86712 95.4314 6.24283 95.63 6.68982C95.8733 7.20836 95.9958 7.77562 95.9881 8.34864V12.6213C95.9758 12.7432 95.9886 12.8662 96.0255 12.9829C96.0625 13.0996 96.1228 13.2075 96.2029 13.2999C96.4088 13.453 96.6637 13.5246 96.919 13.501H97.1732V14.2191H93.2957V13.501H93.3708C93.671 13.5292 93.9722 13.46 94.2301 13.3035C94.3137 13.2304 94.3792 13.1389 94.4214 13.0361C94.4637 12.9333 94.4815 12.822 94.4736 12.7111V8.95184C94.521 8.32487 94.3972 7.69679 94.1156 7.13505C93.9519 6.86404 93.7179 6.64271 93.4385 6.49473C93.1591 6.34675 92.8449 6.27767 92.5295 6.29487C92.1902 6.29053 91.8546 6.36511 91.549 6.51276C91.2434 6.6604 90.976 6.8771 90.7679 7.14582C90.2725 7.77728 90.0186 8.56556 90.0519 9.36834V12.6178C90.0395 12.7399 90.0525 12.8632 90.0901 12.98C90.1277 13.0968 90.189 13.2046 90.2703 13.2964C90.4775 13.4467 90.7314 13.518 90.9863 13.4974H91.2334V14.2155H87.3272V13.4974H87.5707C87.8165 13.5148 88.0611 13.449 88.2653 13.3107C88.3396 13.2578 88.4002 13.1879 88.4419 13.1066C88.4837 13.0254 88.5054 12.9353 88.5052 12.844V7.18531C88.516 7.03007 88.4945 6.87428 88.4421 6.7278C88.3897 6.58132 88.3076 6.44734 88.2008 6.33436C87.9588 6.12649 87.6452 6.02207 87.3272 6.04353H86.8797V5.41878Z" fill="white"/>
<path d="M39.727 17.0891L40.4932 15.7031H41.1198L41.4778 21.2325H40.8692C40.3918 19.6431 39.8416 18.4929 39.2186 17.782C38.8822 17.3654 38.4587 17.0279 37.9781 16.7934C37.4974 16.5589 36.9712 16.4331 36.4367 16.4248C35.6659 16.4173 34.9131 16.6576 34.2885 17.1106C33.6068 17.6309 33.0977 18.3455 32.8277 19.1608C32.4912 20.0728 32.3193 20.9919 32.3193 22.6472C32.2664 23.803 32.4391 24.958 32.8277 26.0474C33.0857 26.8397 33.5745 27.5364 34.2312 28.0473C34.8459 28.4797 35.5823 28.7036 36.3329 28.6864C36.794 28.7156 37.2562 28.649 37.6905 28.4908C38.1249 28.3327 38.522 28.0863 38.857 27.7672C39.1559 27.452 39.3888 27.0798 39.5419 26.6728C39.695 26.2658 39.7653 25.8322 39.7485 25.3975V24.0941C39.7528 24.001 39.7333 23.9082 39.692 23.8247C39.6507 23.7412 39.5888 23.6695 39.5122 23.6166C39.2742 23.4848 39.0027 23.4261 38.7317 23.4479H37.5645V22.7908H42.9493V23.4479H42.5269C42.2641 23.4245 42.001 23.4888 41.7786 23.631C41.7036 23.6959 41.6446 23.7773 41.6061 23.8689C41.5676 23.9604 41.5506 24.0596 41.5566 24.1588V29.4476H40.9444C40.72 28.6242 40.4813 27.8343 40.2283 27.0779C39.8222 27.7824 39.2491 28.3756 38.5598 28.8049C37.896 29.1951 37.1381 29.395 36.3687 29.383C35.2327 29.387 34.1176 29.0764 33.1464 28.4853C32.1372 27.8787 31.3165 27.0022 30.7762 25.954C30.1949 24.9434 29.9014 23.7921 29.9276 22.6256C29.9046 21.4516 30.2044 20.2938 30.7941 19.2793C31.3459 18.218 32.1656 17.3204 33.1714 16.6762C34.0735 16.0647 35.1333 15.7292 36.2219 15.7103C36.7946 15.7075 37.3633 15.8072 37.9011 16.0047C38.5606 16.2721 39.1762 16.6377 39.727 17.0891Z" fill="white"/>
<path d="M52.2593 28.4278L52.4061 28.6863C52.4061 29.1818 51.8117 29.1279 51.2568 29.1279C50.8343 29.1279 49.9858 29.1064 49.6922 28.8838C49.3986 28.6611 49.2805 28.4062 49.0621 27.8246C48.6163 28.3381 48.0813 28.7663 47.4831 29.0884C46.974 29.3091 46.4229 29.4157 45.8684 29.4008C45.1391 29.4516 44.4149 29.2459 43.8205 28.8191C43.5939 28.6436 43.4113 28.4175 43.287 28.1589C43.1627 27.9002 43.1002 27.6161 43.1044 27.3291C43.1044 26.4171 43.639 25.6595 44.7084 25.0563C46.0371 24.3781 47.4861 23.9694 48.9725 23.8535V22.5106C48.9738 22.2781 48.9233 22.0482 48.8248 21.8376C48.7264 21.6271 48.5824 21.4412 48.4033 21.2934C48.0055 20.9516 47.4948 20.771 46.9711 20.7872C46.483 20.774 46.0001 20.8904 45.5712 21.1247C45.292 21.2946 45.1523 21.4598 45.1523 21.6202C45.1856 21.7843 45.2637 21.9359 45.3779 22.0582C45.5354 22.2472 45.6305 22.4805 45.65 22.726C45.6549 22.8536 45.6332 22.9808 45.5863 23.0995C45.5395 23.2182 45.4685 23.3258 45.3779 23.4154C45.2828 23.5061 45.1702 23.5765 45.0471 23.6222C44.924 23.6678 44.7929 23.6879 44.6618 23.6811C44.5171 23.6851 44.373 23.6591 44.2387 23.6048C44.1044 23.5504 43.9827 23.4688 43.8813 23.3651C43.7773 23.2574 43.6961 23.1296 43.6426 22.9895C43.5891 22.8495 43.5643 22.7 43.5698 22.5501C43.5698 21.9301 43.9171 21.3652 44.6117 20.8554C45.416 20.3108 46.3741 20.0413 47.3435 20.087C48.3842 20.087 49.1778 20.312 49.7244 20.762C49.9802 20.9558 50.1878 21.2065 50.3306 21.4943C50.4735 21.7822 50.5479 22.0993 50.5479 22.4208V27.2142C50.5323 27.5042 50.6047 27.7921 50.7556 28.04C50.8084 28.1303 50.8793 28.2088 50.9636 28.2706C51.048 28.3324 51.1441 28.3761 51.2461 28.399C51.5827 28.4333 51.9213 28.4429 52.2593 28.4278ZM49.0048 24.4603C47.4223 24.6805 46.3016 25.0395 45.6428 25.5374C45.3998 25.7229 45.2056 25.965 45.077 26.2428C44.9485 26.5206 44.8896 26.8257 44.9053 27.1316C44.8807 27.5432 45.0182 27.9481 45.2884 28.259C45.4165 28.394 45.5719 28.5 45.7442 28.57C45.9164 28.6399 46.1016 28.6722 46.2873 28.6647C46.6466 28.667 47.0024 28.5938 47.3317 28.4497C47.661 28.3056 47.9565 28.0938 48.1992 27.8281C48.4671 27.5492 48.6767 27.2194 48.8157 26.8581C48.9546 26.4968 49.0202 26.1112 49.0083 25.7241L49.0048 24.4603Z" fill="white"/>
<path d="M51.9433 20.3426L54.4495 20.1846C54.5797 20.7991 54.6694 21.4217 54.7181 22.048C55.0888 21.4731 55.5769 20.9836 56.1502 20.6118C56.6239 20.3316 57.1649 20.1864 57.7148 20.1918C58.2534 20.1706 58.7826 20.3382 59.2114 20.6657C59.6619 21.0797 59.9776 21.6202 60.1172 22.2168C60.4635 21.6135 60.9378 21.0938 61.5064 20.6944C62.0002 20.3641 62.5812 20.1891 63.1748 20.1918C63.5079 20.168 63.8421 20.2202 64.1522 20.3446C64.4622 20.469 64.7401 20.6622 64.965 20.9099C65.4966 21.5995 65.768 22.4554 65.7312 23.3263V27.6708C65.7187 27.7693 65.7301 27.8693 65.7644 27.9624C65.7987 28.0556 65.8548 28.139 65.9281 28.2058C66.1547 28.3651 66.4291 28.4411 66.705 28.4212H67.1418V29.1393H62.738V28.4212H63.1784C63.4531 28.4472 63.7288 28.3816 63.9625 28.2345C64.0403 28.1639 64.1011 28.0764 64.1401 27.9787C64.1792 27.8811 64.1956 27.7758 64.1881 27.6708V23.3083C64.2261 22.7639 64.0601 22.2248 63.7226 21.7967C63.5665 21.6207 63.3736 21.4814 63.1576 21.389C62.9415 21.2965 62.7078 21.253 62.4731 21.2617C62.0919 21.2551 61.7175 21.3639 61.399 21.5741C61.071 21.7966 60.8127 22.1078 60.6543 22.4717C60.419 22.9095 60.2821 23.3935 60.2533 23.89V27.6708C60.2442 27.7745 60.2578 27.879 60.293 27.977C60.3283 28.0749 60.3843 28.164 60.4573 28.2381C60.6405 28.3749 60.8671 28.44 61.0946 28.4212H61.6926V29.1393H57.2243V28.4212H57.7291C57.9819 28.4412 58.2341 28.3755 58.4452 28.2345C58.5193 28.1791 58.5793 28.1071 58.6203 28.0241C58.6614 27.9411 58.6823 27.8496 58.6815 27.757V23.6997C58.6815 22.8427 58.5299 22.2216 58.2268 21.8362C58.0844 21.6485 57.8993 21.4977 57.6869 21.3965C57.4745 21.2953 57.2409 21.2466 57.0059 21.2545C56.7171 21.2396 56.4288 21.2936 56.1649 21.4122C55.901 21.5308 55.6689 21.7106 55.4878 21.9367C54.9855 22.5695 54.7184 23.3578 54.7324 24.1664V27.6708C54.7205 27.7705 54.7304 27.8715 54.7613 27.967C54.7922 28.0625 54.8434 28.1501 54.9114 28.2237C55.1444 28.3734 55.4197 28.4427 55.6955 28.4212H56.143V29.1393H51.7213V28.4212H52.3837C52.5926 28.4358 52.7991 28.3689 52.9601 28.2345C53.0257 28.1739 53.0775 28.0999 53.1121 28.0176C53.1466 27.9352 53.1632 27.8463 53.1606 27.757V22.0121C53.1717 21.8821 53.1558 21.7511 53.1139 21.6275C53.072 21.5039 53.005 21.3904 52.9172 21.294C52.6317 21.0943 52.2913 20.9889 51.9433 20.9924V20.3426Z" fill="white"/>
<path d="M67.3257 20.3434L70.4477 20.2392V27.7793C70.4397 27.8594 70.4489 27.9404 70.4749 28.0166C70.5008 28.0928 70.5429 28.1625 70.5981 28.2209C70.7503 28.3485 70.9441 28.415 71.1423 28.4076H72.1341V29.1257H66.7886V28.4076H68.074C68.1826 28.4173 68.2921 28.4044 68.3956 28.3699C68.4991 28.3353 68.5943 28.2797 68.6755 28.2066C68.8129 28.044 68.8811 27.8338 68.8652 27.6213V22.1063C68.8763 21.9603 68.8554 21.8137 68.8041 21.6766C68.7528 21.5395 68.6722 21.4154 68.5681 21.3128C68.3148 21.1175 67.9986 21.0229 67.6801 21.0471H67.3221L67.3257 20.3434ZM69.3915 16.1927C69.5297 16.1925 69.6665 16.2208 69.7934 16.2758C69.9202 16.3307 70.0345 16.4112 70.1291 16.5123C70.2307 16.6088 70.3114 16.7252 70.3662 16.8543C70.421 16.9834 70.4488 17.1224 70.4477 17.2627C70.447 17.397 70.4194 17.5297 70.3665 17.6531C70.3136 17.7765 70.2365 17.8879 70.1398 17.9808C70.018 18.1011 69.8687 18.1896 69.7048 18.2386C69.541 18.2876 69.3676 18.2955 69.2 18.2617C69.0324 18.2279 68.8756 18.1534 68.7434 18.0447C68.6112 17.936 68.5075 17.7964 68.4416 17.6382C68.3757 17.48 68.3494 17.308 68.3652 17.1373C68.3809 16.9666 68.4382 16.8023 68.5319 16.6589C68.6257 16.5156 68.7531 16.3974 68.903 16.3149C69.0528 16.2324 69.2206 16.1879 69.3915 16.1855V16.1927Z" fill="white"/>
<path d="M71.8738 20.3436L74.781 20.1641C74.9112 20.8002 74.9985 21.4443 75.0424 22.0922C75.3824 21.5075 75.8592 21.0146 76.4315 20.656C76.9791 20.3335 77.6046 20.1683 78.2396 20.1784C78.7485 20.1661 79.2515 20.2901 79.6968 20.5375C80.1141 20.7914 80.4439 21.1673 80.642 21.6146C80.8849 22.1333 81.0074 22.7005 81.0001 23.2734V27.5461C80.9878 27.668 81.0006 27.791 81.0375 27.9077C81.0744 28.0244 81.1348 28.1323 81.2149 28.2248C81.4206 28.3781 81.6757 28.4498 81.9309 28.4258H82.1851V29.1439H78.2897V28.4258H78.3649C78.665 28.454 78.9663 28.3848 79.2242 28.2283C79.3064 28.1571 79.3714 28.068 79.4142 27.9679C79.457 27.8677 79.4765 27.7591 79.4712 27.6503V23.8766C79.5186 23.2485 79.3948 22.6193 79.1132 22.0563C78.9494 21.7843 78.715 21.5621 78.435 21.4135C78.1549 21.2649 77.8399 21.1954 77.5235 21.2125C77.1844 21.2084 76.8488 21.2831 76.5432 21.4308C76.2376 21.5784 75.9703 21.7949 75.762 22.0634C75.2669 22.6951 75.0129 23.4832 75.0459 24.286V27.5354C75.0335 27.6575 75.0465 27.7809 75.0841 27.8977C75.1217 28.0145 75.1831 28.1222 75.2643 28.214C75.4715 28.3644 75.7255 28.4357 75.9804 28.415H76.2275V29.1332H71.9525V28.415H72.5612C72.807 28.4318 73.0513 28.3662 73.2558 28.2283C73.3306 28.1751 73.3915 28.1046 73.4332 28.0227C73.475 27.9408 73.4964 27.85 73.4957 27.758V22.0958C73.5067 21.9405 73.4853 21.7846 73.4329 21.6381C73.3805 21.4916 73.2982 21.3577 73.1913 21.2448C72.9495 21.0366 72.6357 20.9321 72.3177 20.954H71.8702L71.8738 20.3436Z" fill="white"/>
<path d="M88.8115 20.8312C89.4344 20.1993 91.1745 19.2765 91.7294 19.255C91.887 19.2334 92.0473 19.2442 92.2006 19.2868C92.3539 19.3294 92.4969 19.4028 92.6209 19.5027C92.825 19.7038 92.4562 20.1526 92.4562 20.4398C92.4639 20.6511 92.3895 20.8571 92.2486 21.0143C92.1883 21.086 92.1133 21.1437 92.0286 21.1834C91.9439 21.223 91.8516 21.2438 91.7581 21.2441C91.4024 21.2441 91.1637 21.0251 91.042 20.587C90.9919 20.4003 90.9072 20.307 90.7878 20.307C90.2238 20.506 89.7025 20.8106 89.2518 21.2046C89.4776 21.498 89.663 21.8204 89.8032 22.1633C89.9048 22.444 89.9558 22.7407 89.9536 23.0394C89.9623 23.5461 89.8256 24.0446 89.5597 24.4756C89.2286 24.9498 88.7792 25.3286 88.2565 25.5743C87.7226 25.8731 87.1241 26.037 86.5129 26.0518H85.4961C85.0075 26.0111 84.5164 26.0887 84.0639 26.278C83.9493 26.3506 83.8559 26.4522 83.793 26.5726C83.7301 26.693 83.7001 26.828 83.7059 26.9638C83.7011 27.0749 83.7254 27.1854 83.7762 27.2843C83.8271 27.3831 83.9028 27.467 83.9959 27.5275C84.3364 27.6881 84.7129 27.7562 85.0879 27.725L87.3936 27.6783C88.5584 27.6783 89.3939 27.8734 89.8999 28.2635C90.149 28.4478 90.3494 28.6904 90.4835 28.9701C90.6177 29.2499 90.6816 29.5583 90.6697 29.8685C90.674 30.2296 90.5974 30.5871 90.4456 30.9146C90.2938 31.2421 90.0706 31.5312 89.7925 31.7607C88.9762 32.4788 87.7576 32.8379 86.1369 32.8379C84.7979 32.8379 83.8049 32.5913 83.1581 32.0982C82.9353 31.9588 82.7493 31.7675 82.6159 31.5406C82.4825 31.3137 82.4057 31.0579 82.3919 30.7949C82.4019 30.6043 82.4517 30.4179 82.5381 30.2478C82.6244 30.0778 82.7454 29.9277 82.8932 29.8075C83.3717 29.4346 83.9421 29.1988 84.5437 29.1253C84.0314 29.0261 83.5524 28.7988 83.1509 28.4646C83.0021 28.3281 82.8837 28.1615 82.8035 27.9759C82.7232 27.7903 82.683 27.5897 82.6855 27.3875C82.6741 27.0037 82.8042 26.6292 83.0507 26.3354C83.4147 25.97 83.8677 25.7063 84.3647 25.5707C83.8826 25.3174 83.4715 24.9471 83.1688 24.4935C82.897 24.0649 82.7575 23.5652 82.7678 23.0573C82.7658 22.6523 82.8544 22.252 83.0273 21.8859C83.2002 21.5199 83.4529 21.1975 83.7668 20.9425C84.4973 20.3457 85.4212 20.0391 86.3625 20.0808C86.7896 20.0793 87.2144 20.1422 87.6228 20.2675C88.0447 20.3953 88.4453 20.5853 88.8115 20.8312ZM86.9067 29.1217C85.761 29.1217 84.9435 29.2809 84.4542 29.5992C84.242 29.7101 84.0625 29.875 83.9337 30.0772C83.8049 30.2795 83.7313 30.5121 83.7202 30.7518C83.7161 30.9526 83.7649 31.151 83.8617 31.3269C83.9585 31.5028 84.0999 31.6499 84.2716 31.7535C84.9004 32.1154 85.6209 32.2851 86.3446 32.2418C87.4163 32.2418 88.2231 32.0635 88.7649 31.7068C89.3067 31.3502 89.5788 30.9564 89.5812 30.5256C89.5793 30.2644 89.4897 30.0114 89.327 29.8075C89.1174 29.559 88.8358 29.3821 88.5214 29.3012C87.9939 29.1684 87.4502 29.1115 86.9067 29.1324V29.1217ZM86.3553 20.6696C86.0951 20.6633 85.8367 20.7151 85.5989 20.8212C85.3611 20.9274 85.1499 21.0854 84.9805 21.2836C84.5943 21.7701 84.4017 22.3828 84.4399 23.0034C84.3993 23.6586 84.5908 24.3071 84.9805 24.8346C85.1489 25.0369 85.3593 25.1999 85.5969 25.3123C85.8346 25.4247 86.0938 25.4838 86.3566 25.4855C86.6193 25.4872 86.8793 25.4315 87.1184 25.3222C87.3575 25.2129 87.5699 25.0526 87.7409 24.8526C88.1265 24.3369 88.3169 23.7007 88.278 23.0573C88.3123 22.4316 88.1175 21.8149 87.7302 21.3231C87.5641 21.119 87.3542 20.9552 87.1161 20.8439C86.878 20.7327 86.618 20.6767 86.3553 20.6804V20.6696Z" fill="white"/>
<path d="M92.0704 19.3203C92.3521 19.325 92.6207 19.4406 92.8183 19.6421C93.0159 19.8436 93.1266 20.1149 93.1265 20.3975C93.126 20.5318 93.0985 20.6646 93.0456 20.788C92.9927 20.9114 92.9155 21.0228 92.8186 21.1156C92.6967 21.236 92.5472 21.3246 92.3832 21.3735C92.2192 21.4225 92.0457 21.4303 91.8779 21.3963C91.7102 21.3624 91.5533 21.2876 91.4211 21.1786C91.2889 21.0697 91.1854 20.9298 91.1197 20.7714C91.054 20.6129 91.028 20.4407 91.0441 20.2699C91.0603 20.099 91.118 19.9347 91.2122 19.7915C91.3064 19.6482 91.4343 19.5303 91.5845 19.4482C91.7347 19.366 91.9028 19.3221 92.0739 19.3203H92.0704Z" fill="white"/>
<path d="M19.0864 27.7042H18.8573H18.7391V27.1333H18.8967C19.0175 27.1205 19.1396 27.134 19.2547 27.1728C19.3006 27.1952 19.339 27.2306 19.3651 27.2746C19.3912 27.3187 19.4038 27.3694 19.4015 27.4205C19.4019 27.4618 19.3934 27.5027 19.3766 27.5404C19.3598 27.5781 19.3351 27.6117 19.3042 27.639C19.2733 27.6663 19.2369 27.6865 19.1974 27.6984C19.158 27.7103 19.1165 27.7135 19.0757 27.7078L19.0864 27.7042ZM19.7524 27.4277C19.756 27.3402 19.7391 27.253 19.7031 27.1732C19.667 27.0933 19.6128 27.0231 19.5447 26.9681C19.3767 26.8544 19.1726 26.807 18.9719 26.8353H18.3954V28.688H18.7535V28.0058H19.0614L19.4194 28.6952H19.8132L19.4015 27.9412C19.509 27.9079 19.6025 27.8398 19.6673 27.7475C19.7321 27.6553 19.7645 27.5441 19.7595 27.4313L19.7524 27.4277ZM19.0435 29.2266C18.7602 29.2266 18.4833 29.1423 18.2478 28.9845C18.0123 28.8267 17.8287 28.6024 17.7203 28.34C17.612 28.0775 17.5836 27.7888 17.6388 27.5102C17.6941 27.2316 17.8305 26.9757 18.0308 26.7748C18.2311 26.574 18.4863 26.4372 18.7641 26.3818C19.0419 26.3263 19.3298 26.3548 19.5915 26.4635C19.8532 26.5722 20.0769 26.7563 20.2342 26.9925C20.3916 27.2286 20.4756 27.5063 20.4756 27.7904C20.4756 28.1713 20.3247 28.5366 20.0561 28.8059C19.7876 29.0753 19.4233 29.2266 19.0435 29.2266ZM19.0435 25.9951C18.6894 25.9951 18.3433 26.1004 18.0489 26.2977C17.7545 26.4949 17.5251 26.7753 17.3896 27.1034C17.2541 27.4314 17.2186 27.7924 17.2877 28.1406C17.3568 28.4889 17.5273 28.8087 17.7776 29.0598C18.028 29.3109 18.347 29.4819 18.6942 29.5511C19.0415 29.6204 19.4014 29.5848 19.7285 29.449C20.0556 29.3131 20.3352 29.083 20.5319 28.7878C20.7286 28.4925 20.8336 28.1454 20.8336 27.7904C20.8336 27.3142 20.645 26.8576 20.3093 26.5209C19.9736 26.1843 19.5182 25.9951 19.0435 25.9951Z" fill="white"/>
<path d="M0.0263977 2.44211C8.61921 -2.16811 19.7541 2.69344 20.5919 14.4308C4.62355 15.6875 2.70091 8.47775 0.0263977 2.44211Z" fill="white"/>
<path d="M0.026886 27.6104C8.6197 32.2206 19.7545 27.3591 20.5923 15.6217C4.62404 14.365 2.7014 21.5712 0.026886 27.6104Z" fill="white"/>
<path d="M20.5655 14.4449C19.7277 2.70755 8.59281 -2.15041 0 2.45621C2.67451 8.49186 4.59715 15.7016 20.5655 14.4449ZM0 27.6221C8.59281 32.2323 19.7277 27.3708 20.5655 15.6334C4.59715 14.3659 2.67451 21.5829 0 27.6221Z" fill="white"/>
</svg>
