<svg  xmlns="http://www.w3.org/2000/svg">
  <symbol fill="none" id="top" viewBox="0 0 22 22">
    <path d="M9.99803 2.3973C10.5148 1.74327 11.5049 1.73768 12.029 2.38585L18.5081 10.3987C18.9003 10.8838 18.8927 11.579 18.49 12.0554L12.0106 19.7203C11.4874 20.3392 10.5316 20.3337 10.0155 19.7089L3.68456 12.0444C3.29437 11.572 3.28698 10.8913 3.66681 10.4106L9.99803 2.3973Z" stroke-width="1.4"/>
    <path d="M3.15326 11.3474H19.2282" stroke-width="1.4"/>
    <path fill="inherit" d="M11 20.1111L10.3324 20.3218C10.4244 20.6131 10.6946 20.8111 11 20.8111C11.3053 20.8111 11.5755 20.6131 11.6675 20.3218L11 20.1111ZM11.6675 19.9003L8.86746 11.0336L7.53244 11.4552L10.3324 20.3218L11.6675 19.9003ZM13.1324 11.0336L10.3324 19.9003L11.6675 20.3218L14.4675 11.4552L13.1324 11.0336Z"/>
    <path fill="inherit" d="M11 2.37772L11.6676 2.16693C11.5756 1.87571 11.3054 1.67772 11 1.67772C10.6947 1.67772 10.4245 1.87571 10.3325 2.16693L11 2.37772ZM10.3325 2.58851L13.1325 11.4552L14.4676 11.0336L11.6676 2.16693L10.3325 2.58851ZM8.86756 11.4552L11.6676 2.58851L10.3325 2.16693L7.53254 11.0336L8.86756 11.4552Z"/>
  </symbol>

  <symbol id="star" viewBox="0 0 612 612">
    <path d="M612,234.167L400.898,201.96L306,0l-94.898,201.96L0,234.167l152.713,156.366L116.567,612L306,507.387L495.434,612
    l-36.166-221.468L612,234.167z M306,463.017l-142.08,79.655l27.119-160.727L68.716,257.078l165.45-21.516L306,82.467
    l71.184,153.096l164.896,23.39L420.96,382.538l25.322,160.727L306,463.017z"/>
  </symbol>

  <symbol fill="none" id="roulette" viewBox="0 0 20 20">
    <circle cx="10" cy="10" r="9.3" stroke-width="1.4"/>
    <circle cx="10" cy="10" r="6.3" stroke-width="1.4"/>
    <circle cx="10" cy="10" r="0.8" stroke-width="1.4"/>
    <path d="M3.25 10L0.5 10" stroke-width="1.4"/>
    <path d="M19.5 10L16.75 10" stroke-width="1.4"/>
    <path d="M10 3.5L10 0.5" stroke-width="1.4"/>
    <path d="M11.5 10L12.5 10" stroke-width="1.4" stroke-linecap="round" stroke-linejoin="round"/>
    <path d="M7.5 10L8.5 10" stroke-width="1.4" stroke-linecap="round" stroke-linejoin="round"/>
    <path d="M10 11.5L10 12.5" stroke-width="1.4" stroke-linecap="round" stroke-linejoin="round"/>
    <path d="M10 7.5L10 8.5" stroke-width="1.4" stroke-linecap="round" stroke-linejoin="round"/>
    <path d="M10 19.75L10 16.75" stroke-width="1.4"/>
    <path d="M15 5.25L17.1447 3.10528" stroke-width="1.4"/>
    <path d="M3.35547 16.8945L5.25 15" stroke-width="1.4"/>
    <path d="M14.75 14.75L17.1447 16.8947" stroke-width="1.4"/>
    <path d="M3.35547 3.10547L5.25 5" stroke-width="1.4"/>
  </symbol>

  <symbol fill="none" id="cards" viewBox="0 0 20 22">
    <path d="M0.7 7.31836C0.7 6.0481 1.72974 5.01836 3 5.01836H10.3407C11.611 5.01836 12.6407 6.04811 12.6407 7.31836V18.003C12.6407 19.2732 11.611 20.303 10.3407 20.303H3C1.72975 20.303 0.7 19.2732 0.7 18.003V7.31836Z" stroke-width="1.4"/>
    <path d="M12.5002 19.5V19.5C13.6218 19.9596 14.8996 19.3285 15.218 18.1577L18.2128 7.14624C18.6476 5.54746 17.7014 3.90856 16.0994 3.48565L9.60833 1.77206C8.0343 1.35653 6.40678 2.26969 5.94076 3.82983L5.64335 4.82549" stroke-width="1.4"/>
    <path d="M8.9502 12.4041L8.95176 12.4057C9.42014 12.8647 9.41167 13.5393 8.95622 13.9747C8.7491 14.1709 8.43739 14.3 8.05365 14.3C7.68945 14.3 7.38965 14.1838 7.19028 14.0119L6.95898 13.8122L6.5106 13.4251L6.05465 13.8033L5.82192 13.9963C5.82166 13.9965 5.82139 13.9968 5.82113 13.997C5.31923 14.4096 4.49456 14.3797 4.04627 13.9785C3.58664 13.5346 3.58244 12.8594 4.0499 12.4013L4.0499 12.4013L4.05206 12.3992L6.49603 9.98369L8.9502 12.4041Z" stroke-width="1.4"/>
    <path d="M6.49814 14.795L6.78892 15.2992L6.20896 15.2994L6.49814 14.795Z" stroke-width="1.4"/>
  </symbol>

  <symbol fill="none" id="video" viewBox="0 0 26 20">
    <path d="M22 0.8C23.7673 0.8 25.2 2.23269 25.2 4L25.2 16C25.2 17.7673 23.7673 19.2 22 19.2L4 19.2C2.23269 19.2 0.799998 17.7673 0.799999 16L0.799999 4C0.799999 2.23269 2.23269 0.799999 4 0.799999L22 0.8Z" stroke-width="1.6"/>
    <path d="M15.9877 9.73437C16.2018 9.84674 16.2018 10.1533 15.9877 10.2656L10.8894 12.9415C10.6897 13.0464 10.45 12.9015 10.45 12.6759L10.45 7.32411C10.45 7.09851 10.6897 6.95363 10.8894 7.05847L15.9877 9.73437Z" stroke-width="1.4"/>
  </symbol>

  <symbol fill="none" id="slots" viewBox="0 0 31 20">
    <path d="M0.7 6C0.7 4.72975 1.72975 3.7 3 3.7H22C23.2703 3.7 24.3 4.72975 24.3 6V14C24.3 15.2703 23.2703 16.3 22 16.3H3C1.72975 16.3 0.7 15.2703 0.7 14V6Z" stroke-width="1.4"/>
    <path d="M3.7 3C3.7 1.72974 4.72974 0.7 6 0.7H19C20.2703 0.7 21.3 1.72974 21.3 3V3.68572H3.7V3Z" stroke-width="1.4"/>
    <path d="M21.2822 16.9999C21.2822 18.2702 20.2524 19.3 18.9822 19.3L6.00002 19.3C4.72976 19.3 3.70001 18.2703 3.70001 17L3.70001 16.3375L21.2821 16.3375L21.2822 16.9999Z" stroke-width="1.4"/>
    <path d="M27.9239 4.65405L27.9239 8.51446L27.9239 10.4107C27.9239 11.5153 27.0284 12.4107 25.9239 12.4107L24.8212 12.4107" stroke-width="1.4" stroke-linecap="round" stroke-linejoin="round"/>
    <circle cx="27.9245" cy="2.48214" r="1.78214" stroke-width="1.4"/>
    <path d="M8.68714 8.80244L6.84752 12.4108H5.64364L7.56105 8.79094L4.96393 8.80244V8.06702H8.68714V8.80244Z" />
    <path d="M14.2721 8.80244L12.4324 12.4108H11.2286L13.146 8.79094L10.5489 8.80244V8.06702H14.2721V8.80244Z" />
    <path d="M19.857 8.80244L18.0174 12.4108H16.8135L18.7309 8.79094L16.1338 8.80244V8.06702H19.857V8.80244Z" />
  </symbol>
</svg>
