<svg width="142" height="25" viewBox="0 0 142 25" fill="none" xmlns="http://www.w3.org/2000/svg">
<path d="M24.4296 24.3727C24.954 23.9903 25.293 23.3846 25.293 22.7022V1.75042C25.293 1.0681 24.954 0.462357 24.4296 0.0799561H44.9629C46.124 0.0799561 47.067 0.985526 47.067 2.1041V22.3485C47.067 23.4671 46.124 24.3727 44.9629 24.3727H24.4296ZM31.0414 12.4069V12.1972C31.0394 11.7591 30.9578 11.3705 30.7967 11.0314C30.6355 10.6924 30.4098 10.431 30.1196 10.2474C29.8293 10.0638 29.499 9.97198 29.1287 9.97198C28.7544 9.97198 28.4206 10.0648 28.1273 10.2505C27.8341 10.4362 27.6089 10.6997 27.4517 11.0408C27.2946 11.3819 27.216 11.7758 27.216 12.2223V12.4789C27.224 12.9088 27.3086 13.2895 27.4698 13.6213C27.6309 13.953 27.8556 14.2081 28.1438 14.3865C28.4321 14.5649 28.7624 14.6541 29.1347 14.6541C29.507 14.6541 29.8388 14.5618 30.1301 14.3771C30.4213 14.1925 30.646 13.9291 30.8042 13.5869C30.9623 13.2447 31.0414 12.8514 31.0414 12.4069ZM29.9694 12.216V12.4257C29.9674 12.8681 29.8944 13.2071 29.7502 13.4429C29.6061 13.6787 29.4009 13.7966 29.1347 13.7966C28.8545 13.7966 28.6433 13.6766 28.5012 13.4366C28.359 13.1967 28.288 12.8535 28.288 12.4069L28.291 12.0721C28.321 11.2458 28.6002 10.8327 29.1287 10.8327C29.3989 10.8327 29.6066 10.95 29.7517 11.1848C29.8969 11.4195 29.9694 11.7633 29.9694 12.216ZM32.4676 11.2051H31.5188V14.5915H32.5307V12.2004C32.6267 12.0376 32.7739 11.9563 32.972 11.9563C33.1462 11.9563 33.2663 11.9964 33.3324 12.0768C33.3984 12.1571 33.4314 12.2828 33.4314 12.4539V14.5915H34.4463V12.4101C34.4403 11.9865 34.3537 11.6694 34.1866 11.4586C34.0195 11.2479 33.7667 11.1425 33.4284 11.1425C33.0341 11.1425 32.7248 11.2959 32.5006 11.6026L32.4676 11.2051ZM36.0737 14.5915V9.7842H35.0589V14.5915H36.0737ZM37.7642 14.5915V11.2051H36.7493V14.5915H37.7642ZM36.6893 10.3319C36.6893 10.4821 36.7413 10.6052 36.8454 10.7012C36.9495 10.7972 37.0846 10.8452 37.2508 10.8452C37.4169 10.8452 37.552 10.7972 37.6561 10.7012C37.7602 10.6052 37.8123 10.4821 37.8123 10.3319C37.8123 10.1817 37.7602 10.0586 37.6561 9.9626C37.552 9.86662 37.4169 9.81863 37.2508 9.81863C37.0846 9.81863 36.9495 9.86662 36.8454 9.9626C36.7413 10.0586 36.6893 10.1817 36.6893 10.3319ZM39.3166 11.2051H38.3677V14.5915H39.3796V12.2004C39.4757 12.0376 39.6228 11.9563 39.821 11.9563C39.9952 11.9563 40.1153 11.9964 40.1813 12.0768C40.2474 12.1571 40.2804 12.2828 40.2804 12.4539V14.5915H41.2953V12.4101C41.2893 11.9865 41.2027 11.6694 41.0356 11.4586C40.8684 11.2479 40.6157 11.1425 40.2774 11.1425C39.8831 11.1425 39.5738 11.2959 39.3496 11.6026L39.3166 11.2051ZM43.4271 14.6541C43.6934 14.6541 43.9421 14.6004 44.1733 14.4929C44.4045 14.3855 44.5831 14.241 44.7093 14.0595L44.2469 13.4898C44.0667 13.7235 43.8165 13.8404 43.4962 13.8404C43.302 13.8404 43.1439 13.7861 43.0218 13.6776C42.8997 13.5691 42.8206 13.4199 42.7846 13.2301H44.7963V12.8201C44.7963 12.2922 44.6642 11.8806 44.4 11.5854C44.1358 11.2901 43.7754 11.1425 43.319 11.1425C42.9948 11.1425 42.7145 11.215 42.4783 11.36C42.2421 11.505 42.0625 11.71 41.9393 11.975C41.8162 12.24 41.7547 12.5457 41.7547 12.8921V12.9797C41.7547 13.4763 41.9088 13.8795 42.2171 14.1893C42.5254 14.4992 42.9287 14.6541 43.4271 14.6541ZM43.313 11.9563C43.4732 11.9563 43.5963 12.0027 43.6824 12.0955C43.7684 12.1884 43.8095 12.3193 43.8055 12.4883V12.5697H42.7846C42.8406 12.1607 43.0168 11.9563 43.313 11.9563Z" fill="white"/>
<path d="M55.3354 9.75043C55.4616 9.75043 55.5767 9.70984 55.6804 9.62866C55.7841 9.54748 55.836 9.43924 55.836 9.30394C55.836 9.15961 55.7774 9.05588 55.6601 8.99274C55.5428 8.9296 55.4346 8.89803 55.3354 8.89803H54.6994V9.75043H55.3354ZM55.9307 11.6853L55.1865 10.3458H54.6994V11.6853H53.8741V8.22151H55.3624C55.5248 8.22151 55.6826 8.23955 55.836 8.27563C55.9893 8.31172 56.1291 8.37035 56.2554 8.45153C56.3817 8.53271 56.4832 8.64321 56.5599 8.78302C56.6365 8.92283 56.6749 9.09647 56.6749 9.30394C56.6749 9.53846 56.6095 9.73239 56.4787 9.88574C56.3479 10.0391 56.1833 10.1518 55.9848 10.224L56.9049 11.6853H55.9307ZM52.1016 9.99398C52.1016 9.57003 52.1828 9.17089 52.3452 8.79655C52.5075 8.42221 52.7285 8.09749 53.0082 7.82237C53.2878 7.54725 53.6148 7.32852 53.9891 7.16615C54.3634 7.00379 54.7626 6.92261 55.1865 6.92261C55.6105 6.92261 56.0096 7.00379 56.384 7.16615C56.7583 7.32852 57.0853 7.54725 57.3649 7.82237C57.6445 8.09749 57.8655 8.42221 58.0279 8.79655C58.1903 9.17089 58.2714 9.57003 58.2714 9.99398C58.2714 10.4179 58.1903 10.8148 58.0279 11.1846C57.8655 11.5545 57.6445 11.8769 57.3649 12.1521C57.0853 12.4272 56.7583 12.6437 56.384 12.8015C56.0096 12.9594 55.6105 13.0383 55.1865 13.0383C54.7626 13.0383 54.3634 12.9594 53.9891 12.8015C53.6148 12.6437 53.2878 12.4272 53.0082 12.1521C52.7285 11.8769 52.5075 11.5545 52.3452 11.1846C52.1828 10.8148 52.1016 10.4179 52.1016 9.99398ZM52.5887 9.99398C52.5887 10.3458 52.6564 10.6795 52.7917 10.9952C52.927 11.3109 53.1119 11.5883 53.3464 11.8273C53.5809 12.0664 53.8561 12.2535 54.1718 12.3888C54.4875 12.5241 54.8257 12.5918 55.1865 12.5918C55.5473 12.5918 55.8856 12.5241 56.2013 12.3888C56.517 12.2535 56.7921 12.0664 57.0266 11.8273C57.2612 11.5883 57.4461 11.3109 57.5814 10.9952C57.7167 10.6795 57.7843 10.3458 57.7843 9.99398C57.7843 9.63317 57.7167 9.29492 57.5814 8.97921C57.4461 8.6635 57.2612 8.38839 57.0266 8.15386C56.7921 7.91934 56.517 7.73442 56.2013 7.59912C55.8856 7.46382 55.5473 7.39617 55.1865 7.39617C54.8257 7.39617 54.4875 7.46382 54.1718 7.59912C53.8561 7.73442 53.5809 7.91934 53.3464 8.15386C53.1119 8.38839 52.927 8.6635 52.7917 8.97921C52.6564 9.29492 52.5887 9.63317 52.5887 9.99398Z" fill="white"/>
<path fill-rule="evenodd" clip-rule="evenodd" d="M62.183 11.6062V7.93682H60.8726V7.18969H64.3822V7.93682H63.0748V11.6062H62.183ZM65.762 11.6062H64.9155V8.40678H65.7018V8.86169C65.8363 8.64679 65.9573 8.5052 66.0648 8.43691C66.1722 8.36862 66.2942 8.33448 66.4308 8.33448C66.6236 8.33448 66.8094 8.3877 66.9881 8.49415L66.726 9.23224C66.5834 9.13985 66.4509 9.09366 66.3284 9.09366C66.2099 9.09366 66.1095 9.12629 66.0271 9.19157C65.9448 9.25684 65.88 9.37483 65.8328 9.54555C65.7856 9.71626 65.762 10.0738 65.762 10.618V11.6062ZM67.9853 9.38287L67.2171 9.24429C67.3035 8.93499 67.4521 8.70604 67.663 8.55741C67.8738 8.40879 68.1871 8.33448 68.6029 8.33448C68.9805 8.33448 69.2616 8.37917 69.4464 8.46854C69.6312 8.55792 69.7612 8.67139 69.8365 8.80897C69.9119 8.94654 69.9495 9.1991 69.9495 9.56664L69.9405 10.5548C69.9405 10.8359 69.954 11.0433 69.9812 11.1769C70.0083 11.3104 70.059 11.4535 70.1333 11.6062H69.2958C69.2737 11.5499 69.2466 11.4666 69.2144 11.3561C69.2004 11.3059 69.1903 11.2728 69.1843 11.2567C69.0397 11.3973 68.8851 11.5027 68.7204 11.573C68.5557 11.6433 68.38 11.6785 68.1932 11.6785C67.8638 11.6785 67.6042 11.5891 67.4144 11.4103C67.2246 11.2316 67.1297 11.0057 67.1297 10.7325C67.1297 10.5518 67.1729 10.3906 67.2593 10.249C67.3456 10.1074 67.4666 9.99894 67.6223 9.92363C67.7779 9.84831 68.0024 9.78254 68.2956 9.7263C68.6913 9.65199 68.9654 9.5827 69.118 9.51843V9.43408C69.118 9.2714 69.0779 9.15542 68.9975 9.08613C68.9172 9.01684 68.7656 8.98219 68.5426 8.98219C68.392 8.98219 68.2745 9.01181 68.1902 9.07106C68.1058 9.13031 68.0375 9.23424 67.9853 9.38287ZM69.118 10.0697C69.0096 10.1059 68.8379 10.1491 68.6029 10.1993C68.3679 10.2495 68.2143 10.2987 68.142 10.3469C68.0315 10.4252 67.9763 10.5246 67.9763 10.6451C67.9763 10.7636 68.0205 10.8661 68.1088 10.9524C68.1972 11.0388 68.3097 11.082 68.4462 11.082C68.5989 11.082 68.7445 11.0318 68.8831 10.9313C68.9855 10.855 69.0528 10.7616 69.0849 10.6512C69.107 10.5789 69.118 10.4413 69.118 10.2384V10.0697ZM73.7183 11.6062H72.932V11.1362C72.8014 11.319 72.6473 11.455 72.4696 11.5444C72.2918 11.6338 72.1126 11.6785 71.9318 11.6785C71.5643 11.6785 71.2495 11.5303 70.9874 11.2341C70.7253 10.9379 70.5942 10.5246 70.5942 9.99443C70.5942 9.45215 70.7217 9.03993 70.9768 8.75775C71.2319 8.47557 71.5542 8.33448 71.9439 8.33448C72.3014 8.33448 72.6106 8.4831 72.8717 8.78035V7.18969H73.7183V11.6062ZM71.4588 9.93719C71.4588 10.2786 71.506 10.5256 71.6004 10.6783C71.737 10.8992 71.9278 11.0097 72.1728 11.0097C72.3676 11.0097 72.5333 10.9268 72.6699 10.7611C72.8065 10.5954 72.8748 10.3479 72.8748 10.0185C72.8748 9.65099 72.8085 9.38638 72.6759 9.22471C72.5434 9.06303 72.3737 8.98219 72.1668 8.98219C71.966 8.98219 71.7977 9.06202 71.6622 9.22169C71.5266 9.38136 71.4588 9.61986 71.4588 9.93719ZM76.4055 10.5879L77.249 10.7295C77.1406 11.0388 76.9694 11.2743 76.7354 11.436C76.5014 11.5976 76.2087 11.6785 75.8572 11.6785C75.3009 11.6785 74.8892 11.4967 74.6221 11.1332C74.4112 10.842 74.3057 10.4744 74.3057 10.0306C74.3057 9.50036 74.4443 9.08512 74.7215 8.78487C74.9986 8.48461 75.3491 8.33448 75.7729 8.33448C76.2489 8.33448 76.6244 8.49164 76.8996 8.80595C77.1747 9.12027 77.3063 9.60178 77.2942 10.2505H75.1734C75.1794 10.5015 75.2477 10.6969 75.3782 10.8364C75.5088 10.976 75.6714 11.0458 75.8663 11.0458C75.9988 11.0458 76.1103 11.0097 76.2007 10.9374C76.291 10.8651 76.3593 10.7486 76.4055 10.5879ZM76.4537 9.73233C76.4477 9.4873 76.3844 9.30103 76.2639 9.17349C76.1434 9.04596 75.9968 8.98219 75.8241 8.98219C75.6393 8.98219 75.4867 9.04947 75.3662 9.18404C75.2457 9.3186 75.1864 9.50136 75.1884 9.73233H76.4537ZM77.8877 10.4282V9.5817H79.5507V10.4282H77.8877ZM79.9755 8.40678H80.7557V8.84361C81.0349 8.50419 81.3673 8.33448 81.7529 8.33448C81.9577 8.33448 82.1355 8.37666 82.2861 8.46101C82.4367 8.54536 82.5603 8.6729 82.6567 8.84361C82.7973 8.6729 82.9489 8.54536 83.1116 8.46101C83.2742 8.37666 83.448 8.33448 83.6327 8.33448C83.8677 8.33448 84.0666 8.38218 84.2292 8.47758C84.3919 8.57298 84.5134 8.71306 84.5938 8.89784C84.652 9.03441 84.6811 9.25533 84.6811 9.56061V11.6062H83.8346V9.77752C83.8346 9.46019 83.8055 9.25533 83.7472 9.16295C83.6689 9.04244 83.5484 8.98219 83.3857 8.98219C83.2672 8.98219 83.1558 9.01834 83.0513 9.09064C82.9469 9.16295 82.8716 9.26889 82.8254 9.40847C82.7792 9.54806 82.7561 9.76848 82.7561 10.0697V11.6062H81.9095V9.85283C81.9095 9.54153 81.8945 9.34069 81.8644 9.25031C81.8342 9.15993 81.7875 9.09265 81.7243 9.04847C81.661 9.00428 81.5751 8.98219 81.4667 8.98219C81.3361 8.98219 81.2187 9.01734 81.1142 9.08763C81.0098 9.15793 80.935 9.25935 80.8898 9.3919C80.8446 9.52446 80.822 9.74438 80.822 10.0517V11.6062H79.9755V8.40678ZM86.1573 9.38287L85.3891 9.24429C85.4755 8.93499 85.6241 8.70604 85.835 8.55741C86.0458 8.40879 86.3591 8.33448 86.7749 8.33448C87.1525 8.33448 87.4336 8.37917 87.6184 8.46854C87.8032 8.55792 87.9332 8.67139 88.0085 8.80897C88.0839 8.94654 88.1215 9.1991 88.1215 9.56664L88.1125 10.5548C88.1125 10.8359 88.126 11.0433 88.1532 11.1769C88.1803 11.3104 88.231 11.4535 88.3053 11.6062H87.4678C87.4457 11.5499 87.4186 11.4666 87.3864 11.3561C87.3724 11.3059 87.3623 11.2728 87.3563 11.2567C87.2117 11.3973 87.0571 11.5027 86.8924 11.573C86.7277 11.6433 86.552 11.6785 86.3652 11.6785C86.0358 11.6785 85.7762 11.5891 85.5864 11.4103C85.3966 11.2316 85.3017 11.0057 85.3017 10.7325C85.3017 10.5518 85.3449 10.3906 85.4313 10.249C85.5176 10.1074 85.6386 9.99894 85.7943 9.92363C85.9499 9.84831 86.1744 9.78254 86.4676 9.7263C86.8633 9.65199 87.1374 9.5827 87.29 9.51843V9.43408C87.29 9.2714 87.2499 9.15542 87.1695 9.08613C87.0892 9.01684 86.9376 8.98219 86.7146 8.98219C86.564 8.98219 86.4465 9.01181 86.3622 9.07106C86.2778 9.13031 86.2095 9.23424 86.1573 9.38287ZM87.29 10.0697C87.1816 10.1059 87.0099 10.1491 86.7749 10.1993C86.5399 10.2495 86.3863 10.2987 86.314 10.3469C86.2035 10.4252 86.1483 10.5246 86.1483 10.6451C86.1483 10.7636 86.1924 10.8661 86.2808 10.9524C86.3692 11.0388 86.4817 11.082 86.6182 11.082C86.7709 11.082 86.9165 11.0318 87.0551 10.9313C87.1575 10.855 87.2248 10.7616 87.2569 10.6512C87.279 10.5789 87.29 10.4413 87.29 10.2384V10.0697ZM89.7664 11.6062H88.9199V8.40678H89.7061V8.86169C89.8407 8.64679 89.9617 8.5052 90.0692 8.43691C90.1766 8.36862 90.2986 8.33448 90.4352 8.33448C90.628 8.33448 90.8138 8.3877 90.9925 8.49415L90.7304 9.23224C90.5878 9.13985 90.4553 9.09366 90.3328 9.09366C90.2143 9.09366 90.1138 9.12629 90.0315 9.19157C89.9492 9.25684 89.8844 9.37483 89.8372 9.54555C89.79 9.71626 89.7664 10.0738 89.7664 10.618V11.6062ZM91.3269 11.6062V7.18969H92.1735V9.5335L93.1646 8.40678H94.207L93.1134 9.57567L94.2853 11.6062H93.3725L92.5681 10.1692L92.1735 10.5819V11.6062H91.3269ZM96.3067 9.96129C96.3067 9.68011 96.376 9.40797 96.5146 9.14487C96.6532 8.88177 96.8495 8.68093 97.1036 8.54235C97.3576 8.40377 97.6413 8.33448 97.9546 8.33448C98.4387 8.33448 98.8353 8.49164 99.1446 8.80595C99.4539 9.12027 99.6086 9.51743 99.6086 9.99744C99.6086 10.4815 99.4524 10.8826 99.1401 11.201C98.8278 11.5193 98.4347 11.6785 97.9607 11.6785C97.6674 11.6785 97.3878 11.6122 97.1217 11.4796C96.8555 11.3471 96.6532 11.1528 96.5146 10.8967C96.376 10.6406 96.3067 10.3288 96.3067 9.96129ZM97.1744 10.0065C97.1744 10.3238 97.2497 10.5668 97.4003 10.7355C97.551 10.9042 97.7367 10.9886 97.9577 10.9886C98.1786 10.9886 98.3638 10.9042 98.5135 10.7355C98.6631 10.5668 98.7379 10.3218 98.7379 10.0005C98.7379 9.68714 98.6631 9.44613 98.5135 9.27743C98.3638 9.10872 98.1786 9.02437 97.9577 9.02437C97.7367 9.02437 97.551 9.10872 97.4003 9.27743C97.2497 9.44613 97.1744 9.68915 97.1744 10.0065ZM99.9008 8.40678H100.371V8.16578C100.371 7.89665 100.399 7.69581 100.457 7.56326C100.514 7.4307 100.619 7.32275 100.773 7.2394C100.927 7.15605 101.121 7.11438 101.356 7.11438C101.597 7.11438 101.833 7.15053 102.064 7.22283L101.949 7.8133C101.815 7.78117 101.685 7.7651 101.561 7.7651C101.438 7.7651 101.35 7.79372 101.297 7.85096C101.244 7.9082 101.217 8.01816 101.217 8.18084V8.40678H101.85V9.07257H101.217V11.6062H100.371V9.07257H99.9008V8.40678ZM104.019 11.6062V7.18969H104.911V11.6062H104.019ZM108.664 11.6062H107.818V9.97334C107.818 9.62789 107.8 9.40446 107.764 9.30303C107.728 9.20161 107.669 9.12278 107.587 9.06654C107.506 9.01031 107.408 8.98219 107.294 8.98219C107.147 8.98219 107.016 9.02236 106.899 9.1027C106.783 9.18303 106.703 9.28948 106.66 9.42203C106.616 9.55459 106.595 9.79961 106.595 10.1571V11.6062H105.748V8.40678H106.535V8.87675C106.814 8.51524 107.165 8.33448 107.589 8.33448C107.776 8.33448 107.946 8.36812 108.101 8.4354C108.256 8.50269 108.373 8.58854 108.452 8.69298C108.531 8.79742 108.587 8.91591 108.618 9.04847C108.649 9.18102 108.664 9.37082 108.664 9.61785V11.6062ZM110.99 8.40678V9.08161H110.412V10.371C110.412 10.6321 110.417 10.7842 110.428 10.8274C110.439 10.8706 110.464 10.9062 110.504 10.9344C110.543 10.9625 110.59 10.9765 110.647 10.9765C110.725 10.9765 110.839 10.9494 110.987 10.8952L111.059 11.5519C110.863 11.6363 110.64 11.6785 110.391 11.6785C110.238 11.6785 110.1 11.6529 109.978 11.6016C109.855 11.5504 109.766 11.4842 109.708 11.4028C109.651 11.3215 109.611 11.2115 109.589 11.0729C109.571 10.9745 109.562 10.7757 109.562 10.4764V9.08161H109.174V8.40678H109.562V7.77113L110.412 7.27706V8.40678H110.99ZM113.43 10.5879L114.274 10.7295C114.165 11.0388 113.994 11.2743 113.76 11.436C113.526 11.5976 113.234 11.6785 112.882 11.6785C112.326 11.6785 111.914 11.4967 111.647 11.1332C111.436 10.842 111.331 10.4744 111.331 10.0306C111.331 9.50036 111.469 9.08512 111.746 8.78487C112.023 8.48461 112.374 8.33448 112.798 8.33448C113.274 8.33448 113.649 8.49164 113.924 8.80595C114.2 9.12027 114.331 9.60178 114.319 10.2505H112.198C112.204 10.5015 112.273 10.6969 112.403 10.8364C112.534 10.976 112.696 11.0458 112.891 11.0458C113.024 11.0458 113.135 11.0097 113.226 10.9374C113.316 10.8651 113.384 10.7486 113.43 10.5879ZM113.479 9.73233C113.473 9.4873 113.409 9.30103 113.289 9.17349C113.168 9.04596 113.022 8.98219 112.849 8.98219C112.664 8.98219 112.512 9.04947 112.391 9.18404C112.271 9.3186 112.211 9.50136 112.213 9.73233H113.479ZM115.819 11.6062H114.973V8.40678H115.759V8.86169C115.894 8.64679 116.015 8.5052 116.122 8.43691C116.23 8.36862 116.352 8.33448 116.488 8.33448C116.681 8.33448 116.867 8.3877 117.045 8.49415L116.783 9.23224C116.641 9.13985 116.508 9.09366 116.386 9.09366C116.267 9.09366 116.167 9.12629 116.084 9.19157C116.002 9.25684 115.937 9.37483 115.89 9.54555C115.843 9.71626 115.819 10.0738 115.819 10.618V11.6062ZM118.043 9.38287L117.274 9.24429C117.361 8.93499 117.509 8.70604 117.72 8.55741C117.931 8.40879 118.244 8.33448 118.66 8.33448C119.038 8.33448 119.319 8.37917 119.504 8.46854C119.689 8.55792 119.819 8.67139 119.894 8.80897C119.969 8.94654 120.007 9.1991 120.007 9.56664L119.998 10.5548C119.998 10.8359 120.011 11.0433 120.038 11.1769C120.066 11.3104 120.116 11.4535 120.191 11.6062H119.353C119.331 11.5499 119.304 11.4666 119.272 11.3561C119.258 11.3059 119.248 11.2728 119.242 11.2567C119.097 11.3973 118.942 11.5027 118.778 11.573C118.613 11.6433 118.437 11.6785 118.251 11.6785C117.921 11.6785 117.662 11.5891 117.472 11.4103C117.282 11.2316 117.187 11.0057 117.187 10.7325C117.187 10.5518 117.23 10.3906 117.317 10.249C117.403 10.1074 117.524 9.99894 117.68 9.92363C117.835 9.84831 118.06 9.78254 118.353 9.7263C118.749 9.65199 119.023 9.5827 119.175 9.51843V9.43408C119.175 9.2714 119.135 9.15542 119.055 9.08613C118.975 9.01684 118.823 8.98219 118.6 8.98219C118.449 8.98219 118.332 9.01181 118.248 9.07106C118.163 9.13031 118.095 9.23424 118.043 9.38287ZM119.175 10.0697C119.067 10.1059 118.895 10.1491 118.66 10.1993C118.425 10.2495 118.272 10.2987 118.199 10.3469C118.089 10.4252 118.034 10.5246 118.034 10.6451C118.034 10.7636 118.078 10.8661 118.166 10.9524C118.255 11.0388 118.367 11.082 118.504 11.082C118.656 11.082 118.802 11.0318 118.94 10.9313C119.043 10.855 119.11 10.7616 119.142 10.6512C119.164 10.5789 119.175 10.4413 119.175 10.2384V10.0697ZM123.631 9.35274L122.797 9.50337C122.768 9.33667 122.705 9.21115 122.605 9.1268C122.506 9.04244 122.377 9.00027 122.218 9.00027C122.007 9.00027 121.839 9.07307 121.713 9.21868C121.588 9.36429 121.525 9.60781 121.525 9.94924C121.525 10.3288 121.589 10.5969 121.717 10.7536C121.844 10.9103 122.015 10.9886 122.23 10.9886C122.391 10.9886 122.522 10.9429 122.625 10.8515C122.727 10.7601 122.8 10.603 122.842 10.38L123.673 10.5216C123.587 10.9032 123.421 11.1914 123.176 11.3862C122.931 11.5811 122.603 11.6785 122.191 11.6785C121.723 11.6785 121.35 11.5309 121.072 11.2356C120.794 10.9404 120.655 10.5317 120.655 10.0095C120.655 9.48128 120.794 9.07006 121.073 8.77583C121.352 8.4816 121.73 8.33448 122.206 8.33448C122.596 8.33448 122.905 8.41833 123.135 8.58603C123.365 8.75374 123.531 9.0093 123.631 9.35274ZM128.819 9.98237L129.683 10.2565C129.551 10.7385 129.33 11.0965 129.022 11.3305C128.714 11.5645 128.323 11.6815 127.849 11.6815C127.262 11.6815 126.78 11.4811 126.403 11.0805C126.025 10.6798 125.836 10.132 125.836 9.43709C125.836 8.70202 126.026 8.13113 126.406 7.72443C126.785 7.31773 127.284 7.11438 127.903 7.11438C128.443 7.11438 128.882 7.27405 129.219 7.59338C129.42 7.78217 129.571 8.0533 129.671 8.40678L128.789 8.61767C128.736 8.38871 128.627 8.20795 128.462 8.0754C128.296 7.94284 128.095 7.87657 127.858 7.87657C127.53 7.87657 127.265 7.99406 127.061 8.22904C126.857 8.46403 126.755 8.84461 126.755 9.37082C126.755 9.92915 126.855 10.3268 127.056 10.5638C127.257 10.8008 127.518 10.9193 127.84 10.9193C128.077 10.9193 128.28 10.844 128.451 10.6933C128.622 10.5427 128.744 10.3057 128.819 9.98237ZM130.247 9.96129C130.247 9.68011 130.316 9.40797 130.455 9.14487C130.593 8.88177 130.789 8.68093 131.044 8.54235C131.298 8.40377 131.581 8.33448 131.895 8.33448C132.379 8.33448 132.775 8.49164 133.085 8.80595C133.394 9.12027 133.548 9.51743 133.548 9.99744C133.548 10.4815 133.392 10.8826 133.08 11.201C132.768 11.5193 132.375 11.6785 131.901 11.6785C131.607 11.6785 131.328 11.6122 131.062 11.4796C130.795 11.3471 130.593 11.1528 130.455 10.8967C130.316 10.6406 130.247 10.3288 130.247 9.96129ZM131.114 10.0065C131.114 10.3238 131.19 10.5668 131.34 10.7355C131.491 10.9042 131.677 10.9886 131.898 10.9886C132.119 10.9886 132.304 10.9042 132.453 10.7355C132.603 10.5668 132.678 10.3218 132.678 10.0005C132.678 9.68714 132.603 9.44613 132.453 9.27743C132.304 9.10872 132.119 9.02437 131.898 9.02437C131.677 9.02437 131.491 9.10872 131.34 9.27743C131.19 9.44613 131.114 9.68915 131.114 10.0065ZM135.022 11.6062H134.175V8.40678H134.961V8.86169C135.096 8.64679 135.217 8.5052 135.324 8.43691C135.432 8.36862 135.554 8.33448 135.69 8.33448C135.883 8.33448 136.069 8.3877 136.248 8.49415L135.986 9.23224C135.843 9.13985 135.711 9.09366 135.588 9.09366C135.47 9.09366 135.369 9.12629 135.287 9.19157C135.204 9.25684 135.14 9.37483 135.092 9.54555C135.045 9.71626 135.022 10.0738 135.022 10.618V11.6062ZM136.588 8.40678H137.378V8.87675C137.48 8.71608 137.619 8.58553 137.793 8.48511C137.968 8.38469 138.162 8.33448 138.375 8.33448C138.746 8.33448 139.062 8.48009 139.321 8.77131C139.58 9.06253 139.709 9.46822 139.709 9.9884C139.709 10.5226 139.579 10.9379 139.318 11.2341C139.057 11.5303 138.74 11.6785 138.369 11.6785C138.192 11.6785 138.032 11.6433 137.888 11.573C137.745 11.5027 137.593 11.3822 137.435 11.2115V12.8233H136.588V8.40678ZM137.426 9.95225C137.426 10.3118 137.497 10.5774 137.64 10.7491C137.782 10.9208 137.956 11.0067 138.161 11.0067C138.358 11.0067 138.521 10.9278 138.652 10.7702C138.782 10.6125 138.848 10.3539 138.848 9.99443C138.848 9.65902 138.78 9.40998 138.646 9.2473C138.511 9.08462 138.345 9.00328 138.146 9.00328C137.939 9.00328 137.767 9.08311 137.631 9.24278C137.494 9.40245 137.426 9.63894 137.426 9.95225ZM140.381 11.6062V10.7596H141.228V11.6062H140.381ZM61.1829 14.5935H62.0746V16.9855C62.0746 17.3651 62.0856 17.6111 62.1077 17.7235C62.1459 17.9043 62.2368 18.0494 62.3804 18.1589C62.524 18.2683 62.7203 18.3231 62.9693 18.3231C63.2224 18.3231 63.4132 18.2713 63.5417 18.1679C63.6703 18.0645 63.7476 17.9374 63.7737 17.7868C63.7998 17.6362 63.8129 17.3861 63.8129 17.0367V14.5935H64.7046V16.9132C64.7046 17.4434 64.6805 17.8179 64.6323 18.0369C64.5841 18.2558 64.4952 18.4405 64.3657 18.5912C64.2361 18.7418 64.0629 18.8618 63.846 18.9512C63.6291 19.0406 63.3459 19.0852 62.9964 19.0852C62.5747 19.0852 62.2548 19.0365 62.0369 18.9391C61.819 18.8417 61.6468 18.7152 61.5203 18.5595C61.3937 18.4039 61.3104 18.2407 61.2702 18.07C61.212 17.8169 61.1829 17.4434 61.1829 16.9493V14.5935ZM65.3402 18.0971L66.1898 17.9676C66.2259 18.1323 66.2993 18.2573 66.4097 18.3426C66.5202 18.428 66.6748 18.4707 66.8737 18.4707C67.0926 18.4707 67.2573 18.4305 67.3677 18.3502C67.442 18.2939 67.4792 18.2186 67.4792 18.1242C67.4792 18.06 67.4591 18.0067 67.4189 17.9646C67.3768 17.9244 67.2824 17.8872 67.1358 17.8531C66.4529 17.7025 66.0201 17.5649 65.8373 17.4404C65.5843 17.2676 65.4577 17.0276 65.4577 16.7204C65.4577 16.4432 65.5672 16.2102 65.7861 16.0214C66.005 15.8326 66.3444 15.7382 66.8044 15.7382C67.2422 15.7382 67.5676 15.8095 67.7804 15.9521C67.9933 16.0947 68.14 16.3056 68.2203 16.5848L67.4219 16.7324C67.3878 16.6079 67.323 16.5125 67.2276 16.4462C67.1322 16.3799 66.9962 16.3468 66.8194 16.3468C66.5965 16.3468 66.4368 16.3779 66.3404 16.4402C66.2762 16.4844 66.244 16.5416 66.244 16.6119C66.244 16.6722 66.2721 16.7234 66.3284 16.7655C66.4047 16.8218 66.6683 16.9011 67.1192 17.0035C67.5701 17.106 67.8849 17.2315 68.0636 17.3801C68.2404 17.5307 68.3287 17.7406 68.3287 18.0097C68.3287 18.303 68.2062 18.555 67.9612 18.7659C67.7162 18.9768 67.3537 19.0822 66.8737 19.0822C66.4378 19.0822 66.0929 18.9939 65.8388 18.8171C65.5848 18.6404 65.4186 18.4004 65.3402 18.0971ZM70.9226 17.9917L71.7661 18.1333C71.6577 18.4426 71.4864 18.678 71.2525 18.8397C71.0185 19.0014 70.7258 19.0822 70.3743 19.0822C69.818 19.0822 69.4062 18.9005 69.1391 18.537C68.9282 18.2457 68.8228 17.8782 68.8228 17.4343C68.8228 16.9041 68.9614 16.4889 69.2385 16.1886C69.5157 15.8884 69.8662 15.7382 70.2899 15.7382C70.7659 15.7382 71.1415 15.8954 71.4167 16.2097C71.6918 16.524 71.8234 17.0055 71.8113 17.6543H69.6904C69.6965 17.9053 69.7647 18.1006 69.8953 18.2402C70.0258 18.3798 70.1885 18.4496 70.3833 18.4496C70.5159 18.4496 70.6274 18.4134 70.7177 18.3411C70.8081 18.2688 70.8764 18.1523 70.9226 17.9917ZM70.9708 17.1361C70.9648 16.8911 70.9015 16.7048 70.781 16.5773C70.6605 16.4497 70.5139 16.386 70.3412 16.386C70.1564 16.386 70.0037 16.4532 69.8832 16.5878C69.7627 16.7224 69.7035 16.9051 69.7055 17.1361H70.9708ZM75.4355 19.0099H74.6492V18.54C74.5186 18.7227 74.3645 18.8588 74.1867 18.9482C74.009 19.0375 73.8297 19.0822 73.649 19.0822C73.2815 19.0822 72.9666 18.9341 72.7045 18.6379C72.4424 18.3416 72.3114 17.9284 72.3114 17.3982C72.3114 16.8559 72.4389 16.4437 72.694 16.1615C72.9491 15.8793 73.2714 15.7382 73.661 15.7382C74.0185 15.7382 74.3278 15.8869 74.5889 16.1841V14.5935H75.4355V19.0099ZM73.176 17.3409C73.176 17.6824 73.2232 17.9294 73.3176 18.082C73.4542 18.303 73.645 18.4134 73.89 18.4134C74.0848 18.4134 74.2505 18.3306 74.3871 18.1649C74.5236 17.9992 74.5919 17.7517 74.5919 17.4223C74.5919 17.0547 74.5257 16.7901 74.3931 16.6285C74.2605 16.4668 74.0908 16.386 73.884 16.386C73.6831 16.386 73.5149 16.4658 73.3794 16.6255C73.2438 16.7851 73.176 17.0236 73.176 17.3409ZM80.0899 19.0099V18.5309C79.9734 18.7016 79.8203 18.8362 79.6305 18.9346C79.4407 19.033 79.2404 19.0822 79.0295 19.0822C78.8146 19.0822 78.6218 19.035 78.4511 18.9406C78.2804 18.8462 78.1568 18.7137 78.0805 18.543C78.0042 18.3723 77.966 18.1363 77.966 17.835V15.8105H78.8126V17.2807C78.8126 17.7306 78.8281 18.0062 78.8593 18.1077C78.8904 18.2091 78.9472 18.2894 79.0295 18.3487C79.1118 18.4079 79.2163 18.4375 79.3428 18.4375C79.4874 18.4375 79.617 18.3979 79.7314 18.3185C79.8459 18.2392 79.9242 18.1408 79.9664 18.0233C80.0086 17.9058 80.0297 17.6181 80.0297 17.1602V15.8105H80.8762V19.0099H80.0899ZM84.6631 19.0099H83.8165V17.3771C83.8165 17.0317 83.7984 16.8082 83.7623 16.7068C83.7261 16.6054 83.6674 16.5265 83.5861 16.4703C83.5047 16.4141 83.4068 16.386 83.2923 16.386C83.1457 16.386 83.0142 16.4261 82.8977 16.5065C82.7812 16.5868 82.7014 16.6932 82.6582 16.8258C82.615 16.9583 82.5934 17.2034 82.5934 17.5609V19.0099H81.7469V15.8105H82.5331V16.2805C82.8123 15.919 83.1638 15.7382 83.5876 15.7382C83.7743 15.7382 83.9451 15.7719 84.0997 15.8392C84.2543 15.9065 84.3713 15.9923 84.4507 16.0967C84.53 16.2012 84.5852 16.3197 84.6164 16.4522C84.6475 16.5848 84.6631 16.7746 84.6631 17.0216V19.0099ZM88.4559 19.0099H87.6696V18.54C87.5391 18.7227 87.3849 18.8588 87.2072 18.9482C87.0294 19.0375 86.8502 19.0822 86.6694 19.0822C86.3019 19.0822 85.9871 18.9341 85.725 18.6379C85.4629 18.3416 85.3319 17.9284 85.3319 17.3982C85.3319 16.8559 85.4594 16.4437 85.7145 16.1615C85.9695 15.8793 86.2919 15.7382 86.6815 15.7382C87.039 15.7382 87.3483 15.8869 87.6094 16.1841V14.5935H88.4559V19.0099ZM86.1965 17.3409C86.1965 17.6824 86.2437 17.9294 86.3381 18.082C86.4746 18.303 86.6654 18.4134 86.9105 18.4134C87.1053 18.4134 87.271 18.3306 87.4075 18.1649C87.5441 17.9992 87.6124 17.7517 87.6124 17.4223C87.6124 17.0547 87.5461 16.7901 87.4136 16.6285C87.281 16.4668 87.1113 16.386 86.9044 16.386C86.7036 16.386 86.5354 16.4658 86.3998 16.6255C86.2642 16.7851 86.1965 17.0236 86.1965 17.3409ZM91.1432 17.9917L91.9867 18.1333C91.8782 18.4426 91.707 18.678 91.473 18.8397C91.2391 19.0014 90.9463 19.0822 90.5949 19.0822C90.0385 19.0822 89.6268 18.9005 89.3597 18.537C89.1488 18.2457 89.0434 17.8782 89.0434 17.4343C89.0434 16.9041 89.182 16.4889 89.4591 16.1886C89.7363 15.8884 90.0867 15.7382 90.5105 15.7382C90.9865 15.7382 91.3621 15.8954 91.6372 16.2097C91.9124 16.524 92.0439 17.0055 92.0319 17.6543H89.911C89.917 17.9053 89.9853 18.1006 90.1159 18.2402C90.2464 18.3798 90.4091 18.4496 90.6039 18.4496C90.7365 18.4496 90.8479 18.4134 90.9383 18.3411C91.0287 18.2688 91.097 18.1523 91.1432 17.9917ZM91.1914 17.1361C91.1853 16.8911 91.1221 16.7048 91.0016 16.5773C90.8811 16.4497 90.7344 16.386 90.5617 16.386C90.3769 16.386 90.2243 16.4532 90.1038 16.5878C89.9833 16.7224 89.9241 16.9051 89.9261 17.1361H91.1914ZM93.5321 19.0099H92.6856V15.8105H93.4719V16.2655C93.6065 16.0506 93.7275 15.909 93.8349 15.8407C93.9424 15.7724 94.0644 15.7382 94.2009 15.7382C94.3937 15.7382 94.5795 15.7915 94.7583 15.8979L94.4962 16.636C94.3536 16.5436 94.221 16.4974 94.0985 16.4974C93.98 16.4974 93.8796 16.5301 93.7973 16.5953C93.7149 16.6606 93.6501 16.7786 93.6029 16.9493C93.5557 17.12 93.5321 17.4775 93.5321 18.0218V19.0099ZM96.837 19.0099V14.5935H97.6835V19.0099H96.837ZM98.5511 15.3767V14.5935H99.3977V15.3767H98.5511ZM98.5511 19.0099V15.8105H99.3977V19.0099H98.5511ZM103.055 16.7565L102.22 16.9071C102.192 16.7404 102.129 16.6149 102.029 16.5306C101.93 16.4462 101.801 16.404 101.642 16.404C101.431 16.404 101.263 16.4768 101.137 16.6224C101.012 16.7681 100.949 17.0116 100.949 17.353C100.949 17.7326 101.013 18.0007 101.14 18.1574C101.268 18.314 101.439 18.3923 101.654 18.3923C101.815 18.3923 101.946 18.3467 102.049 18.2553C102.151 18.1639 102.223 18.0067 102.266 17.7838L103.097 17.9254C103.011 18.307 102.845 18.5952 102.6 18.79C102.355 18.9848 102.027 19.0822 101.615 19.0822C101.147 19.0822 100.774 18.9346 100.496 18.6394C100.218 18.3441 100.079 17.9354 100.079 17.4133C100.079 16.885 100.218 16.4738 100.497 16.1796C100.776 15.8854 101.154 15.7382 101.63 15.7382C102.02 15.7382 102.329 15.8221 102.559 15.9898C102.789 16.1575 102.955 16.4131 103.055 16.7565ZM105.549 17.9917L106.393 18.1333C106.284 18.4426 106.113 18.678 105.879 18.8397C105.645 19.0014 105.353 19.0822 105.001 19.0822C104.445 19.0822 104.033 18.9005 103.766 18.537C103.555 18.2457 103.45 17.8782 103.45 17.4343C103.45 16.9041 103.588 16.4889 103.865 16.1886C104.143 15.8884 104.493 15.7382 104.917 15.7382C105.393 15.7382 105.768 15.8954 106.043 16.2097C106.319 16.524 106.45 17.0055 106.438 17.6543H104.317C104.323 17.9053 104.392 18.1006 104.522 18.2402C104.653 18.3798 104.815 18.4496 105.01 18.4496C105.143 18.4496 105.254 18.4134 105.345 18.3411C105.435 18.2688 105.503 18.1523 105.549 17.9917ZM105.598 17.1361C105.592 16.8911 105.528 16.7048 105.408 16.5773C105.287 16.4497 105.141 16.386 104.968 16.386C104.783 16.386 104.631 16.4532 104.51 16.5878C104.39 16.7224 104.33 16.9051 104.332 17.1361H105.598ZM110.038 19.0099H109.192V17.3771C109.192 17.0317 109.174 16.8082 109.137 16.7068C109.101 16.6054 109.043 16.5265 108.961 16.4703C108.88 16.4141 108.782 16.386 108.667 16.386C108.521 16.386 108.389 16.4261 108.273 16.5065C108.156 16.5868 108.076 16.6932 108.033 16.8258C107.99 16.9583 107.969 17.2034 107.969 17.5609V19.0099H107.122V15.8105H107.908V16.2805C108.187 15.919 108.539 15.7382 108.963 15.7382C109.149 15.7382 109.32 15.7719 109.475 15.8392C109.629 15.9065 109.746 15.9923 109.826 16.0967C109.905 16.2012 109.96 16.3197 109.991 16.4522C110.023 16.5848 110.038 16.7746 110.038 17.0216V19.0099ZM110.599 18.0971L111.448 17.9676C111.484 18.1323 111.558 18.2573 111.668 18.3426C111.778 18.428 111.933 18.4707 112.132 18.4707C112.351 18.4707 112.516 18.4305 112.626 18.3502C112.7 18.2939 112.737 18.2186 112.737 18.1242C112.737 18.06 112.717 18.0067 112.677 17.9646C112.635 17.9244 112.541 17.8872 112.394 17.8531C111.711 17.7025 111.278 17.5649 111.096 17.4404C110.843 17.2676 110.716 17.0276 110.716 16.7204C110.716 16.4432 110.825 16.2102 111.044 16.0214C111.263 15.8326 111.603 15.7382 112.063 15.7382C112.5 15.7382 112.826 15.8095 113.039 15.9521C113.252 16.0947 113.398 16.3056 113.479 16.5848L112.68 16.7324C112.646 16.6079 112.581 16.5125 112.486 16.4462C112.391 16.3799 112.254 16.3468 112.078 16.3468C111.855 16.3468 111.695 16.3779 111.599 16.4402C111.534 16.4844 111.502 16.5416 111.502 16.6119C111.502 16.6722 111.53 16.7234 111.587 16.7655C111.663 16.8218 111.927 16.9011 112.377 17.0035C112.828 17.106 113.143 17.2315 113.322 17.3801C113.499 17.5307 113.587 17.7406 113.587 18.0097C113.587 18.303 113.465 18.555 113.219 18.7659C112.974 18.9768 112.612 19.0822 112.132 19.0822C111.696 19.0822 111.351 18.9939 111.097 18.8171C110.843 18.6404 110.677 18.4004 110.599 18.0971ZM116.181 17.9917L117.024 18.1333C116.916 18.4426 116.745 18.678 116.511 18.8397C116.277 19.0014 115.984 19.0822 115.633 19.0822C115.076 19.0822 114.665 18.9005 114.397 18.537C114.187 18.2457 114.081 17.8782 114.081 17.4343C114.081 16.9041 114.22 16.4889 114.497 16.1886C114.774 15.8884 115.124 15.7382 115.548 15.7382C116.024 15.7382 116.4 15.8954 116.675 16.2097C116.95 16.524 117.082 17.0055 117.07 17.6543H114.949C114.955 17.9053 115.023 18.1006 115.154 18.2402C115.284 18.3798 115.447 18.4496 115.642 18.4496C115.774 18.4496 115.886 18.4134 115.976 18.3411C116.066 18.2688 116.135 18.1523 116.181 17.9917ZM116.229 17.1361C116.223 16.8911 116.16 16.7048 116.039 16.5773C115.919 16.4497 115.772 16.386 115.599 16.386C115.415 16.386 115.262 16.4532 115.142 16.5878C115.021 16.7224 114.962 16.9051 114.964 17.1361H116.229Z" fill="white"/>
<path d="M24.4717 22.4327C24.4717 23.5596 23.5578 24.4718 22.4326 24.4718H2.03985C0.91301 24.4718 0 23.5596 0 22.4327V2.03917C0 0.912361 0.91301 0.00012207 2.03985 0.00012207H22.4326C23.5578 0.00012207 24.4717 0.912361 24.4717 2.03917V22.4327ZM13.6419 12.5168L14.833 12.2338L14.8318 9.80772C14.8318 9.25035 15.0415 8.88559 15.4572 8.71795C15.7915 8.58176 16.047 8.59262 16.047 8.59262V7.47141C16.047 7.47141 15.9422 7.43961 15.7337 7.49278C15.0572 7.66891 14.7661 8.42619 14.7661 8.42619V7.85066L13.6399 8.12231L13.6419 12.5168ZM7.58893 13.961L8.88043 13.6521C8.88043 13.6521 8.61417 13.4582 8.61417 12.4473C8.61297 12.0124 8.61417 10.2236 8.61417 10.2236L9.46773 10.0192V9.12093L8.61417 9.32488V8.34456L7.40566 8.63175V9.61207L6.81997 9.75167V10.6512L7.40488 10.5112V12.6951C7.40488 13.6818 7.58893 13.961 7.58893 13.961ZM9.6282 11.3525C9.6282 12.625 10.0107 13.5075 11.4438 13.1644C12.9566 12.8044 13.0774 11.7645 13.0873 11.3453C13.0885 11.2451 13.0861 11.1551 13.0861 11.1551L11.9972 11.4181C11.9972 11.4181 11.9952 11.5459 11.9896 11.5971C11.9582 11.9091 11.847 12.1621 11.4465 12.247C10.9833 12.3463 10.8295 11.9967 10.8295 11.2592V11.2212L13.1533 10.671C13.1533 10.671 13.1516 10.4868 13.158 10.1096C13.1767 9.0549 12.7012 8.26802 11.3821 8.57036C10.7128 8.72372 10.2531 9.05965 9.97344 9.57542C9.73783 10.0103 9.6282 10.5761 9.6282 11.3525ZM11.4303 9.38321C11.8577 9.28512 12.0039 9.53616 12.0059 10.0119C12.0059 10.1103 12.0059 10.1736 12.0039 10.2021L10.8347 10.4828C10.8435 9.8517 11.0453 9.47129 11.4303 9.38321ZM20.223 8.77212C20.2692 10.1502 20.5643 11.0284 22.0696 10.6721C23.1634 10.4158 23.7464 9.71216 23.7496 8.59639C23.7496 8.50081 23.7484 8.41376 23.7484 8.41376L22.5864 8.69025C22.5864 8.69025 22.584 8.86197 22.5831 8.91585C22.5759 9.25709 22.5157 9.64699 22.0757 9.73847C21.5689 9.84577 21.4533 9.45591 21.4533 8.60484C21.4533 8.56477 21.4516 8.51173 21.4516 8.21415C21.4516 7.37651 21.6295 6.95545 22.0696 6.84409C22.4398 6.75056 22.5808 6.94574 22.5804 7.45987C22.5804 7.46477 22.5808 7.62347 22.5808 7.62347L23.7456 7.34455L23.7444 7.26436C23.7444 6.83117 23.6765 6.52184 23.5014 6.29227C23.3192 6.05222 22.9594 5.80362 22.0102 6.02105C20.5229 6.36029 20.1776 7.42749 20.223 8.77212ZM16.1272 10.6624C16.1272 11.4122 16.5944 11.9578 17.4754 11.7502C18.3142 11.5526 18.5572 10.9395 18.5572 10.9395C18.6028 11.1242 18.7068 11.3392 18.7068 11.3392L19.818 11.0758C19.818 11.0758 19.6435 10.9383 19.6435 9.99608V8.04844C19.6415 7.2257 19.2397 6.69736 18.0361 6.97484C17.1099 7.18941 16.5726 7.59915 16.3916 8.20821C16.2953 8.5284 16.3135 8.87769 16.3135 8.87769L17.4452 8.61029C17.4452 8.61029 17.4416 8.49936 17.4525 8.38443C17.4722 8.17066 17.5702 7.90247 17.9394 7.80892C18.3412 7.70645 18.4541 7.91581 18.4496 8.15979C18.446 8.45061 18.4291 8.61637 17.6222 8.95028C16.7246 9.32177 16.1272 9.64401 16.1272 10.6624ZM18.4424 9.27172V9.88441C18.4424 10.3506 18.1925 10.6866 17.8326 10.7769C17.4976 10.8605 17.3126 10.6644 17.3126 10.3664C17.3126 10.0228 17.4807 9.79927 17.8507 9.6178C18.211 9.44232 18.4424 9.27172 18.4424 9.27172ZM1.25462 17.0099C1.30261 17.0099 1.35143 17.0051 1.39704 16.9939C1.48868 16.9746 1.93092 16.8697 2.30104 16.7771L2.32681 16.771V15.4855L0.694143 15.8849L0.681072 15.8882L0.673531 15.8981C0.600128 16.0162 0.561645 16.1507 0.561645 16.2901C0.561645 16.6875 0.872621 17.0099 1.25462 17.0099ZM1.25462 18.6949C1.30261 18.6949 1.35143 18.6904 1.39704 18.6809C1.48868 18.6624 1.93092 18.5558 2.30104 18.4636L2.32681 18.4566V17.1704L0.694143 17.5704L0.681072 17.5732L0.673531 17.586C0.600128 17.7012 0.561645 17.8357 0.561645 17.9769C0.561645 18.3735 0.872621 18.6949 1.25462 18.6949ZM1.25462 20.2996C1.30261 20.2996 1.35143 20.2942 1.39704 20.2852C1.47593 20.2667 1.91031 20.1651 2.30104 20.0672L2.32681 20.0606V18.7751L0.681072 19.1769L0.673531 19.19C0.600128 19.3048 0.561645 19.44 0.561645 19.5807C0.561645 19.9776 0.872621 20.2996 1.25462 20.2996ZM1.04347 15.4855L2.32681 15.1833V8.18409L1.04305 8.48586L1.04347 15.4855ZM4.24099 14.9092C4.24099 14.4751 3.88386 14.1215 3.445 14.1215C3.00367 14.1215 2.64775 14.4751 2.64775 14.9092L2.64855 21.4559C2.64855 22.6309 3.61622 23.5892 4.8046 23.5892C5.40745 23.5892 7.059 23.5864 7.059 23.5864L7.05984 20.8553C7.06026 19.3631 7.06068 17.8442 7.06068 17.8097C7.06068 17.4641 6.88816 17.1438 6.59746 16.9511L4.58757 15.6011C4.58757 15.6011 4.58715 18.5326 4.58715 18.6667C4.58715 18.7608 4.5106 18.8377 4.41547 18.8377C4.32114 18.8377 4.24505 18.7608 4.24505 18.6667C4.24505 18.6339 4.24099 15.314 4.24099 14.9092ZM5.36292 9.99703C4.52835 10.1886 4.21218 10.8818 4.21218 10.8818V10.3862L3.04893 10.66L3.05014 13.8262C3.18553 13.7726 3.33386 13.7432 3.48914 13.7432C3.79028 13.7432 4.06465 13.8544 4.27504 14.0392V11.9949C4.27504 11.5053 4.52065 11.1141 4.87002 11.0375C5.13347 10.9798 5.35316 11.0738 5.35316 11.54L5.35395 14.5227L6.57927 14.2364V11.0815C6.57927 10.3164 6.28416 9.78249 5.36292 9.99703ZM22.9873 5.53634C23.4072 5.53634 23.7496 5.19424 23.7496 4.77467C23.7496 4.35435 23.4072 4.01187 22.9873 4.01187C22.5674 4.01187 22.2251 4.35435 22.2251 4.77467C22.2251 5.19424 22.5674 5.53634 22.9873 5.53634Z" fill="white"/>
</svg>
