<svg width="259" height="27" viewBox="0 0 259 27" fill="none" xmlns="http://www.w3.org/2000/svg">
<path d="M0.418945 1.5127C0.418945 1.19173 0.607096 1.03125 0.983398 1.03125C2.05697 1.03125 3.62305 1.02018 5.68164 0.998047C7.7513 0.975911 9.29525 0.964844 10.3135 0.964844C10.6234 0.964844 10.889 1.11979 11.1104 1.42969L13.9658 17.9648C14.1429 16.9023 14.4583 15.4082 14.9121 13.4824C15.3659 11.5456 15.6592 10.2617 15.792 9.63086L17.4521 1.33008C17.5407 1.06445 19.8096 0.931641 24.2588 0.931641H26.915C27.1253 1.00911 27.2581 1.19727 27.3135 1.49609L23.5947 14.9434C23.5173 15.2422 23.3678 15.9062 23.1465 16.9355C22.9362 17.9538 22.7204 18.9333 22.499 19.874C22.2887 20.8037 22.0452 21.7777 21.7686 22.7959C21.4919 23.8141 21.193 24.6553 20.8721 25.3193C20.5622 25.9834 20.2633 26.3652 19.9756 26.4648C19.5771 26.4648 18.985 26.4482 18.1992 26.415C17.4134 26.3818 16.8213 26.3652 16.4229 26.3652H15.2275C14.4749 26.4316 13.6504 26.4759 12.7539 26.498C11.8685 26.5202 10.9222 26.5368 9.91504 26.5479C8.90788 26.5589 8.09993 26.5755 7.49121 26.5977L0.418945 1.5127ZM27.1641 4.55078C27.1641 3.88672 27.1917 3.49935 27.2471 3.38867C27.3467 3.23372 27.5072 3.15625 27.7285 3.15625H28.127C28.304 3.15625 28.4258 3.16732 28.4922 3.18945H29.3555C30.4733 3.18945 32.1611 3.16178 34.4189 3.10645C36.6878 3.05111 38.3867 3.02344 39.5156 3.02344H43.9316C44.2194 3.05664 44.3633 3.20052 44.3633 3.45508V9C44.3522 9.06641 44.3301 9.12728 44.2969 9.18262C44.2747 9.22689 44.2526 9.26009 44.2305 9.28223C44.2194 9.29329 44.1696 9.33203 44.0811 9.39844C43.9925 9.45378 43.9316 9.49805 43.8984 9.53125H36.1953V11.5898H36.9258C37.5677 11.5898 38.5472 11.5677 39.8643 11.5234C41.1813 11.4792 42.194 11.457 42.9023 11.457C43.2122 11.457 43.4225 11.5179 43.5332 11.6396C43.6439 11.7614 43.6992 11.9329 43.6992 12.1543C43.6992 12.2096 43.6882 12.3037 43.666 12.4365C43.6439 12.5693 43.6328 12.6634 43.6328 12.7188V13.3496C43.6328 13.3939 43.6383 13.488 43.6494 13.6318C43.6605 13.7646 43.666 13.8809 43.666 13.9805V14.4453C43.666 14.6888 43.6771 14.9323 43.6992 15.1758C43.7214 15.4193 43.7324 15.6296 43.7324 15.8066V16.2383C43.6771 16.3711 43.6328 16.4596 43.5996 16.5039C43.5664 16.5482 43.5111 16.5703 43.4336 16.5703V16.5371C43.0241 16.5371 42.3158 16.5648 41.3086 16.6201C40.3125 16.6755 39.5156 16.7031 38.918 16.7031H36.2617V18.8281C36.3503 18.8281 36.4831 18.8337 36.6602 18.8447C36.8372 18.8558 36.9701 18.8613 37.0586 18.8613C37.5566 18.8613 38.2926 18.8447 39.2666 18.8115C40.2406 18.7783 40.9434 18.7617 41.375 18.7617H43.5C44.0755 18.7617 44.4408 18.8281 44.5957 18.9609C44.651 19.0273 44.6953 19.0938 44.7285 19.1602V24.4727C44.7285 24.7051 44.6842 24.8822 44.5957 25.0039C44.5072 25.1257 44.3411 25.1921 44.0977 25.2031H27.6621L27.1641 24.7715V4.55078ZM68.7012 23.8086C68.6126 24.2181 67.86 24.5889 66.4434 24.9209C65.0378 25.2419 63.6322 25.4688 62.2266 25.6016C60.832 25.7344 59.7253 25.8008 58.9062 25.8008C58.043 25.8008 57.2904 25.7786 56.6484 25.7344C56.0176 25.6901 55.2594 25.596 54.374 25.4521C53.4997 25.2972 52.6585 25.0426 51.8506 24.6885C51.0426 24.3232 50.2845 23.8639 49.5762 23.3105L48.8789 22.7129C48.6908 22.5801 48.5026 22.3809 48.3145 22.1152L47.7832 21.418C46.4551 19.3262 45.791 16.8913 45.791 14.1133C45.791 11.3574 46.4883 9.01107 47.8828 7.07422L48.3477 6.50977V6.27734V6.31055C50.3398 3.76497 53.627 2.49219 58.209 2.49219C58.873 2.49219 59.5924 2.55306 60.3672 2.6748C61.153 2.78548 61.9831 2.9681 62.8574 3.22266C63.7428 3.46615 64.5785 3.83138 65.3643 4.31836C66.1501 4.80534 66.7754 5.36979 67.2402 6.01172C67.4727 6.32161 67.6497 6.67025 67.7715 7.05762C67.8932 7.43392 68.0039 7.92643 68.1035 8.53516C68.2142 9.13281 68.3027 9.57552 68.3691 9.86328C68.3691 10.2396 68.015 10.4277 67.3066 10.4277H65.9453C65.6354 10.4277 64.999 10.4111 64.0361 10.3779C63.0843 10.3447 62.3262 10.3281 61.7617 10.3281H59.9355C59.7806 10.2728 59.6367 10.1012 59.5039 9.81348C59.3822 9.51465 59.3047 9.3431 59.2715 9.29883V9.33203C59.0723 8.88932 58.6296 8.66797 57.9434 8.66797C57.4896 8.66797 57.0911 8.76758 56.748 8.9668C56.416 9.15495 56.1615 9.3929 55.9844 9.68066C55.8073 9.95736 55.6634 10.3115 55.5527 10.7432C55.4531 11.1637 55.3867 11.5511 55.3535 11.9053C55.3314 12.2594 55.3203 12.6634 55.3203 13.1172C55.3203 13.2721 55.3258 13.488 55.3369 13.7646C55.348 14.0413 55.3535 14.224 55.3535 14.3125V15.5742C55.3535 15.9727 55.3646 16.3213 55.3867 16.6201C55.4199 16.9189 55.4919 17.2565 55.6025 17.6328C55.7132 18.0091 55.8682 18.319 56.0674 18.5625C56.2666 18.806 56.5544 19.0107 56.9307 19.1768C57.307 19.3428 57.7552 19.4258 58.2754 19.4258C59.36 19.4258 60.2122 19.3262 60.832 19.127V18.3965C60.832 18.3079 60.8265 18.1917 60.8154 18.0479C60.8044 17.904 60.7988 17.7878 60.7988 17.6992C60.7988 17.6771 60.8044 17.6217 60.8154 17.5332C60.8265 17.4447 60.832 17.3672 60.832 17.3008H60.2012C60.1126 17.3008 60.002 17.3063 59.8691 17.3174C59.7363 17.3285 59.6478 17.334 59.6035 17.334H58.209L57.6445 16.7031C57.6224 16.5924 57.6113 16.4264 57.6113 16.2051V15.1758C57.6113 15.043 57.6169 14.8382 57.6279 14.5615C57.639 14.2848 57.6445 14.0579 57.6445 13.8809V13.416C57.6445 13.3939 57.6501 13.3441 57.6611 13.2666C57.6722 13.1891 57.6777 13.1172 57.6777 13.0508V12.918C57.6777 12.7188 57.7165 12.5583 57.7939 12.4365C57.8714 12.3148 58.0208 12.1875 58.2422 12.0547H59.8027C59.9134 12.0547 60.0794 12.0768 60.3008 12.1211H61.7949C62.9017 12.1654 63.7207 12.1875 64.252 12.1875H65.8457C67.528 12.1875 68.5241 12.3424 68.834 12.6523C68.834 13.7148 68.8118 15.3307 68.7676 17.5C68.7233 19.6693 68.7012 21.2852 68.7012 22.3477V23.8086ZM79.2266 21.8828C79.1491 22.1374 79.0716 22.4749 78.9941 22.8955C78.9277 23.305 78.8613 23.6315 78.7949 23.875C78.7396 24.1074 78.64 24.3564 78.4961 24.6221C78.3522 24.8766 78.1309 25.0648 77.832 25.1865C77.5443 25.3083 77.168 25.3691 76.7031 25.3691H69.5312V24.8047C70.1178 23.0449 70.9701 20.3444 72.0879 16.7031C73.2168 13.0618 74.0911 10.306 74.7109 8.43555V8.46875C75.0872 7.39518 75.6406 5.71289 76.3711 3.42188C76.3822 3.39974 76.3988 3.37207 76.4209 3.33887C76.5205 3.17285 76.6146 3.04557 76.7031 2.95703L85.668 3.02344C87.1953 3.02344 88.0365 3.15625 88.1914 3.42188V3.85352C88.2135 3.95312 88.3353 4.20768 88.5566 4.61719C89.6302 7.9043 90.416 10.2949 90.9141 11.7891V11.9883C90.9583 12.3092 91.0579 12.6745 91.2129 13.084C91.3678 13.4935 91.5505 13.9362 91.7607 14.4121C91.9821 14.877 92.137 15.2422 92.2256 15.5078L92.8896 17.8984C93.277 19.1823 93.847 20.8978 94.5996 23.0449V23.0117V23.3438C94.6328 23.4987 94.7158 23.709 94.8486 23.9746C94.9814 24.2402 95.0645 24.4284 95.0977 24.5391C95.0977 24.849 95.0312 25.0482 94.8984 25.1367C94.7767 25.2253 94.5332 25.2695 94.168 25.2695H86.4648C86.2767 25.2474 86.1549 25.2308 86.0996 25.2197C86.0443 25.2087 85.9557 25.1865 85.834 25.1533C85.7233 25.1201 85.6403 25.0758 85.585 25.0205C85.5407 24.9652 85.513 24.8932 85.502 24.8047L84.8711 22.2812C84.8268 22.071 84.7826 21.9548 84.7383 21.9326C84.694 21.8994 84.5612 21.8828 84.3398 21.8828H79.2266ZM80.0234 15.9727V16.0391V15.9727ZM83.6758 13.9805C83.6094 13.6706 83.5098 13.1725 83.377 12.4863C83.2552 11.7891 83.1335 11.1859 83.0117 10.6768C82.89 10.1566 82.7572 9.67513 82.6133 9.23242V8.43555C82.5247 8.20312 82.3698 8.03711 82.1484 7.9375V7.9707C81.8828 8.02604 81.6172 8.76758 81.3516 10.1953V10.9922C81.3294 11.0697 81.2796 11.1416 81.2021 11.208C81.1247 11.2744 81.0859 11.3132 81.0859 11.3242C80.7207 12.9401 80.4219 14.2461 80.1895 15.2422C80.1895 15.3529 80.1618 15.5465 80.1064 15.8232C80.0511 16.0999 80.0234 16.2604 80.0234 16.3047H84.1406C84.1406 16.0169 84.041 15.4967 83.8418 14.7441V14.3789C83.8307 14.3457 83.7975 14.2848 83.7422 14.1963C83.6979 14.0967 83.6758 14.0247 83.6758 13.9805ZM109.01 9.59766C108.711 9.59766 108.467 9.55339 108.279 9.46484C108.091 9.3763 107.942 9.26562 107.831 9.13281C107.72 9 107.593 8.86719 107.449 8.73438C107.316 8.60156 107.101 8.49089 106.802 8.40234C106.503 8.3138 106.121 8.26953 105.656 8.26953C105.512 8.26953 105.335 8.28613 105.125 8.31934C104.926 8.34147 104.704 8.41341 104.461 8.53516C104.217 8.6569 104.096 8.81185 104.096 9C104.096 9.21029 104.195 9.3929 104.395 9.54785C104.605 9.69173 104.837 9.79688 105.092 9.86328C105.357 9.91862 105.651 9.99056 105.972 10.0791C106.304 10.1566 106.536 10.2285 106.669 10.2949L109.109 10.8926C109.829 11.0918 110.476 11.3021 111.052 11.5234C111.627 11.7448 112.236 12.0492 112.878 12.4365C113.531 12.8128 114.073 13.2334 114.505 13.6982C114.937 14.1631 115.296 14.7497 115.584 15.458C115.872 16.1553 116.016 16.9245 116.016 17.7656C116.016 18.7839 115.883 19.6914 115.617 20.4883V20.4551C115.385 21.1634 115.058 21.7998 114.638 22.3643C114.217 22.9176 113.719 23.3825 113.144 23.7588C112.568 24.124 111.987 24.4339 111.4 24.6885C110.814 24.932 110.133 25.1312 109.358 25.2861C108.595 25.43 107.909 25.5407 107.3 25.6182C106.702 25.6846 106.01 25.7454 105.225 25.8008C101.738 25.6237 99.403 25.0703 98.2188 24.1406V23.9414C97.2116 23.1888 96.4645 22.3698 95.9775 21.4844C95.5016 20.599 95.2194 19.6029 95.1309 18.4961C95.1309 18.2305 95.2526 18.0977 95.4961 18.0977C95.5625 18.0977 95.6621 18.1032 95.7949 18.1143C95.9277 18.1253 96.0273 18.1309 96.0938 18.1309H97.7871C97.9421 18.1087 98.1634 18.0977 98.4512 18.0977H98.8828C98.9714 18.0977 99.0488 18.1087 99.1152 18.1309C99.7572 18.1087 100.853 18.0977 102.402 18.0977H103.166C103.387 18.0977 103.559 18.1641 103.681 18.2969C103.802 18.4297 103.896 18.5957 103.963 18.7949C104.04 18.9831 104.123 19.1768 104.212 19.376C104.312 19.5641 104.483 19.7246 104.727 19.8574C104.97 19.9902 105.291 20.0566 105.689 20.0566C106.121 20.0566 106.508 19.946 106.852 19.7246C107.206 19.4922 107.383 19.1602 107.383 18.7285C107.383 18.5293 107.289 18.3411 107.101 18.1641C106.912 17.987 106.63 17.8265 106.254 17.6826C105.878 17.5387 105.54 17.4225 105.241 17.334C104.953 17.2454 104.561 17.1403 104.062 17.0186C103.564 16.8968 103.243 16.8138 103.1 16.7695H102.104C99.7018 16.0612 97.9697 15.1647 96.9072 14.0801C95.8558 12.9844 95.3301 11.6009 95.3301 9.92969C95.3301 8.82292 95.5348 7.82682 95.9443 6.94141C96.3649 6.05599 96.9128 5.33105 97.5879 4.7666C98.2741 4.20215 99.0765 3.73177 99.9951 3.35547C100.914 2.9681 101.849 2.69694 102.801 2.54199C103.753 2.37598 104.738 2.29297 105.756 2.29297C107.56 2.29297 109.231 2.59733 110.77 3.20605C112.319 3.80371 113.492 4.58398 114.289 5.54688C114.577 5.83464 114.809 6.19987 114.986 6.64258C115.163 7.08529 115.274 7.43945 115.318 7.70508C115.374 7.95964 115.44 8.39128 115.518 9L115.053 9.66406H112.23C111.921 9.66406 111.406 9.65299 110.687 9.63086C109.967 9.60872 109.408 9.59766 109.01 9.59766Z" fill="white"/>
<path d="M134.228 13.0508C134.183 13.3496 134.095 14.0524 133.962 15.1592C133.84 16.266 133.702 17.4281 133.547 18.6455C133.392 19.863 133.22 21.0859 133.032 22.3145C132.844 23.5319 132.628 24.5391 132.385 25.3359C132.141 26.1328 131.898 26.5312 131.654 26.5312C131.178 26.5312 130.476 26.5202 129.546 26.498C128.616 26.4759 127.913 26.4648 127.438 26.4648C125.301 26.4648 123.331 26.5091 121.527 26.5977C121.372 26.5202 121.234 26.3984 121.112 26.2324C121.002 26.0664 120.908 25.8672 120.83 25.6348C120.764 25.4023 120.708 25.1976 120.664 25.0205C120.631 24.8324 120.592 24.5999 120.548 24.3232C120.515 24.0355 120.487 23.8418 120.465 23.7422C118.55 14.6113 117.366 9.05534 116.912 7.07422L115.75 1.49609C115.75 1.1862 115.905 0.975911 116.215 0.865234C116.48 0.88737 116.901 0.898438 117.477 0.898438H118.805C119.07 0.898438 119.452 0.88737 119.95 0.865234C120.448 0.843099 120.808 0.832031 121.029 0.832031C121.24 0.820964 121.549 0.826497 121.959 0.848633C122.368 0.859701 122.634 0.865234 122.756 0.865234H123.719C123.829 0.88737 123.995 0.898438 124.217 0.898438H124.715C124.914 0.953776 125.113 1.33561 125.312 2.04395C125.512 2.75228 125.7 3.72624 125.877 4.96582C126.054 6.2054 126.198 7.29004 126.309 8.21973C126.419 9.13835 126.541 10.2562 126.674 11.5732C126.818 12.8792 126.89 13.5433 126.89 13.5654L128.998 0.931641C129.529 0.975911 129.95 0.998047 130.26 0.998047H131.289C132.186 0.998047 133.48 0.992513 135.174 0.981445C136.878 0.970378 138.151 0.964844 138.992 0.964844C139.225 0.964844 139.368 1.05339 139.424 1.23047L141.499 14.96C141.709 12.4365 141.969 10.1289 142.279 8.03711L143.275 1.29688C143.353 1.03125 143.74 0.898438 144.438 0.898438H145.234C145.367 0.88737 145.572 0.892904 145.849 0.915039C146.136 0.926107 146.341 0.931641 146.463 0.931641H147.924C148.333 0.931641 148.793 0.937174 149.302 0.948242C149.822 0.95931 150.093 0.964844 150.115 0.964844H152.074C152.174 0.964844 152.24 1.04232 152.273 1.19727C152.307 1.34115 152.334 1.58464 152.356 1.92773L147.011 26.3652C146.789 26.3874 146.524 26.3984 146.214 26.3984C145.904 26.3984 145.622 26.3929 145.367 26.3818C145.113 26.3818 144.819 26.3763 144.487 26.3652C144.155 26.3652 143.884 26.3652 143.674 26.3652C143.22 26.3652 142.528 26.3597 141.599 26.3486C140.68 26.3376 139.988 26.332 139.523 26.332C139.468 26.332 138.389 26.3652 136.286 26.4316L134.228 13.0508ZM153.037 25.3691V3.55469C153.048 3.46615 153.137 3.38867 153.303 3.32227C153.469 3.24479 153.568 3.18945 153.602 3.15625H162.533V24.7715C162.478 25.0039 162.423 25.1644 162.367 25.2529C162.323 25.3304 162.245 25.3691 162.135 25.3691H153.037ZM187.701 3.15625C187.834 3.20052 187.934 3.39421 188 3.7373C188.077 4.06934 188.122 4.48991 188.133 4.99902C188.144 5.50814 188.144 5.99512 188.133 6.45996C188.122 6.9248 188.105 7.40072 188.083 7.8877C188.072 8.37467 188.066 8.67904 188.066 8.80078C188.044 9.24349 188.033 9.86328 188.033 10.6602V12.4199C188.033 13.1947 188.044 14.2572 188.066 15.6074C188.089 16.9577 188.1 17.9538 188.1 18.5957V24.6387C188.055 25.015 187.745 25.2031 187.17 25.2031H177.873C177.674 25.1589 177.419 24.694 177.109 23.8086C176.899 23.222 176.545 22.2591 176.047 20.9199C175.56 19.5807 175.139 18.4076 174.785 17.4004C174.431 16.3822 174.11 15.3971 173.822 14.4453V14.3457V14.4453C173.789 15.1758 173.756 16.266 173.723 17.7158C173.689 19.1546 173.656 20.2337 173.623 20.9531V24.3398C173.623 24.6719 173.584 24.9043 173.507 25.0371C173.429 25.1589 173.225 25.2585 172.893 25.3359H166.053L165.322 24.6055C165.378 22.7682 165.422 19.8906 165.455 15.9727C165.488 12.0547 165.533 9.15495 165.588 7.27344V3.6875C165.699 3.28906 165.831 3.08984 165.986 3.08984V3.15625C166.739 3.15625 167.918 3.13411 169.522 3.08984C171.138 3.04557 172.35 3.02344 173.158 3.02344H175.947C175.958 3.02344 175.975 3.02897 175.997 3.04004C176.196 3.11751 176.307 3.20605 176.329 3.30566L176.346 3.42188C176.744 4.49544 177.148 5.60775 177.558 6.75879C177.967 7.90983 178.454 9.30436 179.019 10.9424C179.583 12.5693 179.976 13.6927 180.197 14.3125V11.8555C180.419 7.95964 180.529 5.19271 180.529 3.55469C180.529 3.3776 180.651 3.26693 180.895 3.22266C181.138 3.17839 181.514 3.15625 182.023 3.15625H187.701ZM213.4 3.15625C213.533 3.20052 213.633 3.39421 213.699 3.7373C213.777 4.06934 213.821 4.48991 213.832 4.99902C213.843 5.50814 213.843 5.99512 213.832 6.45996C213.821 6.9248 213.804 7.40072 213.782 7.8877C213.771 8.37467 213.766 8.67904 213.766 8.80078C213.743 9.24349 213.732 9.86328 213.732 10.6602V12.4199C213.732 13.1947 213.743 14.2572 213.766 15.6074C213.788 16.9577 213.799 17.9538 213.799 18.5957V24.6387C213.755 25.015 213.445 25.2031 212.869 25.2031H203.572C203.373 25.1589 203.118 24.694 202.809 23.8086C202.598 23.222 202.244 22.2591 201.746 20.9199C201.259 19.5807 200.839 18.4076 200.484 17.4004C200.13 16.3822 199.809 15.3971 199.521 14.4453V14.3457V14.4453C199.488 15.1758 199.455 16.266 199.422 17.7158C199.389 19.1546 199.355 20.2337 199.322 20.9531V24.3398C199.322 24.6719 199.284 24.9043 199.206 25.0371C199.129 25.1589 198.924 25.2585 198.592 25.3359H191.752L191.021 24.6055C191.077 22.7682 191.121 19.8906 191.154 15.9727C191.188 12.0547 191.232 9.15495 191.287 7.27344V3.6875C191.398 3.28906 191.531 3.08984 191.686 3.08984V3.15625C192.438 3.15625 193.617 3.13411 195.222 3.08984C196.838 3.04557 198.049 3.02344 198.857 3.02344H201.646C201.658 3.02344 201.674 3.02897 201.696 3.04004C201.896 3.11751 202.006 3.20605 202.028 3.30566L202.045 3.42188C202.443 4.49544 202.847 5.60775 203.257 6.75879C203.666 7.90983 204.153 9.30436 204.718 10.9424C205.282 12.5693 205.675 13.6927 205.896 14.3125V11.8555C206.118 7.95964 206.229 5.19271 206.229 3.55469C206.229 3.3776 206.35 3.26693 206.594 3.22266C206.837 3.17839 207.214 3.15625 207.723 3.15625H213.4ZM216.986 4.55078C216.986 3.88672 217.014 3.49935 217.069 3.38867C217.169 3.23372 217.329 3.15625 217.551 3.15625H217.949C218.126 3.15625 218.248 3.16732 218.314 3.18945H219.178C220.296 3.18945 221.983 3.16178 224.241 3.10645C226.51 3.05111 228.209 3.02344 229.338 3.02344H233.754C234.042 3.05664 234.186 3.20052 234.186 3.45508V9C234.174 9.06641 234.152 9.12728 234.119 9.18262C234.097 9.22689 234.075 9.26009 234.053 9.28223C234.042 9.29329 233.992 9.33203 233.903 9.39844C233.815 9.45378 233.754 9.49805 233.721 9.53125H226.018V11.5898H226.748C227.39 11.5898 228.369 11.5677 229.687 11.5234C231.004 11.4792 232.016 11.457 232.725 11.457C233.035 11.457 233.245 11.5179 233.355 11.6396C233.466 11.7614 233.521 11.9329 233.521 12.1543C233.521 12.2096 233.51 12.3037 233.488 12.4365C233.466 12.5693 233.455 12.6634 233.455 12.7188V13.3496C233.455 13.3939 233.461 13.488 233.472 13.6318C233.483 13.7646 233.488 13.8809 233.488 13.9805V14.4453C233.488 14.6888 233.499 14.9323 233.521 15.1758C233.544 15.4193 233.555 15.6296 233.555 15.8066V16.2383C233.499 16.3711 233.455 16.4596 233.422 16.5039C233.389 16.5482 233.333 16.5703 233.256 16.5703V16.5371C232.846 16.5371 232.138 16.5648 231.131 16.6201C230.135 16.6755 229.338 16.7031 228.74 16.7031H226.084V18.8281C226.173 18.8281 226.305 18.8337 226.482 18.8447C226.66 18.8558 226.792 18.8613 226.881 18.8613C227.379 18.8613 228.115 18.8447 229.089 18.8115C230.063 18.7783 230.766 18.7617 231.197 18.7617H233.322C233.898 18.7617 234.263 18.8281 234.418 18.9609C234.473 19.0273 234.518 19.0938 234.551 19.1602V24.4727C234.551 24.7051 234.507 24.8822 234.418 25.0039C234.329 25.1257 234.163 25.1921 233.92 25.2031H217.484L216.986 24.7715V4.55078ZM236.477 3.15625H239.564C240.516 3.15625 242.038 3.13411 244.13 3.08984C246.222 3.04557 247.788 3.02344 248.828 3.02344C249.725 3.02344 250.56 3.07324 251.335 3.17285C252.121 3.27246 252.89 3.45508 253.643 3.7207C254.406 3.98633 255.054 4.32389 255.585 4.7334C256.127 5.1429 256.564 5.68522 256.896 6.36035C257.229 7.02441 257.395 7.79362 257.395 8.66797C257.395 9.87435 257.112 10.9036 256.548 11.7559C255.983 12.6081 255.115 13.3275 253.941 13.9141C254.406 14.1133 254.81 14.3734 255.153 14.6943C255.496 15.0153 255.757 15.292 255.934 15.5244C256.122 15.7568 256.299 16.1497 256.465 16.7031C256.642 17.2454 256.747 17.6051 256.78 17.7822C256.813 17.9482 256.885 18.3688 256.996 19.0439C257.029 19.1989 257.051 19.3151 257.062 19.3926C257.107 19.8353 257.295 20.6488 257.627 21.833C257.959 23.0062 258.125 23.9082 258.125 24.5391C258.125 24.9375 258.003 25.1367 257.76 25.1367C257.096 25.1367 256.089 25.1423 254.738 25.1533C253.399 25.1644 252.403 25.1699 251.75 25.1699C251.484 25.1478 251.086 25.1367 250.555 25.1367H249.426C249.204 25.0703 248.989 24.7272 248.778 24.1074C248.568 23.4876 248.419 22.7904 248.33 22.0156L247.965 19.0605C247.898 18.8171 247.843 18.6455 247.799 18.5459C247.766 18.4352 247.699 18.3079 247.6 18.1641C247.5 18.0091 247.362 17.904 247.185 17.8486C247.019 17.7933 246.803 17.7656 246.537 17.7656H245.773V24.4062C245.773 24.4395 245.773 24.4948 245.773 24.5723C245.773 24.6387 245.773 24.6885 245.773 24.7217C245.773 24.7438 245.773 24.7826 245.773 24.8379C245.773 24.8932 245.768 24.9375 245.757 24.9707C245.746 24.9928 245.735 25.026 245.724 25.0703C245.713 25.1146 245.696 25.1478 245.674 25.1699C245.663 25.181 245.641 25.2031 245.607 25.2363C245.585 25.2585 245.552 25.2751 245.508 25.2861C245.475 25.2972 245.43 25.3083 245.375 25.3193C245.331 25.3304 245.275 25.3359 245.209 25.3359H236.477V3.15625ZM245.873 11.9219C245.895 11.944 245.928 11.9938 245.973 12.0713C246.017 12.1377 246.061 12.193 246.105 12.2373C246.15 12.2816 246.194 12.3092 246.238 12.3203C246.57 12.3203 246.902 12.2871 247.234 12.2207C247.566 12.1432 247.904 12.0215 248.247 11.8555C248.601 11.6895 248.883 11.4349 249.094 11.0918C249.315 10.7487 249.426 10.3392 249.426 9.86328C249.426 8.71224 248.319 8.13672 246.105 8.13672C245.884 8.19206 245.773 8.2806 245.773 8.40234V9.0332C245.773 9.35417 245.79 9.83561 245.823 10.4775C245.856 11.1195 245.873 11.6009 245.873 11.9219Z" fill="#FE863A"/>
</svg>
