<svg width="153" height="141" viewBox="0 0 153 141" fill="none" xmlns="http://www.w3.org/2000/svg">
<path fill-rule="evenodd" clip-rule="evenodd" d="M117.093 137.011V112.196C117.093 103.455 110.114 96.3689 101.506 96.3689C101.28 96.3689 101.059 96.4354 100.87 96.5604L92.3246 102.211C84.2245 107.567 73.7755 107.567 65.6754 102.211L57.1299 96.5604C56.9408 96.4354 56.72 96.3689 56.4943 96.3689C47.8857 96.3689 40.907 103.455 40.907 112.196L40.907 137.011C40.907 137.014 40.9072 137.016 40.9073 137.018C40.9079 137.019 40.9098 137.023 40.9134 137.026C40.917 137.03 40.9198 137.032 40.921 137.032C40.9221 137.032 40.9253 137.033 40.9288 137.033H117.071C117.075 137.033 117.077 137.033 117.078 137.032C117.079 137.032 117.083 137.03 117.087 137.026C117.09 137.023 117.092 137.02 117.093 137.019C117.093 137.017 117.093 137.014 117.093 137.011ZM56.4943 92.4016C45.7279 92.4016 37 101.264 37 112.196L37 137.011C37 139.214 38.759 141 40.9288 141H117.071C119.241 141 121 139.214 121 137.011V112.196C121 101.264 112.272 92.4016 101.506 92.4016C100.523 92.4016 99.5616 92.6915 98.7382 93.2359L90.1926 98.8863C83.3886 103.385 74.6114 103.385 67.8074 98.8863L59.2618 93.2359C58.4384 92.6915 57.4769 92.4016 56.4943 92.4016Z" fill="#9DA3B4"/>
<path fill-rule="evenodd" clip-rule="evenodd" d="M79 80.5C81.1578 80.5 82.907 78.7238 82.907 76.5328C82.907 74.3418 81.1578 72.5656 79 72.5656C76.8422 72.5656 75.093 74.3418 75.093 76.5328C75.093 78.7238 76.8422 80.5 79 80.5ZM79 84.4672C83.3155 84.4672 86.814 80.9148 86.814 76.5328C86.814 72.1507 83.3155 68.5984 79 68.5984C74.6845 68.5984 71.186 72.1507 71.186 76.5328C71.186 80.9148 74.6845 84.4672 79 84.4672Z" fill="#9DA3B4"/>
<path fill-rule="evenodd" clip-rule="evenodd" d="M112.209 57.8538V51.5724C112.209 47.8294 109.221 44.7951 105.535 44.7951C102.748 44.7951 100.488 47.0893 100.488 49.9194V59.5068C100.488 62.3369 102.748 64.6311 105.535 64.6311C109.221 64.6311 112.209 61.5968 112.209 57.8538ZM116.116 51.5724C116.116 45.6384 111.379 40.8279 105.535 40.8279C100.59 40.8279 96.5814 44.8983 96.5814 49.9194V59.5068C96.5814 64.5279 100.59 68.5984 105.535 68.5984C111.379 68.5984 116.116 63.7879 116.116 57.8538V51.5724Z" fill="#9DA3B4"/>
<path fill-rule="evenodd" clip-rule="evenodd" d="M45.7907 51.5724V57.8538C45.7907 61.5968 48.7789 64.6311 52.4651 64.6311C55.2522 64.6311 57.5116 62.3369 57.5116 59.5068V49.9194C57.5116 47.0893 55.2522 44.7951 52.4651 44.7951C48.7789 44.7951 45.7907 47.8294 45.7907 51.5724ZM41.8837 57.8538C41.8837 63.7879 46.6212 68.5984 52.4651 68.5984C57.41 68.5984 61.4186 64.5279 61.4186 59.5068V49.9194C61.4186 44.8983 57.41 40.8279 52.4651 40.8279C46.6212 40.8279 41.8837 45.6384 41.8837 51.5724V57.8538Z" fill="#9DA3B4"/>
<path fill-rule="evenodd" clip-rule="evenodd" d="M79 23.9672C67.0325 23.9672 57.5116 33.2798 57.5116 44.5471H53.6047C53.6047 30.8915 65.0743 20 79 20C92.9257 20 104.395 30.8915 104.395 44.5471H100.488C100.488 33.2798 90.9675 23.9672 79 23.9672Z" fill="#9DA3B4"/>
<path fill-rule="evenodd" clip-rule="evenodd" d="M95.1803 71.5998C97.4083 69.2411 98.761 66.1 99.6119 63.508L103.318 64.7625C102.402 67.5546 100.824 71.356 97.9999 74.346C95.1008 77.4151 90.9414 79.5621 85.1636 79.0034L85.534 75.054C90.0121 75.4871 93.0271 73.8794 95.1803 71.5998Z" fill="#9DA3B4"/>
<path d="M27.5 83C27.5 81.067 29.067 79.5 31 79.5C32.933 79.5 34.5 81.067 34.5 83C34.5 84.933 32.933 86.5 31 86.5C29.067 86.5 27.5 84.933 27.5 83Z" stroke="#9DA3B4" stroke-width="3"/>
<path d="M45.5 5C45.5 3.067 47.067 1.5 49 1.5C50.933 1.5 52.5 3.067 52.5 5C52.5 6.933 50.933 8.5 49 8.5C47.067 8.5 45.5 6.933 45.5 5Z" stroke="#9DA3B4" stroke-width="3"/>
<path d="M144.5 43C144.5 41.067 146.067 39.5 148 39.5C149.933 39.5 151.5 41.067 151.5 43C151.5 44.933 149.933 46.5 148 46.5C146.067 46.5 144.5 44.933 144.5 43Z" stroke="#9DA3B4" stroke-width="3"/>
<path d="M25.4337 35.5864L17.66 34.9249L14.5721 28.3455C14.3559 27.8848 13.644 27.8848 13.4278 28.3455L10.34 34.9249L2.56626 35.5864C2.02195 35.6328 1.80197 36.254 2.21264 36.585L8.07791 41.3128L6.36145 48.3011C6.24126 48.7904 6.81716 49.1743 7.28718 48.9182L14 45.2608L20.7128 48.9182C21.1828 49.1743 21.7588 48.7904 21.6386 48.3011L19.9221 41.3128L25.7874 36.585C26.198 36.254 25.9781 35.6328 25.4337 35.5864Z" stroke="#9DA3B4" stroke-width="3"/>
<path d="M139.622 77.0576L134.44 76.6166L132.381 72.2303C132.237 71.9232 131.763 71.9232 131.619 72.2303L129.56 76.6166L124.378 77.0576C124.015 77.0885 123.868 77.5026 124.142 77.7233L128.052 80.8752L126.908 85.5341C126.828 85.8603 127.211 86.1162 127.525 85.9455L132 83.5072L136.475 85.9455C136.789 86.1162 137.173 85.8603 137.092 85.5341L135.948 80.8752L139.858 77.7233C140.132 77.5026 139.985 77.0885 139.622 77.0576Z" stroke="#9DA3B4" stroke-width="2.5"/>
<path d="M124.622 16.0576L119.44 15.6166L117.381 11.2303C117.237 10.9232 116.763 10.9232 116.619 11.2303L114.56 15.6166L109.378 16.0576C109.015 16.0885 108.868 16.5026 109.142 16.7233L113.052 19.8752L111.908 24.5341C111.828 24.8603 112.211 25.1162 112.525 24.9455L117 22.5072L121.475 24.9455C121.789 25.1162 122.173 24.8603 122.092 24.5341L120.948 19.8752L124.858 16.7233C125.132 16.5026 124.985 16.0885 124.622 16.0576Z" stroke="#9DA3B4" stroke-width="2.5"/>
</svg>
