<svg width="131" height="33" viewBox="0 0 131 33" fill="none" xmlns="http://www.w3.org/2000/svg">
<path d="M16.264 0.116577C25.155 0.116577 32.3111 7.22981 32.3111 16.283C32.3111 25.1207 25.155 32.2339 16.264 32.2339C10.409 32.2339 5.63819 29.4317 2.60224 24.9051C5.42133 21.0252 8.02357 16.7141 10.409 12.1875C10.409 12.1875 9.7584 26.414 14.746 26.6295C18.6494 27.4917 23.637 15.4208 23.637 15.4208C23.2033 15.4208 27.3235 22.534 28.4078 21.8874C28.8415 21.6718 27.7572 20.163 26.8898 18.223C26.0224 16.283 25.5887 13.6964 25.3718 12.6186C25.155 10.8942 25.3718 10.2475 24.0707 10.032C22.9864 9.81644 22.5527 10.6786 21.9022 12.1875C19.9505 16.4986 16.264 24.0429 14.9629 23.8274C13.0112 23.3962 13.4449 7.22981 13.4449 5.93649C13.6618 4.64318 13.4449 3.99652 12.5775 3.56542C11.0595 3.56542 10.409 5.28984 9.97525 6.3676C6.72245 11.972 3.68651 17.1452 0.65056 21.0252C0.216853 19.5163 0 17.7919 0 16.283C0 7.22981 7.15616 0.116577 16.264 0.116577Z" fill="white"/>
<path d="M124.045 17.1441C124.045 18.4374 124.262 19.2996 124.696 19.7307C125.13 20.1618 125.563 20.5929 126.431 20.5929C127.081 20.5929 127.515 20.1618 127.949 19.7307C128.599 19.2996 128.816 18.4374 128.816 17.3596C128.816 16.2819 128.599 15.4197 127.949 14.9886C127.515 14.3419 127.081 14.1264 126.214 14.1264C125.563 14.1264 125.13 14.3419 124.696 14.773C124.262 15.4197 124.045 16.2819 124.045 17.1441ZM122.744 22.5329H124.262C124.262 23.1796 124.479 23.3951 124.696 23.6107C125.13 23.8262 125.563 24.0418 126.214 24.0418C126.864 24.0418 127.298 23.8262 127.732 23.6107C128.166 23.3951 128.382 22.964 128.599 22.5329C128.599 22.1018 128.599 21.4551 128.599 20.5929C127.949 21.2396 127.081 21.6707 126.214 21.6707C124.913 21.6707 124.045 21.2396 123.395 20.3774C122.744 19.5152 122.527 18.4374 122.527 17.3596C122.527 16.4974 122.527 15.8508 122.961 14.9886C123.178 14.3419 123.612 13.9108 124.262 13.4797C124.696 13.0486 125.346 12.833 126.214 12.833C127.298 12.833 128.166 13.2641 128.816 14.1264V13.0486H130.117V20.5929C130.117 21.8862 129.9 22.7485 129.683 23.3951C129.467 24.0418 129.033 24.4729 128.382 24.6884C127.732 25.1195 127.081 25.1195 126.214 25.1195C125.13 25.1195 124.262 24.904 123.612 24.4729C122.961 24.0418 122.744 23.3951 122.744 22.5329ZM113.636 21.6707V13.0486H114.937V14.3419C115.588 13.2641 116.455 12.833 117.757 12.833C118.19 12.833 118.841 13.0486 119.275 13.0486C119.708 13.2641 119.925 13.4797 120.142 13.9108C120.359 14.1264 120.576 14.5575 120.576 14.9886C120.793 15.2041 120.793 15.6352 120.793 16.4974V21.6707H119.275V16.4974C119.275 15.8508 119.275 15.4197 119.058 15.2041C119.058 14.773 118.841 14.5575 118.407 14.3419C118.19 14.1264 117.757 14.1264 117.54 14.1264C116.889 14.1264 116.239 14.3419 115.805 14.773C115.371 15.2041 115.154 15.8508 115.154 16.9285V21.6707H113.636ZM109.95 21.6707V13.0486H111.468V21.6707H109.95ZM109.95 11.3242V9.81531H111.468V11.3242H109.95ZM95.8544 21.6707V13.0486H97.3724V14.3419C97.5892 13.9108 97.8061 13.4797 98.4566 13.2641C98.8903 13.0486 99.324 12.833 99.9746 12.833C100.625 12.833 101.059 13.0486 101.493 13.2641C101.926 13.4797 102.143 13.9108 102.36 14.3419C103.011 13.2641 103.878 12.833 104.962 12.833C105.83 12.833 106.697 13.0486 107.131 13.4797C107.564 14.1264 107.781 14.773 107.781 15.8508V21.6707H106.263V16.2819C106.263 15.6352 106.263 15.2041 106.046 14.9886C106.046 14.773 105.83 14.5575 105.613 14.3419C105.396 14.1264 104.962 14.1264 104.745 14.1264C104.095 14.1264 103.661 14.3419 103.227 14.773C102.794 15.2041 102.577 15.8508 102.577 16.713V21.6707H101.059V16.0663C101.059 15.4197 101.059 14.9886 100.842 14.5575C100.408 14.3419 100.191 14.1264 99.5409 14.1264C99.1072 14.1264 98.6735 14.3419 98.4566 14.5575C98.0229 14.773 97.8061 14.9886 97.5892 15.4197C97.5892 15.8508 97.3724 16.4974 97.3724 17.1441V21.6707H95.8544ZM78.723 17.1441C78.723 18.4374 78.9398 19.2996 79.3735 19.7307C79.8072 20.1618 80.4578 20.5929 81.1084 20.5929C81.7589 20.5929 82.4095 20.1618 82.8432 19.7307C83.2769 19.2996 83.4938 18.4374 83.4938 17.3596C83.4938 16.2819 83.2769 15.4197 82.8432 14.9886C82.1926 14.3419 81.7589 14.1264 81.1084 14.1264C80.4578 14.1264 79.8072 14.3419 79.3735 14.773C78.9398 15.4197 78.723 16.2819 78.723 17.1441ZM77.4219 22.5329H78.9398C78.9398 23.1796 79.1567 23.3951 79.3735 23.6107C79.8072 23.8262 80.241 24.0418 80.8915 24.0418C81.5421 24.0418 82.1926 23.8262 82.4095 23.6107C82.8432 23.3951 83.06 22.964 83.2769 22.5329C83.2769 22.1018 83.2769 21.4551 83.2769 20.5929C82.6263 21.2396 81.9758 21.6707 80.8915 21.6707C79.8072 21.6707 78.723 21.2396 78.0724 20.3774C77.4219 19.5152 77.205 18.4374 77.205 17.3596C77.205 16.4974 77.4219 15.8508 77.6387 14.9886C77.8556 14.3419 78.2893 13.9108 78.9398 13.4797C79.5904 13.0486 80.241 12.833 80.8915 12.833C81.9758 12.833 82.8432 13.2641 83.4938 14.1264V13.0486H84.7949V20.5929C84.7949 21.8862 84.7949 22.7485 84.3612 23.3951C84.1443 24.0418 83.7106 24.4729 83.06 24.6884C82.6263 25.1195 81.7589 25.1195 80.8915 25.1195C79.8072 25.1195 78.9398 24.904 78.5061 24.4729C77.8556 24.0418 77.4219 23.3951 77.4219 22.5329ZM69.3983 17.3596C69.3983 18.4374 69.6151 19.2996 70.0489 19.9463C70.4826 20.3774 71.1331 20.5929 72.0005 20.5929C72.6511 20.5929 73.3016 20.3774 73.7354 19.9463C74.1691 19.2996 74.6028 18.4374 74.6028 17.3596C74.6028 16.2819 74.1691 15.4197 73.7354 14.9886C73.3016 14.3419 72.6511 14.1264 72.0005 14.1264C71.1331 14.1264 70.4826 14.3419 70.0489 14.9886C69.6151 15.4197 69.3983 16.2819 69.3983 17.3596ZM67.8803 17.3596C67.8803 15.8508 68.314 14.5575 69.1814 13.9108C70.0489 13.2641 70.9163 12.833 72.0005 12.833C73.0848 12.833 74.1691 13.2641 74.8196 14.1264C75.687 14.773 76.1207 15.8508 76.1207 17.3596C76.1207 18.4374 75.9039 19.2996 75.4702 19.9463C75.2533 20.5929 74.6028 21.024 73.9522 21.4551C73.3016 21.6707 72.6511 21.8862 72.0005 21.8862C70.6994 21.8862 69.832 21.4551 68.9646 20.8085C68.314 19.9463 67.8803 18.8685 67.8803 17.3596ZM62.8927 21.6707V13.0486H64.1938V14.3419C64.4107 13.6953 64.8444 13.2641 65.0612 13.2641C65.2781 13.0486 65.7118 12.833 65.9286 12.833C66.5792 12.833 67.0129 13.0486 67.4466 13.2641L67.0129 14.773C66.5792 14.5575 66.3623 14.3419 65.9286 14.3419C65.7118 14.3419 65.2781 14.5575 65.0612 14.773C64.8444 14.773 64.6275 15.2041 64.4107 15.4197C64.4107 16.0663 64.1938 16.4974 64.1938 17.1441V21.6707H62.8927ZM60.0736 18.4374L61.5916 18.653C61.3747 19.7307 60.941 20.5929 60.2905 21.024C59.6399 21.6707 58.7725 21.8862 57.9051 21.8862C56.8208 21.8862 55.7365 21.4551 55.086 20.8085C54.4354 19.9463 54.0017 18.8685 54.0017 17.3596C54.0017 16.4974 54.2186 15.6352 54.4354 14.9886C54.6523 14.3419 55.3028 13.6953 55.9534 13.4797C56.6039 13.0486 57.2545 12.833 57.9051 12.833C58.9893 12.833 59.6399 13.0486 60.2905 13.4797C60.941 14.1264 61.1579 14.773 61.3747 15.6352L60.0736 15.8508C59.8567 15.2041 59.6399 14.773 59.2062 14.5575C58.9893 14.1264 58.5556 14.1264 57.9051 14.1264C57.2545 14.1264 56.6039 14.3419 56.1702 14.773C55.7365 15.4197 55.5197 16.2819 55.5197 17.3596C55.5197 18.4374 55.7365 19.2996 56.1702 19.9463C56.6039 20.3774 57.2545 20.5929 57.9051 20.5929C58.5556 20.5929 58.9893 20.5929 59.423 20.1618C59.8567 19.7307 60.0736 19.2996 60.0736 18.4374ZM50.7489 21.6707V13.0486H52.05V21.6707H50.7489ZM50.7489 11.3242V9.81531H52.05V11.3242H50.7489ZM36.8703 21.6707V9.81531H39.2557L42.0748 18.2219C42.2916 19.0841 42.5085 19.5152 42.7253 19.9463C42.7253 19.5152 42.9422 18.8685 43.3759 18.0063L46.195 9.81531H48.3635V21.6707H46.8456V11.7553L43.159 21.6707H41.8579L38.3883 11.5397V21.6707H36.8703ZM87.8308 17.1441C87.8308 18.4374 88.0477 19.2996 88.4814 19.7307C88.9151 20.1618 89.5656 20.5929 90.2162 20.5929C90.8668 20.5929 91.3005 20.1618 91.951 19.7307C92.3847 19.2996 92.6016 18.4374 92.6016 17.3596C92.6016 16.2819 92.3847 15.4197 91.7342 14.9886C91.3005 14.3419 90.8668 14.1264 90.2162 14.1264C89.5656 14.1264 88.9151 14.3419 88.4814 14.773C88.0477 15.4197 87.8308 16.2819 87.8308 17.1441ZM92.6016 20.5929C92.3847 20.8085 91.5173 21.4551 90.6499 21.6707C90.4331 21.6707 90.2162 21.6707 89.9993 21.6707C88.9151 21.6707 87.8308 21.2396 87.1803 20.3774C86.5297 19.5152 86.3128 18.4374 86.3128 17.3596C86.3128 16.4974 86.3128 15.8508 86.7466 14.9886C86.9634 14.3419 87.3971 13.9108 88.0477 13.4797C88.4814 13.0486 89.3488 12.833 89.9993 12.833C91.0836 12.833 91.951 13.2641 92.6016 14.1264V13.0486H93.9027V16.0663V18.2219C93.9027 19.5152 93.9027 20.3774 93.9027 20.5929C94.1196 21.024 94.1196 21.4551 94.3364 21.6707H92.8184C92.6016 21.4551 92.6016 21.024 92.6016 20.5929Z" fill="white"/>
</svg>
