<svg width="154" height="38" viewBox="0 0 154 38" fill="none" xmlns="http://www.w3.org/2000/svg">
<path d="M7.37661 19.3822L19.2733 7.61718C19.3241 7.5669 19.4255 7.5669 19.4763 7.61718L25.3105 13.3991C25.3612 13.4494 25.3612 13.5499 25.3105 13.6002L21.4802 17.3711C21.4295 17.4213 21.328 17.4213 21.2773 17.3711L19.4763 15.5862C19.4255 15.5359 19.3241 15.5359 19.2733 15.5862L15.4684 19.3822C15.4177 19.4324 15.4177 19.533 15.4684 19.5833L19.2733 23.3541C19.3241 23.4044 19.4255 23.4044 19.4763 23.3541L25.4119 17.4716L29.4452 21.4687L19.4763 31.3483C19.4255 31.3985 19.3241 31.3985 19.2733 31.3483L7.37661 19.6084C7.32588 19.533 7.32588 19.4576 7.37661 19.3822Z" fill="white"/>
<path d="M47.4809 19.6084L35.6096 31.3734C35.5589 31.4237 35.4574 31.4237 35.4067 31.3734L29.5725 25.5915C29.5217 25.5412 29.5217 25.4406 29.5725 25.3904L33.4027 21.5944C33.4535 21.5441 33.5549 21.5441 33.6057 21.5944L35.4067 23.3792C35.4574 23.4295 35.5589 23.4295 35.6096 23.3792L39.4399 19.6084C39.4906 19.5581 39.4906 19.4576 39.4399 19.4073L35.6096 15.6113C35.5589 15.5611 35.4574 15.5611 35.4067 15.6113L29.471 21.4938L25.4124 17.4967L35.3813 7.61718C35.432 7.5669 35.5335 7.5669 35.5842 7.61718L47.4556 19.3822C47.5317 19.4324 47.5317 19.533 47.4809 19.6084C47.4809 19.5833 47.4809 19.5833 47.4809 19.6084Z" fill="white"/>
<path d="M53.2135 12.9714V7.51623C53.5179 7.51623 54.4564 7.49109 54.8876 7.49109C56.5618 7.49109 57.0945 8.34581 57.0945 9.30109C57.0945 10.2815 56.3335 11.1362 55.0652 11.1362C54.9384 11.1362 54.6593 11.1362 54.4564 11.1111V12.9714H53.2135ZM54.4564 8.69775V9.92956C54.634 9.9547 54.8369 9.97984 55.0398 9.97984C55.3696 9.97984 55.7755 9.829 55.7755 9.30109C55.7755 8.82345 55.4711 8.67261 55.0145 8.67261C54.8369 8.67261 54.7101 8.67261 54.4564 8.69775Z" fill="white"/>
<path d="M60.5433 7.44116C62.2175 7.44116 63.4604 8.52213 63.4604 10.2567C63.4604 11.9159 62.2175 13.0723 60.5433 13.0723C58.8691 13.0723 57.6262 11.9913 57.6262 10.2567C57.6262 8.67297 58.8184 7.44116 60.5433 7.44116ZM60.5433 11.8907C61.5833 11.8907 62.116 11.1617 62.116 10.2316C62.116 9.22602 61.4057 8.57241 60.5433 8.57241C59.6301 8.57241 58.9706 9.22602 58.9706 10.2316C58.9706 11.1869 59.6808 11.8907 60.5433 11.8907Z" fill="white"/>
<path d="M69.9293 12.9719H68.7371L67.5956 9.47756L66.4541 12.9719H65.2619L63.6385 7.54187H65.059L65.9722 10.9859L66.9868 7.54187H68.2551L69.3205 10.9859L70.259 7.54187H71.4766L69.9293 12.9719Z" fill="white"/>
<path d="M72.1865 7.5166H75.4334V8.67299H73.4295V9.62827H75.2051V10.8098H73.4295V11.7902H75.5095V12.9466H72.1865V7.5166Z" fill="white"/>
<path d="M76.702 12.9717V7.51659C77.0064 7.51659 78.4015 7.49146 78.5791 7.49146C80.0757 7.49146 80.6084 8.22048 80.6084 9.22604C80.6084 10.2316 79.9742 10.659 79.6952 10.7846L81.2932 12.9214H79.7713L78.4269 11.0109H77.9703V12.9214H76.702V12.9717ZM77.9449 8.69812V9.90478H78.4015C78.8835 9.90478 79.2639 9.72881 79.2639 9.27631C79.2639 8.97465 79.1118 8.69812 78.503 8.69812C78.3254 8.67298 78.2239 8.67298 77.9449 8.69812Z" fill="white"/>
<path d="M81.9783 7.5166H85.2252V8.67299H83.2213V9.62827H84.9969V10.8098H83.2213V11.7902H85.3013V12.9466H81.9783V7.5166Z" fill="white"/>
<path d="M86.4929 7.51659H86.5944C86.8734 7.51659 87.8627 7.49146 88.2178 7.49146C90.4247 7.49146 91.2871 8.7484 91.2871 10.1813C91.2871 11.7148 90.2471 12.9717 88.1417 12.9717C87.8627 12.9717 87.1271 12.9466 86.5944 12.9466H86.4929V7.51659ZM87.7358 8.69812V11.8153C87.888 11.8405 88.0149 11.8405 88.1924 11.8405C89.2832 11.8405 89.9681 11.2623 89.9681 10.2316C89.9681 9.22604 89.2325 8.69812 88.1924 8.69812C88.0656 8.67298 87.888 8.67298 87.7358 8.69812Z" fill="white"/>
<path d="M93.8755 7.54173C94.1799 7.51659 94.9409 7.49146 95.5496 7.49146C96.8687 7.49146 97.4014 8.09479 97.4014 8.84895C97.4014 9.42715 97.1731 9.80423 96.7672 10.0556V10.0808C97.1731 10.2316 97.5536 10.6338 97.5536 11.3126C97.5536 12.4438 96.6657 12.9969 95.4735 12.9969C94.9409 12.9969 94.2306 12.9717 93.9009 12.9466L93.8755 7.54173ZM95.1438 8.69812V9.67853H95.5496C95.8794 9.67853 96.1331 9.55284 96.1331 9.15062C96.1331 8.82381 95.8287 8.67298 95.5243 8.67298C95.3721 8.64784 95.2706 8.67298 95.1438 8.69812ZM95.1438 10.7595V11.7651C95.2199 11.7902 95.3213 11.8153 95.575 11.8153C96.057 11.8153 96.3106 11.6142 96.3106 11.2371C96.3106 10.8852 96.057 10.7595 95.6511 10.7595H95.1438Z" fill="white"/>
<path d="M101.206 10.7596V12.9719H99.9375V10.7596L98.0096 7.54187H99.4555L100.622 9.60326L101.789 7.54187H103.134L101.206 10.7596Z" fill="white"/>
<path d="M116.046 26.069C115.995 26.3204 115.945 26.5718 115.894 26.798C115.894 26.8734 115.818 26.9237 115.742 26.9237H115.488C115.412 26.9237 115.361 26.8734 115.336 26.798C115.285 26.5718 115.234 26.3455 115.158 26.1193L113.687 21.8457C113.662 21.7954 113.611 21.7451 113.56 21.7451H111.049C110.998 21.7451 110.922 21.7954 110.922 21.8457L109.476 26.1193C109.4 26.3455 109.324 26.5718 109.299 26.798C109.273 26.8734 109.223 26.9237 109.146 26.8986H108.918C108.842 26.8986 108.791 26.8483 108.766 26.7729C108.741 26.5466 108.69 26.3204 108.639 26.0941L107.498 21.8205C107.472 21.7702 107.422 21.72 107.371 21.72H104.479C104.403 21.72 104.327 21.7702 104.327 21.8708C104.327 21.8959 104.327 21.8959 104.327 21.9211L107.32 31.147C107.346 31.1973 107.396 31.2476 107.447 31.2476H109.857C109.907 31.2476 109.958 31.2225 109.984 31.147L111.658 26.8232C111.759 26.5718 111.835 26.3204 111.911 26.0439C111.911 25.9684 111.987 25.9182 112.038 25.9182H112.216L112.368 26.0187C112.419 26.2701 112.469 26.5215 112.571 26.7477L114.27 31.1219C114.296 31.1722 114.347 31.2225 114.397 31.2225H116.985C117.061 31.2225 117.111 31.1722 117.111 31.1219L120.003 21.8959C120.029 21.8205 119.978 21.7451 119.902 21.72C119.876 21.72 119.876 21.72 119.851 21.72H117.188C117.111 21.72 117.061 21.7702 117.061 21.8205L116.046 26.069Z" fill="white"/>
<path d="M122.133 21.7701H124.822C124.898 21.7701 124.974 21.8456 124.974 21.921V31.1469C124.974 31.2224 124.898 31.2978 124.822 31.2978H122.133C122.057 31.2978 121.981 31.2224 121.981 31.1469V21.8958C121.981 21.8204 122.057 21.7701 122.133 21.7701Z" fill="white"/>
<path d="M123.554 16.4912C122.285 16.4912 121.702 17.3711 121.702 18.1755C121.702 19.4325 122.615 20.0107 123.554 20.0107C124.416 20.0107 125.253 19.3822 125.253 18.1755C125.279 17.2705 124.543 16.4912 123.604 16.4912C123.579 16.4912 123.579 16.4912 123.554 16.4912Z" fill="white"/>
<path d="M132.331 25.3905C131.393 25.1643 130.708 25.0135 130.708 24.5107C130.708 24.209 131.038 23.9073 131.646 23.9073C132.534 23.9325 133.422 24.209 134.183 24.6615C134.259 24.7118 134.335 24.6867 134.386 24.6112L135.35 22.8012C135.375 22.751 135.375 22.6755 135.325 22.6253C134.614 22.0722 133.371 21.494 131.469 21.494C128.729 21.494 127.74 23.128 127.74 24.5358C127.74 26.748 129.845 27.2508 131.393 27.6279C132.331 27.8541 133.016 28.0301 133.016 28.5329C133.016 28.7089 132.94 29.1362 132.103 29.1362C131.215 29.1362 129.845 28.6334 129.059 28.0804C129.008 28.0301 128.907 28.0553 128.856 28.1055L127.639 29.7898C127.588 29.8401 127.588 29.9155 127.639 29.9658C128.247 30.5943 129.947 31.5244 131.875 31.5244C134.386 31.5244 135.984 30.2926 135.984 28.3569C135.959 26.2453 133.853 25.7425 132.331 25.3905Z" fill="white"/>
<path d="M142.478 25.3905C141.539 25.1643 140.854 25.0135 140.854 24.5107C140.854 24.209 141.184 23.9073 141.793 23.9073C142.681 23.9325 143.568 24.209 144.329 24.6615C144.406 24.7118 144.482 24.6867 144.532 24.6112L145.496 22.8012C145.522 22.751 145.522 22.6755 145.446 22.6253C144.735 22.0722 143.492 21.494 141.59 21.494C138.85 21.494 137.861 23.128 137.861 24.5358C137.861 26.748 139.966 27.2508 141.488 27.6279C142.427 27.8541 143.112 28.0301 143.112 28.5329C143.112 28.7089 143.036 29.1362 142.199 29.1362C141.311 29.1362 139.941 28.6334 139.155 28.0804C139.104 28.0301 139.003 28.0553 138.952 28.1055L137.734 29.7898C137.684 29.8401 137.684 29.9155 137.734 29.9658C138.343 30.5943 140.043 31.5244 141.97 31.5244C144.482 31.5244 146.08 30.2926 146.08 28.3569C146.105 26.2453 144 25.7425 142.478 25.3905Z" fill="white"/>
<path d="M59.1238 22.5747C57.7794 21.9462 56.6125 21.4183 56.6125 20.2619C56.6125 19.4574 57.272 18.9547 58.3374 18.9547C59.1491 18.9295 59.9608 19.2312 60.5443 19.7842C60.595 19.8345 60.6965 19.8345 60.7472 19.7842L62.2945 17.6474C62.3453 17.5972 62.3199 17.4966 62.2692 17.4463C61.2799 16.5162 59.7833 15.9883 58.033 15.9883C54.8623 15.9883 53.2135 18.1251 53.2135 20.2367C53.2135 23.0774 55.4457 24.1333 57.2467 25.0131C58.5403 25.6416 59.6565 26.1695 59.6565 27.2002C59.6565 28.0298 59.0223 28.5577 58.033 28.5577C56.8154 28.5326 55.6486 28.0298 54.8115 27.1499C54.7608 27.0997 54.6593 27.0745 54.6086 27.1248C54.6086 27.1248 54.6086 27.1248 54.5832 27.1499L52.9344 29.1108C52.8837 29.161 52.8837 29.2113 52.9091 29.2616C53.7208 30.7197 56.0037 31.499 57.9062 31.499C60.874 31.499 63.0302 29.6638 63.0302 27.1499C63.0555 24.3595 60.9755 23.4042 59.1238 22.5747Z" fill="white"/>
<path d="M70.3605 21.494C67.1643 21.494 65.0082 23.5051 65.0082 26.5218C65.0082 29.5384 67.1643 31.5495 70.3605 31.5495C73.5566 31.5495 75.7127 29.5384 75.7127 26.5218C75.7127 23.5051 73.5566 21.494 70.3605 21.494ZM70.3605 28.8094C69.1175 28.8094 68.2044 27.8541 68.2044 26.5218C68.2044 25.0135 69.2951 24.2342 70.3605 24.2342C71.6034 24.2342 72.5166 25.1894 72.5166 26.5218C72.5166 27.9044 71.6288 28.8094 70.3605 28.8094Z" fill="white"/>
<path d="M77.9211 19.9854V31.1219C77.9211 31.1973 77.9718 31.2727 78.0479 31.2727H80.7367C80.8128 31.2727 80.8889 31.1973 80.8889 31.1219V24.636C80.8889 24.5606 80.9397 24.4852 81.0158 24.4852H82.8168C82.8929 24.4852 82.969 24.4098 82.969 24.3344V21.8959C82.969 21.8205 82.8929 21.7451 82.8168 21.7451H81.0158C80.9397 21.7451 80.8889 21.6948 80.8636 21.5942V20.1613C80.8636 19.1809 81.4216 18.7284 81.929 18.7284C82.2841 18.7284 82.6138 18.8038 82.9182 18.9295C82.9943 18.9547 83.0704 18.9295 83.1212 18.8793L83.9836 16.9436C84.009 16.8933 83.9836 16.8179 83.9583 16.7676C83.4002 16.3151 82.3602 16.0134 81.3455 16.0134C79.1894 16.0134 77.9211 17.4715 77.9211 19.9854Z" fill="white"/>
<path d="M88.5745 28.8091C88.0671 28.8091 87.7628 28.3315 87.7628 27.5522V24.6361C87.7628 24.5607 87.8135 24.4853 87.8896 24.4853H90.3755C90.4516 24.4853 90.5277 24.4099 90.5277 24.3344V21.896C90.5277 21.8206 90.4516 21.7451 90.3755 21.7451H87.8896C87.8135 21.7451 87.7374 21.6949 87.7374 21.6194V19.1558C87.7374 19.0804 87.6613 19.005 87.5852 19.005H84.8964C84.8203 19.005 84.7442 19.0804 84.7442 19.1558V27.703C84.7442 30.3175 85.6827 31.5493 87.6613 31.5493C88.752 31.5744 89.8174 31.2476 90.7052 30.6191C90.756 30.5689 90.7813 30.5186 90.7559 30.4432L89.995 28.5075C89.9696 28.4321 89.8935 28.4069 89.8174 28.4321C89.8174 28.4321 89.792 28.4321 89.792 28.4572C89.4623 28.6835 89.0311 28.8091 88.5745 28.8091Z" fill="white"/>
<path d="M99.0498 22.5998C97.7054 21.9713 96.5132 21.4434 96.5132 20.287C96.5132 19.4826 97.1727 18.9798 98.2381 18.9798C99.0751 18.9295 99.8615 19.2312 100.47 19.8094C100.521 19.8597 100.622 19.8597 100.673 19.7842L102.221 17.6474C102.271 17.5972 102.246 17.4966 102.195 17.4463C101.206 16.5162 99.7093 15.9883 97.959 15.9883C94.7883 15.9883 93.1395 18.1251 93.1395 20.2367C93.1395 23.0774 95.3717 24.1584 97.1727 25.0131C98.4664 25.6416 99.5825 26.1695 99.5825 27.2002C99.5825 28.0298 98.9483 28.5577 97.959 28.5577C96.7415 28.5326 95.5746 28.0298 94.7629 27.1499C94.7122 27.0997 94.6107 27.0745 94.56 27.1248C94.56 27.1248 94.56 27.1248 94.5346 27.1499L92.8858 29.1108C92.8351 29.161 92.8351 29.2113 92.8604 29.2616C93.6722 30.7197 95.9551 31.499 97.8576 31.499C100.825 31.499 102.982 29.6638 102.982 27.1499C102.982 24.3847 100.876 23.4294 99.0498 22.5998Z" fill="white"/>
</svg>
