<svg width="153" height="146" viewBox="0 0 153 146" fill="none" xmlns="http://www.w3.org/2000/svg">
<path d="M9.02734 87C9.02734 85.067 10.5943 83.5 12.5273 83.5C14.4603 83.5 16.0273 85.067 16.0273 87C16.0273 88.933 14.4603 90.5 12.5273 90.5C10.5943 90.5 9.02734 88.933 9.02734 87Z" stroke="#8C75FA" stroke-width="3"/>
<path d="M27.0273 5C27.0273 3.067 28.5943 1.5 30.5273 1.5C32.4603 1.5 34.0273 3.067 34.0273 5C34.0273 6.933 32.4603 8.5 30.5273 8.5C28.5943 8.5 27.0273 6.933 27.0273 5Z" stroke="#8C75FA" stroke-width="3"/>
<path d="M144.027 47C144.027 45.067 145.594 43.5 147.527 43.5C149.46 43.5 151.027 45.067 151.027 47C151.027 48.933 149.46 50.5 147.527 50.5C145.594 50.5 144.027 48.933 144.027 47Z" stroke="#8C75FA" stroke-width="3"/>
<path d="M24.9611 39.5864L17.1874 38.9249L14.0995 32.3455C13.8833 31.8848 13.1714 31.8848 12.9552 32.3455L9.8673 38.9249L2.09361 39.5864C1.54929 39.6328 1.32931 40.254 1.73998 40.585L7.60526 45.3128L5.88879 52.3011C5.7686 52.7904 6.34451 53.1743 6.81452 52.9182L13.5273 49.2608L20.2402 52.9182C20.7102 53.1743 21.2861 52.7904 21.1659 52.3011L19.4494 45.3128L25.3147 40.585C25.7254 40.254 25.5054 39.6328 24.9611 39.5864Z" stroke="#8C75FA" stroke-width="3"/>
<path d="M149.15 81.0576L143.967 80.6166L141.909 76.2303C141.765 75.9232 141.29 75.9232 141.146 76.2303L139.087 80.6166L133.905 81.0576C133.542 81.0885 133.395 81.5026 133.669 81.7233L137.579 84.8752L136.435 89.5341C136.355 89.8603 136.739 90.1162 137.052 89.9455L141.527 87.5072L146.003 89.9455C146.316 90.1162 146.7 89.8603 146.62 89.5341L145.475 84.8752L149.386 81.7233C149.659 81.5026 149.513 81.0885 149.15 81.0576Z" stroke="#8C75FA" stroke-width="2.5"/>
<path d="M123.15 20.0576L117.967 19.6166L115.909 15.2303C115.765 14.9232 115.29 14.9232 115.146 15.2303L113.087 19.6166L107.905 20.0576C107.542 20.0885 107.395 20.5026 107.669 20.7233L111.579 23.8752L110.435 28.5341C110.355 28.8603 110.739 29.1162 111.052 28.9455L115.527 26.5072L120.003 28.9455C120.316 29.1162 120.7 28.8603 120.62 28.5341L119.475 23.8752L123.386 20.7233C123.659 20.5026 123.513 20.0885 123.15 20.0576Z" stroke="#8C75FA" stroke-width="2.5"/>
<path d="M67.1498 22.0576L61.9674 21.6166L59.9087 17.2303C59.7646 16.9232 59.29 16.9232 59.1459 17.2303L57.0873 21.6166L51.9049 22.0576C51.542 22.0885 51.3953 22.5026 51.6691 22.7233L55.5793 25.8752L54.435 30.5341C54.3548 30.8603 54.7388 31.1162 55.0521 30.9455L59.5273 28.5072L64.0026 30.9455C64.3159 31.1162 64.6999 30.8603 64.6197 30.5341L63.4754 25.8752L67.3856 22.7233C67.6594 22.5026 67.5127 22.0885 67.1498 22.0576Z" stroke="#8C75FA" stroke-width="2.5"/>
<path d="M77.5273 144C49.9131 144 27.5273 121.614 27.5273 94C27.5273 66.3857 49.9131 44 77.5273 44C105.142 44 127.527 66.3858 127.527 94C127.527 121.614 105.142 144 77.5273 144Z" stroke="#8C75FA" stroke-width="4"/>
<path d="M77.5273 125C60.4065 125 46.5273 111.121 46.5273 94C46.5273 76.8792 60.4065 63 77.5273 63C94.6482 63 108.527 76.8792 108.527 94C108.527 111.121 94.6482 125 77.5273 125Z" stroke="#8C75FA" stroke-width="4"/>
<path d="M92.7723 88.4765L82.4074 87.5629L78.2902 78.4771C78.0019 77.841 77.0527 77.841 76.7645 78.4771L72.6473 87.563L62.2824 88.4765C61.5566 88.5405 61.2633 89.3983 61.8109 89.8554L69.6312 96.3844L67.3426 106.035C67.1824 106.711 67.9502 107.241 68.5769 106.887L77.5273 101.836L86.4778 106.887C87.1045 107.241 87.8724 106.711 87.7121 106.035L85.4235 96.3844L93.2438 89.8554C93.7914 89.3983 93.4981 88.5405 92.7723 88.4765Z" stroke="#8C75FA" stroke-width="3"/>
<path d="M77.5273 143L77.5273 125.5" stroke="#8C75FA" stroke-width="4" stroke-linecap="round" stroke-linejoin="round"/>
<path d="M77.5273 62L77.5273 44.5" stroke="#8C75FA" stroke-width="4" stroke-linecap="round" stroke-linejoin="round"/>
<path d="M42.7022 129.574L55.0765 117.2" stroke="#8C75FA" stroke-width="4" stroke-linecap="round" stroke-linejoin="round"/>
<path d="M99.9775 72.3008L112.352 59.9264" stroke="#8C75FA" stroke-width="4" stroke-linecap="round" stroke-linejoin="round"/>
<path d="M42.7021 58.9258L55.0765 71.3002" stroke="#8C75FA" stroke-width="4" stroke-linecap="round" stroke-linejoin="round"/>
<path d="M99.9775 116.199L112.352 128.574" stroke="#8C75FA" stroke-width="4" stroke-linecap="round" stroke-linejoin="round"/>
<path d="M28.2773 94L45.7773 94" stroke="#8C75FA" stroke-width="4" stroke-linecap="round" stroke-linejoin="round"/>
<path d="M109.277 94L126.777 94" stroke="#8C75FA" stroke-width="4" stroke-linecap="round" stroke-linejoin="round"/>
</svg>
