<svg width="22" height="22" viewBox="0 0 22 22" xmlns="http://www.w3.org/2000/svg">
<path d="M9.99803 2.3973C10.5148 1.74327 11.5049 1.73768 12.029 2.38585L18.5081 10.3987C18.9003 10.8838 18.8927 11.579 18.49 12.0554L12.0106 19.7203C11.4874 20.3392 10.5316 20.3337 10.0155 19.7089L3.68456 12.0444C3.29437 11.572 3.28698 10.8913 3.66681 10.4106L9.99803 2.3973Z" stroke="#8C75FA" stroke-width="1.4"/>
<path d="M3.15326 11.3474H19.2282" stroke="#8C75FA" stroke-width="1.4"/>
<path d="M11 20.1111L10.3324 20.3218C10.4244 20.6131 10.6946 20.8111 11 20.8111C11.3053 20.8111 11.5755 20.6131 11.6675 20.3218L11 20.1111ZM11.6675 19.9003L8.86746 11.0336L7.53244 11.4552L10.3324 20.3218L11.6675 19.9003ZM13.1324 11.0336L10.3324 19.9003L11.6675 20.3218L14.4675 11.4552L13.1324 11.0336Z" fill="#8C75FA"/>
<path d="M11 2.37772L11.6676 2.16693C11.5756 1.87571 11.3054 1.67772 11 1.67772C10.6947 1.67772 10.4245 1.87571 10.3325 2.16693L11 2.37772ZM10.3325 2.58851L13.1325 11.4552L14.4676 11.0336L11.6676 2.16693L10.3325 2.58851ZM8.86756 11.4552L11.6676 2.58851L10.3325 2.16693L7.53254 11.0336L8.86756 11.4552Z" fill="#8C75FA"/>
</svg>
