<svg width="176" height="141" viewBox="0 0 176 141" fill="none" xmlns="http://www.w3.org/2000/svg">
<path d="M1.5 75C1.5 73.067 3.067 71.5 5 71.5C6.933 71.5 8.5 73.067 8.5 75C8.5 76.933 6.933 78.5 5 78.5C3.067 78.5 1.5 76.933 1.5 75Z" stroke="#8C75FA" stroke-width="3"/>
<path d="M53.5 5C53.5 3.067 55.067 1.5 57 1.5C58.933 1.5 60.5 3.067 60.5 5C60.5 6.933 58.933 8.5 57 8.5C55.067 8.5 53.5 6.933 53.5 5Z" stroke="#8C75FA" stroke-width="3"/>
<path d="M152.5 43C152.5 41.067 154.067 39.5 156 39.5C157.933 39.5 159.5 41.067 159.5 43C159.5 44.933 157.933 46.5 156 46.5C154.067 46.5 152.5 44.933 152.5 43Z" stroke="#8C75FA" stroke-width="3"/>
<path d="M33.4337 35.5864L25.66 34.9249L22.5721 28.3455C22.3559 27.8848 21.644 27.8848 21.4278 28.3455L18.34 34.9249L10.5663 35.5864C10.022 35.6328 9.80197 36.254 10.2126 36.585L16.0779 41.3128L14.3614 48.3011C14.2413 48.7904 14.8172 49.1743 15.2872 48.9182L22 45.2608L28.7128 48.9182C29.1828 49.1743 29.7588 48.7904 29.6386 48.3011L27.9221 41.3128L33.7874 36.585C34.198 36.254 33.9781 35.6328 33.4337 35.5864Z" stroke="#8C75FA" stroke-width="3"/>
<path d="M173.622 70.0576L168.44 69.6166L166.381 65.2303C166.237 64.9232 165.763 64.9232 165.619 65.2303L163.56 69.6166L158.378 70.0576C158.015 70.0885 157.868 70.5026 158.142 70.7233L162.052 73.8752L160.908 78.5341C160.828 78.8603 161.211 79.1162 161.525 78.9455L166 76.5072L170.475 78.9455C170.789 79.1162 171.173 78.8603 171.092 78.5341L169.948 73.8752L173.858 70.7233C174.132 70.5026 173.985 70.0885 173.622 70.0576Z" stroke="#8C75FA" stroke-width="2.5"/>
<path d="M132.622 16.0576L127.44 15.6166L125.381 11.2303C125.237 10.9232 124.763 10.9232 124.619 11.2303L122.56 15.6166L117.378 16.0576C117.015 16.0885 116.868 16.5026 117.142 16.7233L121.052 19.8752L119.908 24.5341C119.828 24.8603 120.211 25.1162 120.525 24.9455L125 22.5072L129.475 24.9455C129.789 25.1162 130.173 24.8603 130.092 24.5341L128.948 19.8752L132.858 16.7233C133.132 16.5026 132.985 16.0885 132.622 16.0576Z" stroke="#8C75FA" stroke-width="2.5"/>
<path d="M130 82H138V112H130V82Z" stroke="#8C75FA" stroke-width="4"/>
<path d="M34 82H42V112H34V82Z" stroke="#8C75FA" stroke-width="4"/>
<path d="M125 72.8555C125 67.8849 129.029 63.8555 134 63.8555C138.971 63.8555 143 67.8849 143 72.8555C143 77.826 138.971 81.8555 134 81.8555C129.029 81.8555 125 77.826 125 72.8555Z" stroke="#8C75FA" stroke-width="4"/>
<path d="M29 72.8555C29 67.8849 33.0294 63.8555 38 63.8555C42.9706 63.8555 47 67.8849 47 72.8555C47 77.826 42.9706 81.8555 38 81.8555C33.0294 81.8555 29 77.826 29 72.8555Z" stroke="#8C75FA" stroke-width="4"/>
<path d="M107 30L107.001 30C107.118 30 107.242 30.0285 107.365 30.0937L108.299 28.3252L107.365 30.0937C107.49 30.1593 107.616 30.264 107.725 30.4139C107.725 30.4139 107.725 30.414 107.725 30.4141C107.725 30.4142 107.726 30.4143 107.726 30.4145L119.725 46.9141C119.896 47.1495 120.004 47.4695 120 47.8197C119.995 48.1698 119.88 48.4842 119.705 48.7115L121.29 49.9309L119.705 48.7115L86.7049 91.6122C86.5967 91.7528 86.4737 91.8507 86.3533 91.9121L87.2622 93.6937L86.3533 91.9121C86.2339 91.9731 86.114 92 86 92C85.886 92 85.7661 91.9731 85.6467 91.9122L85.6467 91.9121C85.5263 91.8507 85.4033 91.7528 85.2951 91.6122L52.2951 48.7115L50.7099 49.9309L52.2951 48.7115C52.1203 48.4842 52.0045 48.1698 52.0001 47.8197C51.9957 47.4695 52.1036 47.1495 52.2749 46.9141L64.2744 30.4145C64.2745 30.4143 64.2747 30.4141 64.2748 30.4139C64.384 30.264 64.5105 30.1593 64.6347 30.0937C64.758 30.0285 64.8819 30 64.9994 30H65L107 30Z" stroke="#8C75FA" stroke-width="4"/>
<path d="M52.1172 47.8008H119.882" stroke="#8C75FA" stroke-width="4"/>
<path d="M86 92.364L84.0724 92.8973C84.3122 93.7639 85.1008 94.364 86 94.364C86.8992 94.364 87.6878 93.7639 87.9276 92.8973L86 92.364ZM87.9276 91.8307L75.5526 47.1034L71.6974 48.17L84.0724 92.8973L87.9276 91.8307ZM96.4474 47.1034L84.0724 91.8307L87.9276 92.8973L100.303 48.17L96.4474 47.1034Z" fill="#8C75FA"/>
<path d="M90.0605 29.9773L91.8797 29.1463C91.5543 28.4341 90.8434 27.9773 90.0605 27.9773L90.0605 29.9773ZM81.8984 29.9773L81.8984 27.9773L80.6105 27.9773L80.0776 29.1497L81.8984 29.9773ZM88.2413 30.8083L96.5558 49.0107L100.194 47.3487L91.8797 29.1463L88.2413 30.8083ZM75.4457 49.0073L83.7191 30.8048L80.0776 29.1497L71.8042 47.3521L75.4457 49.0073ZM81.8984 31.9773L90.0605 31.9773L90.0605 27.9773L81.8984 27.9773L81.8984 31.9773Z" fill="#8C75FA"/>
<path d="M119 123.393C119 117.021 124.165 111.855 130.537 111.855H137.463C143.835 111.855 149 117.021 149 123.393C149 124.2 148.345 124.855 147.537 124.855L120.463 124.855C119.655 124.855 119 124.2 119 123.393Z" stroke="#8C75FA" stroke-width="4"/>
<path d="M23 123.393C23 117.021 28.1653 111.855 34.537 111.855H41.463C47.8347 111.855 53 117.021 53 123.393C53 124.2 52.345 124.855 51.537 124.855L24.463 124.855C23.655 124.855 23 124.2 23 123.393Z" stroke="#8C75FA" stroke-width="4"/>
<path d="M70.9935 105.272C71.3273 103.937 72.5273 103 73.9039 103H85.48H97.1894C98.5399 103 99.7239 103.902 100.082 105.205L108.332 135.205C108.857 137.114 107.42 139 105.439 139H66.4039C64.4522 139 63.0201 137.166 63.4935 135.272L70.9935 105.272Z" stroke="#8C75FA" stroke-width="4"/>
</svg>
