<svg width="191" height="142" viewBox="0 0 191 142" fill="none" xmlns="http://www.w3.org/2000/svg">
<path d="M17.25 84C17.25 81.9289 18.9289 80.25 21 80.25C23.0711 80.25 24.75 81.9289 24.75 84C24.75 86.0711 23.0711 87.75 21 87.75C18.9289 87.75 17.25 86.0711 17.25 84Z" stroke="#9DA3B4" stroke-width="2.5"/>
<path d="M108.25 5C108.25 2.92893 109.929 1.25 112 1.25C114.071 1.25 115.75 2.92893 115.75 5C115.75 7.07107 114.071 8.75 112 8.75C109.929 8.75 108.25 7.07107 108.25 5Z" stroke="#9DA3B4" stroke-width="2.5"/>
<path d="M182.25 55C182.25 52.9289 183.929 51.25 186 51.25C188.071 51.25 189.75 52.9289 189.75 55C189.75 57.0711 188.071 58.75 186 58.75C183.929 58.75 182.25 57.0711 182.25 55Z" stroke="#9DA3B4" stroke-width="2.5"/>
<path d="M25.4337 25.5864L17.66 24.9249L14.5721 18.3455C14.3559 17.8848 13.644 17.8848 13.4278 18.3455L10.34 24.9249L2.56626 25.5864C2.02195 25.6328 1.80197 26.254 2.21264 26.585L8.07791 31.3128L6.36145 38.3011C6.24126 38.7904 6.81716 39.1743 7.28718 38.9182L14 35.2608L20.7128 38.9182C21.1828 39.1743 21.7588 38.7904 21.6386 38.3011L19.9221 31.3128L25.7874 26.585C26.198 26.254 25.9781 25.6328 25.4337 25.5864Z" stroke="#9DA3B4" stroke-width="3"/>
<path d="M172.622 79.0576L167.44 78.6166L165.381 74.2303C165.237 73.9232 164.763 73.9232 164.619 74.2303L162.56 78.6166L157.378 79.0576C157.015 79.0885 156.868 79.5026 157.142 79.7233L161.052 82.8752L159.908 87.5341C159.828 87.8603 160.211 88.1162 160.525 87.9455L165 85.5072L169.475 87.9455C169.789 88.1162 170.173 87.8603 170.092 87.5341L168.948 82.8752L172.858 79.7233C173.132 79.5026 172.985 79.0885 172.622 79.0576Z" stroke="#9DA3B4" stroke-width="2.5"/>
<path d="M174.622 26.0576L169.44 25.6166L167.381 21.2303C167.237 20.9232 166.763 20.9232 166.619 21.2303L164.56 25.6166L159.378 26.0576C159.015 26.0885 158.868 26.5026 159.142 26.7233L163.052 29.8752L161.908 34.5341C161.828 34.8603 162.211 35.1162 162.525 34.9455L167 32.5072L171.475 34.9455C171.789 35.1162 172.173 34.8603 172.092 34.5341L170.948 29.8752L174.858 26.7233C175.132 26.5026 174.985 26.0885 174.622 26.0576Z" stroke="#9DA3B4" stroke-width="2.5"/>
<path fill-rule="evenodd" clip-rule="evenodd" d="M132.333 21H57.6666C56.8669 20.9998 56.0774 21.2036 55.3565 21.5963C54.6356 21.989 54.0018 22.5606 53.502 23.2688L32.1686 53.5193C31.3964 54.6144 30.9835 55.9797 31.0005 57.382C31.0175 58.7842 31.4634 60.1362 32.262 61.2067L90.9287 139.858C91.4293 140.529 92.0529 141.069 92.7561 141.438C93.4592 141.808 94.2249 142 95 142C95.7751 142 96.5408 141.808 97.2439 141.438C97.9471 141.069 98.5707 140.529 99.0713 139.858L157.738 61.2067C158.537 60.1362 158.982 58.7842 158.999 57.382C159.017 55.9797 158.604 54.6144 157.831 53.5193L136.498 23.2688C135.998 22.5606 135.364 21.989 134.643 21.5963C133.923 21.2036 133.133 20.9998 132.333 21ZM154.17 59.2998H118.454L98.3905 134.081L154.17 59.2998ZM95 131.282L75.6879 59.2998H114.312L95 131.282ZM35.8298 59.2998H71.5464L91.6096 134.081L35.8298 59.2998ZM133.23 25.5753L154.192 55.2998H118.018L105.033 25H132.334C132.447 25 132.58 25.0273 132.73 25.1089C132.883 25.1921 133.063 25.3384 133.229 25.5741L133.23 25.5753ZM113.666 55.2998H76.3329L89.3184 25.0002L100.681 25.0003L113.666 55.2998ZM71.981 55.2998H35.8076L56.77 25.5753L56.7709 25.5741C56.9375 25.3384 57.1173 25.1921 57.2701 25.1089C57.4198 25.0273 57.553 25 57.6655 25H84.9666L71.981 55.2998Z" fill="#9DA3B4"/>
</svg>
