<svg width="177" height="155" viewBox="0 0 177 155" fill="none" xmlns="http://www.w3.org/2000/svg">
<path fill-rule="evenodd" clip-rule="evenodd" d="M99.7747 35.3892L109.842 57.5115L135.24 59.7407C138.684 60.043 140.477 64.358 137.552 66.7896L118.467 82.6561L124.044 106.074C124.467 107.852 123.628 109.417 122.406 110.257C121.192 111.092 119.48 111.312 117.955 110.455L105.421 103.412C105.788 108.011 106.895 112.529 108.706 116.789L114.787 131.093C124.451 132.046 132 140.197 132 150.111C132 152.811 129.811 155 127.111 155H63.8889C61.1888 155 59 152.811 59 150.111C59 139.847 67.0911 131.473 77.2429 131.019L83.2928 116.789C85.1039 112.529 86.2108 108.012 86.5777 103.412L74.0438 110.455C72.5188 111.312 70.8072 111.092 69.5933 110.257C68.3709 109.417 67.5321 107.852 67.9556 106.074L73.5326 82.6561L54.4475 66.7897C51.5224 64.358 53.3153 60.043 56.7594 59.7407L82.1573 57.5117L92.2243 35.3892C93.6738 32.2036 98.3252 32.2036 99.7747 35.3892ZM90.7008 101.095C90.5622 107.029 89.2987 112.886 86.9739 118.354L81.5977 131H110.401L105.025 118.354C102.7 112.886 101.436 107.029 101.298 101.095L95.9995 98.1179L90.7008 101.095ZM95.8716 37.0334C95.8707 37.0349 95.8683 37.0387 95.8651 37.0457L84.8315 61.2923L57.1091 63.7254C57.0729 63.7286 57.0493 63.7348 57.0357 63.7396L77.9989 81.1675L71.8565 106.959L71.8595 106.961C71.892 106.984 71.9316 106.997 71.9674 107C71.9943 107.001 72.0304 106.998 72.0843 106.968L95.9995 93.5296L119.915 106.968C119.969 106.998 120.005 107.001 120.032 107C120.068 106.997 120.107 106.984 120.14 106.961L120.143 106.959L114 81.1675L134.963 63.7396C134.95 63.7348 134.926 63.7286 134.89 63.7254L107.168 61.2922L96.1339 37.0458C96.1307 37.0388 96.1283 37.0349 96.1273 37.0334L96.1262 37.032L96.1249 37.0306C96.1239 37.0299 96.1218 37.0283 96.1182 37.0262C96.1016 37.0164 96.0602 36.9999 95.9995 36.9999C95.9387 36.9999 95.8973 37.0164 95.8807 37.0262C95.8771 37.0283 95.875 37.0299 95.8741 37.0306L95.8732 37.0314L95.8716 37.0334ZM112.889 135H78.1111C69.7655 135 63 141.765 63 150.111C63 150.602 63.398 151 63.8889 151H127.111C127.602 151 128 150.602 128 150.111C128 141.765 121.235 135 112.889 135Z" fill="#9DA3B4"/>
<path d="M60.5 40C60.5 38.067 62.067 36.5 64 36.5C65.933 36.5 67.5 38.067 67.5 40C67.5 41.933 65.933 43.5 64 43.5C62.067 43.5 60.5 41.933 60.5 40Z" stroke="#9DA3B4" stroke-width="3"/>
<path d="M37.5 88C37.5 86.067 39.067 84.5 41 84.5C42.933 84.5 44.5 86.067 44.5 88C44.5 89.933 42.933 91.5 41 91.5C39.067 91.5 37.5 89.933 37.5 88Z" stroke="#9DA3B4" stroke-width="3"/>
<path d="M156.5 17C156.5 15.067 158.067 13.5 160 13.5C161.933 13.5 163.5 15.067 163.5 17C163.5 18.933 161.933 20.5 160 20.5C158.067 20.5 156.5 18.933 156.5 17Z" stroke="#9DA3B4" stroke-width="3"/>
<g filter="url(#filter0_d)">
<path d="M45.4337 19.5864L37.66 18.9249L34.5721 12.3455C34.3559 11.8848 33.644 11.8848 33.4278 12.3455L30.34 18.9249L22.5663 19.5864C22.022 19.6328 21.802 20.254 22.2126 20.585L28.0779 25.3128L26.3614 32.3011C26.2413 32.7904 26.8172 33.1743 27.2872 32.9182L34 29.2608L40.7128 32.9182C41.1828 33.1743 41.7588 32.7904 41.6386 32.3011L39.9221 25.3128L45.7874 20.585C46.198 20.254 45.9781 19.6328 45.4337 19.5864Z" stroke="#9DA3B4" stroke-width="3"/>
</g>
<g filter="url(#filter1_d)">
<path d="M154.622 84.0576L149.44 83.6166L147.381 79.2303C147.237 78.9232 146.763 78.9232 146.619 79.2303L144.56 83.6166L139.378 84.0576C139.015 84.0885 138.868 84.5026 139.142 84.7233L143.052 87.8752L141.908 92.5341C141.828 92.8603 142.211 93.1162 142.525 92.9455L147 90.5072L151.475 92.9455C151.789 93.1162 152.173 92.8603 152.092 92.5341L150.948 87.8752L154.858 84.7233C155.132 84.5026 154.985 84.0885 154.622 84.0576Z" stroke="#9DA3B4" stroke-width="2.5"/>
</g>
<g filter="url(#filter2_d)">
<path d="M138.622 36.0576L133.44 35.6166L131.381 31.2303C131.237 30.9232 130.763 30.9232 130.619 31.2303L128.56 35.6166L123.378 36.0576C123.015 36.0885 122.868 36.5026 123.142 36.7233L127.052 39.8752L125.908 44.5341C125.828 44.8603 126.211 45.1162 126.525 44.9455L131 42.5072L135.475 44.9455C135.789 45.1162 136.173 44.8603 136.092 44.5341L134.948 39.8752L138.858 36.7233C139.132 36.5026 138.985 36.0885 138.622 36.0576Z" stroke="#9DA3B4" stroke-width="2.5"/>
</g>
<defs>
<filter id="filter0_d" x="0.5" y="0.5" width="66.9992" height="64.0002" filterUnits="userSpaceOnUse" color-interpolation-filters="sRGB">
<feFlood flood-opacity="0" result="BackgroundImageFix"/>
<feColorMatrix in="SourceAlpha" type="matrix" values="0 0 0 0 0 0 0 0 0 0 0 0 0 0 0 0 0 0 127 0"/>
<feOffset dy="10"/>
<feGaussianBlur stdDeviation="10"/>
<feColorMatrix type="matrix" values="0 0 0 0 0.541176 0 0 0 0 0.447059 0 0 0 0 0.976471 0 0 0 0.2 0"/>
<feBlend mode="normal" in2="BackgroundImageFix" result="effect1_dropShadow"/>
<feBlend mode="normal" in="SourceGraphic" in2="effect1_dropShadow" result="shape"/>
</filter>
<filter id="filter1_d" x="117.75" y="67.75" width="58.4993" height="56.5002" filterUnits="userSpaceOnUse" color-interpolation-filters="sRGB">
<feFlood flood-opacity="0" result="BackgroundImageFix"/>
<feColorMatrix in="SourceAlpha" type="matrix" values="0 0 0 0 0 0 0 0 0 0 0 0 0 0 0 0 0 0 127 0"/>
<feOffset dy="10"/>
<feGaussianBlur stdDeviation="10"/>
<feColorMatrix type="matrix" values="0 0 0 0 0.541176 0 0 0 0 0.447059 0 0 0 0 0.976471 0 0 0 0.2 0"/>
<feBlend mode="normal" in2="BackgroundImageFix" result="effect1_dropShadow"/>
<feBlend mode="normal" in="SourceGraphic" in2="effect1_dropShadow" result="shape"/>
</filter>
<filter id="filter2_d" x="101.75" y="19.75" width="58.4993" height="56.5002" filterUnits="userSpaceOnUse" color-interpolation-filters="sRGB">
<feFlood flood-opacity="0" result="BackgroundImageFix"/>
<feColorMatrix in="SourceAlpha" type="matrix" values="0 0 0 0 0 0 0 0 0 0 0 0 0 0 0 0 0 0 127 0"/>
<feOffset dy="10"/>
<feGaussianBlur stdDeviation="10"/>
<feColorMatrix type="matrix" values="0 0 0 0 0.541176 0 0 0 0 0.447059 0 0 0 0 0.976471 0 0 0 0.2 0"/>
<feBlend mode="normal" in2="BackgroundImageFix" result="effect1_dropShadow"/>
<feBlend mode="normal" in="SourceGraphic" in2="effect1_dropShadow" result="shape"/>
</filter>
</defs>
</svg>
