<svg width="94" height="25" viewBox="0 0 94 25" fill="none" xmlns="http://www.w3.org/2000/svg">
<path fill-rule="evenodd" clip-rule="evenodd" d="M19.8352 4.01949C20.9811 4.01949 22.0482 3.12064 22.2245 2.01436C22.4008 0.903478 21.6168 0.00462714 20.4708 1.76499e-05C19.3295 -0.00459184 18.2578 0.894259 18.0815 2.00515C17.9052 3.11603 18.6892 4.01488 19.8352 4.01949Z" fill="white"/>
<path fill-rule="evenodd" clip-rule="evenodd" d="M74.5675 11.4132C74.9387 9.62476 76.4001 8.10823 78.0379 8.10823C78.9611 8.10823 79.6246 8.78583 79.3833 9.5464L74.3263 13.0035C74.3959 12.1047 74.5675 11.4132 74.5675 11.4132ZM51.0592 15.6217L51.8618 11.086C52.219 10.012 53.481 8.5784 54.7986 8.49543C55.3043 8.46316 55.9121 8.4816 56.4827 8.93794C56.9745 9.49108 57.2251 10.3208 57.2251 11.3395C57.2251 14.5661 55.643 16.8156 53.4067 16.8156C52.2886 16.8156 51.4118 16.244 51.0592 15.6217ZM93.7844 5.15816C91.8775 5.05675 89.3907 7.37532 89.3907 7.37532L88.5974 5.39785H86.4307L85.3868 11.298C85.3173 11.7036 85.0946 12.0678 84.7698 12.3213L81.8979 14.5707C81.8979 14.5707 80.7195 15.4604 79.0957 16.5067C78.358 16.8709 77.7456 17.0322 77.1332 17.0322C75.8063 17.0322 74.9897 16.5252 74.6 15.654C74.5397 15.4972 74.4887 15.3313 74.4469 15.1561L81.8191 10.2056C82.8769 9.46803 82.8722 8.44934 82.7191 7.94229C82.2459 6.36585 80.8123 5.1766 78.4462 5.1766C74.0247 5.1766 70.9905 8.92411 70.9905 14.2389C70.9905 14.5984 71.0137 14.9487 71.0601 15.2898L68.9676 16.751C68.5547 16.9999 67.9748 17.2212 67.6083 17.2212C66.9773 17.2212 66.7082 16.7372 66.8984 15.6816L69.6404 0.474917L66.1979 0.465698L64.8292 8.03448C64.7689 8.35715 64.6204 8.65215 64.3931 8.89185L60.6305 12.833C60.7232 12.1784 60.7743 11.4916 60.7743 10.7679C60.7743 7.56431 59.2804 5.19504 56.7704 5.19504C54.3486 5.19504 52.5392 7.23243 52.5392 7.23243L51.5881 5.41168H49.4446L48.2662 12.0816C48.2151 12.372 48.0852 12.644 47.895 12.8698L45.7098 15.4373C45.102 16.078 44.4618 16.8893 44.1463 16.9124C43.571 17.0092 43.3251 16.7971 43.5153 15.7369L44.3875 10.9062C45.0695 7.08032 43.8958 5.15355 40.5971 5.15355C38.6253 5.15355 36.3102 7.35228 36.3102 7.35228C35.8184 5.91412 34.6167 5.15355 32.7888 5.15355C30.7938 5.15355 28.6225 7.46751 28.6225 7.46751L27.7271 5.39785H25.5558L24.4423 11.7129C24.3913 12.0033 24.2614 12.2798 24.0665 12.5057L21.5705 15.4373C20.9627 16.078 20.3224 16.8893 20.0069 16.9124C19.4316 17.0092 19.1858 16.7971 19.376 15.7369L21.2643 5.40707H17.8264L17.265 8.44934C17.1908 8.85036 17.0145 9.21912 16.7454 9.52796L11.7208 15.3036C10.4124 16.6911 8.78398 16.8893 8.44994 16.917H4.89608L12.9874 7.82705L13.4003 5.36559H3.0078L2.51137 8.13128H8.55201L0.753 17.2166L0.363281 19.7979C0.363281 19.7979 7.66586 19.8256 7.79113 19.7979C9.92994 19.7979 11.8368 17.9126 12.6116 17.1474L16.5088 12.5794L15.7989 16.4191C15.3628 18.9129 16.3185 20.0883 18.3924 20.0514C19.6683 20.0284 20.5358 19.1848 21.4127 18.3136L23.7557 15.5848L22.9762 19.9869H26.4187L27.9219 11.3625C28.1214 10.2931 29.4901 8.4816 30.9376 8.4816C32.4687 8.4816 33.1971 9.22373 32.8445 11.2565L31.2995 19.9869H34.7142L36.3705 10.7034C36.4679 10.0949 37.5814 8.35715 39.1217 8.35715C40.7316 8.35715 41.2512 9.22373 40.894 11.2565L39.9383 16.4191C39.5021 18.9129 40.4579 20.0883 42.5317 20.0514C43.8076 20.0284 44.6752 19.1848 45.5474 18.3136L47.5842 15.949L46.865 19.9961L46.0392 24.6794H49.4771L50.5952 18.3044C51.0684 18.9037 51.7365 19.3877 52.5716 19.6504C52.7572 19.7057 52.9521 19.7518 53.1562 19.7887C55.3832 19.8993 57.3689 18.8253 59.1319 16.9999L59.1412 16.9907L64.1379 11.8465L63.3214 16.35C62.8806 18.8437 63.8317 19.9823 65.9056 19.9869C67.251 19.9915 68.513 19.3277 69.8352 18.4473L71.589 17.1981C71.6214 17.2627 71.6539 17.3318 71.6864 17.3964C72.4751 18.9267 73.9366 19.9362 76.0986 19.9592C76.1032 19.9592 76.1078 19.9592 76.1078 19.9592C78.3812 19.9592 80.6035 17.8296 81.884 16.9354C82.2134 16.7049 83.4615 15.7093 84.7976 14.6307L83.8512 19.9869H87.289L88.7922 11.3625C88.9917 10.2931 90.365 8.4816 91.8126 8.4816C92.3647 8.4816 92.8147 8.5784 93.1441 8.80427L93.7844 5.15816Z" fill="white"/>
</svg>
